<svg width="20" height="13" viewBox="0 0 20 13" fill="none" xmlns="http://www.w3.org/2000/svg">
<path d="M11.185 11.9938L19.5115 3.4365C19.6667 3.27693 19.7899 3.08749 19.8739 2.879C19.958 2.67051 20.0012 2.44704 20.0012 2.22137C20.0012 1.76561 19.8251 1.32852 19.5115 1.00624C19.3562 0.846671 19.1719 0.72009 18.969 0.63373C18.7661 0.54737 18.5487 0.502922 18.3291 0.502922C17.8856 0.502922 17.4603 0.683972 17.1468 1.00624L10.0026 8.36548L2.85853 1.00624C2.70372 0.845833 2.51954 0.718511 2.3166 0.631623C2.11367 0.544735 1.89601 0.5 1.67617 0.5C1.45633 0.5 1.23867 0.544735 1.03574 0.631623C0.832806 0.718511 0.648624 0.845833 0.493813 1.00624C0.337727 1.16535 0.213837 1.35463 0.129292 1.56319C0.0447464 1.77175 0.0012207 1.99544 0.0012207 2.22137C0.0012207 2.44731 0.0447464 2.671 0.129292 2.87956C0.213837 3.08811 0.337727 3.2774 0.493813 3.4365L8.82028 11.9938C8.97509 12.1542 9.15928 12.2815 9.36221 12.3684C9.56514 12.4553 9.7828 12.5 10.0026 12.5C10.2225 12.5 10.4401 12.4553 10.6431 12.3684C10.846 12.2815 11.0302 12.1542 11.185 11.9938Z" fill="url(#paint0_linear_194_1471)"/>
<defs>
<linearGradient id="paint0_linear_194_1471" x1="10.0012" y1="0.5" x2="10.0012" y2="12.5" gradientUnits="userSpaceOnUse">
<stop stop-color="#FFDC57"/>
<stop offset="1" stop-color="#DB408E"/>
</linearGradient>
</defs>
</svg>
