<svg width="60" height="60" viewBox="0 0 60 60" fill="none" xmlns="http://www.w3.org/2000/svg">
<path d="M29.3712 28.5H23.1612V18.57H30.5712C34.3512 18.57 36.4512 20.25 36.4512 23.34C36.4512 26.7 33.9612 28.5 29.3712 28.5ZM30.4812 31.89H23.1612V42.81H30.8412C35.5212 42.81 37.9812 40.92 37.9812 37.32C37.9812 33.72 35.4312 31.89 30.4812 31.89ZM60.0012 9.93V50.07C60.0012 55.5 55.5012 60 50.0712 60H9.93122C4.50122 60 0.0012207 55.5 0.0012207 50.07V9.93C0.0012207 4.5 4.50122 0 9.93122 0H50.0712C55.5012 0 60.0012 4.5 60.0012 9.93ZM42.0012 37.5C42.0012 33.36 39.2412 30.39 35.0112 29.85V29.67C38.0112 29.13 40.3812 26.13 40.3812 22.89C40.3812 18.24 36.7812 15.15 31.5012 15.15H19.2912V46.23H31.4112C38.0412 46.23 42.0012 42.96 42.0012 37.5Z" fill="url(#paint0_linear_160_377)"/>
<defs>
<linearGradient id="paint0_linear_160_377" x1="30.0012" y1="0" x2="30.0012" y2="60" gradientUnits="userSpaceOnUse">
<stop stop-color="#FFDC57"/>
<stop offset="1" stop-color="#DB408E"/>
</linearGradient>
</defs>
</svg>
