<svg width="336" height="311" viewBox="0 0 336 311" fill="none" xmlns="http://www.w3.org/2000/svg">
<path d="M157.705 103.508L224.62 70L157.723 109.496C156.201 110.326 154.961 109.659 154.957 108.007C154.951 106.354 156.183 104.338 157.705 103.508Z" fill="#5B4B97"/>
<path d="M177.902 100.421L208.932 84.8824L177.91 103.197C177.204 103.582 176.63 103.273 176.627 102.507C176.625 101.74 177.197 100.805 177.902 100.421Z" fill="#5B4B97"/>
<path d="M167.962 92.7453L206.703 73.3457L167.973 96.2113C167.092 96.6921 166.374 96.3059 166.371 95.3492C166.369 94.3926 167.082 93.2261 167.962 92.7453Z" fill="#5B4B97"/>
<g opacity="0.6">
<path d="M157.705 103.508L224.62 70L157.723 109.496C156.201 110.326 154.961 109.659 154.957 108.007C154.951 106.354 156.183 104.338 157.705 103.508Z" fill="url(#paint0_linear_115_20846)"/>
<path d="M177.902 100.421L208.932 84.8824L177.91 103.197C177.204 103.582 176.63 103.273 176.627 102.507C176.625 101.74 177.197 100.805 177.902 100.421Z" fill="url(#paint1_linear_115_20846)"/>
<path d="M167.962 92.7453L206.703 73.3457L167.973 96.2113C167.092 96.6921 166.374 96.3059 166.371 95.3492C166.369 94.3926 167.082 93.2261 167.962 92.7453Z" fill="url(#paint2_linear_115_20846)"/>
</g>
<path d="M256.882 164.056L245.213 158.067V145.673L256.882 151.828V164.056Z" fill="#5B4B97"/>
<path d="M161.915 215.759L150.525 210.019V194.877L161.915 201.091V215.759Z" fill="#5B4B97"/>
<g opacity="0.7">
<path d="M256.882 164.056L245.213 158.067V145.673L256.882 151.828V164.056Z" fill="black"/>
<path d="M161.915 215.759L150.525 210.019V194.877L161.915 201.091V215.759Z" fill="black"/>
</g>
<path d="M137.28 223.539C137.259 216.412 142.563 207.728 149.129 204.145C152.409 202.355 155.385 202.179 157.543 203.34L146.792 197.582C144.608 196.143 141.449 196.21 137.94 198.125C131.374 201.707 126.069 210.392 126.091 217.518C126.102 221.107 127.46 223.616 129.644 224.768L129.643 224.769L140.077 230.31C138.341 229.013 137.289 226.693 137.28 223.539Z" fill="#231C3C"/>
<path d="M157.548 203.343C157.546 203.341 157.543 203.34 157.543 203.34C155.385 202.179 152.409 202.355 149.129 204.145C142.563 207.728 137.259 216.412 137.28 223.539C137.29 226.693 138.341 229.012 140.077 230.31C142.266 231.947 145.545 231.959 149.207 229.962C155.77 226.38 161.077 217.698 161.056 210.568C161.045 207.006 159.706 204.506 157.548 203.343Z" fill="#5B4B97"/>
<path d="M149.14 208.003C153.742 205.492 157.488 207.509 157.503 212.506C157.518 217.505 153.796 223.593 149.194 226.104C144.59 228.616 140.847 226.6 140.832 221.601C140.818 216.604 144.536 210.515 149.14 208.003Z" fill="#455A64"/>
<path d="M154.621 206.437C155.571 207.459 156.131 209.003 156.137 210.989C156.152 216.338 152.172 222.85 147.249 225.536C145.182 226.664 143.282 226.929 141.766 226.472C143.372 228.198 146.102 228.424 149.197 226.736C154.119 224.05 158.1 217.538 158.085 212.189C158.075 209.087 156.717 207.068 154.621 206.437Z" fill="#231C3C"/>
<path d="M147.249 225.536C152.172 222.85 156.152 216.338 156.137 210.989C156.131 209.003 155.571 207.459 154.621 206.437C153.105 205.981 151.205 206.244 149.139 207.371C144.213 210.058 140.235 216.572 140.251 221.918C140.257 223.906 140.816 225.451 141.766 226.472C143.282 226.929 145.182 226.664 147.249 225.536Z" fill="#403568"/>
<path d="M145.729 219.405C145.722 217.019 147.498 214.11 149.697 212.911C150.796 212.312 151.791 212.252 152.514 212.642L150.51 211.572C149.779 211.09 148.721 211.112 147.546 211.753C145.347 212.953 143.571 215.861 143.579 218.248C143.583 219.45 144.037 220.29 144.768 220.675L146.666 221.672C146.084 221.238 145.733 220.461 145.729 219.405Z" fill="#231C3C"/>
<path d="M152.516 212.642L152.514 212.642C151.791 212.252 150.796 212.312 149.697 212.911C147.498 214.11 145.722 217.019 145.729 219.405C145.733 220.461 146.084 221.238 146.666 221.672C147.399 222.221 148.498 222.224 149.724 221.556C151.922 220.357 153.699 217.45 153.691 215.062C153.687 213.869 153.239 213.031 152.516 212.642Z" fill="#403568"/>
<path d="M232.441 171.798C232.42 164.671 237.724 155.987 244.29 152.404C247.57 150.615 250.546 150.438 252.705 151.599L241.953 145.842C239.769 144.403 236.61 144.469 233.101 146.384C226.535 149.967 221.231 158.651 221.252 165.778C221.263 169.367 222.622 171.876 224.805 173.028L224.804 173.029L235.238 178.57C233.502 177.271 232.45 174.952 232.441 171.798Z" fill="#231C3C"/>
<path d="M252.709 151.601C252.707 151.6 252.706 151.599 252.705 151.599C250.546 150.438 247.57 150.615 244.29 152.404C237.724 155.987 232.42 164.671 232.441 171.798C232.45 174.952 233.502 177.271 235.238 178.57C237.427 180.207 240.706 180.218 244.368 178.22C250.931 174.64 256.238 165.957 256.217 158.826C256.206 155.264 254.867 152.764 252.709 151.601Z" fill="#5B4B97"/>
<path d="M250.225 168.557C253.486 163.255 253.495 157.51 250.245 155.726C246.995 153.941 241.717 156.792 238.457 162.093C235.196 167.395 235.187 173.14 238.437 174.925C241.687 176.709 246.964 173.858 250.225 168.557Z" fill="#455A64"/>
<path d="M249.782 154.696C250.733 155.717 251.292 157.262 251.298 159.248C251.314 164.597 247.333 171.109 242.411 173.795C240.344 174.922 238.444 175.188 236.928 174.731C238.534 176.457 241.264 176.683 244.359 174.995C249.281 172.309 253.262 165.797 253.247 160.448C253.236 157.346 251.878 155.328 249.782 154.696Z" fill="#231C3C"/>
<path d="M242.41 173.794C247.333 171.108 251.314 164.596 251.297 159.247C251.291 157.261 250.732 155.717 249.781 154.695C248.265 154.239 246.365 154.503 244.299 155.63C239.374 158.317 235.396 164.831 235.411 170.177C235.417 172.165 235.976 173.709 236.927 174.73C238.443 175.187 240.342 174.922 242.41 173.794Z" fill="#403568"/>
<path d="M240.89 167.664C240.884 165.277 242.659 162.369 244.859 161.169C245.957 160.57 246.953 160.51 247.676 160.9L245.672 159.83C244.941 159.348 243.883 159.37 242.708 160.011C240.509 161.211 238.733 164.119 238.741 166.505C238.744 167.707 239.199 168.547 239.93 168.933L241.827 169.93C241.246 169.497 240.894 168.72 240.89 167.664Z" fill="#231C3C"/>
<path d="M247.677 160.901L247.676 160.9C246.953 160.51 245.957 160.57 244.859 161.169C242.659 162.369 240.884 165.277 240.89 167.664C240.893 168.72 241.246 169.497 241.827 169.932C242.56 170.48 243.657 170.484 244.884 169.815C247.082 168.616 248.859 165.709 248.852 163.321C248.849 162.128 248.4 161.291 247.677 160.901Z" fill="#403568"/>
<path d="M103.144 220.732L29.5505 180.486V194.243L103.196 234.512L103.144 220.732Z" fill="#5B4B97"/>
<path d="M29.5505 180.486L82.1385 140.391L166.306 186.269L103.144 220.732L29.5505 180.486Z" fill="#5B4B97"/>
<path opacity="0.15" d="M29.5505 180.486L82.1385 140.391L166.306 186.269L103.144 220.732L29.5505 180.486Z" fill="black"/>
<path d="M103.195 234.512L97.6445 237.56L85.6398 231.011L85.1731 226.885L67.5509 217.271L43.5422 204.08L36.0039 203.838L23.9999 197.289L29.5503 194.241L69.5659 216.165L103.195 234.512Z" fill="#5B4B97"/>
<path d="M23.9999 197.289L23.9999 199.573L36.0039 206.122L36.0039 203.838L23.9999 197.289Z" fill="#5B4B97"/>
<path d="M43.5422 204.08L43.5422 206.364L36.0039 206.122L36.0039 203.838L43.5422 204.08Z" fill="#5B4B97"/>
<path d="M85.1731 226.885L85.1732 229.169L43.5422 206.364L43.5422 204.08L85.1731 226.885Z" fill="#5B4B97"/>
<path d="M85.6398 231.011L85.6398 233.295L85.1732 229.169L85.1731 226.885L85.6398 231.011Z" fill="#5B4B97"/>
<path d="M97.6445 237.56L97.6445 239.844L85.6398 233.295L85.6398 231.011L97.6445 237.56Z" fill="#5B4B97"/>
<path d="M103.195 234.512L103.217 236.789L97.6445 239.844L97.6445 237.56L103.195 234.512Z" fill="#5B4B97"/>
<path opacity="0.15" d="M103.195 234.512L97.6446 237.56L85.6399 231.011L85.1732 226.885L67.551 217.271L43.5423 204.08L36.004 203.838L24 197.289L29.5504 194.241L69.566 216.165L103.195 234.512Z" fill="black"/>
<path opacity="0.4" d="M43.5423 204.08V206.364L36.004 206.122V203.839L43.5423 204.08Z" fill="black"/>
<path opacity="0.4" d="M85.6399 231.011V233.295L85.1732 229.169V226.885L85.6399 231.011Z" fill="black"/>
<path opacity="0.4" d="M103.195 234.512L103.217 236.789L97.6445 239.844V237.56L103.195 234.512Z" fill="black"/>
<path d="M100.539 224.967L26.9468 184.72V190.477L100.592 230.746L100.539 224.967Z" fill="#403568"/>
<path d="M100.54 224.967L103.196 223.55V229.325L100.54 230.741V224.967Z" fill="#231C3C"/>
<path d="M103.196 223.55L29.6068 183.324L26.9468 184.721L100.539 224.967L103.196 223.55Z" fill="#4D3F7F"/>
<path opacity="0.2" d="M103.196 223.55L29.6068 183.324L26.9468 184.721L100.539 224.967L103.196 223.55Z" fill="#504284"/>
<path d="M166.305 186.269L270.373 129.517L200.163 91.7552L134.61 103.756L129.35 112.365L82.1382 140.391L166.305 186.269Z" fill="#5B4B97"/>
<path opacity="0.3" d="M166.305 186.269L270.373 129.517L200.163 91.7552L134.61 103.756L129.35 112.365L82.1382 140.391L166.305 186.269Z" fill="black"/>
<path d="M87.3989 140.633L166.306 183.678L172.839 149.652L120.477 121.085L87.3989 140.633Z" fill="url(#paint3_linear_115_20846)"/>
<path d="M166.02 101.463L212.835 127.331H234.473L181.722 98.5586L166.02 101.463Z" fill="url(#paint4_linear_115_20846)"/>
<path d="M131.953 110.945L145.521 103.599L135.925 105.072L131.953 110.945Z" fill="#231C3C"/>
<path d="M205.175 133.173L220.957 151.828L224.756 149.71L216.377 137.882L205.175 133.173Z" fill="#231C3C"/>
<path d="M103.144 220.732L103.217 236.806L136.668 229.534L136.651 224.069C136.628 216.497 142.261 207.279 149.234 203.474C156.205 199.671 161.876 202.723 161.899 210.295L161.915 215.76L166.37 213.331L166.306 186.269L103.144 220.732Z" fill="#5B4B97"/>
<path d="M166.306 186.269L166.37 213.331V213.354L212.627 188.176L212.518 161.055L166.306 186.269Z" fill="#5B4B97"/>
<path d="M270.373 129.517L212.518 161.055L212.627 188.176L231.634 177.83L231.617 172.365C231.595 164.794 237.227 155.575 244.2 151.771C251.171 147.968 256.842 151.02 256.865 158.591L256.881 164.056L261.337 161.627L270.585 146.595L270.373 129.517Z" fill="#5B4B97"/>
<path opacity="0.4" d="M103.144 220.732L103.217 236.806L136.668 229.534L136.651 224.069C136.628 216.497 142.261 207.279 149.234 203.474C156.205 199.671 161.876 202.723 161.899 210.295L161.915 215.76L166.37 213.331L166.306 186.269L103.144 220.732Z" fill="black"/>
<path opacity="0.4" d="M166.306 186.269L166.37 213.331L212.627 188.176L212.518 161.055L166.306 186.269Z" fill="black"/>
<path opacity="0.4" d="M270.373 129.517L212.518 161.055L212.627 188.176L231.634 177.83L231.617 172.365C231.595 164.794 237.227 155.575 244.2 151.771C251.171 147.968 256.842 151.02 256.865 158.591L256.881 164.056L261.337 161.627L270.585 146.595L270.373 129.517Z" fill="black"/>
<path d="M176.827 151.567L201.132 138.489L212.335 158.238L171.469 180.791L176.827 151.567Z" fill="url(#paint5_linear_115_20846)"/>
<path d="M216.377 137.882L257.098 129.517L261.092 131.727L224.755 149.71L216.377 137.882Z" fill="#5B4B97"/>
<path opacity="0.15" d="M216.377 137.882L257.098 129.517L261.092 131.727L224.755 149.71L216.377 137.882Z" fill="black"/>
<path d="M257.098 129.517L205.175 133.173L216.377 137.882L257.098 129.517Z" fill="#5B4B97"/>
<path opacity="0.1" d="M257.098 129.517L205.175 133.173L216.377 137.882L257.098 129.517Z" fill="black"/>
<path d="M124.465 118.889L176.827 147.456L209.706 129.58L157.125 100.899L124.465 118.889Z" fill="#5B4B97"/>
<path opacity="0.15" d="M124.465 118.889L176.827 147.456L209.706 129.58L157.125 100.899L124.465 118.889Z" fill="black"/>
<path opacity="0.2" d="M129.902 177.437L92.6129 157.555L63.193 175.917L92.6129 159.708L128.167 178.375L129.902 177.437Z" fill="black"/>
<g filter="url(#filter0_d_115_20846)">
<path d="M36.9854 178.993V173.241L47.5065 178.969V184.72L36.9854 178.993Z" fill="url(#paint6_linear_115_20846)"/>
</g>
<path d="M36.9854 173.241L50.5745 169.189L61.0957 174.929L47.5065 178.981L36.9854 173.241Z" fill="#5B4B97"/>
<path opacity="0.1" d="M36.9854 173.241L50.5745 169.189L61.0957 174.929L47.5065 178.981L36.9854 173.241Z" fill="black"/>
<path d="M47.5066 178.981L61.0958 174.929L47.5066 184.721V178.981Z" fill="#5B4B97"/>
<path opacity="0.15" d="M47.5066 178.981L61.0958 174.929L47.5066 184.721V178.981Z" fill="black"/>
<path opacity="0.15" d="M47.5066 178.981L61.0958 174.929L47.5066 184.721V178.981Z" fill="black"/>
<g filter="url(#filter1_d_115_20846)">
<path d="M92.6588 209.165V203.414L103.18 209.142V214.894L92.6588 209.165Z" fill="url(#paint7_linear_115_20846)"/>
</g>
<path d="M92.6588 203.414L106.249 199.362L116.77 205.102L103.18 209.154L92.6588 203.414Z" fill="#5B4B97"/>
<path opacity="0.1" d="M92.6588 203.414L106.249 199.362L116.77 205.102L103.18 209.154L92.6588 203.414Z" fill="black"/>
<path d="M103.18 209.154L116.77 205.102L103.18 214.893V209.154Z" fill="#5B4B97"/>
<path opacity="0.15" d="M103.18 209.154L116.77 205.102L103.18 214.893V209.154Z" fill="black"/>
<path opacity="0.15" d="M103.18 209.154L116.77 205.102L103.18 214.893V209.154Z" fill="black"/>
<g filter="url(#filter2_d_115_20846)">
<path d="M29.5505 190.536V187.659L40.3103 193.482V196.357L29.5505 190.536Z" fill="url(#paint8_linear_115_20846)"/>
</g>
<g filter="url(#filter3_d_115_20846)">
<path d="M86.2625 221.617V218.741L97.0223 224.563V227.439L86.2625 221.617Z" fill="url(#paint9_linear_115_20846)"/>
</g>
<path d="M215.501 183.823V172.231L212.627 175.636V181.804L215.501 183.823Z" fill="#231C3C"/>
<path opacity="0.2" d="M212.627 175.636L182.087 194.877L215.501 172.231L212.627 175.636Z" fill="black"/>
<path opacity="0.2" d="M212.627 181.804L182.087 200.546L215.501 183.823L212.627 181.804Z" fill="black"/>
<path d="M273.676 127.689L270.373 129.517L270.586 146.595L273.676 144.908V127.689Z" fill="#231C3C"/>
<path d="M200.163 91.7553L270.373 129.517L273.675 127.689L203.465 89.9266L200.163 91.7553Z" fill="#403568"/>
<path opacity="0.2" d="M200.163 91.7553L270.373 129.517L273.675 127.689L203.465 89.9266L200.163 91.7553Z" fill="white"/>
<path opacity="0.2" d="M197.737 95.6132L185.412 97.8551L189.881 100.049L197.737 95.6132Z" fill="black"/>
<path d="M207.075 93.7157V99.4556L208.39 100.173V94.4327L207.075 93.7157Z" fill="#5B4B97"/>
<path d="M212.335 92.2761V98.016L208.39 100.173V94.4327L212.335 92.2761Z" fill="#231C3C"/>
<path d="M249.159 116.683V122.423L250.474 123.14V117.401L249.159 116.683Z" fill="#5B4B97"/>
<path d="M254.419 115.243V120.983L250.474 123.14V117.4L254.419 115.243Z" fill="#231C3C"/>
<path d="M196.362 89.1934L206.882 83.4535L275.654 121.026L265.132 126.766L196.362 89.1934Z" fill="#5B4B97"/>
<path opacity="0.24" d="M196.362 89.1934L206.882 83.4535L275.654 121.026L265.132 126.766L196.362 89.1934Z" fill="white"/>
<path d="M196.362 89.1934V90.7368L265.133 128.309V126.766L196.362 89.1934Z" fill="#5B4B97"/>
<path d="M275.654 121.026L265.132 126.766V128.309L275.654 122.568V121.026Z" fill="#5B4B97"/>
<path opacity="0.1" d="M275.654 121.026L265.132 126.766V128.309L275.654 122.568V121.026Z" fill="white"/>
<path opacity="0.2" d="M210.691 86.8185L203.434 90.7517L200.925 89.3712L210.691 86.8185Z" fill="#5B4B97"/>
<path d="M241.592 152.594L308.508 119.086L241.611 158.582C240.089 159.412 238.85 158.745 238.844 157.092C238.839 155.439 240.07 153.424 241.592 152.594Z" fill="url(#paint10_linear_115_20846)"/>
<path d="M261.79 149.506L292.82 133.968L261.798 152.283C261.092 152.668 260.518 152.358 260.515 151.592C260.513 150.825 261.084 149.891 261.79 149.506Z" fill="url(#paint11_linear_115_20846)"/>
<path d="M251.85 141.831L290.591 122.431L251.861 145.297C250.979 145.778 250.262 145.391 250.259 144.435C250.256 143.478 250.969 142.311 251.85 141.831Z" fill="url(#paint12_linear_115_20846)"/>
<g opacity="0.3">
<path d="M241.592 152.594L308.508 119.086L241.611 158.582C240.089 159.412 238.85 158.745 238.844 157.092C238.839 155.439 240.07 153.424 241.592 152.594Z" fill="white"/>
<path d="M261.79 149.506L292.82 133.968L261.798 152.283C261.092 152.668 260.518 152.358 260.515 151.592C260.513 150.825 261.084 149.891 261.79 149.506Z" fill="white"/>
<path d="M251.85 141.831L290.591 122.431L251.861 145.297C250.979 145.778 250.262 145.391 250.259 144.435C250.256 143.478 250.969 142.311 251.85 141.831Z" fill="white"/>
</g>
<g opacity="0.3">
<path d="M241.592 152.594L308.508 119.086L241.611 158.582C240.089 159.412 238.85 158.745 238.844 157.092C238.839 155.439 240.07 153.424 241.592 152.594Z" fill="white"/>
<path d="M261.79 149.506L292.82 133.968L261.798 152.283C261.092 152.668 260.518 152.358 260.515 151.592C260.513 150.825 261.084 149.891 261.79 149.506Z" fill="white"/>
<path d="M251.85 141.831L290.591 122.431L251.861 145.297C250.979 145.778 250.262 145.391 250.259 144.435C250.256 143.478 250.969 142.311 251.85 141.831Z" fill="white"/>
</g>
<path d="M225.672 107.488L163.564 144.585L158.101 141.604L225.672 107.488Z" fill="url(#paint13_linear_115_20846)"/>
<path d="M184.863 124.72L157.349 141.154L154.929 139.834L184.863 124.72Z" fill="url(#paint14_linear_115_20846)"/>
<path d="M193.247 115.509L153.662 139.154L150.18 137.254L193.247 115.509Z" fill="url(#paint15_linear_115_20846)"/>
<path d="M166.434 111.809L136.382 129.759L133.738 128.317L166.434 111.809Z" fill="url(#paint16_linear_115_20846)"/>
<path d="M180.107 99.2904L132.576 127.68L128.395 125.399L180.107 99.2904Z" fill="url(#paint17_linear_115_20846)"/>
<path d="M167.148 101.292L127.562 124.936L124.08 123.036L167.148 101.292Z" fill="url(#paint18_linear_115_20846)"/>
<g opacity="0.3">
<path d="M225.672 107.488L163.564 144.585L158.101 141.604L225.672 107.488Z" fill="white"/>
<path d="M184.863 124.72L157.349 141.154L154.929 139.834L184.863 124.72Z" fill="white"/>
<path d="M193.247 115.509L153.662 139.154L150.18 137.254L193.247 115.509Z" fill="white"/>
</g>
<g opacity="0.3">
<path d="M166.434 111.809L136.382 129.759L133.738 128.317L166.434 111.809Z" fill="white"/>
<path d="M180.107 99.2904L132.576 127.68L128.395 125.399L180.107 99.2904Z" fill="white"/>
<path d="M167.148 101.292L127.562 124.936L124.08 123.036L167.148 101.292Z" fill="white"/>
</g>
<defs>
<filter id="filter0_d_115_20846" x="26.9854" y="163.241" width="30.5212" height="31.4797" filterUnits="userSpaceOnUse" color-interpolation-filters="sRGB">
<feFlood flood-opacity="0" result="BackgroundImageFix"/>
<feColorMatrix in="SourceAlpha" type="matrix" values="0 0 0 0 0 0 0 0 0 0 0 0 0 0 0 0 0 0 127 0" result="hardAlpha"/>
<feOffset/>
<feGaussianBlur stdDeviation="5"/>
<feComposite in2="hardAlpha" operator="out"/>
<feColorMatrix type="matrix" values="0 0 0 0 0.929412 0 0 0 0 0.556863 0 0 0 0 0.45098 0 0 0 1 0"/>
<feBlend mode="normal" in2="BackgroundImageFix" result="effect1_dropShadow_115_20846"/>
<feBlend mode="normal" in="SourceGraphic" in2="effect1_dropShadow_115_20846" result="shape"/>
</filter>
<filter id="filter1_d_115_20846" x="82.6588" y="193.414" width="30.5212" height="31.4797" filterUnits="userSpaceOnUse" color-interpolation-filters="sRGB">
<feFlood flood-opacity="0" result="BackgroundImageFix"/>
<feColorMatrix in="SourceAlpha" type="matrix" values="0 0 0 0 0 0 0 0 0 0 0 0 0 0 0 0 0 0 127 0" result="hardAlpha"/>
<feOffset/>
<feGaussianBlur stdDeviation="5"/>
<feComposite in2="hardAlpha" operator="out"/>
<feColorMatrix type="matrix" values="0 0 0 0 0.929412 0 0 0 0 0.556863 0 0 0 0 0.45098 0 0 0 1 0"/>
<feBlend mode="normal" in2="BackgroundImageFix" result="effect1_dropShadow_115_20846"/>
<feBlend mode="normal" in="SourceGraphic" in2="effect1_dropShadow_115_20846" result="shape"/>
</filter>
<filter id="filter2_d_115_20846" x="19.5505" y="177.659" width="30.7598" height="28.698" filterUnits="userSpaceOnUse" color-interpolation-filters="sRGB">
<feFlood flood-opacity="0" result="BackgroundImageFix"/>
<feColorMatrix in="SourceAlpha" type="matrix" values="0 0 0 0 0 0 0 0 0 0 0 0 0 0 0 0 0 0 127 0" result="hardAlpha"/>
<feOffset/>
<feGaussianBlur stdDeviation="5"/>
<feComposite in2="hardAlpha" operator="out"/>
<feColorMatrix type="matrix" values="0 0 0 0 0.929412 0 0 0 0 0.556863 0 0 0 0 0.45098 0 0 0 1 0"/>
<feBlend mode="normal" in2="BackgroundImageFix" result="effect1_dropShadow_115_20846"/>
<feBlend mode="normal" in="SourceGraphic" in2="effect1_dropShadow_115_20846" result="shape"/>
</filter>
<filter id="filter3_d_115_20846" x="76.2625" y="208.741" width="30.7598" height="28.6973" filterUnits="userSpaceOnUse" color-interpolation-filters="sRGB">
<feFlood flood-opacity="0" result="BackgroundImageFix"/>
<feColorMatrix in="SourceAlpha" type="matrix" values="0 0 0 0 0 0 0 0 0 0 0 0 0 0 0 0 0 0 127 0" result="hardAlpha"/>
<feOffset/>
<feGaussianBlur stdDeviation="5"/>
<feComposite in2="hardAlpha" operator="out"/>
<feColorMatrix type="matrix" values="0 0 0 0 0.929412 0 0 0 0 0.556863 0 0 0 0 0.45098 0 0 0 1 0"/>
<feBlend mode="normal" in2="BackgroundImageFix" result="effect1_dropShadow_115_20846"/>
<feBlend mode="normal" in="SourceGraphic" in2="effect1_dropShadow_115_20846" result="shape"/>
</filter>
<linearGradient id="paint0_linear_115_20846" x1="222.686" y1="70.8451" x2="171.513" y2="101.369" gradientUnits="userSpaceOnUse">
<stop stop-color="#FFDC57"/>
<stop offset="1" stop-color="#DB408E"/>
</linearGradient>
<linearGradient id="paint1_linear_115_20846" x1="208.035" y1="85.2743" x2="184.305" y2="99.4287" gradientUnits="userSpaceOnUse">
<stop stop-color="#FFDC57"/>
<stop offset="1" stop-color="#DB408E"/>
</linearGradient>
<linearGradient id="paint2_linear_115_20846" x1="205.583" y1="73.8349" x2="175.957" y2="91.5067" gradientUnits="userSpaceOnUse">
<stop stop-color="#FFDC57"/>
<stop offset="1" stop-color="#DB408E"/>
</linearGradient>
<linearGradient id="paint3_linear_115_20846" x1="119.538" y1="121.085" x2="160.509" y2="185.824" gradientUnits="userSpaceOnUse">
<stop stop-color="#DB408E"/>
<stop offset="1" stop-color="#FFDC57"/>
</linearGradient>
<linearGradient id="paint4_linear_115_20846" x1="200.246" y1="98.5586" x2="200.246" y2="127.331" gradientUnits="userSpaceOnUse">
<stop stop-color="#DB408E"/>
<stop offset="1" stop-color="#FFDC57"/>
</linearGradient>
<linearGradient id="paint5_linear_115_20846" x1="191.902" y1="138.489" x2="191.902" y2="180.791" gradientUnits="userSpaceOnUse">
<stop stop-color="#DB408E"/>
<stop offset="1" stop-color="#FFDC57"/>
</linearGradient>
<linearGradient id="paint6_linear_115_20846" x1="42.2459" y1="173.241" x2="42.2459" y2="184.72" gradientUnits="userSpaceOnUse">
<stop stop-color="#DB408E"/>
<stop offset="1" stop-color="#FFDC57"/>
</linearGradient>
<linearGradient id="paint7_linear_115_20846" x1="97.9194" y1="203.414" x2="97.9194" y2="214.894" gradientUnits="userSpaceOnUse">
<stop stop-color="#DB408E"/>
<stop offset="1" stop-color="#FFDC57"/>
</linearGradient>
<linearGradient id="paint8_linear_115_20846" x1="34.9304" y1="187.659" x2="34.9304" y2="196.357" gradientUnits="userSpaceOnUse">
<stop stop-color="#DB408E"/>
<stop offset="1" stop-color="#FFDC57"/>
</linearGradient>
<linearGradient id="paint9_linear_115_20846" x1="91.6424" y1="218.741" x2="91.6424" y2="227.439" gradientUnits="userSpaceOnUse">
<stop stop-color="#DB408E"/>
<stop offset="1" stop-color="#FFDC57"/>
</linearGradient>
<linearGradient id="paint10_linear_115_20846" x1="307.836" y1="119.758" x2="241.686" y2="159.393" gradientUnits="userSpaceOnUse">
<stop stop-color="#FFDC57"/>
<stop offset="1" stop-color="#DB408E"/>
</linearGradient>
<linearGradient id="paint11_linear_115_20846" x1="292.508" y1="134.279" x2="261.833" y2="152.659" gradientUnits="userSpaceOnUse">
<stop stop-color="#FFDC57"/>
<stop offset="1" stop-color="#DB408E"/>
</linearGradient>
<linearGradient id="paint12_linear_115_20846" x1="290.202" y1="122.82" x2="251.905" y2="145.768" gradientUnits="userSpaceOnUse">
<stop stop-color="#FFDC57"/>
<stop offset="1" stop-color="#DB408E"/>
</linearGradient>
<linearGradient id="paint13_linear_115_20846" x1="221.486" y1="107.921" x2="163.865" y2="139.37" gradientUnits="userSpaceOnUse">
<stop stop-color="#FFDC57"/>
<stop offset="1" stop-color="#DB408E"/>
</linearGradient>
<linearGradient id="paint14_linear_115_20846" x1="183.009" y1="124.912" x2="157.483" y2="138.844" gradientUnits="userSpaceOnUse">
<stop stop-color="#FFDC57"/>
<stop offset="1" stop-color="#DB408E"/>
</linearGradient>
<linearGradient id="paint15_linear_115_20846" x1="190.579" y1="115.785" x2="153.853" y2="135.829" gradientUnits="userSpaceOnUse">
<stop stop-color="#FFDC57"/>
<stop offset="1" stop-color="#DB408E"/>
</linearGradient>
<linearGradient id="paint16_linear_115_20846" x1="165.02" y1="112.57" x2="138.328" y2="128.968" gradientUnits="userSpaceOnUse">
<stop stop-color="#FFDC57"/>
<stop offset="1" stop-color="#DB408E"/>
</linearGradient>
<linearGradient id="paint17_linear_115_20846" x1="177.871" y1="100.494" x2="135.654" y2="126.428" gradientUnits="userSpaceOnUse">
<stop stop-color="#FFDC57"/>
<stop offset="1" stop-color="#DB408E"/>
</linearGradient>
<linearGradient id="paint18_linear_115_20846" x1="165.285" y1="102.295" x2="130.125" y2="123.893" gradientUnits="userSpaceOnUse">
<stop stop-color="#FFDC57"/>
<stop offset="1" stop-color="#DB408E"/>
</linearGradient>
</defs>
</svg>
