<svg width="40" height="39" viewBox="0 0 40 39" fill="none" xmlns="http://www.w3.org/2000/svg">
<path d="M13.3803 31.4027C13.3803 31.564 13.1948 31.6931 12.9609 31.6931C12.6948 31.7173 12.5093 31.5882 12.5093 31.4027C12.5093 31.2415 12.6948 31.1124 12.9286 31.1124C13.1706 31.0882 13.3803 31.2173 13.3803 31.4027ZM10.8722 31.0398C10.8157 31.2011 10.977 31.3866 11.219 31.435C11.4286 31.5156 11.6706 31.435 11.719 31.2737C11.7673 31.1124 11.6141 30.9269 11.3722 30.8544C11.1625 30.7979 10.9286 30.8786 10.8722 31.0398ZM14.4367 30.9028C14.2028 30.9592 14.0415 31.1124 14.0657 31.2979C14.0899 31.4592 14.2996 31.564 14.5415 31.5076C14.7754 31.4511 14.9367 31.2979 14.9125 31.1366C14.8883 30.9834 14.6706 30.8786 14.4367 30.9028ZM19.7432 0C8.55767 0 0.0012207 8.49181 0.0012207 19.6771C0.0012207 28.6205 5.63025 36.2736 13.6706 38.9671C14.7028 39.1526 15.0657 38.5155 15.0657 37.9914C15.0657 37.4914 15.0415 34.7333 15.0415 33.0398C15.0415 33.0398 9.39638 34.2495 8.2109 30.6366C8.2109 30.6366 7.29154 28.2899 5.96896 27.6851C5.96896 27.6851 4.12219 26.4189 6.09799 26.4431C6.09799 26.4431 8.10606 26.6044 9.2109 28.5238C10.977 31.6366 13.9367 30.7415 15.0899 30.2092C15.2754 28.9189 15.7996 28.0238 16.3803 27.4915C11.8722 26.9915 7.3238 26.3383 7.3238 18.5804C7.3238 16.3627 7.9367 15.2498 9.22703 13.8304C9.01735 13.3062 8.33187 11.145 9.4367 8.35471C11.1222 7.83052 15.0012 10.5321 15.0012 10.5321C16.6141 10.0805 18.348 9.84662 20.0657 9.84662C21.7835 9.84662 23.5173 10.0805 25.1303 10.5321C25.1303 10.5321 29.0093 7.82246 30.6948 8.35471C31.7996 11.1531 31.1141 13.3062 30.9044 13.8304C32.1948 15.2578 32.9851 16.3707 32.9851 18.5804C32.9851 26.3625 28.2351 26.9835 23.727 27.4915C24.469 28.1286 25.098 29.3383 25.098 31.2334C25.098 33.9511 25.0738 37.3139 25.0738 37.9752C25.0738 38.4994 25.4448 39.1365 26.469 38.951C34.5335 36.2736 40.0012 28.6205 40.0012 19.6771C40.0012 8.49181 30.9286 0 19.7432 0ZM7.83993 27.8141C7.73509 27.8947 7.75928 28.0802 7.89638 28.2334C8.02541 28.3625 8.2109 28.4189 8.31574 28.3141C8.42058 28.2334 8.39638 28.048 8.25928 27.8947C8.13025 27.7657 7.94477 27.7093 7.83993 27.8141ZM6.96896 27.1609C6.91251 27.2657 6.99316 27.3947 7.15445 27.4754C7.28348 27.556 7.44477 27.5318 7.50122 27.4189C7.55767 27.3141 7.47703 27.1851 7.31574 27.1044C7.15445 27.056 7.02541 27.0802 6.96896 27.1609ZM9.58187 30.0318C9.45283 30.1366 9.50122 30.3786 9.6867 30.5318C9.87219 30.7173 10.1061 30.7415 10.2109 30.6124C10.3157 30.5076 10.2673 30.2657 10.1061 30.1124C9.92864 29.927 9.6867 29.9028 9.58187 30.0318ZM8.66251 28.8463C8.53348 28.927 8.53348 29.1367 8.66251 29.3221C8.79154 29.5076 9.00928 29.5883 9.11412 29.5076C9.24316 29.4028 9.24316 29.1931 9.11412 29.0076C9.00122 28.8221 8.79154 28.7415 8.66251 28.8463Z" fill="url(#paint0_linear_12_91)"/>
<defs>
<linearGradient id="paint0_linear_12_91" x1="20.0012" y1="0" x2="20.0012" y2="39" gradientUnits="userSpaceOnUse">
<stop stop-color="#FFDC57"/>
<stop offset="1" stop-color="#DB408E"/>
</linearGradient>
</defs>
</svg>
