<svg width="60" height="81" viewBox="0 0 60 81" fill="none" xmlns="http://www.w3.org/2000/svg">
<path d="M6.93466 0.5H10.5413V4.06334H13.8413V0.5H17.448V11.2867H13.8413V7.67667H10.5413V11.2867H6.93799L6.93466 0.5ZM22.188 4.07667H19.0147V0.5H28.9713V4.07667H25.7947V11.2867H22.188V4.07667ZM30.5513 0.5H34.3113L36.6247 4.29L38.9347 0.5H42.6947V11.2867H39.1047V5.94L36.6247 9.77667H36.5613L34.078 5.94334V11.2867H30.5513V0.5ZM44.488 0.5H48.098V7.72334H53.1647V11.29H44.488V0.5Z" fill="url(#paint0_linear_50_107)"/>
<path fill-rule="evenodd" clip-rule="evenodd" d="M6.82128 74.0733L0.00128174 16.2233H60.0013L53.1779 74.0666L29.9679 80.5L6.82128 74.0733ZM20.6113 42.4066L19.9646 35.1399H47.1146L47.7479 28.0466H12.2146L14.1279 49.5033H38.7179L37.8946 58.7033L29.9813 60.8433H29.9746L22.0746 58.71L21.5679 53.0533H14.4413L15.4346 64.1933L29.9679 68.2266L44.5246 64.1933L46.2979 44.3133L46.4713 42.41L20.6113 42.4066Z" fill="url(#paint1_linear_50_107)"/>
<defs>
<linearGradient id="paint0_linear_50_107" x1="30.0497" y1="0.5" x2="30.0497" y2="11.29" gradientUnits="userSpaceOnUse">
<stop stop-color="#FFDC57"/>
<stop offset="1" stop-color="#DB408E"/>
</linearGradient>
<linearGradient id="paint1_linear_50_107" x1="30.0013" y1="16.2233" x2="30.0013" y2="80.5" gradientUnits="userSpaceOnUse">
<stop stop-color="#FFDC57"/>
<stop offset="1" stop-color="#DB408E"/>
</linearGradient>
</defs>
</svg>
