<svg width="60" height="59" viewBox="0 0 60 59" fill="none" xmlns="http://www.w3.org/2000/svg">
<path d="M60.0013 8.42857C60.0013 3.77969 56.1575 0 51.4299 0H8.57271C3.84503 0 0.00128174 3.77969 0.00128174 8.42857V50.5714C0.00128174 55.2203 3.84503 59 8.57271 59H51.4299C56.1575 59 60.0013 55.2203 60.0013 50.5714V8.42857ZM24.229 54.3775C19.7156 54.3775 17.104 52.0859 15.7647 49.3071L20.3584 46.581C21.2424 48.1219 22.0459 49.4257 23.9879 49.4257C25.8361 49.4257 27.0147 48.7145 27.0147 45.9357V27.09H32.6531V46.0147C32.6531 51.7567 29.2245 54.3775 24.229 54.3775ZM35.72 48.7145L40.3138 46.1069C41.5191 48.0429 43.0995 49.4784 45.8718 49.4784C48.2022 49.4784 49.7022 48.3326 49.7022 46.7391C49.7022 44.8426 48.1754 44.171 45.5906 43.0516L44.1843 42.4589C40.1129 40.76 37.4209 38.6134 37.4209 34.0962C37.4209 29.9346 40.6486 26.7739 45.6709 26.7739C49.2602 26.7739 51.8316 27.9987 53.6799 31.2121L49.287 33.9777C48.3227 32.2788 47.2781 31.6071 45.6575 31.6071C44.0102 31.6071 42.9656 32.6344 42.9656 33.9777C42.9656 35.6371 44.0102 36.3087 46.4343 37.3491L47.8406 37.9417C52.6352 39.9567 55.3272 42.0243 55.3272 46.66C55.3272 51.6382 51.3361 54.3775 45.9924 54.3775C40.7557 54.3775 37.3674 51.9279 35.72 48.7145Z" fill="url(#paint0_linear_50_67)"/>
<defs>
<linearGradient id="paint0_linear_50_67" x1="30.0013" y1="0" x2="30.0013" y2="59" gradientUnits="userSpaceOnUse">
<stop stop-color="#FFDC57"/>
<stop offset="1" stop-color="#DB408E"/>
</linearGradient>
</defs>
</svg>
