<svg width="40" height="40" viewBox="0 0 40 40" fill="none" xmlns="http://www.w3.org/2000/svg">
<path d="M35.5568 0C36.7355 0 37.866 0.468252 38.6995 1.30175C39.533 2.13524 40.0012 3.2657 40.0012 4.44444V35.5556C40.0012 36.7343 39.533 37.8648 38.6995 38.6983C37.866 39.5317 36.7355 40 35.5568 40H4.44567C3.26693 40 2.13646 39.5317 1.30297 38.6983C0.469473 37.8648 0.0012207 36.7343 0.0012207 35.5556V4.44444C0.0012207 3.2657 0.469473 2.13524 1.30297 1.30175C2.13646 0.468252 3.26693 0 4.44567 0H35.5568ZM34.4457 34.4444V22.6667C34.4457 20.7453 33.6824 18.9027 32.3238 17.5441C30.9652 16.1855 29.1226 15.4222 27.2012 15.4222C25.3123 15.4222 23.1123 16.5778 22.0457 18.3111V15.8444H15.8457V34.4444H22.0457V23.4889C22.0457 21.7778 23.4234 20.3778 25.1346 20.3778C25.9597 20.3778 26.751 20.7056 27.3344 21.289C27.9179 21.8724 28.2457 22.6638 28.2457 23.4889V34.4444H34.4457ZM8.62344 12.3556C9.61359 12.3556 10.5632 11.9622 11.2633 11.2621C11.9634 10.562 12.3568 9.61236 12.3568 8.62222C12.3568 6.55556 10.6901 4.86667 8.62344 4.86667C7.62741 4.86667 6.67217 5.26234 5.96786 5.96664C5.26356 6.67095 4.86789 7.62619 4.86789 8.62222C4.86789 10.6889 6.55678 12.3556 8.62344 12.3556ZM11.7123 34.4444V15.8444H5.55678V34.4444H11.7123Z" fill="url(#paint0_linear_50_109)"/>
<defs>
<linearGradient id="paint0_linear_50_109" x1="20.0012" y1="0" x2="20.0012" y2="40" gradientUnits="userSpaceOnUse">
<stop stop-color="#FFDC57"/>
<stop offset="1" stop-color="#DB408E"/>
</linearGradient>
</defs>
</svg>
