<svg width="171" height="166" viewBox="0 0 171 166" fill="none" xmlns="http://www.w3.org/2000/svg">
<path d="M41.4923 56.6048C43.9986 54.9543 46.3631 56.0346 47.2935 57.4263C48.1966 58.7841 47.8408 61.3994 45.2888 62.8742L41.4923 56.6048Z" fill="#6E5BB1"/>
<path d="M43.0583 57.2287C44.762 56.5341 46.4353 56.5615 47.1518 57.2232C47.2011 57.2934 47.2454 57.3606 47.2936 57.4262C47.3668 57.5282 47.42 57.6382 47.4757 57.7556C47.7469 58.7756 46.4995 60.1853 44.5898 60.9694C44.452 61.0257 44.3162 61.0744 44.1779 61.1237L42.0283 57.7556C42.3413 57.5591 42.6871 57.3834 43.0583 57.2287Z" fill="#483880"/>
<path d="M40.9098 58.1736C40.9098 56.5117 42.0801 55.8395 43.528 56.6794C44.9769 57.5138 46.1552 59.5379 46.1552 61.2018C46.1552 62.8656 44.9769 63.5359 43.528 62.696C42.0801 61.863 40.9098 59.8359 40.9098 58.1736Z" fill="#6E5BB1"/>
<g filter="url(#filter0_d_120_998)">
<path d="M41.1874 58.4488C41.1874 57.0566 42.1676 56.5018 43.3787 57.1974C44.5952 57.8975 45.5789 59.5912 45.5744 60.9849C45.5789 62.3781 44.5952 62.9408 43.3787 62.2378C42.1671 61.5412 41.1874 59.8415 41.1874 58.4488Z" fill="url(#paint0_linear_120_998)"/>
</g>
<g filter="url(#filter1_d_120_998)">
<path d="M42.1601 59.0289C42.1601 58.0084 42.8826 57.5939 43.7678 58.1079C44.6579 58.6224 45.3784 59.8663 45.3784 60.8863C45.3784 61.9083 44.6579 62.3178 43.7678 61.8053C42.8826 61.2948 42.1601 60.0499 42.1601 59.0289Z" fill="url(#paint1_linear_120_998)"/>
</g>
<path d="M130.958 61.6591C130.958 67.6827 126.699 75.0288 121.445 78.0585C116.198 81.0867 111.938 78.6636 111.938 72.637C111.938 66.6154 116.198 59.2713 121.445 56.2361C126.699 53.2079 130.958 55.634 130.958 61.6591Z" fill="#403568"/>
<path d="M91.2575 85.9713V82.0773L115.725 67.9493L108.79 57.4426L112.741 54.0417L114.327 52.0887L123.061 65.5888L121.591 67.393L121.608 67.4214L120.805 68.4056V70.1366L93.0308 86.547L92.9413 84.9981L91.2575 85.9713Z" fill="#403568"/>
<path d="M135.798 32.4941L143.273 26.6969V28.6797L135.798 34.4804V32.4941Z" fill="#372E58"/>
<g filter="url(#filter2_d_120_998)">
<path d="M143.06 22.6496C143.45 22.0292 144.248 21.8416 145.234 22.2521C146.788 22.8959 148.219 24.7559 148.428 26.4063C148.514 27.0392 148.407 27.5482 148.15 27.9035L148.182 27.9378C148.122 27.9856 148.062 28.0284 148.004 28.0781C147.91 28.1652 147.805 28.2408 147.687 28.2956C145.082 30.0614 143.223 29.1618 142.191 27.9746C141.183 26.8178 141.134 24.421 143.06 22.6496Z" fill="url(#paint2_linear_120_998)"/>
</g>
<g filter="url(#filter3_d_120_998)">
<path d="M132.84 15.402C133.233 14.784 134.03 14.5929 135.017 15.0089C136.565 15.6468 137.992 17.5097 138.204 19.1596C138.288 19.789 138.179 20.3005 137.933 20.6538L137.965 20.6906C137.899 20.7354 137.844 20.7832 137.78 20.8289C137.685 20.919 137.58 20.9912 137.47 21.0514C134.862 22.8118 133.002 21.9132 131.965 20.7284C130.958 19.5701 130.915 17.1743 132.84 15.402Z" fill="url(#paint3_linear_120_998)"/>
</g>
<path d="M142.004 23.0247C142.424 22.352 143.285 22.1535 144.358 22.5963C146.022 23.2944 147.567 25.2951 147.794 27.0725C147.886 27.7571 147.768 28.3099 147.494 28.6906L147.529 28.7319C147.463 28.7816 147.398 28.8309 147.328 28.8787C147.236 28.9757 147.12 29.0558 146.994 29.1205C144.183 31.0207 142.173 30.0524 141.053 28.7707C139.971 27.5203 139.923 24.9379 142.004 23.0247Z" fill="#372E58"/>
<path d="M132.01 15.7006C132.433 15.0298 133.291 14.8298 134.36 15.2692C136.031 15.9653 137.567 17.9735 137.803 19.7508C137.892 20.4374 137.774 20.9858 137.503 21.3659L137.535 21.4052C137.47 21.461 137.404 21.5097 137.333 21.5555C137.242 21.651 137.128 21.7326 137 21.7938C134.184 23.6955 132.185 22.7327 131.063 21.4445C129.977 20.1981 129.933 17.6127 132.01 15.7006Z" fill="#372E58"/>
<path d="M130.081 40.5994C143.514 32.8438 154.398 39.0524 154.398 54.4657C154.398 69.8759 143.515 88.6597 130.081 96.4123C116.643 104.167 105.755 97.9598 105.755 82.547C105.755 67.1323 116.643 48.3555 130.081 40.5994ZM129.163 88.294C138.796 82.7321 146.605 69.2619 146.605 58.2059C146.605 47.1524 138.796 42.6967 129.163 48.259C119.531 53.8203 111.715 67.2906 111.715 78.3471C111.715 89.4021 119.531 93.8558 129.163 88.294Z" fill="#403568"/>
<path d="M133.282 42.3704C146.716 34.6167 157.6 40.8249 157.6 56.2361C157.6 71.6514 146.716 90.4307 133.282 98.1858C119.85 105.939 108.96 99.7322 108.96 84.3185C108.96 68.9083 119.85 50.127 133.282 42.3704ZM134.041 91.4432C143.683 85.8774 151.486 72.4047 151.486 61.3532C151.486 50.2981 143.683 45.8464 134.041 51.4107C124.412 56.9711 116.601 70.4408 116.601 81.4953C116.601 92.5503 124.412 97.0031 134.041 91.4432Z" fill="#5B4B97"/>
<path d="M133.282 42.3704C142.849 36.8513 151.119 38.4092 155.094 45.3319L146.398 50.1618C143.245 48.3472 138.874 48.6208 134.041 51.4107C124.412 56.9711 116.601 70.4408 116.601 81.4953C116.601 84.4215 117.148 86.888 118.138 88.8275L110.542 93.331C109.524 90.8342 108.56 87.7184 108.56 84.222C108.56 68.8108 119.85 50.127 133.282 42.3704Z" fill="#403568"/>
<path d="M109.666 81.5146L103.489 77.7723L109.832 53.7098L118.291 61.4481L109.666 81.5146Z" fill="#403568"/>
<path d="M53.5191 45.3517L55.4104 45.3716L39.9235 88.3791L38.0357 88.3567L53.5191 45.3517Z" fill="#574793"/>
<path d="M54.1979 45.806L56.0867 45.8284L40.6107 88.8369L38.7259 88.8165L54.1979 45.806Z" fill="#574793"/>
<path d="M56.6256 44.5805L47.8932 31.571L44.8934 33.0369L55.2652 47.9217L56.6256 44.5805Z" fill="#5B4B97"/>
<path d="M55.4408 45.2139L46.7114 32.2035L43.0279 30.8909L54.5865 47.3634L55.4408 45.2139Z" fill="#574793"/>
<path d="M37.5586 86.5396L41.155 88.2243L30.5483 117.67L26.4658 117.614L37.5586 86.5396Z" fill="#574793"/>
<path d="M37.6592 112.949C37.6592 118.974 33.4064 126.315 28.1541 129.347C22.9027 132.38 18.644 129.955 18.644 123.927C18.644 117.903 22.9032 110.561 28.1541 107.526C33.4064 104.495 37.6592 106.921 37.6592 112.949Z" fill="#403568"/>
<path d="M31.684 118.651C31.684 119.926 30.7829 121.475 29.6778 122.119C28.5657 122.761 27.6701 122.247 27.6701 120.971C27.6701 119.702 28.5657 118.146 29.6778 117.503C30.7893 116.861 31.684 117.372 31.684 118.651Z" fill="#403568"/>
<path d="M30.7435 117.177L37.917 121.298V125.954L30.7435 121.83V117.177Z" fill="#403568"/>
<path d="M28.382 118.972L35.5544 123.09V126.373L28.382 122.251V118.972Z" fill="#403568"/>
<path d="M107.407 89.452C107.407 91.1457 106.211 93.2111 104.736 94.0659C103.262 94.9158 102.063 94.2336 102.063 92.5384C102.063 90.8442 103.262 88.7802 104.736 87.9249C106.211 87.0746 107.407 87.7567 107.407 89.452Z" fill="#372E58"/>
<path d="M141.182 67.916C141.182 73.9431 136.922 81.2833 131.671 84.3135C126.417 87.3432 122.167 84.915 122.167 78.8914C122.167 72.8679 126.417 65.5262 131.671 62.493C136.922 59.4633 141.182 61.8914 141.182 67.916Z" fill="#403568"/>
<path d="M141.94 68.524C141.94 74.5491 137.685 81.8932 132.433 84.9254C127.182 87.9546 122.931 85.527 122.931 79.5019C122.931 73.4768 127.182 66.1347 132.433 63.1055C137.685 60.0743 141.94 62.4985 141.94 68.524Z" fill="#5B4B97"/>
<path d="M129.716 65.1237L135.851 75.51L123.47 82.8242C123.122 81.8893 122.931 80.7767 122.931 79.5014C122.931 74.5621 125.791 68.7335 129.716 65.1237Z" fill="#403568"/>
<path d="M125.052 78.6093C125.052 79.0323 124.742 79.5497 124.377 79.7642C124.007 79.9811 123.698 79.81 123.698 79.3831C123.698 78.9551 123.999 78.4382 124.377 78.2232C124.742 78.0073 125.052 78.1784 125.052 78.6093Z" fill="#403568"/>
<path d="M125.563 75.285C125.563 75.7109 125.263 76.2324 124.894 76.4473C124.519 76.6603 124.22 76.4891 124.22 76.0642C124.22 75.6388 124.519 75.1198 124.894 74.9049C125.263 74.6894 125.563 74.8616 125.563 75.285Z" fill="#403568"/>
<path d="M126.875 71.913C126.875 72.337 126.579 72.8609 126.205 73.0724C125.837 73.2873 125.529 73.1122 125.529 72.6867C125.529 72.2618 125.837 71.7414 126.205 71.5259C126.579 71.3144 126.875 71.4851 126.875 71.913Z" fill="#403568"/>
<path d="M128.652 68.4763C128.656 68.9032 128.348 69.4217 127.981 69.6376C127.603 69.8516 127.302 69.6774 127.302 69.251C127.302 68.8281 127.603 68.3091 127.981 68.0926C128.348 67.8827 128.652 68.0543 128.652 68.4763Z" fill="#403568"/>
<path d="M130.767 66.1307C130.767 66.5596 130.464 67.0751 130.099 67.29C129.721 67.505 129.428 67.3328 129.428 66.9064C129.428 66.4795 129.721 65.964 130.099 65.75C130.464 65.5346 130.767 65.7063 130.767 66.1307Z" fill="#403568"/>
<path d="M133.627 64.0733C133.627 64.5007 133.326 65.0177 132.956 65.2336C132.583 65.4461 132.281 65.2734 132.281 64.849C132.281 64.4236 132.583 63.9026 132.956 63.6877C133.326 63.4732 133.627 63.6449 133.627 64.0733Z" fill="#403568"/>
<path d="M136.777 62.9323C136.777 63.3552 136.476 63.8732 136.106 64.0881C135.732 64.3001 135.431 64.1284 135.431 63.7045C135.431 63.2786 135.732 62.7596 136.106 62.5447C136.476 62.3322 136.777 62.5024 136.777 62.9323Z" fill="#403568"/>
<path d="M139.24 63.8448C139.24 64.2678 138.935 64.7882 138.56 65.0022C138.195 65.2181 137.893 65.044 137.893 64.617C137.893 64.1926 138.195 63.6732 138.56 63.4627C138.934 63.2492 139.24 63.4179 139.24 63.8448Z" fill="#403568"/>
<path d="M140.951 65.6182C140.957 66.0427 140.649 66.5616 140.282 66.7771C139.91 66.9905 139.605 66.8189 139.605 66.3934C139.605 65.9665 139.91 65.4491 140.282 65.2341C140.649 65.0197 140.951 65.1938 140.951 65.6182Z" fill="#403568"/>
<path d="M141.296 68.7076C141.296 69.1326 140.995 69.6515 140.622 69.866C140.252 70.0814 139.954 69.9068 139.954 69.4839C139.954 69.0554 140.252 68.5385 140.622 68.3235C140.995 68.1066 141.296 68.2802 141.296 68.7076Z" fill="#403568"/>
<path d="M140.84 72.0837C140.84 72.5112 140.535 73.0286 140.163 73.2416C139.795 73.457 139.495 73.2874 139.495 72.8629C139.495 72.4365 139.795 71.9146 140.163 71.7011C140.535 71.4852 140.84 71.6568 140.84 72.0837Z" fill="#403568"/>
<path d="M139.407 75.4581C139.411 75.884 139.11 76.402 138.737 76.6165C138.366 76.8299 138.066 76.6602 138.066 76.2343C138.066 75.8079 138.366 75.2924 138.737 75.077C139.11 74.8615 139.407 75.0337 139.407 75.4581Z" fill="#403568"/>
<path d="M137.636 78.4924C137.636 78.9153 137.333 79.4353 136.96 79.6512C136.594 79.8662 136.292 79.693 136.292 79.2646C136.292 78.8402 136.594 78.3217 136.96 78.1072C137.333 77.8933 137.636 78.0645 137.636 78.4924Z" fill="#403568"/>
<path d="M135.065 81.2394C135.065 81.6668 134.762 82.1828 134.39 82.3958C134.015 82.6117 133.717 82.4416 133.717 82.0146C133.717 81.5872 134.015 81.0707 134.39 80.8558C134.762 80.6408 135.065 80.8115 135.065 81.2394Z" fill="#403568"/>
<path d="M132.775 83.0123C132.775 83.4367 132.468 83.9562 132.098 84.1696C131.723 84.3851 131.419 84.2124 131.419 83.7865C131.419 83.3616 131.723 82.8436 132.098 82.6292C132.468 82.4142 132.775 82.5854 132.775 83.0123Z" fill="#403568"/>
<path d="M129.968 83.7567C129.968 84.1836 129.666 84.7036 129.296 84.914C128.921 85.1295 128.625 84.9548 128.625 84.5339C128.625 84.1075 128.921 83.588 129.293 83.376C129.666 83.1586 129.968 83.3303 129.968 83.7567Z" fill="#403568"/>
<path d="M127.56 83.4681C127.56 83.895 127.262 84.4135 126.889 84.6284C126.515 84.8444 126.221 84.6712 126.221 84.2483C126.221 83.8209 126.515 83.3014 126.889 83.0865C127.262 82.872 127.56 83.0442 127.56 83.4681Z" fill="#403568"/>
<path d="M125.846 81.6384C125.846 82.0644 125.546 82.5818 125.175 82.7983C124.802 83.0127 124.5 82.8386 124.5 82.4141C124.5 81.9897 124.802 81.4708 125.175 81.2548C125.546 81.0399 125.846 81.212 125.846 81.6384Z" fill="#403568"/>
<path d="M138.3 71.5577C138.3 75.2173 135.714 79.673 132.525 81.5146C129.342 83.359 126.755 81.8837 126.755 78.2236C126.755 74.5645 129.342 70.1058 132.525 68.2672C135.714 66.4302 138.3 67.899 138.3 71.5577Z" fill="#403568"/>
<path d="M112.693 54.0821L140.515 28.6453L141.191 36.2422L114.788 58.2054L112.693 54.0821Z" fill="#372E58"/>
<path d="M115.813 53.0396L148.672 28.4532C150.528 27.064 153.025 26.8839 155.062 27.9924L156.714 28.8921C158.62 29.9295 159.763 31.9665 159.657 34.1335L159.657 34.1369L147.641 41.5154L117.148 54.9618L115.813 53.0396Z" fill="#3E3363"/>
<path d="M148.501 39.8546L158.915 31.1591C159.886 32.7045 160.594 35.2217 158.281 37.4852L149.015 46.7226L148.501 39.8546Z" fill="#403568"/>
<path d="M117.567 51.8186L135.571 42.7166L149.071 39.5112V46.7718L136.018 47.8212L117.567 56.3724V51.8186Z" fill="#362B5B"/>
<path d="M63.5945 56.4724L71.0874 57.1083L66.5097 68.8684L59.0089 68.2315L63.5945 56.4724Z" fill="#372E58"/>
<path d="M56.4873 54.2751L70.9521 62.4124L63.3811 81.837L55.5523 81.1723L44.363 74.7576L50.5438 56.9093L56.4873 54.2751Z" fill="#372E58"/>
<path d="M65.6341 46.8345L71.4258 47.0723L67.5049 57.7163L61.7047 57.4835L65.6341 46.8345Z" fill="#372E58"/>
<path d="M67.2556 92.0367C72.9264 96.9418 79.3615 95.255 90.6643 87.7417V91.8347C72.9603 103.996 66.6098 106.395 59.59 96.4606L67.2556 92.0367Z" fill="#5B4B97"/>
<path d="M48.9176 67.5648L49.9695 62.6274L62.8745 87.1288L66.5515 82.9024L60.6065 63.734L85.1387 49.506L89.7826 48.8721L100.168 49.5169L76.4437 106.267L62.146 98.1141L47.0353 72.3559L48.9176 67.5648Z" fill="#403568"/>
<path d="M72.3209 103.599L59.5418 96.4915C64.742 104.428 79.2412 109.766 80.6956 109.605L72.3209 103.599Z" fill="#57478F"/>
<path d="M57.161 72.7808L60.7047 72.8703L78.3669 104.431L74.8262 104.344L57.161 72.7808Z" fill="#5B4B97"/>
<path d="M75.7791 78.4218L79.3218 78.5093L84.099 92.3005L77.6122 95.9308L76.8917 93.8469L79.5995 89.4847L75.7791 78.4218Z" fill="#5B4B97"/>
<path d="M62.2725 72.2947L65.9838 68.948L78.8893 93.4519L81.4309 90.2261L75.4894 71.0587L101.376 47.347L106.017 46.7146L115.046 56.8402L102.406 96.2845C94.0214 103.607 77.017 105.437 77.017 105.437L60.3857 77.0878L62.2725 72.2947Z" fill="#453A6C"/>
<path d="M62.2726 72.2947L65.9839 68.948L78.8894 93.4519L81.431 90.2261L75.4895 71.0587L101.376 47.347L106.017 46.7146L114.362 56.3729L101.235 96.0467C92.8502 103.375 77.0171 105.437 77.0171 105.437L60.3858 77.0873L62.2726 72.2947Z" fill="#403568"/>
<path d="M89.0752 93.7926C89.0752 90.0096 91.88 85.321 95.3326 83.3217C98.7987 81.3285 101.599 82.7759 101.599 86.5594C101.599 90.3459 98.7992 95.0305 95.3326 97.0308C91.88 99.0245 89.0752 97.5776 89.0752 93.7926Z" fill="#403568"/>
<path d="M102.497 95.3372L101.163 94.6541L82.8088 103.939L83.7249 105.156L102.497 95.3372Z" fill="#403568"/>
<path d="M79.3198 99.5172C84.9886 104.42 90.8022 101.834 102.107 94.321L103.294 94.9017C85.5926 107.061 80.1557 113.591 73.1434 103.656L79.3198 99.5172Z" fill="#584A8C"/>
<path d="M77.4335 99.2874L76.104 98.6007L71.799 100.779L72.7016 101.996L77.4335 99.2874Z" fill="#403568"/>
<path d="M82.7332 67.6826L81.8316 82.3659L69.9227 89.2388L62.2671 73.2017L82.3157 61.6282L82.7332 67.6826Z" fill="#403568"/>
<path d="M96.773 80.8821L98.1493 58.283L113.714 52.3311C113.714 52.3311 118.975 77.733 96.773 80.8821Z" fill="#403568"/>
<path d="M101.736 54.6513L100.351 65.8934L84.5423 74.3541L87.269 58.907L101.542 50.7593L101.736 54.6513Z" fill="#403568"/>
<path d="M99.5784 67.4368L96.7442 74.5346L80.9369 82.9988L83.6666 67.5473L97.9374 59.3986L99.5784 67.4368Z" fill="#403568"/>
<path d="M74.2615 57.6482L66.2546 79.4875L61.4595 79.2064L53.7999 63.1707L73.8415 51.5942L74.2615 57.6482Z" fill="#403568"/>
<path d="M69.6307 89.7399C69.6307 87.6417 70.4686 85.4593 71.498 84.8632C72.5215 84.2706 73.3689 85.4882 73.3689 87.5869C73.3689 89.6827 72.5215 91.868 71.498 92.4641C70.4686 93.0592 69.6307 91.8382 69.6307 89.7399Z" fill="#403568"/>
<path d="M71.2318 89.2478L93.9966 76.103C94.0807 76.0333 94.1543 75.9721 94.2499 75.9274C95.2764 75.3293 96.1133 76.5468 96.1133 78.6461C96.1133 80.7453 95.2764 82.9297 94.2499 83.5218C93.2134 84.1194 92.3765 82.9028 92.373 80.8026C92.373 80.6508 92.3815 80.4985 92.3885 80.3453L71.2318 92.5621V89.2478Z" fill="#403568"/>
<path d="M78.1231 98.5032L72.112 101.934L60.6723 95.8302L59.5418 96.4915L60.2588 97.3956L72.3209 103.599L79.8397 99.1331L78.1231 98.5032Z" fill="#584A8C"/>
<path d="M88.1682 65.2082L97.0045 60.3385L98.3186 60.7405L89.1708 77.1599L87.1019 76.4175L88.1682 65.2082Z" fill="#403568"/>
<path d="M90.7973 65.1509L98.4399 60.7405V71.7661L89.1414 77.1339L90.7973 65.1509Z" fill="#5B4B97"/>
<path d="M93.716 63.0717L95.5167 62.0293L95.5083 66.8537L93.319 68.124L93.716 63.0717Z" fill="#403568"/>
<path d="M62.1003 94.559L54.6671 90.6635C51.3458 78.8795 32.7288 82.9019 32.7288 82.9019L25.7857 79.2627L25.8533 77.158C39.9236 73.7571 62.3282 80.7106 62.1003 94.559Z" fill="#57478F"/>
<path d="M64.9644 93.7563L61.8968 94.7056C57.5555 83.1705 42.6911 82.035 32.4213 83.0391L33.295 80.1373C47.3668 76.7384 61.5903 81.12 64.9644 93.7563Z" fill="#403568"/>
<path d="M51.0851 80.0189L52.9629 80.8145L51.4886 85.215L49.876 84.5652L51.0851 80.0189Z" fill="#57478F"/>
<path d="M70.166 88.4139C69.5505 86.4147 69.7505 84.3378 70.6029 83.7681C71.4617 83.2044 72.6549 84.3667 73.2694 86.3605C73.8809 88.3517 73.6794 90.4341 72.824 91.0003C71.9657 91.5705 70.778 90.4082 70.166 88.4139Z" fill="#57488D"/>
<path d="M72.2189 87.7497C71.3701 87.7497 70.6979 88.0786 70.2292 88.6264C70.2103 88.5542 70.1864 88.4816 70.1665 88.4139C69.551 86.4147 69.751 84.3378 70.6033 83.7681C71.4621 83.2044 72.6553 84.3667 73.2698 86.3605C73.444 86.9192 73.5489 87.483 73.5887 88.0203C73.1404 87.8502 72.6697 87.7497 72.2189 87.7497Z" fill="#5B4B97"/>
<path d="M86.3668 68.3856L84.5681 81.1602L72.9265 87.8854L71.689 85.2065L69.2937 83.8949L67.2173 79.158L65.229 75.0625L86.3668 63.1746V68.3856Z" fill="#362D56"/>
<path d="M88.3148 69.6496L86.5186 82.4212L74.871 89.1419L68.6981 75.7563L88.3148 64.4296V69.6496Z" fill="#6E5BB1"/>
<path d="M71.1814 84.5796L87.3694 75.9995L87.1415 77.7724L72.1507 85.727L71.1814 84.5796Z" fill="#362D56"/>
<path d="M72.215 83.4979L87.8656 75.1597L87.6392 76.932L72.1324 85.1733L72.215 83.4979Z" fill="#52418E"/>
<path d="M70.0744 82.1803L87.6715 73.043L87.4267 74.8203L71.1268 83.2874L70.0744 82.1803Z" fill="#362D56"/>
<path d="M71.1418 81.0917L88.2124 72.1871L87.9621 73.9655L71.0686 82.7361L71.1418 81.0917Z" fill="#52418E"/>
<path d="M68.5051 79.9249L88.292 69.4202L88.0124 71.2234L69.7028 80.9568L68.5051 79.9249Z" fill="#362D56"/>
<path d="M69.8828 78.6511L88.8984 68.524L88.6158 70.3252L69.7688 80.214L69.8828 78.6511Z" fill="#52418E"/>
<path d="M67.4 77.143L88.5562 65.7118L88.2571 67.5244L68.931 78.3844L67.4 77.143Z" fill="#362D56"/>
<path d="M68.9649 75.8279L89.2006 64.7828L88.9055 66.599L69.3221 77.1903L68.9649 75.8279Z" fill="#52418E"/>
<path d="M86.5186 82.4211L74.871 89.1418L73.4837 86.2609L86.9883 78.5894L86.5186 82.4211Z" fill="#312461"/>
<path d="M88.2919 66.7462L69.2613 77.7002L67.8801 74.8168L88.7676 62.9159L88.2919 66.7462Z" fill="#312461"/>
<path d="M83.2137 67.7787L82.243 75.4472L78.0052 77.8515L74.2326 72.9868L83.2137 67.7787Z" fill="#52418E"/>
<path d="M82.9515 67.3199L81.9733 74.988L77.743 77.3957L73.9649 72.5315L82.9515 67.3199Z" fill="#312461"/>
<path d="M80.6139 68.839L79.7526 74.3347L77.0971 75.9592L73.8872 72.4693L80.6139 68.839Z" fill="#362D56"/>
<path d="M81.1374 96.4899C81.1374 94.641 82.5127 92.3482 84.2 91.3734C85.8872 90.3982 87.26 91.1062 87.26 92.9537C87.26 94.8032 85.8877 97.0945 84.2 98.0712C82.5127 99.042 81.1374 98.3369 81.1374 96.4899Z" fill="#403568"/>
<path d="M81.8315 96.3188C81.8315 94.4659 83.1969 92.1771 84.8801 91.2008C86.5744 90.2266 87.9457 90.9341 87.9457 92.7836C87.9457 94.6326 86.5744 96.9204 84.8801 97.8981C83.1964 98.8734 81.8315 98.1653 81.8315 96.3188Z" fill="#5B4B97"/>
<path d="M82.3987 96.5447C82.3987 94.6957 83.7645 92.4064 85.4558 91.4326C87.146 90.4579 88.5173 91.1629 88.5173 93.0144C88.5173 94.8639 87.146 97.1497 85.4558 98.1244C83.7645 99.0997 82.3987 98.3951 82.3987 96.5447Z" fill="#5D5186"/>
<path d="M85.6508 88.1098C85.6508 86.9057 86.5504 85.4095 87.6501 84.7766C88.7537 84.1437 89.6488 84.5995 89.6488 85.8046C89.6488 87.0117 88.7537 88.5059 87.6501 89.1418C86.5504 89.7807 85.6508 89.3189 85.6508 88.1098Z" fill="#403568"/>
<path d="M86.1042 88.0004C86.1042 86.7933 86.9959 85.2991 88.0965 84.6632C89.2001 84.0278 90.0938 84.4876 90.0938 85.6942C90.0938 86.9023 89.2001 88.3935 88.0965 89.0319C86.9959 89.6653 86.1042 89.2065 86.1042 88.0004Z" fill="#5B4B97"/>
<path d="M86.4759 88.1497C86.4759 86.9421 87.369 85.4524 88.4701 84.815C89.5757 84.1776 90.4684 84.6363 90.4684 85.8489C90.4684 87.0511 89.5757 88.5462 88.4701 89.1816C87.3695 89.817 86.4759 89.3538 86.4759 88.1497Z" fill="#5D5186"/>
<path d="M79.8398 99.1331C85.5126 104.034 91.9542 102.347 103.25 94.8361V98.9296C85.5499 111.09 79.195 113.493 72.1758 103.554L79.8398 99.1331Z" fill="#403568"/>
<path d="M76.3806 49.5611L93.1915 46.098L95.5739 48.6108L94.8265 55.5937L90.1394 60.6256L72.2159 74.0187C69.5275 75.6467 65.3047 75.5034 62.6735 73.843L61.9879 69.7266L68.5259 57.8108L76.3806 49.5611Z" fill="#261F42"/>
<path d="M119.375 14.1783C121.631 11.8577 125.226 11.488 127.907 13.3006L130.909 15.3307L130.258 23.3242L99.9171 55.7085L87.8312 48.8003L88.5288 40.0097L104.092 29.4249C104.993 28.8119 105.83 28.1093 106.59 27.3276L119.375 14.1783Z" fill="#302069"/>
<path d="M85.5727 40.6222C89.4503 42.0706 95.3007 44.3774 98.6832 47.8529L82.5485 55.8513L57.2227 70.4764L53.7675 63.3428L58.1337 53.7098C63.5264 41.8009 82.0206 39.2952 85.5727 40.6222Z" fill="#5B4B97"/>
<path d="M55.0657 48.3859L68.6732 55.84L60.6394 76.4543L47.0309 69.0002L55.0657 48.3859Z" fill="#372E58"/>
<path d="M97.2741 46.9568C98.6066 47.3221 99.4664 48.6058 99.2992 49.9751C99.1121 51.5235 99.1838 58.6264 91.4127 63.0572L71.9956 74.1287L71.7826 74.1809C69.044 74.8486 66.2143 73.4943 65.0171 70.9422L64.3673 69.558L69.0629 59.1931C73.5067 49.374 90.6042 45.1278 97.2741 46.9568Z" fill="#403568"/>
<path d="M97.5139 47.3634C98.8235 47.6943 99.6559 48.9233 99.4599 50.2503C99.2494 51.7525 99.1932 58.6294 91.4236 63.0573L72 74.1377L71.787 74.1899C69.0723 74.888 66.2943 73.6297 65.1549 71.1781L64.5389 69.8501L69.3718 59.732C73.9554 50.1379 90.943 45.714 97.5139 47.3634Z" fill="#5B4B97"/>
<path d="M116.379 53.7387L118.13 51.7465L133.173 74.1899L131.419 76.1831L116.379 53.7387Z" fill="#403568"/>
<path d="M117.231 52.9049L118.973 50.9131L134.019 73.356L132.274 75.3488L117.231 52.9049Z" fill="#403568"/>
<path d="M121.348 63.8902L125.441 60.3699L134.165 73.8685L130.727 78.0938L121.348 63.8902Z" fill="#504186"/>
<path d="M123.448 62.7657L126.89 58.5388L135.617 72.0384L132.168 76.2652L123.448 62.7657Z" fill="#403568"/>
<path d="M121.91 61.9213C121.961 62.1153 122.047 62.2765 122.191 62.3895C122.706 62.7776 123.643 62.3497 124.364 61.4854C125.45 60.1957 124.559 59.0966 124.497 59.0707L123.695 58.2945C124.709 57.6302 125.751 57.4546 126.405 57.9507C127.397 58.709 127.132 60.7137 125.808 62.4323C124.48 64.1489 122.607 64.9276 121.611 64.1728C120.918 63.6523 120.842 62.3243 121.29 61.1147L121.91 61.9213Z" fill="#504186"/>
<path d="M115.253 53.704L118.465 47.6943L124.397 55.9092C124.946 58.5235 122.373 61.494 119.61 61.7233L115.253 53.704Z" fill="#504186"/>
<path d="M123.121 59.8579L120.582 55.7072L121.34 51.6704L124.397 55.9092C124.686 57.277 124.118 58.7394 123.121 59.8579Z" fill="#403568"/>
<path d="M103.82 88.5195L132.302 72.0763V75.9733L103.82 92.4194V88.5195Z" fill="#504186"/>
<path d="M103.768 88.5014C105.28 87.3431 107.166 87.263 107.986 88.3263C108.79 89.3856 108.223 91.1843 106.704 92.3432C105.19 93.5035 103.306 93.5801 102.497 92.5208C101.682 91.4555 102.254 89.6543 103.768 88.5014Z" fill="#504186"/>
<path d="M105.436 90.2445L133.364 72.6897V76.5822L105.588 92.9965L105.436 90.2445Z" fill="#403568"/>
<path d="M72.7752 87.7606L95.5475 74.6143C95.6242 74.5461 95.7033 74.4819 95.7889 74.4377C96.8213 73.8406 97.6567 75.0616 97.6567 77.1579C97.6567 79.2556 96.8213 81.4375 95.7889 82.0351C94.7544 82.6327 93.9255 81.4141 93.9255 79.3119C93.9255 79.1606 93.9289 79.0088 93.9334 78.8541L72.7752 91.0729V87.7606Z" fill="#57488D"/>
<path d="M71.5576 90.5878L95.3077 76.7216C95.3002 76.8728 95.2923 77.0226 95.2923 77.1773C95.2923 79.2781 96.1376 80.4897 97.1591 79.9C97.1775 79.8881 97.1984 79.8732 97.2139 79.8627C96.8765 80.8847 96.3605 81.7042 95.7883 82.0356C94.7539 82.6332 93.9249 81.4146 93.9249 79.3124C93.9249 79.1611 93.9284 79.0094 93.9329 78.8546L72.7747 91.0735C72.1508 91.2282 71.7771 91.2441 71.5576 90.5878Z" fill="#5B4B97"/>
<path d="M123.192 70.3511C123.857 71.0606 124.161 72.0354 124.019 72.9972C123.876 73.9595 123.302 74.8034 122.461 75.29L111.696 81.5091C111.014 81.9037 110.158 81.8395 109.542 81.3474C108.926 80.8553 108.674 80.0358 108.908 79.2825L114.542 61.1162L123.192 70.3511Z" fill="#362B5B"/>
<path d="M109.783 76.4434L114.545 61.1143L118.928 65.8029C116.192 72.016 112.763 75.0198 109.783 76.4434Z" fill="#403568"/>
<path d="M136.627 72.631C136.627 74.9019 135.025 77.6709 133.042 78.8148C131.064 79.9602 129.459 79.0482 129.459 76.7698C129.459 74.5004 131.064 71.7294 133.042 70.5825C135.025 69.4406 136.627 70.3601 136.627 72.631Z" fill="#403568"/>
<path d="M137.392 73.1639C137.392 75.4353 135.789 78.2083 133.809 79.3537C131.825 80.4892 130.217 79.5781 130.217 77.3052C130.217 75.0338 131.824 72.2633 133.809 71.1194C135.789 69.976 137.392 70.89 137.392 73.1639Z" fill="#5B4B97"/>
<path d="M104.517 85.7271C104.61 84.2239 103.723 82.8312 102.787 81.3549C101.582 79.4632 100.215 77.3211 100.586 74.4502L100.134 74.3805C99.738 77.4102 101.154 79.6249 102.398 81.5853C103.333 83.0581 104.142 84.3279 104.057 85.6873L104.517 85.7271Z" fill="#403568"/>
<path d="M104.975 85.4793C105.111 83.9567 104.267 82.5436 103.372 81.0479C102.23 79.1313 100.928 76.9569 101.392 74.0521L100.934 73.9805C100.449 77.0495 101.792 79.2995 102.981 81.2828C103.875 82.7725 104.644 84.0622 104.521 85.4385L104.975 85.4793Z" fill="#5B4B97"/>
<path d="M103.001 80.4126L102.499 80.4728C101.468 78.686 100.51 76.6425 100.934 73.981L101.392 74.0526C100.979 76.6425 101.958 78.6512 103.001 80.4126Z" fill="#5B4B97"/>
<path d="M101.212 47.538L99.8659 75.4472C99.8659 75.4472 114.205 80.8652 118.783 48.9834L101.212 47.538Z" fill="#5B4B97"/>
<path d="M103.274 48.0008L100.979 75.714C100.979 75.714 117.148 79.7941 121.148 47.5829L103.274 48.0008Z" fill="#403568"/>
<path d="M102.163 68.3096C102.163 63.9543 105.399 58.5547 109.387 56.2524C113.37 53.9566 116.601 55.621 116.601 59.9802C116.601 64.3369 113.37 69.7351 109.387 72.0344C105.399 74.3351 102.163 72.6688 102.163 68.3096Z" fill="#5B4B97"/>
<path d="M102.452 68.3678C102.452 64.0136 105.687 58.613 109.666 56.3132C113.655 54.0129 116.888 55.6803 116.888 60.036C116.888 64.3947 113.655 69.7879 109.666 72.0916C105.687 74.3924 102.452 72.7266 102.452 68.3678Z" fill="#5B4B97"/>
<path d="M100.525 53.5174L122.411 45.9215L120.409 49.41L100.78 56.8317L100.525 53.5174Z" fill="#5B4B97"/>
<path d="M100.557 46.9405L88.5329 40.0113L105.445 28.5015L121.515 11.9817C122.557 10.9174 124.182 10.693 125.472 11.4339L139.304 19.3756L117.475 35.4332L100.557 46.9405Z" fill="#5B4B97"/>
<path d="M132.099 19.3841C133.494 17.9491 135.679 17.6296 137.427 18.6049L138.251 19.0646C140.791 20.4812 142.23 23.287 141.898 26.1764L141.714 27.7736C141.542 29.2673 140.792 30.6341 139.623 31.581L122.164 45.7245C120.36 47.1873 118.338 48.3466 116.159 49.1612L103.298 47.0649L99.7212 46.7873L113.831 37.1891C115.696 35.9203 117.428 34.4669 119.001 32.8503L132.099 19.3841Z" fill="#362C5B"/>
<path d="M132.938 19.5386C134.335 18.1032 136.521 17.7842 138.269 18.7609L139.095 19.2222C141.631 20.6388 143.067 23.4396 142.738 26.3255L142.555 27.9242C142.384 29.4199 141.634 30.7887 140.463 31.7366L123.003 45.8805C121.198 47.3419 119.17 48.5027 116.996 49.3172L99.8745 55.7344L100.562 46.9423L114.673 37.3407C116.537 36.0729 118.267 34.6205 119.838 33.0049L132.938 19.5386Z" fill="#403568"/>
<path d="M35.3266 95.0674C48.753 87.3178 59.6428 93.523 59.6428 108.936C59.6428 124.346 48.753 143.128 35.3266 150.886C21.8942 158.637 10.9998 152.43 10.9998 137.018C11.0003 121.603 21.8942 102.822 35.3266 95.0674ZM34.4115 142.766C44.0375 137.202 51.8509 123.733 51.8509 112.676C51.8509 101.621 44.0375 97.1692 34.4115 102.73C24.7686 108.295 16.9657 121.766 16.9657 132.822C16.9662 143.874 24.7691 148.326 34.4115 142.766Z" fill="#403568"/>
<path d="M38.5294 96.8452C51.9583 89.0921 62.8467 95.2987 62.8467 110.709C62.8467 126.123 51.9583 144.904 38.5294 152.659C25.0935 160.416 14.2057 154.206 14.2057 138.794C14.2057 123.377 25.0935 104.598 38.5294 96.8452ZM39.2857 145.912C48.9272 140.351 56.7365 126.878 56.7365 115.826C56.7365 104.77 48.9272 100.319 39.2857 105.879C29.6533 111.441 21.8464 124.911 21.8464 135.967C21.8464 147.023 29.6533 151.474 39.2857 145.912Z" fill="#5B4B97"/>
<path d="M52.8619 95.9426L51.9071 98.2777L51.2269 97.9424L49.1391 103.656C47.8146 103.391 46.3632 103.386 44.8292 103.669L47.5414 96.1462L47.0966 95.9267L48.0499 93.5936L49.7287 94.4076L50.1069 93.3657C50.7468 93.406 51.3722 93.4822 51.9728 93.6041L51.3891 95.2207L52.8619 95.9426Z" fill="#403568"/>
<path d="M68.2846 51.7579L70.1699 51.7778L54.0004 97.115L52.1131 97.0945L68.2846 51.7579Z" fill="#574793"/>
<path d="M69.0808 52.1018L70.9646 52.1212L54.7975 97.4558L52.9093 97.4354L69.0808 52.1018Z" fill="#5B4B97"/>
<path d="M49.5645 119.966C49.5645 125.991 45.3057 133.334 40.0519 136.364C34.808 139.4 30.5389 136.972 30.5389 130.946C30.5389 124.92 34.8005 117.58 40.0519 114.544C45.3057 111.518 49.5565 113.942 49.5645 119.966Z" fill="#403568"/>
<path d="M50.2446 120.274C50.2446 126.299 45.9899 133.638 40.7405 136.672C35.4837 139.701 31.2345 137.278 31.2345 131.255C31.2345 125.225 35.4837 117.883 40.7405 114.851C45.9899 111.821 50.2446 114.249 50.2446 120.274Z" fill="#5B4B97"/>
<path d="M33.1941 130.788C33.1941 131.215 32.8911 131.736 32.5199 131.945C32.1492 132.164 31.8482 131.993 31.8482 131.564C31.8482 131.134 32.1492 130.617 32.5199 130.404C32.8911 130.19 33.1941 130.365 33.1941 130.788Z" fill="#403568"/>
<path d="M33.7061 127.472C33.7061 127.895 33.406 128.418 33.0319 128.629C32.6632 128.846 32.3646 128.67 32.3646 128.248C32.3646 127.818 32.6632 127.303 33.0319 127.09C33.4065 126.874 33.7061 127.045 33.7061 127.472Z" fill="#403568"/>
<path d="M35.0181 124.094C35.0181 124.522 34.724 125.041 34.3468 125.254C33.9801 125.469 33.6791 125.297 33.6791 124.871C33.6791 124.447 33.9796 123.926 34.3468 123.712C34.724 123.498 35.0181 123.668 35.0181 124.094Z" fill="#403568"/>
<path d="M36.7925 120.662C36.7925 121.085 36.4989 121.603 36.1257 121.822C35.756 122.035 35.4485 121.864 35.4485 121.438C35.4485 121.014 35.756 120.496 36.1257 120.28C36.4989 120.065 36.7925 120.235 36.7925 120.662Z" fill="#403568"/>
<path d="M38.916 118.314C38.916 118.743 38.614 119.261 38.2398 119.475C37.8696 119.692 37.5691 119.516 37.5691 119.095C37.5691 118.669 37.8691 118.148 38.2398 117.935C38.614 117.717 38.916 117.891 38.916 118.314Z" fill="#403568"/>
<path d="M41.7706 116.256C41.7706 116.682 41.4676 117.202 41.1009 117.412C40.7352 117.628 40.4242 117.458 40.4242 117.032C40.4242 116.604 40.7252 116.088 41.1009 115.872C41.4676 115.658 41.7706 115.831 41.7706 116.256Z" fill="#403568"/>
<path d="M44.9222 115.112C44.9222 115.536 44.6192 116.056 44.249 116.272C43.8764 116.482 43.5743 116.312 43.5743 115.888C43.5743 115.461 43.8764 114.944 44.249 114.728C44.6192 114.516 44.9222 114.685 44.9222 115.112Z" fill="#403568"/>
<path d="M49.0989 117.802C49.0989 118.227 48.7988 118.744 48.4252 118.96C48.0599 119.175 47.7549 119.001 47.7549 118.576C47.7549 118.15 48.0595 117.632 48.4252 117.416C48.7983 117.205 49.0989 117.372 49.0989 117.802Z" fill="#403568"/>
<path d="M49.4407 120.891C49.4407 121.316 49.1391 121.836 48.7655 122.052C48.3958 122.265 48.0997 122.091 48.0997 121.666C48.0997 121.24 48.3958 120.725 48.7655 120.507C49.1391 120.29 49.4407 120.462 49.4407 120.891Z" fill="#403568"/>
<path d="M48.9834 124.267C48.9834 124.691 48.6834 125.21 48.3087 125.427C47.938 125.639 47.6375 125.468 47.6375 125.042C47.6375 124.616 47.938 124.098 48.3087 123.883C48.6834 123.671 48.9834 123.842 48.9834 124.267Z" fill="#403568"/>
<path d="M47.5549 127.641C47.5549 128.068 47.2539 128.586 46.8792 128.801C46.509 129.015 46.209 128.846 46.209 128.42C46.209 127.993 46.509 127.474 46.8792 127.26C47.2539 127.045 47.5549 127.218 47.5549 127.641Z" fill="#403568"/>
<path d="M45.781 130.677C45.781 131.104 45.476 131.619 45.1103 131.833C44.7371 132.048 44.4341 131.878 44.4341 131.45C44.4341 131.025 44.7371 130.506 45.1038 130.293C45.476 130.081 45.781 130.248 45.781 130.677Z" fill="#403568"/>
<path d="M43.2081 133.421C43.2081 133.845 42.9001 134.368 42.5309 134.578C42.1602 134.795 41.8622 134.625 41.8622 134.197C41.8622 133.77 42.1602 133.252 42.5309 133.037C42.9001 132.822 43.2081 132.996 43.2081 133.421Z" fill="#403568"/>
<path d="M40.9167 135.196C40.9167 135.621 40.6162 136.142 40.2415 136.353C39.8748 136.57 39.5634 136.397 39.5634 135.971C39.5634 135.548 39.8748 135.026 40.2415 134.812C40.6157 134.597 40.9167 134.769 40.9167 135.196Z" fill="#403568"/>
<path d="M38.1119 135.94C38.1119 136.364 37.8139 136.882 37.4397 137.1C37.072 137.311 36.7675 137.143 36.7675 136.713C36.7675 136.289 37.068 135.771 37.4397 135.554C37.8139 135.342 38.1119 135.515 38.1119 135.94Z" fill="#403568"/>
<path d="M35.7087 135.654C35.7087 136.078 35.4027 136.598 35.0316 136.813C34.6663 137.028 34.3638 136.856 34.3638 136.429C34.3638 136 34.6599 135.484 35.0316 135.27C35.4027 135.057 35.7087 135.227 35.7087 135.654Z" fill="#403568"/>
<path d="M33.9911 133.818C33.9911 134.245 33.6906 134.766 33.3159 134.978C32.9482 135.196 32.6457 135.024 32.6457 134.597C32.6457 134.171 32.9482 133.654 33.3159 133.438C33.6901 133.225 33.9911 133.395 33.9911 133.818Z" fill="#403568"/>
<path d="M46.2667 122.825C46.2667 126.133 43.9246 130.162 41.0427 131.829C38.1593 133.492 35.8227 132.16 35.8227 128.852C35.8227 125.542 38.1593 121.511 41.0427 119.844C43.9246 118.183 46.2667 119.515 46.2667 122.825Z" fill="#403568"/>
<path d="M51.7469 95.1635L55.3453 96.8452L44.7371 126.29L40.664 126.238L51.7469 95.1635Z" fill="#403568"/>
<path d="M51.7468 95.1635L53.1729 96.885L42.8776 125.876L40.6639 126.238L51.7468 95.1635Z" fill="#574793"/>
<path d="M47.637 123.434C47.637 126.742 45.2974 130.773 42.4214 132.439C39.5335 134.1 37.1994 132.774 37.1994 129.463C37.1994 126.155 39.5335 122.119 42.4214 120.458C45.2974 118.795 47.637 120.124 47.637 123.434Z" fill="#403568"/>
<path d="M47.7424 123.835C47.7424 126.955 45.5332 130.756 42.812 132.328C40.0963 133.897 37.8985 132.64 37.8985 129.521C37.8985 126.399 40.0963 122.597 42.812 121.028C45.5332 119.459 47.7424 120.715 47.7424 123.835Z" fill="#5B4B97"/>
<path d="M66.0405 57.8671L69.6688 59.1856L65.7191 71.1278L62.0878 69.8063L66.0405 57.8671Z" fill="#453A6C"/>
<path d="M64.2006 57.063L67.8348 58.3825L63.8881 70.3262L60.2484 69.0067L64.2006 57.063Z" fill="#372E58"/>
<path d="M50.8926 48.8601L54.5249 50.1817L50.5752 62.1238L46.9414 60.8063L50.8926 48.8601Z" fill="#372E58"/>
<path d="M87.0813 86.2315L82.7529 94.5364L82.2574 94.426L86.7101 86.0593L87.0813 86.2315Z" fill="#5B4B97"/>
<path d="M72.8618 87.7093C72.8618 87.7093 71.7826 88.2741 71.689 85.2065L72.8618 87.7093Z" fill="#403568"/>
<path d="M93.797 78.9551L94.5832 78.4218C94.5832 78.4218 94.7543 80.5563 93.8776 81.1305L93.797 78.9551Z" fill="#403568"/>
<path d="M86.1534 80.005L86.2111 79.0138L87.2919 78.3844L87.26 79.393L86.1534 80.005Z" fill="#403568"/>
<path d="M45.4477 119.791L54.8916 96.6159L52.9491 95.9308L44.8173 119.676L45.4477 119.791Z" fill="#5B4B97"/>
<path d="M51.6404 94.3301L56.438 96.2661L55.5021 98.6007L50.703 96.6647L51.6404 94.3301Z" fill="#57478F"/>
<path d="M54.3198 73.6152L61.6421 69.6496L59.0089 68.2315L60.6549 62.6274L54.0118 60.1127L54.39 58.6608L53.0983 59.8813L49.2078 58.204L52.1833 49.3542L50.8926 48.8601L44.5495 70.1054L54.3198 73.6152Z" fill="#403568"/>
<path d="M45.9487 58.2115C50.7244 55.0698 55.2399 57.1178 57.0082 59.7763C58.7333 62.3726 58.0477 67.3652 53.1774 70.172L45.9487 58.2115Z" fill="#6E5BB1"/>
<path d="M48.9271 59.4061C52.1783 58.0776 55.3781 58.1258 56.738 59.3971C56.829 59.5235 56.9216 59.6499 57.0077 59.7758C57.139 59.9758 57.253 60.1818 57.353 60.4042C57.8749 62.3582 55.4971 65.0441 51.8504 66.5368C51.5817 66.6457 51.3224 66.7483 51.0577 66.8368L46.9607 60.4003C47.5603 60.0291 48.2196 59.6982 48.9271 59.4061Z" fill="#483880"/>
<path d="M44.8173 61.2038C44.8173 58.0338 47.0643 56.7545 49.8288 58.3517C52.5884 59.9474 54.8324 63.8106 54.8324 66.9851C54.8324 70.1541 52.5884 71.4309 49.8288 69.8391C47.0643 68.2414 44.8173 64.3748 44.8173 61.2038Z" fill="#6E5BB1"/>
<path d="M45.8083 126.389C45.8083 127.709 44.8749 129.314 43.7285 129.979C42.5836 130.645 41.6571 130.112 41.6571 128.791C41.6571 127.475 42.5891 125.869 43.7345 125.209C44.8828 124.545 45.8133 125.073 45.8083 126.389Z" fill="#5B4B97"/>
<path d="M44.7052 126.509C44.7052 127.279 44.1673 128.212 43.4956 128.597C42.8339 128.986 42.2975 128.678 42.2975 127.909C42.2975 127.142 42.8368 126.21 43.5081 125.822C44.1763 125.438 44.7142 125.742 44.7052 126.509Z" fill="#403568"/>
<path d="M50.6772 40.9885L56.1465 43.1859L51.4266 54.9338L45.9573 52.7364L50.6772 40.9885Z" fill="#4E4081"/>
<path d="M53.1799 41.978L57.7249 43.8011L53.0107 55.5529L48.4658 53.7297L53.1799 41.978Z" fill="#453A6C"/>
<g filter="url(#filter4_d_120_998)">
<path d="M45.3551 61.7313C45.3551 59.0768 47.231 58.0075 49.5427 59.3454C51.8604 60.6814 53.7357 63.9146 53.7357 66.5722C53.7357 69.2262 51.8604 70.2965 49.5427 68.962C47.231 67.6255 45.3551 64.3878 45.3551 61.7313Z" fill="url(#paint4_linear_120_998)"/>
</g>
<path d="M77.3077 74.4203C77.2121 73.5973 77.6176 72.6166 78.2058 72.2181C78.7954 71.8285 79.3532 72.1743 79.4507 72.9973C79.5457 73.8222 79.1437 74.8049 78.5536 75.2015C77.962 75.5946 77.4027 75.2433 77.3077 74.4203Z" fill="#312461"/>
<path d="M77.737 74.5645C77.6425 73.7455 78.0485 72.7573 78.6411 72.3647C79.2347 71.9702 79.785 72.319 79.8805 73.1434C79.9736 73.9654 79.581 74.9501 78.9794 75.3437C78.3888 75.7348 77.838 75.389 77.737 74.5645Z" fill="#5B4B97"/>
<path d="M77.6802 74.569C77.6016 73.7142 78.0226 72.7165 78.6281 72.3105C79.2545 71.8985 79.8397 72.2638 79.9407 73.132C79.9501 73.1922 79.9531 73.2589 79.9531 73.3221L77.6802 74.569Z" fill="#6E5BB1"/>
<g filter="url(#filter5_d_120_998)">
<path d="M47.2155 62.8359C47.2155 60.8869 48.5868 60.1037 50.282 61.0844C51.9802 62.0636 53.359 64.4366 53.3535 66.3806C53.3535 68.3276 51.9802 69.1112 50.282 68.132C48.5868 67.1523 47.2155 64.7829 47.2155 62.8359Z" fill="url(#paint5_linear_120_998)"/>
</g>
<path d="M60.6474 65.4192C63.1487 63.7682 65.5206 64.845 66.4406 66.2367C67.3536 67.599 66.9864 70.2118 64.4379 71.6861L60.6474 65.4192Z" fill="#6E5BB1"/>
<path d="M62.2103 66.0431C63.9135 65.346 65.5863 65.3744 66.3033 66.0381C66.3516 66.0993 66.4008 66.1725 66.4407 66.2362C66.5098 66.3402 66.5745 66.4481 66.6292 66.5646C66.8989 67.5891 65.65 68.9972 63.7383 69.7784C63.603 69.8386 63.4597 69.8898 63.3269 69.9366L61.1754 66.5646C61.4908 66.371 61.8332 66.1949 62.2103 66.0431Z" fill="#483880"/>
<path d="M60.0562 66.9851C60.0562 65.3242 61.236 64.654 62.6799 65.4894C64.1288 66.3293 65.3036 68.3524 65.3036 70.0133C65.3036 71.6792 64.1288 72.3489 62.6799 71.5125C61.2365 70.6746 60.0562 68.646 60.0562 66.9851Z" fill="#6E5BB1"/>
<g filter="url(#filter6_d_120_998)">
<path d="M60.3355 67.2637C60.3355 65.869 61.3172 65.3112 62.5268 66.0098C63.7464 66.7114 64.7256 68.4101 64.7256 69.8018C64.7256 71.1885 63.7464 71.7478 62.5268 71.0502C61.3172 70.3481 60.3355 68.6534 60.3355 67.2637Z" fill="url(#paint6_linear_120_998)"/>
</g>
<g filter="url(#filter7_d_120_998)">
<path d="M61.3122 67.84C61.3122 66.819 62.0326 66.4114 62.9208 66.9234C63.808 67.4364 64.5344 68.6784 64.5344 69.6979C64.5344 70.7169 63.808 71.1304 62.9208 70.6164C62.0326 70.1054 61.3122 68.8575 61.3122 67.84Z" fill="url(#paint7_linear_120_998)"/>
</g>
<path d="M104.02 85.3813C104.02 84.7936 104.343 84.3135 104.75 84.3135C105.15 84.3135 105.476 84.7941 105.476 85.3813C105.476 85.9729 105.15 86.455 104.75 86.455C104.343 86.455 104.02 85.9734 104.02 85.3813Z" fill="#5B4B97"/>
<path d="M104.51 85.421C104.51 85.0771 104.7 84.796 104.94 84.796C105.171 84.796 105.366 85.0766 105.366 85.421C105.366 85.7678 105.171 86.0439 104.94 86.0439C104.7 86.0439 104.51 85.7683 104.51 85.421Z" fill="#403568"/>
<path d="M90.3912 92.5533C90.3912 88.9469 93.0557 84.4812 96.3536 82.5775C99.6515 80.6758 102.326 82.055 102.326 85.6614C102.326 89.2658 99.6515 93.7325 96.3536 95.6312C93.0557 97.5359 90.3912 96.1552 90.3912 92.5533Z" fill="#5B4B97"/>
<path d="M91.4794 93.3718C91.4794 89.7683 94.1503 85.3017 97.4442 83.4034C100.74 81.4953 103.412 82.877 103.412 86.4809C103.412 90.0903 100.74 94.5525 97.4442 96.4572C94.1503 98.3584 91.4794 96.9766 91.4794 93.3718Z" fill="#5D5186"/>
<path d="M92.4155 92.8298C92.4155 89.7922 94.665 86.0285 97.4444 84.4289C100.221 82.8242 102.468 83.9865 102.468 87.0252C102.468 90.0623 100.221 93.8235 97.4444 95.4267C94.665 97.0308 92.4155 95.8625 92.4155 92.8298Z" fill="#403568"/>
<path d="M88.7677 84.6767L99.3684 82.5436C99.3684 82.5436 98.2255 81.9132 98.0558 81.8565C97.8827 81.8002 88.387 84.505 88.387 84.505L88.7677 84.6767Z" fill="#5B4B97"/>
<path d="M68.211 51.7211L82.5127 48.3187L83.6984 51.4455L67.0596 55.0767L68.211 51.7211Z" fill="#574793"/>
<path d="M68.5852 52.3645L82.8879 48.9581L84.4731 50.8822L67.8299 54.511L68.5852 52.3645Z" fill="#403568"/>
<path d="M36.1256 26.0096L95.7505 54.3901V57.3645L36.1256 28.9866V26.0096Z" fill="#5B4B97"/>
<path d="M34.8644 27.0381L94.4878 55.419V57.1366L34.8644 28.7597V27.0381Z" fill="#403568"/>
<path d="M50.6865 41.0199L57.7977 43.8779L56.6056 46.9116L48.9056 45.7707L50.6865 41.0199Z" fill="#372E58"/>
<path d="M49.5874 40.0978L59.6941 44.1575L58.8079 46.3667L48.6978 42.3105L49.5874 40.0978Z" fill="#483880"/>
<path d="M49.1122 39.9113L54.8517 42.214L54.3959 43.3569L48.6535 41.0502L49.1122 39.9113Z" fill="#5B4B97"/>
<path d="M60.1345 44.5148L65.6052 46.7108L60.8884 58.4618L55.4176 56.2658L60.1345 44.5148Z" fill="#4E4081"/>
<path d="M62.6335 45.5215L67.1794 47.3439L62.4686 59.0951L57.9227 57.2727L62.6335 45.5215Z" fill="#453A6C"/>
<path d="M59.7573 45.1427L66.8795 47.9948L65.6833 51.0329L57.982 49.8875L59.7573 45.1427Z" fill="#372E58"/>
<path d="M58.6253 43.5435L68.9926 47.7034L67.8784 50.4801L57.5111 46.3203L58.6253 43.5435Z" fill="#403568"/>
<path d="M60.979 44.5167L69.6155 47.9821L69.0448 49.4044L60.4083 45.939L60.979 44.5167Z" fill="#5B4B97"/>
<path d="M122.292 46.7225L117.605 33.7897L115.427 35.6222L118.783 48.9835L122.292 46.7225Z" fill="#302069"/>
<path d="M115.426 36.0063L104.364 29.214L106.809 26.9247L118.102 33.41L115.426 36.0063Z" fill="#302069"/>
<path d="M116.344 35.1616L105.28 28.3767L107.04 26.6969L118.324 33.1798L116.344 35.1616Z" fill="#64549D"/>
<path d="M123.097 46.1543L118.402 33.22L116.233 35.049L119.579 48.4158L123.097 46.1543Z" fill="#6A5AA5"/>
<path d="M85.4031 49.0934C86.1435 48.665 86.7814 48.7625 87.1128 49.2651C87.4924 49.2467 87.8094 49.4014 88.0074 49.6969C88.387 49.682 88.6941 49.8373 88.8926 50.1333C89.2673 50.1174 89.5822 50.2677 89.7832 50.5682C90.1669 50.5508 90.4734 50.703 90.6754 50.9996C91.057 50.9857 91.3595 51.1374 91.5645 51.4355C91.9357 51.425 92.2512 51.5748 92.4517 51.8718C92.8299 51.8549 93.1393 52.0077 93.3369 52.3072C93.7165 52.2888 94.032 52.443 94.23 52.7436C94.6032 52.7267 94.9187 52.8789 95.1182 53.176C95.5008 53.1615 95.8038 53.3128 96.0034 53.6113C96.6791 53.5825 97.1443 54.094 97.1443 54.9976C97.1443 56.24 96.2626 57.7561 95.1779 58.3875C94.4355 58.8085 93.7971 58.7154 93.4618 58.2139C93.0866 58.2283 92.7751 58.0795 92.5701 57.782C92.194 57.7994 91.8845 57.6417 91.684 57.3426C91.3113 57.361 90.9978 57.2117 90.7968 56.9112C90.4176 56.9266 90.1111 56.7734 89.9086 56.4758C89.5305 56.4903 89.2155 56.3375 89.018 56.0415C88.6388 56.0539 88.3313 55.9046 88.1288 55.6076C87.7546 55.62 87.4447 55.4703 87.2412 55.1722C86.8615 55.1851 86.5495 55.0349 86.355 54.7353C85.9768 54.7518 85.6619 54.6 85.4613 54.302C85.0842 54.3189 84.7737 54.1646 84.5732 53.8696C83.9059 53.896 83.4377 53.3849 83.4377 52.4809C83.4387 51.2399 84.3194 49.7218 85.4031 49.0934Z" fill="#372E58"/>
<path d="M33.2189 23.8055C33.9573 23.3781 34.6036 23.4756 34.935 23.9717C35.3097 23.9597 35.6222 24.1095 35.8222 24.4086C36.2023 24.3906 36.5093 24.5449 36.7118 24.8419C37.0835 24.8275 37.4025 24.9788 37.6035 25.2783C37.9782 25.2614 38.2901 25.4161 38.4887 25.7092C38.8603 25.6973 39.1743 25.847 39.3778 26.1476C39.7555 26.1321 40.0714 26.2824 40.27 26.5819C40.6461 26.5675 40.9586 26.7168 41.1546 27.0163C41.5313 27.0004 41.8413 27.1527 42.0478 27.4522C42.4225 27.4353 42.7314 27.5895 42.933 27.8886C43.3156 27.8707 43.6256 28.0209 43.8261 28.321C44.4943 28.2931 44.9615 28.8031 44.9615 29.7037C44.9615 30.9531 44.0769 32.4657 42.9957 33.0917C42.2558 33.5191 41.6164 33.4201 41.282 32.924C40.9014 32.9414 40.5949 32.7866 40.3904 32.4906C40.0157 32.504 39.6998 32.3513 39.5002 32.0552C39.1251 32.0706 38.8146 31.9159 38.6135 31.6223C38.2394 31.6353 37.9224 31.4855 37.7244 31.1855C37.3487 31.2024 37.0333 31.0471 36.8332 30.7491C36.4556 30.768 36.1466 30.6143 35.9451 30.3137C35.5719 30.3316 35.2574 30.1789 35.0564 29.8823C34.6773 29.8963 34.3713 29.746 34.1623 29.4455C33.7886 29.4609 33.4791 29.3106 33.2781 29.0131C32.9044 29.028 32.5905 28.8728 32.3899 28.5757C31.7177 28.6061 31.251 28.0975 31.251 27.1905C31.251 25.9451 32.1342 24.4305 33.2189 23.8055Z" fill="#372E58"/>
<path d="M42.812 31.4182C42.812 30.4231 43.3932 29.6145 44.1047 29.6145C44.8123 29.6145 45.3939 30.4231 45.3939 31.4182C45.3939 32.4128 44.8123 33.2199 44.1047 33.2199C43.3932 33.2199 42.812 32.4128 42.812 31.4182Z" fill="#5B4B97"/>
<path d="M42.8369 30.8137L46.2701 32.4194V34.2081L43.2932 32.8378C42.708 32.1497 42.811 31.6561 42.8369 30.8137Z" fill="#403568"/>
<defs>
<filter id="filter0_d_120_998" x="31.1874" y="46.8976" width="24.3871" height="25.6431" filterUnits="userSpaceOnUse" color-interpolation-filters="sRGB">
<feFlood flood-opacity="0" result="BackgroundImageFix"/>
<feColorMatrix in="SourceAlpha" type="matrix" values="0 0 0 0 0 0 0 0 0 0 0 0 0 0 0 0 0 0 127 0" result="hardAlpha"/>
<feOffset/>
<feGaussianBlur stdDeviation="5"/>
<feComposite in2="hardAlpha" operator="out"/>
<feColorMatrix type="matrix" values="0 0 0 0 0.929412 0 0 0 0 0.556863 0 0 0 0 0.45098 0 0 0 1 0"/>
<feBlend mode="normal" in2="BackgroundImageFix" result="effect1_dropShadow_120_998"/>
<feBlend mode="normal" in="SourceGraphic" in2="effect1_dropShadow_120_998" result="shape"/>
</filter>
<filter id="filter1_d_120_998" x="32.1602" y="47.8871" width="23.2183" height="24.139" filterUnits="userSpaceOnUse" color-interpolation-filters="sRGB">
<feFlood flood-opacity="0" result="BackgroundImageFix"/>
<feColorMatrix in="SourceAlpha" type="matrix" values="0 0 0 0 0 0 0 0 0 0 0 0 0 0 0 0 0 0 127 0" result="hardAlpha"/>
<feOffset/>
<feGaussianBlur stdDeviation="5"/>
<feComposite in2="hardAlpha" operator="out"/>
<feColorMatrix type="matrix" values="0 0 0 0 0.929412 0 0 0 0 0.556863 0 0 0 0 0.45098 0 0 0 1 0"/>
<feBlend mode="normal" in2="BackgroundImageFix" result="effect1_dropShadow_120_998"/>
<feBlend mode="normal" in="SourceGraphic" in2="effect1_dropShadow_120_998" result="shape"/>
</filter>
<filter id="filter2_d_120_998" x="131.504" y="12.0336" width="26.954" height="27.2539" filterUnits="userSpaceOnUse" color-interpolation-filters="sRGB">
<feFlood flood-opacity="0" result="BackgroundImageFix"/>
<feColorMatrix in="SourceAlpha" type="matrix" values="0 0 0 0 0 0 0 0 0 0 0 0 0 0 0 0 0 0 127 0" result="hardAlpha"/>
<feOffset/>
<feGaussianBlur stdDeviation="5"/>
<feComposite in2="hardAlpha" operator="out"/>
<feColorMatrix type="matrix" values="0 0 0 0 0.929412 0 0 0 0 0.556863 0 0 0 0 0.45098 0 0 0 1 0"/>
<feBlend mode="normal" in2="BackgroundImageFix" result="effect1_dropShadow_120_998"/>
<feBlend mode="normal" in="SourceGraphic" in2="effect1_dropShadow_120_998" result="shape"/>
</filter>
<filter id="filter3_d_120_998" x="121.28" y="4.78723" width="26.9517" height="27.2522" filterUnits="userSpaceOnUse" color-interpolation-filters="sRGB">
<feFlood flood-opacity="0" result="BackgroundImageFix"/>
<feColorMatrix in="SourceAlpha" type="matrix" values="0 0 0 0 0 0 0 0 0 0 0 0 0 0 0 0 0 0 127 0" result="hardAlpha"/>
<feOffset/>
<feGaussianBlur stdDeviation="5"/>
<feComposite in2="hardAlpha" operator="out"/>
<feColorMatrix type="matrix" values="0 0 0 0 0.929412 0 0 0 0 0.556863 0 0 0 0 0.45098 0 0 0 1 0"/>
<feBlend mode="normal" in2="BackgroundImageFix" result="effect1_dropShadow_120_998"/>
<feBlend mode="normal" in="SourceGraphic" in2="effect1_dropShadow_120_998" result="shape"/>
</filter>
<filter id="filter4_d_120_998" x="35.3551" y="48.7687" width="28.3806" height="30.7677" filterUnits="userSpaceOnUse" color-interpolation-filters="sRGB">
<feFlood flood-opacity="0" result="BackgroundImageFix"/>
<feColorMatrix in="SourceAlpha" type="matrix" values="0 0 0 0 0 0 0 0 0 0 0 0 0 0 0 0 0 0 127 0" result="hardAlpha"/>
<feOffset/>
<feGaussianBlur stdDeviation="5"/>
<feComposite in2="hardAlpha" operator="out"/>
<feColorMatrix type="matrix" values="0 0 0 0 0.929412 0 0 0 0 0.556863 0 0 0 0 0.45098 0 0 0 1 0"/>
<feBlend mode="normal" in2="BackgroundImageFix" result="effect1_dropShadow_120_998"/>
<feBlend mode="normal" in="SourceGraphic" in2="effect1_dropShadow_120_998" result="shape"/>
</filter>
<filter id="filter5_d_120_998" x="37.2155" y="50.6616" width="26.1381" height="27.8922" filterUnits="userSpaceOnUse" color-interpolation-filters="sRGB">
<feFlood flood-opacity="0" result="BackgroundImageFix"/>
<feColorMatrix in="SourceAlpha" type="matrix" values="0 0 0 0 0 0 0 0 0 0 0 0 0 0 0 0 0 0 127 0" result="hardAlpha"/>
<feOffset/>
<feGaussianBlur stdDeviation="5"/>
<feComposite in2="hardAlpha" operator="out"/>
<feColorMatrix type="matrix" values="0 0 0 0 0.929412 0 0 0 0 0.556863 0 0 0 0 0.45098 0 0 0 1 0"/>
<feBlend mode="normal" in2="BackgroundImageFix" result="effect1_dropShadow_120_998"/>
<feBlend mode="normal" in="SourceGraphic" in2="effect1_dropShadow_120_998" result="shape"/>
</filter>
<filter id="filter6_d_120_998" x="50.3356" y="55.7087" width="24.39" height="25.6417" filterUnits="userSpaceOnUse" color-interpolation-filters="sRGB">
<feFlood flood-opacity="0" result="BackgroundImageFix"/>
<feColorMatrix in="SourceAlpha" type="matrix" values="0 0 0 0 0 0 0 0 0 0 0 0 0 0 0 0 0 0 127 0" result="hardAlpha"/>
<feOffset/>
<feGaussianBlur stdDeviation="5"/>
<feComposite in2="hardAlpha" operator="out"/>
<feColorMatrix type="matrix" values="0 0 0 0 0.929412 0 0 0 0 0.556863 0 0 0 0 0.45098 0 0 0 1 0"/>
<feBlend mode="normal" in2="BackgroundImageFix" result="effect1_dropShadow_120_998"/>
<feBlend mode="normal" in="SourceGraphic" in2="effect1_dropShadow_120_998" result="shape"/>
</filter>
<filter id="filter7_d_120_998" x="51.3121" y="56.7025" width="23.2223" height="24.1349" filterUnits="userSpaceOnUse" color-interpolation-filters="sRGB">
<feFlood flood-opacity="0" result="BackgroundImageFix"/>
<feColorMatrix in="SourceAlpha" type="matrix" values="0 0 0 0 0 0 0 0 0 0 0 0 0 0 0 0 0 0 127 0" result="hardAlpha"/>
<feOffset/>
<feGaussianBlur stdDeviation="5"/>
<feComposite in2="hardAlpha" operator="out"/>
<feColorMatrix type="matrix" values="0 0 0 0 0.929412 0 0 0 0 0.556863 0 0 0 0 0.45098 0 0 0 1 0"/>
<feBlend mode="normal" in2="BackgroundImageFix" result="effect1_dropShadow_120_998"/>
<feBlend mode="normal" in="SourceGraphic" in2="effect1_dropShadow_120_998" result="shape"/>
</filter>
<linearGradient id="paint0_linear_120_998" x1="43.3809" y1="62.5407" x2="43.3809" y2="56.8976" gradientUnits="userSpaceOnUse">
<stop stop-color="#FFDC57"/>
<stop offset="1" stop-color="#DB408E"/>
</linearGradient>
<linearGradient id="paint1_linear_120_998" x1="43.7693" y1="62.0261" x2="43.7693" y2="57.8871" gradientUnits="userSpaceOnUse">
<stop stop-color="#FFDC57"/>
<stop offset="1" stop-color="#DB408E"/>
</linearGradient>
<linearGradient id="paint2_linear_120_998" x1="144.981" y1="29.2875" x2="144.981" y2="22.0336" gradientUnits="userSpaceOnUse">
<stop stop-color="#DB408E"/>
<stop offset="1" stop-color="#FFDC57"/>
</linearGradient>
<linearGradient id="paint3_linear_120_998" x1="134.756" y1="22.0395" x2="134.756" y2="14.7872" gradientUnits="userSpaceOnUse">
<stop stop-color="#DB408E"/>
<stop offset="1" stop-color="#FFDC57"/>
</linearGradient>
<linearGradient id="paint4_linear_120_998" x1="49.5454" y1="69.5363" x2="49.5454" y2="58.7687" gradientUnits="userSpaceOnUse">
<stop stop-color="#FFDC57"/>
<stop offset="1" stop-color="#DB408E"/>
</linearGradient>
<linearGradient id="paint5_linear_120_998" x1="50.2845" y1="68.5538" x2="50.2845" y2="60.6616" gradientUnits="userSpaceOnUse">
<stop stop-color="#FFDC57"/>
<stop offset="1" stop-color="#DB408E"/>
</linearGradient>
<linearGradient id="paint6_linear_120_998" x1="62.5306" y1="71.3505" x2="62.5306" y2="65.7087" gradientUnits="userSpaceOnUse">
<stop stop-color="#FFDC57"/>
<stop offset="1" stop-color="#DB408E"/>
</linearGradient>
<linearGradient id="paint7_linear_120_998" x1="62.9233" y1="70.8374" x2="62.9233" y2="66.7025" gradientUnits="userSpaceOnUse">
<stop stop-color="#FFDC57"/>
<stop offset="1" stop-color="#DB408E"/>
</linearGradient>
</defs>
</svg>
