<svg width="275" height="317" viewBox="0 0 275 317" fill="none" xmlns="http://www.w3.org/2000/svg">
<path d="M195.715 64.364C192.24 62.4955 185.081 62.6216 185.256 62.6396C169.093 102.93 157.995 145.427 151.193 188.471C148.37 206.338 146.27 224.297 144.88 242.238C143.534 259.643 143.001 277.054 140.844 294.38C140.492 295.955 140.224 297.54 139.938 299.131C139.859 299.574 139.784 300.011 139.699 300.454C139.244 302.791 141.308 304.989 142.728 306.167C145.884 308.782 150.776 309.233 154.781 308.654C157.915 308.201 161.066 306.566 162.95 303.964C165.248 300.788 162.674 298.186 162.53 294.712C162.327 289.837 161.954 282.909 161.812 277.039C161.624 269.192 161.593 261.339 161.717 253.492C161.956 238.066 162.808 222.647 164.27 207.287C167.214 176.362 172.624 145.674 180.453 115.611C184.887 98.5808 190.112 81.7671 196.057 65.2056C196.163 64.9044 195.988 64.5107 195.715 64.364Z" fill="#5B4B97"/>
<path d="M195.715 64.364C192.24 62.4955 185.081 62.6216 185.256 62.6396C169.803 101.162 159.027 141.708 152.161 182.814C151.847 184.701 151.492 186.582 151.193 188.471C151.764 189.318 152.439 190.041 153.273 190.476C154.459 191.099 155.473 190.96 156.307 190.394C156.554 193.503 157.815 196.596 159.444 199.507C157.463 216.449 157.246 239.973 157.185 251.178C157.128 261.396 157.082 271.616 157.01 281.833C156.971 287.398 157.1 294.452 152.367 298.356C148.653 301.419 144.103 300.853 139.938 299.131C139.859 299.571 139.784 300.011 139.699 300.454C139.244 302.791 141.308 304.989 142.728 306.167C144.898 307.966 147.886 308.723 150.846 308.844C152.189 308.898 153.53 308.834 154.781 308.654C157.915 308.201 161.066 306.569 162.95 303.964C165.248 300.788 162.674 298.186 162.53 294.712C162.327 289.837 161.954 282.909 161.812 277.039C161.624 269.192 161.593 261.339 161.717 253.492C161.956 238.066 162.808 222.647 164.27 207.287C167.214 176.362 172.624 145.674 180.453 115.611C184.887 98.5808 190.112 81.7671 196.057 65.2056C196.163 64.9044 195.988 64.5107 195.715 64.364Z" fill="#5B4B97"/>
<path opacity="0.8" d="M154.781 308.651C157.915 308.198 161.066 306.566 162.95 303.962C165.248 300.786 162.674 298.184 162.53 294.709C162.327 289.835 161.954 282.907 161.812 277.036C161.624 269.189 161.593 261.337 161.717 253.49C161.956 238.063 162.808 222.644 164.27 207.285C167.214 176.359 172.624 145.671 180.453 115.608C184.887 98.5782 190.112 81.7644 196.057 65.2029C196.163 64.907 195.988 64.5132 195.717 64.3665C192.243 62.498 185.083 62.6241 185.258 62.6421C169.803 101.162 159.027 141.708 152.161 182.814C154.444 182.824 156.459 182.801 156.943 182.709C158.201 182.467 158.899 190.705 161.382 193.732C163.866 196.758 161.107 211.94 160.255 219.234C158.152 237.234 160.093 288.427 160.255 293.479C160.417 298.529 159.789 303.944 155.537 306.404C154.155 307.204 152.48 308.056 150.843 308.844C152.189 308.898 153.53 308.834 154.781 308.651Z" fill="#5B4B97"/>
<path opacity="0.7" d="M153.414 211.827C151.077 211.207 150.452 216.964 149.235 225.012C148.017 233.063 145.554 254.298 145.39 264.626C145.225 274.951 144.239 282.943 144.239 288.476C144.239 294.009 149.124 294.009 151.034 289.737C152.946 285.465 153.229 266.394 153.414 259.571C153.6 252.748 154.125 233.719 154.521 226.16C154.917 218.606 156.346 212.604 153.414 211.827Z" fill="#5B4B97"/>
<path d="M175.99 46.0883C175.447 45.7435 174.835 46.4229 175.247 46.9248C175.504 47.2413 175.787 47.5476 176.075 47.8513C171.196 43.9265 163.305 41.3296 158.644 45.3265C153.744 43.265 148.205 42.4698 143.014 42.6782C138.194 42.8713 132.066 43.6331 128.82 47.5836C125.92 47.6917 115.509 48.8885 112.449 52.888C111.685 53.8865 117.998 53.5314 120.533 53.8582C114.462 54.8131 108.136 56.1925 104.453 61.4814C102.988 63.5867 111.492 62.1866 114.812 62.4568C106.839 64.3305 100.345 70.0878 95.8002 76.7793C94.745 78.3338 99.7533 77.7058 100.996 77.258C97.9518 79.2551 95.3061 81.9832 93.2703 84.8271C90.3363 88.927 85.8916 99.6283 90.2977 100.241C88.6969 102.639 87.7524 105.329 87.0394 108.011C86.5453 109.861 90.6966 106.451 91.914 105.326C87.8939 112.803 79.6865 120.49 81.3208 120.49C92.0787 120.49 100.453 111.655 105.943 102.784C113.304 97.9605 120.358 92.6356 127.654 87.7251C136.747 81.6075 146.012 75.7472 155.437 70.1547C159.547 67.7148 163.668 65.2467 168.012 63.2392C171.911 61.4377 176.526 60.9873 180.258 58.9721C186.524 55.5877 179.81 48.5127 175.99 46.0883Z" fill="#403568"/>
<path d="M183.791 53.4542C184.357 53.1479 184.918 53.8685 184.476 54.3421C184.198 54.638 183.894 54.9237 183.585 55.2094C188.725 51.6346 196.778 49.5911 201.151 53.9045C206.182 52.1905 211.762 51.7813 216.927 52.35C221.722 52.8777 227.783 54.0641 230.745 58.2309C233.63 58.5423 236.49 59.1908 239.243 60.0556C242.118 60.959 245.142 61.8983 246.707 64.6599C247.579 66.2015 241.127 64.9147 238.574 65.0665C244.566 66.4409 249.628 69.1355 254.086 73.7887C255.527 75.2943 247.016 74.0023 243.683 74.0383C251.507 76.4627 258.821 82.5623 261.091 90.3245C261.843 92.8904 257.645 90.2961 256.433 89.7634C259.331 91.9664 261.781 94.8747 263.613 97.8498C266.257 102.143 269.126 108.335 266.676 113.23C266.47 113.642 265.85 113.729 265.508 113.433C266.939 115.938 267.927 118.65 268.218 121.412C268.282 122.032 267.41 122.325 267.016 121.911C265.904 120.745 264.679 119.602 263.544 118.395C266.676 123.659 269.911 128.672 274.315 133.245C274.786 133.734 274.297 134.398 273.697 134.306C263.065 132.648 254.585 124.117 249.726 114.885C242.72 109.563 236.052 103.759 229.116 98.3517C220.471 91.6139 211.636 85.1257 202.623 78.8897C198.693 76.1693 194.752 73.4206 190.557 71.1172C186.795 69.048 182.219 68.2784 178.639 66.0111C172.621 62.1969 179.812 55.6083 183.791 53.4542Z" fill="#403568"/>
<path d="M228.089 153.302C223.742 150.764 219.797 147.239 216.657 143.504C218.569 144.49 222.973 147.751 223.428 145.797C224.185 142.56 221.719 139.865 219.882 137.495C217.735 134.725 215.331 132.031 212.58 129.835C215.946 131.135 224.604 135.77 223.634 132.893C221.786 127.429 217.9 122.4 212.84 119.456C212.799 119.307 212.745 119.157 212.688 119.005C216.567 120.537 221.464 121.726 219.233 116.692C218.415 114.849 216.87 113.323 215.293 111.833C217.2 112.247 218.193 110.788 218.072 109.743C217.645 106.05 214.806 101.577 211.648 98.8562C210.377 91.5496 202.782 80.5009 199.889 77.1886C197.416 74.3575 187.711 64.8762 184.538 67.7149C182.01 69.9772 183.287 85.571 184.11 87.3803C186.156 91.879 184.862 95.8013 185.348 100.704C185.59 103.141 186.416 112.888 186.972 113.969C188.107 116.177 190.146 114.975 191.484 113.235C191.579 115.042 191.468 116.856 191.106 118.697C190.624 121.134 189.047 123.594 188.787 126.075C188.568 128.145 191.744 125.473 192.197 124.987C191.407 127.928 188.895 133.372 190.55 134.558C191.677 135.366 193.085 133.933 193.993 132.859C193.594 135.168 193.311 137.497 193.154 139.788C192.961 142.616 192.696 144.876 193.684 147.632C194.153 148.94 196.088 147.851 196.845 146.418C196.665 149.272 196.132 152.062 195.723 154.965C195.208 158.632 193.587 161.458 194.15 162.312C195.092 163.736 198.456 159.16 199.454 157.433C199.454 161.244 198.801 164.503 198.775 167.29C198.749 170.149 198.826 173.451 200.978 175.505C202.319 176.784 202.502 170.844 203.997 168.294C204.203 173.016 203.912 183.314 206.674 182.444C207.621 182.145 209.512 177.34 210.529 173.33C210.876 176.378 210.668 183.671 213.059 182.593C218.25 180.248 219.444 171.776 218.6 165.846C219.9 167.604 223.081 173.112 224.059 170.376C226.053 164.791 223.027 158.828 219.202 154.442C222.164 156.213 230.701 154.826 228.089 153.302Z" fill="#403568"/>
<path d="M181.333 75.603C183.287 70.8804 184.679 65.697 182.082 64.5543C178.497 62.9741 158.942 67.985 157.1 68.8111C149.875 72.054 139.025 89.0633 142.481 88.4122C143.508 88.1934 144.545 88.1522 145.59 88.2166C140.718 92.9315 138.258 99.9345 136.204 106.199C135.432 108.554 139.851 104.876 141.086 104.037C134.819 110.242 130.568 118.604 130.205 127.28C130.097 129.892 134.225 124.608 135.259 122.858C133.754 128.399 130.102 132.671 127.719 137.909C126.612 140.344 132.037 137.062 133.213 135.623C131.8 138.565 130.452 141.607 129.356 144.629C128.462 147.094 132.145 144.186 133.092 143.352C131.237 148.039 130.498 153.662 133.195 157.582C133.579 163.316 129.247 169.58 132.163 170.852C134.487 171.863 138.386 166.873 139.805 162.92C140.319 165.452 140.059 169.583 139.887 171.92C139.63 175.405 142.661 175.693 144.465 172.79C156.088 154.087 159.622 120.714 169.693 101.072C172.053 96.4703 174.503 91.9149 177.048 87.4136C179.074 83.8413 179.604 79.7852 181.333 75.603Z" fill="#403568"/>
<path d="M182.636 56.728C184.944 50.9939 185.866 44.7939 182.471 38.8719C181.387 36.9803 180.837 37.6752 180.067 38.9903C179.841 36.9983 179.243 35.0397 178.381 33.2176C177.218 30.77 175.1 27.0691 172.135 26.7603C171.553 22.8071 162.983 17.5285 158.055 19.1731C157.764 18.908 152.531 9.90534 152.066 12.757C151.734 14.7901 152.148 17.0473 152.815 19.0624C150.925 16.6149 147.729 14.6795 144.898 14.0464C143.552 13.7452 140.178 13.5033 139.949 15.3615C136.523 14.1261 130.841 12.201 127.817 13.825C125.804 14.906 134.552 17.4359 137.18 18.8488C132.634 18.1359 122.154 18.8334 123.678 20.6838C124.381 21.5357 129.101 21.8729 133.607 22.2692C129.482 23.1365 120.631 29.3931 124.267 29.1357C128.339 28.8475 134.894 25.2547 140.654 25.8054C137.277 26.8529 129.657 30.4509 130.102 31.3234C130.951 32.986 140.868 31.5009 145.796 30.1137C143.251 31.8973 141.022 34.2625 138.788 36.2082C136.742 37.9917 141.413 37.7627 143.011 36.9931C145.49 35.8015 148.766 34.2084 151.281 32.9782C149.873 34.3294 145.559 38.5373 148.027 38.1719C150.941 37.7421 153.345 36.1979 156.155 35.4515C158.178 34.9136 160.031 34.9883 161.866 35.3383C158.865 36.3188 152.176 38.3263 154.06 39.9889C155.249 41.0389 160.057 41.2037 162.455 41.2474C165.353 41.2989 168.053 41.6643 170.586 42.5239C169.072 42.9769 168.151 43.8391 169.613 45.4914C171.484 47.6044 174.145 48.9993 176.019 51.2049C177.532 52.9859 178.559 54.8698 179.364 56.8927C180.497 56.9931 181.588 56.9493 182.636 56.728Z" fill="#5B4B97"/>
<path d="M187.05 62.8146C187.16 56.6352 188.73 50.5666 194.166 46.4384C195.9 45.1207 196.137 45.9726 196.333 47.4859C197.318 45.7409 198.631 44.1684 200.137 42.8301C202.162 41.0286 205.557 38.4472 208.406 39.3196C210.483 35.907 220.433 34.3885 224.329 37.8269C224.702 37.6957 233.031 31.4494 232.346 34.2547C231.857 36.257 230.599 38.1744 229.198 39.7675C231.893 38.249 235.589 37.7163 238.446 38.2387C239.802 38.4858 243.004 39.5796 242.489 41.3811C246.125 41.5793 252.107 42.0246 254.261 44.6986C255.692 46.477 246.65 45.3961 243.68 45.674C248.143 46.791 257.522 51.5188 255.396 52.6281C254.415 53.1402 249.94 51.6089 245.636 50.2165C249.098 52.6255 254.806 61.8392 251.558 60.1818C247.922 58.3287 243.287 52.4659 237.769 50.7261C240.471 53.009 246.084 59.2938 245.333 59.9218C243.902 61.1211 235.35 55.8863 231.353 52.6873C233 55.3201 234.132 58.3699 235.429 61.0336C236.618 63.4735 232.405 61.4403 231.234 60.1097C229.417 58.0456 227.021 55.3021 225.186 53.1865C225.956 54.9804 228.285 60.5369 226.156 59.2372C223.642 57.7033 222.031 55.3458 219.735 53.5623C218.083 52.278 216.348 51.6243 214.518 51.2306C216.899 53.3049 222.275 57.7625 219.892 58.5578C218.386 59.0596 213.895 57.3379 211.672 56.4422C208.985 55.3587 206.355 54.6432 203.688 54.4451C204.906 55.4514 205.418 56.6044 203.426 57.5566C200.878 58.774 197.885 59.0185 195.298 60.3207C193.211 61.3708 191.528 62.7039 189.999 64.2533C188.915 63.8904 187.927 63.4271 187.05 62.8146Z" fill="#5B4B97"/>
<path d="M239.634 43.7644C225.652 37.688 204.707 40.7249 195.074 53.4645C195.025 53.5289 195.12 53.6215 195.185 53.5752C201.621 49.0095 207.654 44.9586 215.493 43.1699C223.454 41.3555 231.615 42.0246 239.395 44.3332C239.724 44.4361 239.966 43.9085 239.634 43.7644Z" fill="#403568"/>
<path d="M179.683 44.7682C173.568 30.7288 154.966 17.7318 139.256 18.9415C139.197 18.9466 139.179 19.0315 139.241 19.0495C147.191 21.1471 154.585 22.7016 161.694 27.1695C169.039 31.7866 174.281 38.0277 179.305 44.9869C179.475 45.2186 179.797 45.0255 179.683 44.7682Z" fill="#403568"/>
<path d="M207.894 16.5968C207.855 14.9187 206.09 14.6459 204.736 14.8158C203.31 14.9934 201.923 15.5776 200.78 16.4603C202.105 13.8198 202.703 10.5924 202.327 7.95696C202.031 5.88259 200.072 8.56177 199.534 9.15372C199.794 6.14768 198.984 0.125305 198.06 0.125305C196.513 0.125305 195.617 5.81568 194.984 8.83201C194.15 6.46939 191.978 2.54455 190.612 5.79251C189.85 7.60437 190.151 10.1446 191.034 12.4583C189.775 11.5292 185.348 8.92981 186.334 11.2178C187.289 13.4337 189.407 14.8389 190.593 16.8721C188.419 15.1349 185.696 13.583 184.672 15.4515C183.928 16.8104 185.624 17.9042 186.422 18.6634C187.271 19.469 187.976 20.3157 188.596 21.1959C187.487 20.6245 185.032 19.0855 184.031 20.0352C182.713 21.286 185.575 26.5543 185.953 29.1948C185.04 28.4639 183.863 28.4382 182.818 29.9592C181.449 31.9512 183.166 35.2095 183.555 37.2169C183.941 39.2012 184.049 41.1289 184.02 43.054C182.77 40.9796 181.037 39.2939 179.462 41.4275C178.34 42.9485 179.38 45.1181 179.864 46.6443C180.404 48.348 183.506 57.6338 183.575 62.9948C183.956 62.6139 186.777 60.8535 187.878 60.102C189.621 57.0959 191.373 53.7707 193.916 51.3232C196.127 49.1973 199.985 47.3881 201.073 44.3203C201.817 42.2253 200.219 41.0852 197.895 41.2293C198.042 41.1521 203.06 34.7102 205.225 33.027C208.491 30.4868 206.748 28.3816 203.12 28.8886C206.313 24.6781 202.736 22.8816 202.757 22.8636C204.031 21.8264 207.935 18.4446 207.894 16.5968Z" fill="#5B4B97"/>
<path d="M195.411 13.0658C195.409 13.0117 195.337 13.0143 195.329 13.0658C194.457 20.1871 193.71 27.3058 191.957 34.2779C190.321 40.7918 187.544 46.7988 185.49 53.1531C185.353 53.5752 185.963 53.8043 186.187 53.4465C189.834 47.6223 191.795 40.4676 193.327 33.8249C194.899 27.015 195.864 20.061 195.411 13.0658Z" fill="#403568"/>
<path opacity="0.8" d="M156.062 298.341C150.933 300.824 147.369 299.136 142.551 296.92C142.371 296.838 142.17 297.051 142.329 297.208C145.703 300.544 152.75 303.107 156.492 298.897C156.762 298.59 156.425 298.166 156.062 298.341Z" fill="#403568"/>
<path opacity="0.8" d="M159.933 291.57C158.348 292.702 156.606 293.528 154.675 293.881C152.91 294.205 151.211 293.755 149.477 293.989C149.155 294.033 149.173 294.478 149.394 294.622C152.598 296.73 157.836 294.272 160.196 291.912C160.368 291.742 160.142 291.423 159.933 291.57Z" fill="#403568"/>
<path opacity="0.8" d="M160.677 202.341C159.375 202.168 157.993 202.086 156.709 201.818C155.378 201.543 154.215 200.899 152.997 200.328C152.694 200.186 152.31 200.578 152.609 200.83C154.732 202.626 158.065 203.571 160.731 202.727C160.955 202.657 160.888 202.369 160.677 202.341Z" fill="#403568"/>
<path opacity="0.8" d="M162.422 206.42C159.092 207.588 155.105 208.618 151.721 207.241C151.451 207.13 151.204 207.447 151.27 207.694C151.731 209.439 153.862 209.241 155.311 209.099C157.903 208.847 160.309 208.036 162.553 206.731C162.716 206.636 162.607 206.353 162.422 206.42Z" fill="#403568"/>
<path opacity="0.8" d="M157.872 213.454C155.414 213.052 153.265 213.124 150.995 211.881C150.547 211.637 150.164 212.296 150.596 212.563C152.622 213.824 155.468 214.988 157.869 214.216C158.209 214.105 158.284 213.521 157.872 213.454Z" fill="#403568"/>
<path opacity="0.8" d="M159.709 254.542C158.06 255.968 156.5 257.227 154.402 257.947C152.714 258.526 150.861 258.344 149.229 258.948C148.995 259.036 148.872 259.417 149.152 259.545C152.67 261.144 158.155 257.687 160.018 254.782C160.147 254.583 159.871 254.403 159.709 254.542Z" fill="#403568"/>
<path opacity="0.8" d="M156.863 252.447C154.009 253.003 151.363 252.833 148.612 251.917C148.362 251.835 148.136 252.198 148.347 252.373C150.838 254.432 154.369 254.686 157.092 252.995C157.391 252.81 157.192 252.383 156.863 252.447Z" fill="#403568"/>
<path opacity="0.8" d="M156.878 231.871C154.335 231.67 152.246 231.354 149.96 230.131C149.718 230 149.466 230.314 149.664 230.515C151.474 232.36 154.444 233.415 156.976 232.592C157.378 232.46 157.29 231.902 156.878 231.871Z" fill="#403568"/>
<path opacity="0.8" d="M158.688 277.208C157.064 277.878 155.63 278.843 153.916 279.337C152.012 279.885 150.097 279.826 148.149 280.021C147.773 280.06 147.678 280.564 148.059 280.691C151.407 281.797 156.704 280.415 158.914 277.597C159.035 277.44 158.93 277.111 158.688 277.208Z" fill="#403568"/>
<path d="M188.496 59.8112C193.697 58.0894 198.788 57.76 204.023 59.0854C208.486 60.2152 215.121 62.0605 218.307 65.7924C219.277 66.9273 214.598 66.5361 212.977 66.4409C220.644 69.3517 229.932 72.5405 233.494 79.7571C234.119 81.0259 229.479 79.6104 226.993 79.142C228.105 79.9218 229.196 80.7325 230.264 81.5741C232.104 83.023 236.116 85.3007 236.598 87.9387C238.688 89.1689 253.02 98.0764 254.536 103.463C254.93 104.855 251.471 103.378 249.062 102.935C253.661 107.563 257.47 113.053 260.075 118.761C260.618 119.95 261.367 122.868 259.362 122.812C260.782 125.54 261.897 128.456 262.471 131.467C263.158 135.068 254.541 126.618 251.847 126.189C253.795 128.464 261.444 138.66 262.092 142.119C262.479 144.186 254.099 135.433 251.178 134.808C258 141.824 261.961 154.81 260.934 161.996C260.646 164.019 257.331 158.431 256.502 156.784C258.608 166.415 257.357 177.363 249.427 183.664C248.964 184.032 248.679 176.686 248.864 173.554C247.989 176.697 244.978 184.075 244.272 182.513C241.125 175.554 242.43 167.045 244.98 159.803C242.311 163.082 236.644 172.617 236.091 169.671C235.01 163.9 237.39 159.553 240.366 154.882C238.178 156.401 229.914 159.839 231.386 157.41C235.473 150.659 241.485 145.517 243.328 137.788C240.42 142.184 235.151 144.783 230.514 146.953C227.868 148.191 237.236 135.384 239.586 129.424C236.698 131.004 231.947 134.27 229.685 137.24C227.608 139.968 227.176 140.735 226.769 139.548C225.5 135.845 227.603 132.041 229.6 129.12C232.053 125.527 235.373 122.235 239.264 120.174C233.419 121.52 221.982 131.241 222.713 127.143C223.765 121.255 227.49 115.621 232.171 111.712C228.434 113.92 219.321 119.618 219.588 117.214C220.191 111.75 229.237 101.986 229.237 101.986C229.237 101.986 225.135 103.103 220.373 106.449C219.014 107.403 216.147 109.691 214.32 108.623C213.682 108.25 213.401 107.625 213.311 106.896C212.724 107.71 210.967 109.969 210.29 108.888C206.087 102.187 209.554 95.5542 213.785 89.8227C210.555 91.1249 201.923 100.501 200.698 97.8139C199.98 96.2388 207.469 83.1389 207.76 82.5701C204.35 85.7022 200.003 94.8027 198.361 93.3434C196.042 91.2794 197.102 87.635 197.599 85.0537C198.019 82.8712 198.641 80.6836 199.668 78.7482C196.397 82.2509 193.422 93.0861 191.61 91.4955C188.964 89.1715 187.889 84.2301 187.559 81.0748C187.098 76.6609 186.73 72.0567 188.324 67.8925C185.933 70.1213 184.131 72.5482 182.613 75.5774C180.77 79.2552 178.484 79.2243 178.119 77.1113C177.131 71.3669 182.929 61.6539 188.496 59.8112Z" fill="#5B4B97"/>
<path d="M185.747 56.4371C208.028 63.2599 226.226 79.4946 237.663 99.6206C243.699 110.242 247.768 121.921 249.991 133.922C251.144 140.143 251.78 146.464 251.945 152.787C252.099 158.743 252.279 165.262 249.86 170.816C249.832 170.883 249.711 170.857 249.731 170.78C252.452 159.116 250.856 145.766 248.534 134.121C246.182 122.318 242.039 110.868 236.078 100.406C224.81 80.6322 206.702 65.2674 185.526 56.9647C185.173 56.8258 185.403 56.3316 185.747 56.4371Z" fill="#403568"/>
<path d="M206.818 71.408C203.125 73.5699 200.343 78.5602 200.41 82.8402C200.417 83.2417 201.03 83.3472 201.128 82.938C201.64 80.8019 202.031 78.7841 203.099 76.823C204.149 74.8927 205.611 73.3589 207.083 71.7529C207.248 71.5727 207.039 71.2793 206.818 71.408Z" fill="#5B4B97"/>
<path d="M202.718 67.3726C199.076 68.1138 195.234 72.4607 194.734 76.0896C194.68 76.4885 195.185 76.7742 195.424 76.3804C196.472 74.656 197.293 72.8648 198.654 71.3463C199.931 69.9231 201.531 69.0223 202.98 67.823C203.202 67.6351 202.955 67.3237 202.718 67.3726Z" fill="#5B4B97"/>
<path d="M214.153 78.5396C209.592 81.4376 204.589 88.075 203.971 93.5544C203.928 93.9353 204.466 94.0073 204.641 93.7345C206.18 91.3667 207.08 88.6052 208.604 86.1988C210.292 83.5351 212.452 81.3089 214.387 78.8433C214.516 78.6863 214.356 78.4109 214.153 78.5396Z" fill="#5B4B97"/>
<path d="M221.58 86.3225C218.271 87.5939 215.35 90.6797 213.177 93.3872C211.348 95.6701 209.878 98.2643 210.452 101.265C210.545 101.746 211.216 101.584 211.252 101.157C211.86 94.3498 217.728 91.2382 221.673 86.4847C221.73 86.4203 221.681 86.2865 221.58 86.3225Z" fill="#5B4B97"/>
<path d="M233.967 101.27C229.103 103.216 224.718 109.002 223.282 113.915C223.174 114.288 223.693 114.489 223.894 114.172C225.415 111.784 226.797 109.295 228.612 107.105C230.292 105.074 232.382 103.466 234.099 101.492C234.176 101.407 234.101 101.216 233.967 101.27Z" fill="#5B4B97"/>
<path d="M243.379 129.908C241.871 131.341 240.844 133.354 239.645 135.052C238.278 136.983 236.731 138.774 235.398 140.727C235.128 141.124 235.71 141.525 236.039 141.221C237.725 139.664 239.063 137.811 240.35 135.92C241.57 134.128 243.021 132.105 243.459 129.954C243.469 129.908 243.415 129.874 243.379 129.908Z" fill="#5B4B97"/>
<path d="M245.544 138.488C244.545 141.129 243.266 143.622 241.673 145.954C240.072 148.296 238.039 150.175 236.258 152.355C236.029 152.635 236.317 153.109 236.67 152.89C241.493 149.897 244.576 143.926 246.154 138.655C246.272 138.259 245.685 138.112 245.544 138.488Z" fill="#5B4B97"/>
<path d="M238.049 109.823C235.903 110.489 233.898 112.425 232.302 113.948C230.454 115.711 228.658 117.711 227.541 120.025C227.371 120.38 227.832 120.817 228.125 120.475C229.705 118.63 231.09 116.648 232.784 114.9C234.454 113.176 236.649 111.874 238.196 110.077C238.291 109.969 238.204 109.774 238.049 109.823Z" fill="#5B4B97"/>
<path d="M247.163 146.93C245.595 151.12 243.678 154.504 241.15 158.169C240.906 158.521 241.431 158.884 241.724 158.611C244.831 155.708 246.99 151.176 247.523 146.978C247.549 146.762 247.229 146.752 247.163 146.93Z" fill="#5B4B97"/>
<path d="M179.573 53.323C174.827 50.5821 169.912 49.2257 164.517 49.4625C159.918 49.6633 153.046 50.1239 149.17 53.1326C147.992 54.0488 152.653 54.615 154.259 54.8492C146.159 56.1437 136.418 57.3817 131.466 63.7232C130.594 64.8401 135.427 64.3949 137.957 64.4387C136.709 64.9766 135.476 65.5479 134.259 66.1553C132.164 67.2002 127.77 68.6157 126.764 71.1019C124.468 71.8843 108.628 77.6956 106.049 82.6628C105.382 83.947 109.068 83.2007 111.515 83.2573C106.072 86.8553 101.228 91.457 97.5196 96.5194C96.7475 97.5746 95.4221 100.279 97.3961 100.63C95.453 103.01 93.7672 105.64 92.5936 108.471C91.1884 111.858 101.344 105.332 104.067 105.458C101.697 107.293 92.1381 115.721 90.7998 118.98C90.002 120.925 99.9826 114.054 102.971 114.036C94.8662 119.52 88.3522 131.434 87.8967 138.679C87.768 140.717 92.1484 135.92 93.2937 134.476C89.2762 143.478 88.2828 154.453 94.7658 162.233C95.1441 162.688 96.9148 155.551 97.3704 152.448C97.5917 155.703 99.0407 163.538 100.05 162.153C104.543 155.979 104.994 147.383 103.964 139.772C105.912 143.525 109.526 154.01 110.666 151.238C112.895 145.808 111.446 141.067 109.482 135.891C111.314 137.824 118.709 142.866 117.761 140.187C115.131 132.746 110.288 126.492 110.051 118.55C112.007 123.442 116.637 127.061 120.737 130.124C123.076 131.871 116.503 117.433 115.409 111.117C117.916 113.251 121.905 117.412 123.516 120.781C124.996 123.875 125.266 124.711 125.905 123.633C127.899 120.264 126.61 116.113 125.251 112.847C123.578 108.832 120.994 104.933 117.602 102.125C123.05 104.629 132.28 116.468 132.395 112.309C132.56 106.328 130.056 100.058 126.265 95.2789C129.477 98.2 137.242 105.628 137.471 103.221C137.988 97.747 131.111 86.3508 131.111 86.3508C131.111 86.3508 134.9 88.2759 138.884 92.5199C140.021 93.7321 142.363 96.5528 144.371 95.8785C145.073 95.6417 145.472 95.0858 145.709 94.3935C146.118 95.3097 147.382 97.8783 148.265 96.9569C153.739 91.2485 151.693 84.05 148.712 77.5798C151.61 79.51 158.16 90.4455 159.905 88.0623C160.927 86.6648 156.253 72.3192 156.083 71.7015C158.786 75.4617 161.197 85.2519 163.102 84.1581C165.791 82.6087 165.493 78.8254 165.529 76.1952C165.562 73.9715 165.395 71.7067 164.782 69.6014C167.274 73.6961 167.989 84.9096 170.087 83.7205C173.149 81.9833 175.206 77.361 176.168 74.3395C177.517 70.111 178.811 65.6766 178.096 61.2782C179.985 63.9471 181.256 66.688 182.129 69.9643C183.187 73.938 185.431 74.373 186.216 72.3784C188.357 66.9454 184.651 56.257 179.573 53.323Z" fill="#5B4B97"/>
<path d="M176.683 51.439C155.965 55.0267 137.244 66.5207 123.351 82.3256C115.285 91.5007 108.931 102.112 104.319 113.41C101.928 119.268 100.024 125.329 98.5798 131.485C97.2209 137.284 95.7205 143.633 96.961 149.563C96.9764 149.635 97.0974 149.632 97.0948 149.555C96.7988 137.582 101.071 124.835 105.706 113.902C110.406 102.822 116.786 92.4529 124.746 83.4168C138.412 67.9079 156.871 57.1268 176.94 52.4041C176.868 52.0799 176.773 51.7607 176.683 51.439Z" fill="#403568"/>
<path d="M169.834 52.1546C165.168 49.8898 157.457 50.492 153.018 53.0837C152.802 53.2098 152.959 53.4955 153.177 53.462C156.119 53.0296 158.894 52.1932 161.9 52.1366C164.527 52.0877 167.075 52.6719 169.685 52.7105C169.968 52.7157 170.107 52.2859 169.834 52.1546Z" fill="#5B4B97"/>
<path d="M150.969 57.7934C146.638 57.4151 141.501 58.9773 138.273 61.9576C138.019 62.1918 138.343 62.5367 138.621 62.408C140.736 61.4249 142.713 60.3002 144.97 59.6233C146.954 59.0288 149.008 58.7199 151.049 58.3802C151.402 58.3185 151.281 57.8192 150.969 57.7934Z" fill="#5B4B97"/>
<path d="M125.827 74.373C121.251 74.4785 116.176 76.558 112.596 79.3685C112.313 79.5924 112.673 79.9707 112.959 79.8369C115.167 78.8048 117.316 77.7007 119.632 76.9209C121.704 76.2234 123.848 75.8322 125.946 75.2326C126.411 75.1013 126.332 74.3601 125.827 74.373Z" fill="#5B4B97"/>
<path d="M117.041 83.7205C113.327 85.2853 109.829 87.2696 106.579 89.6528C104.216 91.3848 100.973 93.3357 100.459 96.4189C100.404 96.7458 100.811 96.944 101.004 96.648C104.71 91.0168 111.433 87.2927 117.131 83.9289C117.239 83.8672 117.167 83.669 117.041 83.7205Z" fill="#5B4B97"/>
<path d="M100.479 119.224C95.5712 122.22 91.9552 127.599 91.2655 133.31C91.2269 133.621 91.685 133.637 91.7802 133.379C93.7619 127.9 96.4463 123.499 100.662 119.464C100.788 119.345 100.628 119.134 100.479 119.224Z" fill="#5B4B97"/>
<path d="M193.615 113.011C189.911 110.443 186.622 107.499 183.336 104.544C184.092 105 189.368 107.197 190.025 105.311C190.758 103.208 187.039 99.6849 186.09 98.0377C185.287 96.6454 184.406 95.1475 183.395 93.7655C185.732 95.1295 188.177 96.3134 190.655 97.3789C191.175 97.6028 191.896 97.3557 191.867 96.684C191.659 91.7709 189.819 86.361 186.512 82.377C188.053 83.2907 189.651 84.1194 191.36 84.8271C191.78 85.0021 192.326 84.5569 192.287 84.122C191.857 79.2757 191.638 74.2983 189.482 69.9231C192.066 71.0915 194.724 74.2777 195.36 72.2085C196.376 68.9065 191.662 59.3839 189.011 57.5463C181.858 52.5894 173.901 58.6787 168.324 64.2224C166.002 66.5284 163.498 68.6568 161.581 71.233C160.726 72.3783 158.888 74.8388 160.801 76.0098C161.578 76.4859 162.909 76.0664 163.694 75.9377C165.217 75.6881 166.813 75.5079 168.372 75.2248C161.967 78.7276 156.042 83.7951 153.116 90.3888C152.804 91.0914 153.471 91.9639 154.235 91.5084C155.828 90.5638 157.571 89.7454 159.257 88.8626C155.005 92.4426 151.561 97.2476 150.977 102.784C150.905 103.471 151.811 103.695 152.243 103.309C153.798 101.914 155.363 100.526 156.922 99.1316C156.256 100.074 150.04 110.139 149.523 114.779C149.304 116.738 150.285 116.442 150.632 116.622C146.514 120.817 144.342 126.945 144.466 132.808C144.481 133.547 145.361 133.894 145.894 133.4C147.456 131.946 149.067 130.52 150.604 129.027C147.963 133.884 146.406 140.439 147.369 145.46C147.603 146.677 148.262 148.464 149.721 148.69C150.442 148.801 150.933 148.582 151.327 148.219C151.178 149.22 151.111 150.226 151.101 151.163C151.085 152.499 151.103 154.326 151.528 155.912C151.721 159.456 152.606 162.989 153.911 166.109C154.24 166.894 155.28 166.966 155.586 166.109C156.15 164.539 156.739 162.971 157.295 161.394C157.401 162.472 160.739 174.555 164.015 178.498C164.409 178.972 164.975 178.936 165.312 178.498C168.398 174.491 170.902 168.744 171.425 163.09C172.006 164.845 172.598 166.595 173.162 168.337C173.373 168.991 174.238 168.96 174.462 168.337C175.949 164.191 176.284 159.644 175.306 155.387C176.346 156.64 177.542 157.76 178.755 158.823C180.554 160.4 180.294 154.702 179.483 152.509C178.966 151.114 178.474 149.696 177.975 148.281C181.423 150.494 182.335 138.774 181.187 134.102C182.623 130.01 182.522 125.944 181.946 121.641C183.552 123.743 185.516 125.658 187.158 127.249C187.804 127.874 188.676 127.223 188.555 126.436C187.896 122.163 186.476 117.317 184.185 113.073C187.003 114.427 190.12 115.019 193.44 114.362C194.114 114.229 194.094 113.343 193.615 113.011Z" fill="#5B4B97"/>
<path d="M182.028 61.3451C172.82 76.9029 168.972 95.5363 164.952 112.955C162.926 121.734 161.176 130.644 160.803 139.669C160.397 149.516 161.364 159.734 162.01 169.565C162.026 169.784 162.36 169.856 162.412 169.619C164.306 160.992 162.023 151.665 162.072 142.923C162.126 133.186 163.902 123.571 166.059 114.108C170.161 96.0973 174.783 78.442 182.43 61.5793C182.551 61.3143 182.185 61.0826 182.028 61.3451Z" fill="#403568"/>
<path d="M182.131 58.4677C176.526 59.1857 169.209 63.0617 167.721 68.9837C167.647 69.2822 168.048 69.5653 168.272 69.3028C170.205 67.038 171.757 64.7011 174.202 62.9175C176.644 61.134 179.38 59.9347 182.183 58.8357C182.36 58.7688 182.363 58.4394 182.131 58.4677Z" fill="#5B4B97"/>
<path d="M169.258 79.0827C164.988 79.9371 159.738 82.1556 157.437 86.0316C157.272 86.3095 157.64 86.5643 157.867 86.3636C159.63 84.8219 161.455 83.3524 163.516 82.2251C165.426 81.1802 167.5 80.4673 169.394 79.4044C169.574 79.304 169.446 79.0441 169.258 79.0827Z" fill="#5B4B97"/>
<path d="M166.795 86.9401C161.686 88.1626 157.532 93.0397 155.149 97.4484C155.103 97.5333 155.218 97.5951 155.275 97.523C156.835 95.4692 158.696 93.5493 160.688 91.915C162.7 90.2653 165.001 89.138 167.07 87.5964C167.384 87.3648 167.214 86.8397 166.795 86.9401Z" fill="#5B4B97"/>
<path d="M162.795 100.274C156.302 102.84 151.016 108.94 149.996 115.914C149.945 116.264 150.393 116.391 150.524 116.061C153.159 109.498 156.938 104.441 162.926 100.586C163.081 100.488 162.983 100.2 162.795 100.274Z" fill="#5B4B97"/>
<path d="M161.223 111.951C154.287 114.218 147.454 121.852 146.275 129.097C146.203 129.539 146.829 129.905 147.065 129.429C148.787 125.977 150.156 122.606 152.666 119.597C155.162 116.601 158.207 114.471 161.329 112.195C161.439 112.113 161.38 111.899 161.223 111.951Z" fill="#5B4B97"/>
<path d="M157.849 123.705C152.593 128.003 149.103 135.168 150.509 142.029C150.588 142.418 151.142 142.297 151.168 141.939C151.672 134.996 153.291 129.249 158.237 124.093C158.487 123.831 158.119 123.484 157.849 123.705Z" fill="#5B4B97"/>
<path d="M156.047 141.901C156.104 141.677 155.815 141.576 155.692 141.751C152.143 146.672 152.076 154.226 154.969 159.435C155.177 159.811 155.743 159.553 155.648 159.149C154.173 152.939 154.511 148.031 156.047 141.901Z" fill="#5B4B97"/>
<path d="M197.81 3.08513C196.412 5.35252 195.684 7.97251 196.111 10.626C196.16 10.9245 196.557 10.8035 196.59 10.5616C196.927 8.0523 197.29 5.61761 198.111 3.21124C198.17 3.03108 197.905 2.93071 197.81 3.08513Z" fill="#5B4B97"/>
<path d="M189.062 28.7033C188.498 27.4216 187.639 26.2969 187.075 25.0049C186.522 23.731 186.071 22.3695 185.791 21.0106C185.742 20.779 185.353 20.8279 185.371 21.0672C185.58 23.7902 186.367 27.2312 188.534 29.1099C188.835 29.3673 189.214 29.0482 189.062 28.7033Z" fill="#5B4B97"/>
<path d="M186.355 16.2827C186.162 16.2261 185.938 16.468 186.074 16.6481C186.759 17.5644 187.713 18.2541 188.408 19.1781C189.162 20.1818 189.602 21.3399 190.236 22.4106C190.382 22.6576 190.825 22.5676 190.802 22.2562C190.642 20.0428 188.56 16.9235 186.355 16.2827Z" fill="#5B4B97"/>
<path d="M184.988 32.6848C184.841 32.3322 184.257 32.4763 184.401 32.8469C185.498 35.6831 185.23 38.2079 184.916 41.147C184.872 41.551 185.433 41.5433 185.562 41.2345C186.692 38.5347 186.079 35.2919 184.988 32.6848Z" fill="#5B4B97"/>
<path d="M146.681 26.0422C142.383 26.0834 137.689 27.7048 134.086 30.0262C133.849 30.1781 133.996 30.613 134.287 30.5049C138.438 28.9607 142.51 27.8438 146.761 26.629C147.08 26.5363 147.024 26.0396 146.681 26.0422Z" fill="#5B4B97"/>
<path d="M138.693 22.7531C134.681 22.524 130.192 24.0965 127.112 26.6445C127.022 26.7191 127.119 26.8941 127.23 26.8478C131.139 25.2598 134.668 24.3487 138.812 23.6255C139.326 23.5355 139.167 22.7814 138.693 22.7531Z" fill="#5B4B97"/>
<path d="M153.221 28.3996C148.946 29.5243 145.168 32.1211 141.799 34.9264C141.351 35.2996 141.992 35.9276 142.438 35.5621C145.824 32.7903 149.595 30.9089 153.391 28.7985C153.61 28.6775 153.461 28.3378 153.221 28.3996Z" fill="#5B4B97"/>
<path d="M170.313 38.8409C166.635 37.3945 161.179 37.6416 157.344 38.3468C157.141 38.3828 157.2 38.6865 157.391 38.6942C159.54 38.7843 161.684 38.6247 163.835 38.7997C165.984 38.9722 168.079 39.4792 170.244 39.3582C170.55 39.3376 170.586 38.949 170.313 38.8409Z" fill="#5B4B97"/>
<path d="M108.93 300.358C108.846 299.916 108.771 299.475 108.691 299.035C108.534 298.163 108.357 297.298 108.194 296.428C108.061 295.713 107.945 294.995 107.785 294.282C105.628 276.956 105.096 259.545 103.75 242.139C103.335 236.776 102.275 227.899 100.939 217.823C100.821 216.928 100.695 216.006 100.574 215.095C97.4545 191.925 93.0793 163.653 91.5788 156.529H77.2152C80.3113 173.307 82.7434 190.203 84.3623 207.186C85.8241 222.546 86.676 237.965 86.9153 253.391C87.0363 261.241 87.0054 269.091 86.8201 276.938C86.6786 282.808 86.308 289.737 86.1021 294.611C85.9554 298.088 83.3817 300.688 85.6826 303.864C86.2668 304.672 87.0029 305.351 87.7955 305.966C89.5508 307.33 91.6921 308.239 93.8514 308.553C97.856 309.132 102.746 308.681 105.904 306.067C107.322 304.893 109.386 302.695 108.93 300.358Z" fill="#5B4B97"/>
<path d="M108.93 300.358C108.846 299.916 108.771 299.475 108.691 299.035C108.534 298.163 108.357 297.298 108.194 296.428C106.645 299.017 104.375 301.689 101.271 302.608C94.6157 304.579 93.383 294.799 93.105 285.977C92.8271 277.154 92.6134 235.674 91.6869 230.002C90.4773 222.598 90.8839 220.634 92.091 219.936C92.9815 219.424 98.2266 218.354 100.939 217.823C100.821 216.928 100.695 216.006 100.574 215.095C97.4545 191.925 93.0793 163.653 91.5788 156.529H77.2152C80.3113 173.307 82.7434 190.203 84.3623 207.186C85.8241 222.546 86.676 237.965 86.9153 253.391C87.0363 261.241 87.0054 269.091 86.8201 276.938C86.6786 282.808 86.308 289.737 86.1021 294.611C85.9554 298.088 83.3817 300.688 85.6826 303.864C86.2668 304.672 87.0029 305.351 87.7955 305.966C89.5508 307.33 91.6921 308.239 93.8514 308.553C97.856 309.132 102.746 308.681 105.904 306.067C107.322 304.893 109.386 302.695 108.93 300.358Z" fill="#5B4B97"/>
<path opacity="0.8" d="M90.4752 259.856C90.2745 251.6 90.3749 228.857 89.6645 225.377C88.4111 219.216 89.8086 215.299 91.9448 216.765C94.3923 218.446 98.5771 216.31 100.572 215.1C97.4524 191.93 93.0772 163.658 91.5768 156.534H77.2131C80.3093 173.312 82.7414 190.208 84.3602 207.191C85.822 222.551 86.6739 237.97 86.9133 253.396C87.0342 261.246 87.0034 269.096 86.8181 276.943C86.6765 282.813 86.3059 289.742 86.1 294.616C85.9533 298.093 83.3796 300.693 85.6805 303.869C86.2647 304.677 87.0008 305.356 87.7935 305.971C88.1358 302.61 89.4638 299.251 89.8344 293.592C90.3028 286.383 90.676 268.11 90.4752 259.856Z" fill="#5B4B97"/>
<path opacity="0.7" d="M96.1321 220.737C93.301 221.29 94.4643 226.365 94.7063 237.219C94.9482 248.069 94.5107 274.882 95.8798 283.49C97.249 292.097 100.654 296.39 102.746 295.332C104.836 294.274 103.513 287.927 103.681 277.1C103.832 267.4 102.664 247.068 101.269 237.221C99.8742 227.369 100.528 219.875 96.1321 220.737Z" fill="#5B4B97"/>
<path opacity="0.8" d="M92.5676 298.248C97.6969 300.731 101.261 299.043 106.079 296.827C106.259 296.745 106.46 296.958 106.301 297.115C102.927 300.451 95.8799 303.014 92.1378 298.804C91.8676 298.498 92.2047 298.07 92.5676 298.248Z" fill="#403568"/>
<path opacity="0.8" d="M88.6941 291.477C90.2795 292.609 92.0218 293.435 93.9521 293.788C95.7176 294.112 97.4162 293.662 99.1509 293.896C99.4726 293.94 99.4546 294.385 99.2332 294.529C96.029 296.637 90.7916 294.179 88.4316 291.819C88.2617 291.649 88.4882 291.327 88.6941 291.477Z" fill="#403568"/>
<path opacity="0.8" d="M87.953 202.248C89.2553 202.078 90.6374 201.993 91.9216 201.725C93.2522 201.45 94.4155 200.806 95.6354 200.235C95.9391 200.094 96.32 200.485 96.024 200.737C93.9008 202.533 90.5679 203.478 87.9015 202.634C87.6751 202.564 87.742 202.276 87.953 202.248Z" fill="#5B4B97"/>
<path opacity="0.8" d="M86.2078 206.324C89.5381 207.493 93.5248 208.522 96.9091 207.145C97.1794 207.035 97.4264 207.351 97.3621 207.598C96.9014 209.343 94.7704 209.145 93.3214 209.003C90.7298 208.751 88.3234 207.941 86.0791 206.636C85.9144 206.541 86.0225 206.26 86.2078 206.324Z" fill="#5B4B97"/>
<path opacity="0.8" d="M90.7583 213.358C93.2161 212.957 95.3651 213.029 97.6351 211.786C98.0829 211.541 98.4664 212.197 98.034 212.468C96.006 213.729 93.1621 214.892 90.7608 214.12C90.4185 214.012 90.3465 213.425 90.7583 213.358Z" fill="#5B4B97"/>
<path opacity="0.8" d="M88.9209 254.447C90.5706 255.873 92.1303 257.131 94.2278 257.852C95.9161 258.431 97.7692 258.248 99.4009 258.853C99.6351 258.94 99.7586 259.321 99.4781 259.45C95.9599 261.048 90.4754 257.592 88.6121 254.686C88.4834 254.488 88.7588 254.308 88.9209 254.447Z" fill="#403568"/>
<path opacity="0.8" d="M91.7672 252.352C94.6214 252.908 97.2671 252.738 100.018 251.822C100.268 251.739 100.494 252.102 100.283 252.277C97.7921 254.336 94.2611 254.591 91.5381 252.9C91.2396 252.715 91.4377 252.287 91.7672 252.352Z" fill="#403568"/>
<path opacity="0.8" d="M91.7519 231.775C94.2946 231.575 96.3845 231.258 98.6699 230.036C98.9118 229.904 99.1666 230.218 98.9684 230.419C97.1591 232.264 94.1891 233.32 91.6566 232.499C91.25 232.365 91.3401 231.809 91.7519 231.775Z" fill="#403568"/>
<path opacity="0.8" d="M89.9426 277.116C91.5666 277.785 93.0027 278.75 94.7141 279.244C96.6187 279.792 98.5335 279.733 100.482 279.929C100.857 279.967 100.953 280.472 100.572 280.598C97.2235 281.704 91.9269 280.322 89.7161 277.504C89.5951 277.347 89.7006 277.015 89.9426 277.116Z" fill="#403568"/>
<path d="M84.8981 107.745C85.3433 107.462 85.8452 108.021 85.5106 108.433C85.2995 108.693 85.0679 108.942 84.8311 109.194C88.8358 105.972 95.3188 103.839 99.1459 107.12C103.168 105.427 107.716 104.773 111.981 104.945C115.939 105.105 120.973 105.73 123.637 108.973C126.02 109.063 134.567 110.044 137.079 113.33C137.707 114.151 132.521 113.858 130.439 114.128C135.427 114.913 140.62 116.046 143.645 120.387C144.849 122.117 137.864 120.966 135.139 121.188C141.689 122.727 147.019 127.455 150.75 132.949C151.618 134.226 147.505 133.711 146.483 133.343C148.982 134.983 151.157 137.224 152.827 139.559C155.236 142.925 158.886 151.714 155.27 152.216C156.585 154.185 157.36 156.393 157.946 158.596C158.35 160.117 154.943 157.314 153.944 156.39C157.246 162.531 163.984 168.844 162.643 168.844C153.808 168.844 146.934 161.589 142.425 154.306C136.382 150.345 130.588 145.972 124.594 141.939C117.128 136.915 109.518 132.103 101.779 127.509C98.4021 125.504 95.0203 123.478 91.4506 121.831C88.249 120.351 84.458 119.983 81.3953 118.328C76.248 115.546 81.7633 109.737 84.8981 107.745Z" fill="#403568"/>
<path d="M78.4921 113.794C78.0288 113.541 77.5655 114.133 77.931 114.522C78.16 114.766 78.4097 115.001 78.6619 115.235C74.4411 112.298 67.8294 110.623 64.2365 114.162C60.1058 112.754 55.5221 112.417 51.2807 112.885C47.343 113.317 42.3655 114.293 39.9334 117.713C37.5631 117.968 35.2159 118.501 32.9537 119.211C30.591 119.952 28.1074 120.724 26.8258 122.992C26.1103 124.258 31.4069 123.2 33.5044 123.324C28.5836 124.454 24.4271 126.664 20.7674 130.486C19.5835 131.724 26.5735 130.661 29.3093 130.692C22.8829 132.684 16.8786 137.693 15.0126 144.068C14.395 146.175 17.8437 144.044 18.8371 143.607C16.4565 145.416 14.4439 147.805 12.9408 150.247C10.7712 153.773 8.41378 158.858 10.4264 162.876C10.5962 163.216 11.1033 163.285 11.3864 163.043C10.2102 165.099 9.39949 167.328 9.16014 169.596C9.10609 170.105 9.82414 170.345 10.1484 170.005C11.0621 169.048 12.0658 168.108 13 167.117C10.429 171.441 7.77036 175.556 4.15436 179.311C3.76831 179.713 4.16981 180.258 4.66138 180.181C13.3912 178.82 20.3556 171.814 24.3473 164.232C30.102 159.862 35.5762 155.096 41.2743 150.656C48.3725 145.125 55.6302 139.795 63.0295 134.674C66.2569 132.44 69.492 130.183 72.9355 128.291C76.0265 126.592 79.7814 125.962 82.7231 124.096C87.6646 120.974 81.758 115.564 78.4921 113.794Z" fill="#403568"/>
<path d="M42.1158 195.79C45.6855 193.708 48.9257 190.813 51.5045 187.743C49.9346 188.553 46.3186 191.23 45.9428 189.627C45.3226 186.968 47.3455 184.755 48.8536 182.809C50.6166 180.534 52.588 178.323 54.8503 176.519C52.0862 177.587 44.9751 181.393 45.773 179.031C47.2889 174.542 50.4828 170.414 54.6367 167.997C54.6701 167.874 54.7139 167.753 54.7602 167.627C51.574 168.885 47.5539 169.861 49.3864 165.728C50.0581 164.214 51.3269 162.961 52.6215 161.738C51.0541 162.081 50.2409 160.879 50.3387 160.024C50.6887 156.993 53.0204 153.317 55.6147 151.083C56.6596 145.084 62.8956 136.009 65.271 133.292C67.3017 130.968 75.2723 123.182 77.8769 125.514C79.9512 127.37 78.9037 140.176 78.2269 141.664C76.5488 145.36 77.6092 148.579 77.2103 152.604C77.0121 154.607 76.3326 162.611 75.8771 163.496C74.9454 165.311 73.27 164.325 72.171 162.894C72.0938 164.376 72.1839 165.869 72.4825 167.38C72.8788 169.38 74.1734 171.402 74.387 173.438C74.5645 175.137 71.9574 172.944 71.5868 172.543C72.2354 174.959 74.2995 179.427 72.938 180.403C72.0115 181.067 70.8559 179.888 70.1095 179.008C70.4364 180.904 70.6706 182.817 70.7993 184.698C70.9588 187.022 71.175 188.875 70.3643 191.14C69.9809 192.213 68.3903 191.317 67.7675 190.141C67.9142 192.483 68.3543 194.776 68.6889 197.16C69.111 200.171 70.4441 202.492 69.9809 203.192C69.2088 204.361 66.4472 200.603 65.6262 199.185C65.6262 202.315 66.1641 204.991 66.1847 207.279C66.2053 209.629 66.1435 212.339 64.3754 214.027C63.2739 215.078 63.1246 210.2 61.897 208.105C61.7297 211.984 61.9665 220.441 59.6991 219.726C58.9218 219.481 57.3673 215.533 56.5335 212.241C56.2504 214.746 56.4176 220.732 54.4565 219.847C50.192 217.921 49.2114 210.965 49.9063 206.093C48.8382 207.537 46.2259 212.059 45.423 209.812C43.7835 205.226 46.2697 200.328 49.4096 196.727C46.98 198.181 39.9694 197.041 42.1158 195.79Z" fill="#403568"/>
<path d="M80.51 131.984C78.9066 128.106 77.7613 123.851 79.8949 122.912C82.8392 121.615 98.8962 125.73 100.41 126.41C106.342 129.073 115.252 143.041 112.416 142.505C111.574 142.325 110.72 142.292 109.863 142.343C113.865 146.214 115.885 151.966 117.571 157.111C118.204 159.044 114.578 156.025 113.561 155.335C118.706 160.431 122.198 167.297 122.497 174.421C122.587 176.568 119.197 172.229 118.345 170.79C119.583 175.34 122.582 178.848 124.538 183.151C125.446 185.151 120.991 182.456 120.026 181.275C121.187 183.689 122.293 186.188 123.194 188.672C123.928 190.697 120.904 188.309 120.126 187.624C121.65 191.472 122.257 196.089 120.041 199.309C119.725 204.018 123.284 209.163 120.888 210.206C118.981 211.034 115.777 206.94 114.614 203.692C114.192 205.771 114.403 209.163 114.547 211.081C114.758 213.943 112.269 214.179 110.787 211.796C101.241 196.436 98.3403 169.032 90.0712 152.903C88.1332 149.125 86.1206 145.383 84.0308 141.687C82.3682 138.75 81.9332 135.418 80.51 131.984Z" fill="#403568"/>
<path d="M79.442 116.483C77.5478 111.773 76.7885 106.683 79.5784 101.818C80.4689 100.266 80.9193 100.835 81.5524 101.916C81.7403 100.279 82.2267 98.6707 82.937 97.1754C83.8918 95.1654 85.6316 92.1259 88.0663 91.8737C88.5424 88.6283 95.5814 84.2942 99.6298 85.6454C99.8691 85.4266 104.167 78.0351 104.548 80.3771C104.821 82.0474 104.481 83.9005 103.933 85.5553C105.485 83.5453 108.107 81.9573 110.434 81.4375C111.538 81.1904 114.31 80.9922 114.498 82.5184C117.311 81.5044 121.977 79.9241 124.46 81.2547C126.113 82.1426 118.93 84.2196 116.77 85.3803C120.502 84.7935 129.109 85.3674 127.858 86.8885C127.281 87.5885 123.405 87.8639 119.704 88.1908C123.094 88.9037 130.362 94.0407 127.374 93.8296C124.031 93.5929 118.649 90.6434 113.916 91.0964C116.691 91.956 122.947 94.9106 122.582 95.6286C121.884 96.9927 113.741 95.7753 109.693 94.6352C111.783 96.0996 113.613 98.0402 115.448 99.641C117.128 101.105 113.291 100.918 111.978 100.284C109.942 99.3064 107.253 97.999 105.186 96.9875C106.342 98.0968 109.883 101.553 107.858 101.252C105.467 100.897 103.49 99.6307 101.184 99.0182C99.5243 98.5781 98.0032 98.6373 96.4925 98.9255C98.9581 99.7311 104.45 101.381 102.903 102.745C101.928 103.607 97.9801 103.743 96.0086 103.777C93.628 103.818 91.4121 104.119 89.3326 104.824C90.5756 105.198 91.3323 105.903 90.1304 107.259C88.5939 108.994 86.4089 110.139 84.8698 111.951C83.6267 113.413 82.7826 114.959 82.1212 116.622C81.1972 116.699 80.3016 116.666 79.442 116.483Z" fill="#5B4B97"/>
<path d="M75.8155 121.481C75.7228 116.406 74.436 111.423 69.9707 108.031C68.5449 106.948 68.3519 107.648 68.1923 108.891C67.3816 107.457 66.3058 106.168 65.0679 105.066C63.4053 103.589 60.6154 101.468 58.276 102.184C56.5696 99.381 48.3983 98.1354 45.1992 100.956C44.8929 100.848 38.0547 95.7187 38.6158 98.0221C39.0173 99.6667 40.0519 101.239 41.1997 102.549C38.9864 101.304 35.952 100.863 33.6074 101.293C32.493 101.497 29.8653 102.395 30.2874 103.875C27.3019 104.037 22.3888 104.402 20.6207 106.598C19.4445 108.059 26.8696 107.172 29.3094 107.398C25.6445 108.314 17.9441 112.198 19.689 113.109C20.4946 113.528 24.1698 112.27 27.7034 111.127C24.8621 113.106 20.1729 120.67 22.8418 119.311C25.8272 117.79 29.6337 112.975 34.1659 111.547C31.9474 113.42 27.338 118.583 27.9556 119.098C29.1318 120.081 36.1553 115.786 39.4368 113.158C38.083 115.32 37.1565 117.824 36.091 120.012C35.1156 122.016 38.5746 120.346 39.5371 119.252C41.0299 117.559 42.9987 115.304 44.5043 113.567C43.8738 115.039 41.959 119.602 43.709 118.537C45.7731 117.278 47.0986 115.34 48.9825 113.876C50.3388 112.823 51.7646 112.285 53.265 111.961C51.3116 113.665 46.8952 117.325 48.8512 117.978C50.0866 118.393 53.7746 116.977 55.6019 116.241C57.8101 115.351 59.9694 114.764 62.1596 114.602C61.161 115.428 60.739 116.375 62.3732 117.157C64.4656 118.156 66.9235 118.359 69.0493 119.427C70.7634 120.289 72.1454 121.386 73.4014 122.655C74.2842 122.366 75.0949 121.986 75.8155 121.481Z" fill="#5B4B97"/>
<path d="M32.632 105.838C44.1156 100.851 61.3154 103.342 69.2269 113.804C69.2681 113.858 69.1883 113.932 69.1342 113.896C63.8479 110.147 58.8962 106.821 52.4569 105.352C45.9198 103.862 39.218 104.41 32.8301 106.307C32.5599 106.389 32.3617 105.957 32.632 105.838Z" fill="#403568"/>
<path d="M81.8663 106.662C86.8875 95.1345 102.165 84.4589 115.064 85.4549C115.113 85.4575 115.128 85.5296 115.077 85.5424C108.547 87.2642 102.476 88.5408 96.6391 92.2108C90.6064 96.0018 86.3033 101.129 82.1777 106.842C82.0387 107.03 81.7736 106.873 81.8663 106.662Z" fill="#403568"/>
<path d="M58.7007 83.5272C58.7316 82.1503 60.1832 81.9264 61.2924 82.0653C62.4634 82.212 63.601 82.6907 64.5404 83.4165C63.4517 81.2495 62.9627 78.5986 63.269 76.4316C63.5109 74.7278 65.1195 76.9283 65.5621 77.4147C65.3485 74.9466 66.0151 70 66.7718 70C68.0406 70 68.7766 74.6738 69.2965 77.1496C69.9811 75.2091 71.7647 71.9869 72.8868 74.6532C73.5122 76.1408 73.2651 78.228 72.5393 80.1274C73.5739 79.3656 77.208 77.2294 76.3973 79.1082C75.6123 80.9278 73.8751 82.0808 72.8996 83.7511C74.6858 82.3253 76.9223 81.0513 77.7613 82.5852C78.3713 83.7022 76.9789 84.6004 76.3226 85.2232C75.6251 85.8847 75.0461 86.5795 74.5365 87.3027C75.4476 86.8343 77.4653 85.5707 78.2863 86.3479C79.3673 87.3722 77.0175 91.7011 76.7087 93.8682C77.4602 93.2685 78.4253 93.2453 79.2823 94.4961C80.407 96.133 78.9966 98.807 78.6775 100.457C78.361 102.086 78.2709 103.671 78.2966 105.249C79.3261 103.545 80.7467 102.16 82.0387 103.913C82.9601 105.164 82.1082 106.945 81.7093 108.198C81.2641 109.596 78.7187 117.224 78.6621 121.625C78.3481 121.314 76.0344 119.867 75.1284 119.25C73.6975 116.781 72.2588 114.051 70.1716 112.041C68.3571 110.296 65.1864 108.808 64.2933 106.289C63.6834 104.569 64.9959 103.63 66.903 103.751C66.782 103.687 62.6616 98.3978 60.8832 97.0157C58.2014 94.9285 59.6324 93.2016 62.6127 93.6185C59.9901 90.1621 62.9293 88.6848 62.9113 88.6719C61.8741 87.8226 58.6647 85.0456 58.7007 83.5272Z" fill="#5B4B97"/>
<path d="M68.949 80.6293C68.9516 80.5855 69.0108 80.5881 69.0159 80.6293C69.7314 86.4766 70.3439 92.324 71.7826 98.0478C73.126 103.396 75.4089 108.33 77.0946 113.549C77.2053 113.896 76.706 114.084 76.5233 113.791C73.5301 109.009 71.9164 103.131 70.6605 97.6772C69.3711 92.0821 68.5784 86.3737 68.949 80.6293Z" fill="#403568"/>
<path d="M74.6291 119.016C70.3568 117.603 66.1772 117.33 61.8792 118.421C58.2143 119.35 52.7658 120.863 50.151 123.929C49.3557 124.86 53.1982 124.539 54.5288 124.461C48.231 126.852 40.6053 129.472 37.6816 135.397C37.1668 136.439 40.9784 135.276 43.0219 134.89C42.1083 135.531 41.2127 136.195 40.335 136.887C38.8243 138.076 35.53 139.947 35.1337 142.114C33.417 143.126 21.6477 150.437 20.402 154.862C20.0803 156.007 22.9191 154.792 24.8956 154.429C21.1175 158.228 17.9905 162.737 15.8518 167.424C15.4065 168.402 14.7914 170.798 16.436 170.751C15.2701 172.99 14.3539 175.387 13.8829 177.857C13.3193 180.814 20.3943 173.876 22.6076 173.521C21.0068 175.389 14.7245 183.761 14.1943 186.603C13.8778 188.299 20.7597 181.11 23.1584 180.598C17.5555 186.358 14.3024 197.023 15.144 202.925C15.3808 204.585 18.1037 199.998 18.7832 198.647C17.0537 206.556 18.0831 215.546 24.5919 220.722C24.9728 221.025 25.207 214.993 25.0552 212.419C25.7758 215 28.2465 221.059 28.8256 219.777C31.4096 214.064 30.3389 207.076 28.244 201.128C30.4367 203.823 35.0899 211.649 35.5429 209.23C36.4308 204.492 34.4748 200.922 32.0324 197.088C33.8288 198.336 40.6156 201.157 39.4059 199.162C36.0499 193.618 31.1136 189.395 29.6003 183.048C31.9886 186.657 36.315 188.793 40.1214 190.574C42.2936 191.59 34.6009 181.074 32.6707 176.179C35.041 177.479 38.9427 180.158 40.8009 182.598C42.5072 184.84 42.8624 185.468 43.1969 184.495C44.2393 181.453 42.5124 178.328 40.8729 175.93C38.8577 172.98 36.1322 170.275 32.9358 168.584C37.7356 169.691 47.1295 177.672 46.5273 174.308C45.6651 169.472 42.605 164.847 38.76 161.635C41.8303 163.447 49.312 168.129 49.0932 166.155C48.5991 161.666 41.1689 153.649 41.1689 153.649C41.1689 153.649 44.5378 154.566 48.4472 157.314C49.5642 158.099 51.9165 159.978 53.4195 159.1C53.9446 158.794 54.1736 158.279 54.2483 157.682C54.7295 158.351 56.1734 160.204 56.7293 159.317C60.1805 153.814 57.3341 148.368 53.8596 143.661C56.5131 144.729 63.6009 152.429 64.6073 150.224C65.1966 148.932 59.0481 138.174 58.8062 137.706C61.6064 140.277 65.1786 147.751 66.5246 146.551C68.4291 144.858 67.5567 141.865 67.15 139.744C66.8052 137.95 66.293 136.156 65.4514 134.566C68.1357 137.443 70.5807 146.34 72.0683 145.035C74.243 143.128 75.1232 139.07 75.396 136.478C75.7744 132.854 76.0781 129.071 74.7681 125.653C76.7318 127.483 78.2116 129.478 79.4573 131.964C80.9706 134.983 82.8468 134.957 83.1479 133.222C83.9612 128.505 79.1999 120.529 74.6291 119.016Z" fill="#5B4B97"/>
<path d="M76.8863 116.244C58.5901 121.847 43.6449 135.178 34.2536 151.706C29.2967 160.428 25.9561 170.02 24.1288 179.875C23.1817 184.984 22.6618 190.175 22.5254 195.366C22.3993 200.256 22.2526 205.609 24.2369 210.17C24.26 210.226 24.3578 210.203 24.345 210.141C22.111 200.562 23.421 189.601 25.3281 180.037C27.2584 170.345 30.6633 160.943 35.5584 152.35C44.8108 136.11 59.6814 123.494 77.0716 116.676C77.3573 116.563 77.1694 116.159 76.8863 116.244Z" fill="#403568"/>
<path d="M59.5834 128.538C62.6177 130.311 64.9006 134.411 64.8439 137.927C64.8388 138.259 64.3344 138.344 64.2546 138.007C63.8351 136.251 63.5134 134.594 62.6357 132.985C61.7736 131.4 60.5742 130.142 59.3646 128.821C59.2282 128.675 59.4006 128.433 59.5834 128.538Z" fill="#5B4B97"/>
<path d="M62.9498 125.226C65.9404 125.836 69.0957 129.403 69.5075 132.383C69.5538 132.71 69.1368 132.947 68.9412 132.622C68.0816 131.207 67.4073 129.735 66.2878 128.489C65.2403 127.321 63.9252 126.582 62.7361 125.594C62.5534 125.442 62.7542 125.185 62.9498 125.226Z" fill="#5B4B97"/>
<path d="M53.5586 134.396C57.3058 136.774 61.4134 142.227 61.9178 146.726C61.9538 147.038 61.5138 147.097 61.3671 146.875C60.1034 144.93 59.3647 142.662 58.1114 140.686C56.7267 138.498 54.9509 136.671 53.363 134.645C53.2626 134.517 53.3913 134.29 53.5586 134.396Z" fill="#5B4B97"/>
<path d="M47.4587 140.786C50.1765 141.831 52.5752 144.364 54.3587 146.59C55.8617 148.466 57.0662 150.594 56.5978 153.06C56.5232 153.456 55.9698 153.322 55.9389 152.97C55.4397 147.38 50.6218 144.824 47.3815 140.92C47.3378 140.866 47.3764 140.755 47.4587 140.786Z" fill="#5B4B97"/>
<path d="M37.2877 153.063C41.2821 154.661 44.8826 159.412 46.0639 163.447C46.154 163.754 45.7268 163.918 45.5621 163.658C44.3113 161.697 43.1763 159.654 41.6887 157.855C40.3092 156.187 38.5926 154.867 37.1822 153.245C37.1179 153.173 37.1771 153.019 37.2877 153.063Z" fill="#5B4B97"/>
<path d="M29.559 176.578C30.797 177.757 31.6411 179.409 32.6268 180.801C33.749 182.387 35.0178 183.859 36.1142 185.462C36.3355 185.787 35.8568 186.116 35.5891 185.869C34.2045 184.592 33.1055 183.069 32.0478 181.517C31.0466 180.045 29.855 178.385 29.4947 176.619C29.4844 176.578 29.5282 176.55 29.559 176.578Z" fill="#5B4B97"/>
<path d="M27.7806 183.625C28.6016 185.792 29.6516 187.843 30.959 189.755C32.2716 191.678 33.9445 193.222 35.4063 195.011C35.5942 195.242 35.3574 195.631 35.0666 195.451C31.1057 192.993 28.5733 188.09 27.2787 183.761C27.1809 183.437 27.6648 183.316 27.7806 183.625Z" fill="#5B4B97"/>
<path d="M33.9371 160.084C35.7 160.629 37.3446 162.22 38.6572 163.473C40.1731 164.922 41.6503 166.562 42.5666 168.463C42.7081 168.754 42.3272 169.115 42.0879 168.834C40.7907 167.318 39.6532 165.692 38.2608 164.256C36.8891 162.84 35.0875 161.769 33.8161 160.295C33.7389 160.205 33.8084 160.045 33.9371 160.084Z" fill="#5B4B97"/>
<path d="M26.4529 190.558C27.7398 193.999 29.3148 196.779 31.3918 199.787C31.5925 200.076 31.1602 200.377 30.9208 200.15C28.3703 197.767 26.597 194.043 26.1595 190.597C26.1364 190.419 26.3989 190.411 26.4529 190.558Z" fill="#5B4B97"/>
<path d="M81.9562 113.688C85.8527 111.436 89.8908 110.324 94.3201 110.517C98.0957 110.682 103.74 111.06 106.923 113.531C107.894 114.283 104.064 114.748 102.746 114.941C109.397 116.004 117.398 117.021 121.462 122.23C122.177 123.146 118.209 122.781 116.132 122.819C117.156 123.262 118.17 123.731 119.169 124.23C120.888 125.087 124.496 126.25 125.322 128.291C127.209 128.934 140.216 133.706 142.334 137.785C142.883 138.841 139.856 138.228 137.846 138.274C142.316 141.229 146.295 145.01 149.34 149.163C149.976 150.031 151.062 152.252 149.443 152.54C151.038 154.496 152.423 156.655 153.386 158.982C154.539 161.764 146.2 156.403 143.963 156.509C145.912 158.014 153.759 164.937 154.858 167.611C155.514 169.21 147.317 163.566 144.862 163.55C151.517 168.054 156.865 177.837 157.238 183.787C157.344 185.46 153.749 181.522 152.807 180.336C156.106 187.73 156.922 196.74 151.597 203.131C151.286 203.504 149.831 197.644 149.458 195.096C149.278 197.77 148.087 204.204 147.258 203.066C143.567 197.996 143.199 190.937 144.043 184.688C142.442 187.771 139.475 196.38 138.541 194.102C136.711 189.642 137.9 185.751 139.514 181.499C138.008 183.084 131.937 187.225 132.714 185.027C134.876 178.918 138.852 173.781 139.045 167.259C137.439 171.279 133.635 174.246 130.269 176.763C128.349 178.2 133.746 166.34 134.644 161.157C132.585 162.909 129.309 166.325 127.986 169.091C126.771 171.632 126.55 172.319 126.025 171.433C124.388 168.667 125.446 165.259 126.563 162.577C127.937 159.281 130.058 156.079 132.843 153.773C128.367 155.829 120.79 165.553 120.695 162.135C120.559 157.224 122.618 152.074 125.729 148.149C123.091 150.548 116.714 156.65 116.528 154.671C116.104 150.177 121.75 140.817 121.75 140.817C121.75 140.817 118.639 142.397 115.368 145.885C114.433 146.881 112.508 149.197 110.861 148.644C110.285 148.451 109.955 147.992 109.762 147.424C109.427 148.175 108.39 150.286 107.665 149.529C103.168 144.84 104.849 138.931 107.297 133.616C104.916 135.201 99.5369 144.181 98.106 142.225C97.2669 141.077 101.104 129.297 101.246 128.79C99.0273 131.876 97.0456 139.919 95.4834 139.018C93.2752 137.747 93.5197 134.638 93.4888 132.478C93.4631 130.654 93.5995 128.793 94.1013 127.063C92.0553 130.425 91.4685 139.633 89.7467 138.658C87.2322 137.232 85.5439 133.436 84.7512 130.955C83.6445 127.483 82.5816 123.841 83.1684 120.228C81.6165 122.421 80.5716 124.67 79.8561 127.359C78.9862 130.623 77.1435 130.981 76.5 129.341C74.7422 124.873 77.7869 116.097 81.9562 113.688Z" fill="#5B4B97"/>
<path d="M84.3293 112.141C101.344 115.086 116.716 124.526 128.125 137.505C134.75 145.04 139.967 153.755 143.755 163.033C145.719 167.843 147.284 172.82 148.47 177.875C149.587 182.636 150.817 187.851 149.798 192.72C149.785 192.779 149.685 192.777 149.688 192.712C149.932 182.878 146.422 172.411 142.615 163.434C138.757 154.336 133.517 145.82 126.978 138.4C115.756 125.663 100.597 116.81 84.1157 112.934C84.1775 112.666 84.2547 112.404 84.3293 112.141Z" fill="#403568"/>
<path d="M89.9527 112.728C93.7823 110.87 100.116 111.364 103.763 113.49C103.941 113.593 103.812 113.827 103.632 113.801C101.218 113.446 98.9373 112.759 96.4692 112.713C94.3124 112.671 92.2201 113.15 90.0762 113.184C89.8446 113.186 89.7288 112.836 89.9527 112.728Z" fill="#5B4B97"/>
<path d="M105.446 117.358C109.003 117.047 113.221 118.331 115.872 120.779C116.081 120.972 115.815 121.255 115.589 121.147C113.852 120.338 112.228 119.414 110.375 118.859C108.746 118.372 107.057 118.117 105.382 117.837C105.091 117.791 105.191 117.379 105.446 117.358Z" fill="#5B4B97"/>
<path d="M126.092 130.973C129.85 131.058 134.019 132.767 136.958 135.075C137.192 135.258 136.894 135.569 136.662 135.461C134.85 134.614 133.085 133.706 131.183 133.068C129.482 132.496 127.721 132.175 125.999 131.683C125.613 131.57 125.68 130.965 126.092 130.973Z" fill="#5B4B97"/>
<path d="M133.306 138.65C136.356 139.934 139.228 141.566 141.899 143.522C143.84 144.943 146.501 146.546 146.926 149.079C146.969 149.346 146.638 149.511 146.478 149.266C143.436 144.642 137.913 141.581 133.234 138.823C133.144 138.771 133.206 138.606 133.306 138.65Z" fill="#5B4B97"/>
<path d="M146.908 167.805C150.938 170.262 153.908 174.681 154.472 179.373C154.502 179.628 154.127 179.643 154.049 179.43C152.423 174.931 150.217 171.315 146.756 168.003C146.655 167.905 146.787 167.73 146.908 167.805Z" fill="#5B4B97"/>
<path d="M70.4262 162.703C73.4683 160.596 76.1681 158.176 78.8653 155.749C78.245 156.123 73.911 157.927 73.3731 156.38C72.7708 154.653 75.8258 151.76 76.6056 150.406C77.2645 149.264 77.9877 148.034 78.8164 146.899C76.899 148.018 74.889 148.991 72.8532 149.866C72.426 150.051 71.834 149.848 71.8598 149.295C72.0296 145.259 73.543 140.817 76.2582 137.546C74.9919 138.297 73.6794 138.977 72.2767 139.558C71.9318 139.703 71.4866 139.337 71.5175 138.979C71.8701 135 72.0502 130.911 73.8209 127.321C71.7002 128.281 69.5152 130.895 68.9927 129.199C68.1588 126.487 72.0296 118.668 74.207 117.157C80.0801 113.086 86.6146 118.086 91.1957 122.639C93.1028 124.533 95.1591 126.281 96.7342 128.396C97.4368 129.338 98.9424 131.356 97.3751 132.319C96.7368 132.71 95.643 132.365 94.9996 132.26C93.7488 132.056 92.4388 131.904 91.1571 131.675C96.4177 134.553 101.282 138.714 103.686 144.129C103.94 144.706 103.395 145.421 102.764 145.051C101.454 144.276 100.026 143.602 98.6413 142.876C102.134 145.815 104.962 149.76 105.441 154.308C105.5 154.874 104.756 155.057 104.401 154.738C103.122 153.593 101.838 152.452 100.559 151.307C101.107 152.079 106.21 160.346 106.635 164.158C106.813 165.766 106.01 165.524 105.724 165.671C109.106 169.117 110.889 174.148 110.786 178.961C110.774 179.566 110.05 179.852 109.613 179.448C108.329 178.253 107.006 177.082 105.745 175.857C107.912 179.844 109.193 185.228 108.401 189.354C108.21 190.352 107.667 191.822 106.468 192.007C105.876 192.097 105.472 191.92 105.15 191.621C105.274 192.442 105.328 193.268 105.335 194.038C105.348 195.134 105.333 196.635 104.983 197.937C104.826 200.848 104.097 203.751 103.027 206.309C102.757 206.955 101.902 207.012 101.65 206.309C101.187 205.02 100.703 203.733 100.247 202.436C100.16 203.321 97.4214 213.242 94.7293 216.483C94.4076 216.871 93.9418 216.843 93.6639 216.483C91.1288 213.194 89.075 208.471 88.6426 203.828C88.1665 205.269 87.6801 206.705 87.2168 208.139C87.0444 208.674 86.3341 208.651 86.1488 208.139C84.9288 204.734 84.6509 201 85.4539 197.504C84.602 198.534 83.6163 199.453 82.6228 200.325C81.1456 201.622 81.3592 196.943 82.0257 195.139C82.4504 193.994 82.8545 192.831 83.2637 191.665C80.4301 193.484 79.6837 183.856 80.6257 180.022C79.4469 176.663 79.5293 173.322 80.0028 169.789C78.6826 171.516 77.0714 173.088 75.7228 174.396C75.1927 174.91 74.4772 174.372 74.575 173.729C75.1155 170.221 76.2813 166.24 78.1652 162.757C75.8515 163.869 73.2907 164.353 70.5652 163.818C70.0145 163.705 70.0325 162.974 70.4262 162.703Z" fill="#5B4B97"/>
<path d="M79.9387 120.274C87.5001 133.05 90.6605 148.353 93.96 162.657C95.6226 169.866 97.0612 177.183 97.3675 184.595C97.7021 192.681 96.9068 201.072 96.3766 209.145C96.3638 209.323 96.091 209.384 96.0472 209.189C94.4902 202.104 96.3664 194.444 96.3278 187.266C96.284 179.273 94.8247 171.374 93.054 163.604C89.6851 148.813 85.889 134.316 79.6118 120.47C79.5114 120.248 79.8126 120.06 79.9387 120.274Z" fill="#403568"/>
<path d="M79.8537 117.911C84.458 118.501 90.4649 121.684 91.6874 126.549C91.7491 126.796 91.4197 127.027 91.237 126.811C89.649 124.953 88.3751 123.033 86.3676 121.568C84.3627 120.104 82.1159 119.121 79.8151 118.218C79.6658 118.158 79.6658 117.888 79.8537 117.911Z" fill="#5B4B97"/>
<path d="M90.4288 134.841C93.9341 135.541 98.2476 137.363 100.134 140.547C100.27 140.776 99.9693 140.984 99.7815 140.82C98.3351 139.553 96.8346 138.346 95.1437 137.422C93.5764 136.565 91.8726 135.979 90.3181 135.106C90.1663 135.021 90.2718 134.81 90.4288 134.841Z" fill="#5B4B97"/>
<path d="M92.4515 141.293C96.6465 142.297 100.057 146.301 102.015 149.923C102.054 149.992 101.956 150.043 101.912 149.982C100.631 148.296 99.1044 146.718 97.4675 145.377C95.8152 144.024 93.9262 143.097 92.225 141.831C91.965 141.64 92.1066 141.211 92.4515 141.293Z" fill="#5B4B97"/>
<path d="M95.7331 152.244C101.066 154.349 105.408 159.36 106.244 165.087C106.285 165.372 105.92 165.478 105.812 165.208C103.647 159.818 100.543 155.664 95.625 152.499C95.4989 152.419 95.5787 152.182 95.7331 152.244Z" fill="#5B4B97"/>
<path d="M97.0251 161.833C102.721 163.694 108.331 169.964 109.301 175.914C109.361 176.279 108.848 176.578 108.653 176.187C107.237 173.351 106.115 170.584 104.054 168.113C102.003 165.655 99.5035 163.903 96.9401 162.034C96.8475 161.965 96.8964 161.792 97.0251 161.833Z" fill="#5B4B97"/>
<path d="M99.7968 171.485C104.113 175.016 106.977 180.899 105.824 186.533C105.76 186.852 105.304 186.752 105.284 186.461C104.869 180.758 103.541 176.04 99.4776 171.804C99.2743 171.588 99.5754 171.305 99.7968 171.485Z" fill="#5B4B97"/>
<path d="M101.277 186.428C101.23 186.245 101.467 186.16 101.57 186.304C104.484 190.345 104.54 196.55 102.162 200.825C101.99 201.133 101.526 200.92 101.604 200.59C102.813 195.492 102.538 191.462 101.277 186.428Z" fill="#5B4B97"/>
<path d="M66.98 72.4322C68.1278 74.2929 68.7249 76.4445 68.3749 78.6244C68.3363 78.8689 68.0094 78.7711 67.9811 78.5704C67.7057 76.5114 67.4072 74.5117 66.7329 72.5351C66.684 72.3884 66.9027 72.3035 66.98 72.4322Z" fill="#5B4B97"/>
<path d="M74.1632 93.4693C74.6265 92.4193 75.3316 91.4953 75.7949 90.4324C76.2504 89.3875 76.6185 88.2679 76.8501 87.151C76.8887 86.9605 77.2078 86.9991 77.195 87.1973C77.0225 89.4338 76.3766 92.2571 74.5982 93.8013C74.3511 94.0149 74.0397 93.7524 74.1632 93.4693Z" fill="#5B4B97"/>
<path d="M76.3869 83.2699C76.5465 83.2235 76.7292 83.4217 76.6186 83.571C76.0549 84.3225 75.2725 84.8887 74.7012 85.6479C74.0809 86.4715 73.7206 87.4212 73.2007 88.3039C73.0798 88.5073 72.7169 88.4326 72.7349 88.1778C72.8662 86.3582 74.5751 83.7949 76.3869 83.2699Z" fill="#5B4B97"/>
<path d="M77.5088 96.7379C77.6297 96.4471 78.1084 96.568 77.99 96.8717C77.0892 99.2009 77.3106 101.273 77.5654 103.687C77.6014 104.019 77.1407 104.011 77.0352 103.759C76.1112 101.543 76.6131 98.8818 77.5088 96.7379Z" fill="#5B4B97"/>
<path d="M108.967 91.2843C112.495 91.3178 116.351 92.6484 119.31 94.5554C119.506 94.6815 119.385 95.0367 119.146 94.9492C115.735 93.6804 112.392 92.7642 108.902 91.7656C108.637 91.691 108.686 91.2817 108.967 91.2843Z" fill="#5B4B97"/>
<path d="M115.527 88.5845C118.824 88.3967 122.507 89.6886 125.039 91.781C125.114 91.8428 125.034 91.9843 124.942 91.9483C121.732 90.6435 118.834 89.8971 115.429 89.3026C115.007 89.2254 115.139 88.6051 115.527 88.5845Z" fill="#5B4B97"/>
<path d="M103.595 93.2197C107.106 94.1436 110.21 96.2772 112.974 98.5806C113.342 98.8869 112.814 99.4016 112.451 99.1031C109.672 96.828 106.573 95.2838 103.457 93.5491C103.279 93.4487 103.4 93.1682 103.595 93.2197Z" fill="#5B4B97"/>
<path d="M89.5612 101.795C92.5827 100.606 97.0609 100.809 100.211 101.389C100.378 101.419 100.329 101.666 100.172 101.674C98.4069 101.749 96.6465 101.618 94.881 101.759C93.1154 101.901 91.3962 102.318 89.6178 102.217C89.3656 102.204 89.3373 101.883 89.5612 101.795Z" fill="#5B4B97"/>
</svg>
