<svg width="169" height="227" viewBox="0 0 169 227" fill="none" xmlns="http://www.w3.org/2000/svg">
<path d="M105.717 217.829C105.632 217.386 105.558 216.946 105.478 216.506C105.321 215.634 105.143 214.769 104.981 213.899C104.847 213.184 104.732 212.466 104.572 211.753C102.415 194.427 101.883 177.016 100.536 159.61C100.122 154.247 99.0618 145.37 97.726 135.294C97.6077 134.399 97.4815 133.477 97.3606 132.566C94.2413 109.396 89.8661 81.1239 88.3656 74H74.002C77.0981 90.7777 79.5302 107.674 81.1491 124.657C82.6109 140.017 83.4628 155.436 83.7022 170.862C83.8231 178.712 83.7922 186.562 83.6069 194.409C83.4654 200.279 83.0948 207.208 82.8889 212.082C82.7422 215.559 80.1685 218.159 82.4694 221.335C83.0536 222.143 83.7897 222.822 84.5823 223.437C86.3376 224.801 88.4789 225.71 90.6382 226.024C94.6428 226.603 99.5328 226.152 102.691 223.538C104.109 222.364 106.173 220.166 105.717 217.829Z" fill="#5B4B97"/>
<path d="M105.717 217.829C105.632 217.386 105.558 216.946 105.478 216.506C105.321 215.634 105.143 214.769 104.981 213.899C103.432 216.488 101.162 219.16 98.058 220.079C91.4026 222.05 90.1698 212.27 89.8918 203.448C89.6139 194.625 89.4002 153.145 88.4737 147.473C87.2641 140.069 87.6707 138.105 88.8778 137.407C89.7683 136.895 95.0134 135.825 97.726 135.294C97.6077 134.399 97.4815 133.477 97.3606 132.566C94.2413 109.396 89.8661 81.1239 88.3656 74H74.002C77.0981 90.7777 79.5302 107.674 81.1491 124.657C82.6109 140.017 83.4628 155.436 83.7022 170.862C83.8231 178.712 83.7922 186.562 83.6069 194.409C83.4654 200.279 83.0948 207.208 82.8889 212.082C82.7422 215.559 80.1685 218.159 82.4694 221.335C83.0536 222.143 83.7897 222.822 84.5823 223.437C86.3376 224.801 88.4789 225.71 90.6382 226.024C94.6428 226.603 99.5328 226.152 102.691 223.538C104.109 222.364 106.173 220.166 105.717 217.829Z" fill="#5B4B97"/>
<path opacity="0.8" d="M87.2621 177.327C87.0613 169.071 87.1617 146.328 86.4514 142.848C85.198 136.687 86.5955 132.769 88.7316 134.236C91.1792 135.917 95.364 133.781 97.3586 132.571C94.2393 109.401 89.8641 81.1289 88.3636 74.005H74C77.0961 90.7827 79.5282 107.679 81.1471 124.662C82.6089 140.022 83.4608 155.441 83.7001 170.867C83.8211 178.717 83.7902 186.567 83.6049 194.414C83.4634 200.284 83.0927 207.213 82.8869 212.087C82.7402 215.564 80.1665 218.164 82.4674 221.34C83.0516 222.148 83.7876 222.827 84.5803 223.442C84.9226 220.081 86.2506 216.722 86.6212 211.063C87.0896 203.854 87.4628 185.581 87.2621 177.327Z" fill="#5B4B97"/>
<path opacity="0.7" d="M92.9189 138.208C90.0878 138.761 91.2511 143.836 91.4931 154.69C91.735 165.54 91.2975 192.353 92.6667 200.961C94.0358 209.568 97.4408 213.861 99.5332 212.803C101.623 211.745 100.3 205.398 100.467 194.571C100.619 184.871 99.4508 164.539 98.0559 154.692C96.661 144.84 97.3147 137.346 92.9189 138.208Z" fill="#5B4B97"/>
<path opacity="0.8" d="M89.3545 215.719C94.4838 218.202 98.0484 216.514 102.866 214.298C103.046 214.216 103.247 214.429 103.088 214.586C99.7135 217.922 92.6668 220.485 88.9247 216.275C88.6545 215.969 88.9917 215.541 89.3545 215.719Z" fill="#403568"/>
<path opacity="0.8" d="M85.481 208.948C87.0664 210.08 88.8087 210.906 90.739 211.259C92.5045 211.583 94.2031 211.133 95.9378 211.367C96.2595 211.411 96.2415 211.856 96.0201 212C92.8159 214.108 87.5785 211.65 85.2185 209.29C85.0486 209.12 85.2751 208.798 85.481 208.948Z" fill="#403568"/>
<path opacity="0.8" d="M84.7399 119.719C86.0422 119.549 87.4242 119.464 88.7085 119.196C90.0391 118.921 91.2024 118.277 92.4223 117.706C92.726 117.564 93.1069 117.956 92.8109 118.208C90.6876 120.004 87.3547 120.949 84.6884 120.105C84.4619 120.035 84.5288 119.747 84.7399 119.719Z" fill="#5B4B97"/>
<path opacity="0.8" d="M82.9947 123.795C86.325 124.964 90.3116 125.993 93.696 124.616C93.9662 124.506 94.2133 124.822 94.149 125.069C93.6883 126.814 91.5573 126.616 90.1083 126.474C87.5166 126.222 85.1102 125.412 82.866 124.107C82.7013 124.011 82.8094 123.731 82.9947 123.795Z" fill="#5B4B97"/>
<path opacity="0.8" d="M87.5451 130.829C90.003 130.428 92.152 130.5 94.422 129.257C94.8698 129.012 95.2532 129.668 94.8209 129.939C92.7928 131.2 89.9489 132.363 87.5477 131.591C87.2054 131.483 87.1333 130.896 87.5451 130.829Z" fill="#5B4B97"/>
<path opacity="0.8" d="M85.7077 171.918C87.3574 173.343 88.9171 174.602 91.0146 175.323C92.7029 175.902 94.556 175.719 96.1877 176.324C96.4219 176.411 96.5454 176.792 96.2649 176.921C92.7467 178.519 87.2622 175.063 85.3989 172.157C85.2702 171.959 85.5456 171.779 85.7077 171.918Z" fill="#403568"/>
<path opacity="0.8" d="M88.554 169.823C91.4082 170.379 94.054 170.209 96.8052 169.293C97.0548 169.21 97.2813 169.573 97.0703 169.748C94.579 171.807 91.0479 172.062 88.325 170.371C88.0264 170.186 88.2246 169.758 88.554 169.823Z" fill="#403568"/>
<path opacity="0.8" d="M88.5387 149.246C91.0814 149.045 93.1713 148.729 95.4567 147.506C95.6986 147.375 95.9534 147.689 95.7552 147.89C93.9459 149.735 90.9759 150.79 88.4434 149.969C88.0368 149.836 88.1269 149.28 88.5387 149.246Z" fill="#403568"/>
<path opacity="0.8" d="M86.7294 194.587C88.3534 195.256 89.7895 196.221 91.501 196.715C93.4055 197.263 95.3203 197.204 97.2686 197.4C97.6443 197.438 97.7396 197.943 97.3587 198.069C94.0103 199.175 88.7137 197.793 86.503 194.975C86.382 194.818 86.4875 194.486 86.7294 194.587Z" fill="#403568"/>
<path d="M90.8981 37.7455C91.3433 37.4624 91.8452 38.0209 91.5106 38.4326C91.2995 38.6926 91.0679 38.9422 90.8311 39.1945C94.8358 35.9722 101.319 33.8387 105.146 37.1201C109.168 35.4266 113.716 34.7729 117.981 34.9453C121.939 35.1049 126.973 35.7303 129.637 38.9731C132.02 39.0632 140.567 40.0438 143.079 43.3303C143.707 44.1513 138.521 43.8579 136.439 44.1282C141.427 44.9131 146.62 46.0455 149.645 50.3873C150.849 52.1168 143.864 50.9664 141.139 51.1877C147.689 52.7268 153.019 57.4546 156.75 62.9494C157.618 64.2259 153.505 63.7112 152.483 63.3431C154.982 64.9826 157.157 67.2242 158.827 69.5585C161.236 72.9249 164.886 81.7139 161.27 82.2158C162.585 84.1847 163.36 86.3929 163.946 88.5959C164.35 90.1169 160.943 87.3142 159.944 86.3903C163.246 92.531 169.984 98.8442 168.643 98.8442C159.808 98.8442 152.934 91.5891 148.425 84.3056C142.382 80.3447 136.588 75.9721 130.594 71.9392C123.128 66.9154 115.518 62.1026 107.779 57.5086C104.402 55.5038 101.02 53.4783 97.4506 51.8311C94.249 50.3513 90.458 49.9832 87.3953 48.3284C82.248 45.5463 87.7633 39.7375 90.8981 37.7455Z" fill="#403568"/>
<path d="M84.4921 43.7935C84.0288 43.5413 83.5655 44.1333 83.931 44.5219C84.16 44.7664 84.4097 45.0006 84.6619 45.2348C80.4411 42.2982 73.8294 40.6228 70.2365 44.1616C66.1058 42.7538 61.5221 42.4166 57.2807 42.885C53.343 43.3174 48.3655 44.2928 45.9334 47.7132C43.5631 47.968 41.2159 48.5008 38.9537 49.2111C36.591 49.9523 34.1074 50.7244 32.8258 52.9918C32.1103 54.258 37.4069 53.2003 39.5044 53.3238C34.5836 54.4536 30.4271 56.6644 26.7674 60.4863C25.5835 61.7242 32.5735 60.6613 35.3093 60.6922C28.8829 62.6842 22.8786 67.6926 21.0126 74.0675C20.395 76.1754 23.8437 74.0444 24.8371 73.6069C22.4565 75.4161 20.4439 77.8045 18.9408 80.2469C16.7712 83.7728 14.4138 88.8584 16.4264 92.8759C16.5962 93.2156 17.1033 93.2851 17.3864 93.0431C16.2102 95.0995 15.3995 97.3283 15.1601 99.5957C15.1061 100.105 15.8241 100.345 16.1484 100.005C17.0621 99.0475 18.0658 98.1081 19 97.1172C16.429 101.441 13.7704 105.556 10.1544 109.311C9.76831 109.713 10.1698 110.258 10.6614 110.181C19.3912 108.82 26.3556 101.814 30.3473 94.2322C36.102 89.8621 41.5762 85.0957 47.2743 80.6561C54.3725 75.1253 61.6302 69.7953 69.0295 64.6737C72.2569 62.4397 75.492 60.1826 78.9355 58.291C82.0265 56.5924 85.7814 55.9618 88.7231 54.0959C93.6646 50.9741 87.758 45.5642 84.4921 43.7935Z" fill="#403568"/>
<path d="M40.2622 122.256C44.0536 120.612 47.6142 118.121 50.5388 115.378C48.8838 115.997 44.976 118.226 44.793 116.59C44.4922 113.876 46.7632 111.918 48.4914 110.165C50.5116 108.115 52.7312 106.154 55.1914 104.63C52.3202 105.363 44.808 108.3 45.8803 106.048C47.9176 101.771 51.5783 98.0509 55.9894 96.1437C56.0373 96.025 56.0951 95.91 56.156 95.7903C52.8431 96.6623 48.7357 97.1543 51.0452 93.2673C51.8916 91.8443 53.3001 90.7502 54.7304 89.6898C53.1335 89.8439 52.4684 88.554 52.6668 87.7172C53.3738 84.7483 56.1247 81.3754 58.9655 79.4647C60.7142 73.6317 67.9819 65.3601 70.6628 62.9431C72.9546 60.8762 81.7919 54.0906 84.1017 56.7146C85.9415 58.803 83.3833 71.3951 82.5349 72.792C80.4306 76.2628 81.1018 79.5854 80.2285 83.535C79.7944 85.4997 78.1709 93.3668 77.6137 94.1919C76.4735 95.8831 74.9267 94.7057 74.0051 93.1546C73.7527 94.6174 73.6652 96.1103 73.7826 97.6458C73.9391 99.6784 74.9847 101.84 74.9555 103.887C74.9305 105.595 72.6017 103.109 72.2813 102.666C72.6388 105.142 74.1587 109.824 72.6912 110.631C71.6925 111.18 70.6848 109.873 70.048 108.91C70.1478 110.832 70.1536 112.759 70.0584 114.642C69.9413 116.969 69.9363 118.834 68.8629 120.987C68.3549 122.007 66.8818 120.93 66.4027 119.688C66.2708 122.031 66.4359 124.36 66.4857 126.766C66.5478 129.806 67.5964 132.269 67.0534 132.909C66.1483 133.978 63.8516 129.92 63.2045 128.414C62.8335 131.522 63.0503 134.243 62.7996 136.517C62.5415 138.853 62.1589 141.537 60.2031 143.004C58.9849 143.916 59.4148 139.055 58.4441 136.829C57.8183 140.661 57.0509 149.086 54.8843 148.107C54.1415 147.772 53.066 143.668 52.6282 140.3C52.0502 142.753 51.5067 148.717 49.6644 147.606C45.6581 145.189 45.5091 138.165 46.7766 133.41C45.5449 134.717 42.415 138.897 41.884 136.571C40.7998 131.823 43.849 127.254 47.3935 124.051C44.8088 125.207 37.9827 123.244 40.2622 122.256Z" fill="#403568"/>
<path d="M86.51 61.9842C84.9066 58.1057 83.7613 53.8515 85.8949 52.9121C88.8392 51.6149 104.896 55.7302 106.41 56.4097C112.342 59.0734 121.252 73.0407 118.416 72.5054C117.574 72.3252 116.72 72.2917 115.863 72.3432C119.865 76.214 121.885 81.9662 123.571 87.1109C124.204 89.0437 120.578 86.0248 119.561 85.3351C124.706 90.4309 128.198 97.2975 128.497 104.421C128.587 106.568 125.197 102.229 124.345 100.79C125.583 105.34 128.582 108.848 130.538 113.151C131.446 115.151 126.991 112.456 126.026 111.275C127.187 113.689 128.293 116.188 129.194 118.672C129.928 120.697 126.904 118.309 126.126 117.624C127.65 121.472 128.257 126.089 126.041 129.309C125.725 134.018 129.284 139.163 126.888 140.206C124.981 141.034 121.777 136.94 120.614 133.692C120.192 135.771 120.403 139.163 120.547 141.081C120.758 143.943 118.269 144.179 116.787 141.796C107.241 126.436 104.34 99.0321 96.0712 82.903C94.1332 79.1248 92.1206 75.3827 90.0308 71.6869C88.3682 68.7504 87.9332 65.4175 86.51 61.9842Z" fill="#403568"/>
<path d="M84.7042 49.4386C83.4918 44.509 83.4567 39.3621 86.9035 34.9391C88.0035 33.5279 88.3694 34.1545 88.844 35.3138C89.2604 33.7196 89.9684 32.1956 90.8822 30.8152C92.1104 28.9596 94.2608 26.1952 96.7067 26.2882C97.6349 23.1422 105.214 19.8421 109.032 21.7497C109.3 21.5668 114.595 14.8538 114.643 17.2262C114.678 18.9182 114.08 20.705 113.305 22.2662C115.124 20.4947 117.944 19.2917 120.321 19.1045C121.449 19.0153 124.221 19.2092 124.192 20.7467C127.12 20.1387 131.962 19.231 134.233 20.898C135.744 22.0096 128.34 23.0548 126.039 23.9C129.816 23.8443 138.256 25.624 136.804 26.9538C136.134 27.5657 132.258 27.2928 128.548 27.0954C131.804 28.2784 138.276 34.3873 135.348 33.7578C132.071 33.0527 127.158 29.3752 122.409 29.1574C125.034 30.399 130.813 34.2048 130.35 34.8643C129.467 36.1166 121.577 33.7651 117.729 32.0665C119.592 33.8105 121.131 35.9893 122.722 37.8325C124.18 39.5189 120.407 38.7927 119.197 37.9811C117.319 36.7263 114.84 35.0533 112.936 33.761C113.924 35.0219 116.944 38.9424 114.981 38.3592C112.664 37.671 110.885 36.1391 108.688 35.2081C107.107 34.5387 105.593 34.3832 104.056 34.4559C106.384 35.6005 111.589 38.0069 109.866 39.1397C108.779 39.8559 104.851 39.4353 102.894 39.1909C100.532 38.8966 98.2955 38.8828 96.1374 39.2882C97.3155 39.8326 97.9654 40.6373 96.5846 41.8109C94.8192 43.312 92.4947 44.1383 90.7159 45.7155C89.2795 46.9878 88.226 48.4004 87.3371 49.9533C86.4115 49.8997 85.5295 49.7405 84.7042 49.4386Z" fill="#5B4B97"/>
<path d="M81.8155 51.4811C81.7228 46.4058 80.436 41.4232 75.9707 38.0311C74.5449 36.9476 74.3519 37.6476 74.1923 38.8907C73.3816 37.4572 72.3058 36.1678 71.0679 35.0663C69.4053 33.589 66.6154 31.4683 64.276 32.1838C62.5696 29.381 54.3983 28.1354 51.1992 30.9561C50.8929 30.848 44.0547 25.7187 44.6158 28.0221C45.0173 29.6667 46.0519 31.2392 47.1997 32.5492C44.9864 31.3036 41.952 30.8635 39.6074 31.2933C38.493 31.4966 35.8653 32.3948 36.2874 33.8746C33.3019 34.0368 28.3888 34.4023 26.6207 36.5976C25.4445 38.0594 32.8696 37.1715 35.3094 37.398C31.6445 38.3142 23.9441 42.1979 25.689 43.109C26.4946 43.5285 30.1698 42.2699 33.7034 41.1272C30.8621 43.1064 26.1729 50.6704 28.8418 49.3115C31.8272 47.7904 35.6337 42.9751 40.1659 41.5467C37.9474 43.4204 33.338 48.5831 33.9556 49.0979C35.1318 50.081 42.1553 45.7856 45.4368 43.1579C44.083 45.3197 43.1565 47.8239 42.091 50.0115C41.1156 52.0164 44.5746 50.3461 45.5371 49.2523C47.0299 47.5588 48.9987 45.3043 50.5043 43.5671C49.8738 45.0392 47.959 49.6023 49.709 48.5368C51.7731 47.2783 53.0986 45.3403 54.9825 43.8759C56.3388 42.8233 57.7646 42.2854 59.265 41.9611C57.3116 43.6649 52.8952 47.3246 54.8512 47.9783C56.0866 48.3927 59.7746 46.9772 61.6019 46.2411C63.8101 45.3506 65.9694 44.7638 68.1596 44.6017C67.161 45.4278 66.739 46.3749 68.3732 47.1573C70.4656 48.1559 72.9235 48.3592 75.0493 49.4273C76.7634 50.2895 78.1454 51.3859 79.4014 52.6547C80.2842 52.3664 81.0949 51.9855 81.8155 51.4811Z" fill="#5B4B97"/>
<path d="M38.632 35.8383C50.1157 30.8506 67.3155 33.3419 75.2269 43.8038C75.2681 43.8579 75.1883 43.9325 75.1343 43.8965C69.848 40.1466 64.8963 36.8215 58.4569 35.3519C51.9198 33.8617 45.218 34.4099 38.8302 36.3067C38.56 36.3891 38.3618 35.9567 38.632 35.8383Z" fill="#403568"/>
<path d="M88.4868 40.0565C95.0807 29.3506 111.709 20.9318 124.339 23.7336C124.387 23.7431 124.392 23.8166 124.34 23.8221C117.633 24.6076 111.442 25.0168 105.147 27.8287C98.6405 30.7328 93.6585 35.2027 88.7698 40.2787C88.6057 40.4451 88.3654 40.2524 88.4868 40.0565Z" fill="#403568"/>
<path d="M64.7007 13.5272C64.7316 12.1503 66.1832 11.9264 67.2924 12.0653C68.4634 12.212 69.601 12.6907 70.5404 13.4165C69.4517 11.2495 68.9627 8.59861 69.269 6.43159C69.5109 4.72782 71.1195 6.9283 71.5621 7.41473C71.3485 4.94658 72.0151 0 72.7718 0C74.0406 0 74.7766 4.67377 75.2965 7.14964C75.9811 5.20909 77.7647 1.98686 78.8868 4.65318C79.5122 6.14076 79.2651 8.22801 78.5393 10.1274C79.5739 9.36556 83.208 7.22942 82.3973 9.1082C81.6123 10.9278 79.8751 12.0808 78.8996 13.7511C80.6858 12.3253 82.9223 11.0513 83.7613 12.5852C84.3713 13.7022 82.9789 14.6004 82.3226 15.2232C81.6251 15.8847 81.0461 16.5795 80.5365 17.3027C81.4476 16.8343 83.4653 15.5707 84.2863 16.3479C85.3673 17.3722 83.0175 21.7011 82.7087 23.8682C83.4602 23.2685 84.4253 23.2453 85.2823 24.4961C86.407 26.133 84.9966 28.807 84.6775 30.4567C84.361 32.0859 84.2709 33.6712 84.2966 35.2489C85.3261 33.5451 86.7467 32.1605 88.0387 33.9132C88.9601 35.164 88.1082 36.9449 87.7093 38.1983C87.2641 39.5958 84.7187 47.2242 84.6621 51.6251C84.3481 51.3137 82.0344 49.8673 81.1284 49.2496C79.6975 46.7815 78.2588 44.0508 76.1716 42.0408C74.3571 40.2958 71.1864 38.8083 70.2933 36.2886C69.6834 34.5694 70.9959 33.6301 72.903 33.751C72.782 33.6867 68.6616 28.3978 66.8832 27.0157C64.2014 24.9285 65.6324 23.2016 68.6127 23.6185C65.9901 20.1621 68.9293 18.6848 68.9113 18.6719C67.8741 17.8226 64.6647 15.0456 64.7007 13.5272Z" fill="#5B4B97"/>
<path d="M74.949 10.6293C74.9516 10.5855 75.0108 10.5881 75.0159 10.6293C75.7314 16.4766 76.3439 22.324 77.7826 28.0478C79.126 33.3959 81.4089 38.3296 83.0946 43.549C83.2053 43.8964 82.706 44.0843 82.5233 43.7909C79.5301 39.0091 77.9164 33.1308 76.6605 27.6772C75.3711 22.0821 74.5784 16.3737 74.949 10.6293Z" fill="#403568"/>
<path d="M79.3702 47.5308C75.4536 45.3153 71.4064 44.2362 66.9783 44.4721C63.2028 44.672 57.5642 45.0987 54.404 47.5979C53.443 48.3574 57.2748 48.7879 58.595 48.9705C51.9529 50.0932 43.9636 51.1828 39.9453 56.4269C39.238 57.3495 43.2029 56.9484 45.2824 56.9664C44.2617 57.4177 43.2542 57.8952 42.2589 58.4039C40.5461 59.277 36.9512 60.4729 36.1416 62.5217C34.2613 63.1806 21.2963 68.0682 19.2154 72.1663C18.6774 73.2273 21.698 72.5868 23.7074 72.6146C19.2636 75.6075 15.3207 79.4236 12.3128 83.6058C11.6861 84.4788 10.6175 86.7098 12.2398 86.9837C10.6614 88.9538 9.29736 91.1264 8.35564 93.4587C7.2286 96.2501 15.5161 90.8172 17.7563 90.8985C15.8232 92.4206 8.03493 99.4137 6.96319 102.098C6.32336 103.7 14.47 97.985 16.9224 97.9483C10.3079 102.511 5.046 112.341 4.7258 118.294C4.63577 119.968 8.19733 115.998 9.12618 114.805C5.89406 122.227 5.15853 131.246 10.5386 137.587C10.8533 137.958 12.2543 132.086 12.605 129.532C12.8108 132.204 14.0582 138.627 14.8751 137.482C18.5192 132.379 18.8256 125.316 17.9252 119.075C19.5531 122.144 22.5982 130.725 23.5123 128.44C25.3032 123.964 24.0775 120.083 22.4261 115.847C23.946 117.42 30.0559 121.505 29.2566 119.313C27.0407 113.224 23.0183 108.122 22.766 101.603C24.4084 105.606 28.2377 108.541 31.6259 111.027C33.5594 112.446 28.0548 100.637 27.1117 95.4603C29.1846 97.1955 32.4918 100.581 33.8409 103.335C35.0796 105.866 35.3061 106.551 35.8232 105.661C37.4363 102.879 36.3488 99.4792 35.2063 96.8079C33.8021 93.5233 31.6537 90.3407 28.8463 88.0614C33.34 90.0789 41.0055 99.7318 41.0679 96.3151C41.161 91.4039 39.0571 86.2729 35.9088 82.3755C38.569 84.749 44.9993 90.794 45.168 88.8151C45.5547 84.3161 39.8224 75.0091 39.8224 75.0091C39.8224 75.0091 42.9494 76.562 46.2507 80.0174C47.194 81.0043 49.1368 83.304 50.7816 82.7349C51.3561 82.5364 51.6808 82.076 51.8699 81.5047C52.2121 82.2546 53.2687 84.3527 53.9864 83.5896C58.4403 78.8619 56.7054 72.967 54.211 67.6747C56.6066 69.2377 62.0645 78.1677 63.4799 76.1994C64.3089 75.0464 60.3661 63.2995 60.2197 62.793C62.4674 65.8588 64.5205 73.8841 66.0738 72.9689C68.2709 71.6775 67.9961 68.5719 68.009 66.4126C68.019 64.5859 67.8648 62.7267 67.3481 61.0031C69.4227 64.3469 70.0937 73.5494 71.8063 72.5582C74.3099 71.1097 75.9614 67.2991 76.7322 64.8097C77.8069 61.3284 78.8393 57.6761 78.2178 54.069C79.7889 56.2453 80.8534 58.4892 81.5926 61.1699C82.491 64.4252 84.3365 64.7642 84.9687 63.121C86.6824 58.6512 83.5602 49.9028 79.3702 47.5308Z" fill="#5B4B97"/>
<path d="M82.1227 45.2499C63.0869 47.1939 45.8376 57.3701 33.416 71.7603C26.86 79.3541 21.7207 88.115 18.0148 97.4273C16.0939 102.255 14.576 107.246 13.4343 112.312C12.3612 117.085 11.178 122.307 12.2391 127.166C12.2508 127.226 12.3512 127.223 12.3506 127.16C12.019 117.329 15.4322 106.831 19.1599 97.8192C22.9352 88.686 28.1007 80.1244 34.5711 72.6448C46.8004 58.5104 63.8375 49.0216 82.2205 45.7101C82.5227 45.6545 82.4169 45.2216 82.1227 45.2499Z" fill="#403568"/>
<path d="M62.762 53.951C65.3944 56.2797 66.8378 60.7447 66.0996 64.1825C66.0301 64.5071 65.5188 64.4925 65.506 64.1463C65.4353 62.343 65.4415 60.6547 64.8929 58.9063C64.3549 57.1837 63.4227 55.7163 62.4925 54.1863C62.3871 54.0159 62.6033 53.812 62.762 53.951Z" fill="#5B4B97"/>
<path d="M66.7074 51.3552C69.5227 52.5342 71.9254 56.646 71.7507 59.6496C71.7327 59.9792 71.2777 60.1305 71.1488 59.7744C70.5804 58.219 70.2048 56.6439 69.3484 55.2046C68.5477 53.855 67.401 52.8751 66.4264 51.6748C66.2767 51.4903 66.5236 51.2768 66.7074 51.3552Z" fill="#5B4B97"/>
<path d="M55.7145 58.5273C58.9287 61.5877 61.8993 67.735 61.5207 72.2461C61.4955 72.5586 61.0523 72.5312 60.9514 72.2856C60.0895 70.1316 59.8052 67.7639 58.9594 65.5816C58.0259 63.1668 56.6386 61.0295 55.4741 58.7343C55.4006 58.5885 55.5709 58.3914 55.7145 58.5273Z" fill="#5B4B97"/>
<path d="M48.4901 63.6119C50.9533 65.1646 52.8146 68.1146 54.132 70.6447C55.2422 72.777 56.0105 75.0988 55.0723 77.4265C54.9221 77.8008 54.4053 77.5621 54.4434 77.2103C55.039 71.6297 50.8089 68.1873 48.3884 63.7282C48.356 63.6667 48.4153 63.5656 48.4901 63.6119Z" fill="#5B4B97"/>
<path d="M36.1291 73.68C39.7371 76.0233 42.3468 81.383 42.7221 85.571C42.751 85.889 42.2999 85.9676 42.1888 85.6806C41.3426 83.514 40.6259 81.289 39.5159 79.2354C38.4865 77.3316 37.0589 75.7031 35.9901 73.8387C35.941 73.7555 36.0291 73.6156 36.1291 73.68Z" fill="#5B4B97"/>
<path d="M23.9819 95.2474C24.9674 96.644 25.4747 98.4288 26.1713 99.986C26.9643 101.759 27.9232 103.45 28.6874 105.235C28.8415 105.596 28.308 105.827 28.0934 105.532C26.9829 104.011 26.2007 102.303 25.4644 100.575C24.7681 98.937 23.9215 97.0772 23.9108 95.2753C23.9087 95.2329 23.9571 95.2136 23.9819 95.2474Z" fill="#5B4B97"/>
<path d="M20.8691 101.815C21.2537 104.1 21.8855 106.316 22.7968 108.446C23.7111 110.586 25.0524 112.426 26.1391 114.465C26.2784 114.728 25.9707 115.063 25.7204 114.83C22.3121 111.65 20.7797 106.349 20.3503 101.851C20.3173 101.514 20.8154 101.489 20.8691 101.815Z" fill="#5B4B97"/>
<path d="M31.479 79.9168C33.1024 80.7944 34.4069 82.6739 35.4512 84.1583C36.6569 85.874 37.7878 87.769 38.3173 89.8127C38.3997 90.1254 37.9561 90.4049 37.7757 90.0833C36.7976 88.3444 35.9975 86.5279 34.9105 84.8488C33.8396 83.1939 32.2802 81.7939 31.3193 80.1004C31.2611 79.997 31.3602 79.854 31.479 79.9168Z" fill="#5B4B97"/>
<path d="M18.2205 108.358C18.8148 111.984 19.8203 115.016 21.2735 118.371C21.4145 118.693 20.9319 118.904 20.7411 118.635C18.7018 115.802 17.6853 111.805 17.9252 108.339C17.937 108.161 18.196 108.204 18.2205 108.358Z" fill="#5B4B97"/>
<path d="M87.9562 43.6881C91.8527 41.4361 95.8908 40.3243 100.32 40.5173C104.096 40.682 109.74 41.0604 112.923 43.5311C113.894 44.2826 110.064 44.7484 108.746 44.9415C115.397 46.0044 123.398 47.021 127.462 52.2301C128.177 53.1463 124.209 52.7808 122.132 52.8194C123.156 53.2621 124.17 53.7305 125.169 54.2298C126.888 55.0868 130.496 56.2501 131.322 58.291C133.209 58.9345 146.216 63.706 148.334 67.7853C148.883 68.8405 145.856 68.228 143.846 68.2743C148.316 71.2289 152.295 75.0096 155.34 79.1635C155.976 80.0308 157.062 82.2519 155.443 82.5401C157.038 84.4961 158.423 86.6554 159.386 88.982C160.539 91.7641 152.2 86.4032 149.963 86.5087C151.912 88.0143 159.759 94.9374 160.858 97.6115C161.514 99.2097 153.317 93.5657 150.862 93.5502C157.517 98.0542 162.865 107.837 163.238 113.787C163.344 115.46 159.749 111.522 158.807 110.336C162.106 117.73 162.922 126.74 157.597 133.131C157.286 133.504 155.831 127.644 155.458 125.096C155.278 127.77 154.087 134.204 153.258 133.066C149.567 127.996 149.199 120.937 150.043 114.688C148.442 117.771 145.475 126.38 144.541 124.102C142.711 119.642 143.9 115.751 145.514 111.499C144.008 113.084 137.937 117.225 138.714 115.027C140.876 108.918 144.852 103.781 145.045 97.2589C143.439 101.279 139.635 104.246 136.269 106.763C134.349 108.2 139.746 96.3401 140.644 91.1567C138.585 92.9094 135.309 96.3247 133.986 99.0913C132.771 101.632 132.55 102.319 132.025 101.433C130.388 98.6667 131.446 95.2591 132.563 92.5774C133.937 89.2805 136.058 86.0789 138.843 83.7729C134.367 85.8292 126.79 95.5526 126.695 92.1347C126.559 87.2242 128.618 82.0743 131.729 78.1494C129.091 80.5481 122.714 86.6502 122.528 84.6711C122.104 80.1775 127.75 70.8171 127.75 70.8171C127.75 70.8171 124.639 72.3973 121.368 75.8846C120.433 76.8806 118.508 79.1969 116.861 78.6436C116.285 78.4506 115.955 77.9925 115.762 77.4237C115.427 78.1752 114.39 80.2856 113.665 79.5289C109.168 74.8397 110.849 68.9306 113.297 63.616C110.916 65.2013 105.537 74.1809 104.106 72.2249C103.267 71.077 107.104 59.2973 107.246 58.7903C105.027 61.8762 103.046 69.9189 101.483 69.0181C99.2752 67.7467 99.5197 64.6377 99.4888 62.4784C99.4631 60.6537 99.5995 58.7929 100.101 57.0634C98.0553 60.4246 97.4685 69.6332 95.7467 68.6578C93.2322 67.232 91.5439 63.4358 90.7512 60.9548C89.6445 57.4829 88.5816 53.8412 89.1684 50.2278C87.6165 52.4205 86.5716 54.6699 85.8561 57.3594C84.9862 60.6228 83.1435 60.9805 82.5 59.3411C80.7422 54.8732 83.7869 46.097 87.9562 43.6881Z" fill="#5B4B97"/>
<path d="M90.3293 42.1412C107.344 45.0855 122.716 54.5257 134.125 67.5047C140.75 75.0404 145.967 83.7548 149.755 93.0328C151.719 97.843 153.284 102.82 154.47 107.875C155.587 112.636 156.817 117.851 155.798 122.72C155.785 122.779 155.685 122.777 155.687 122.712C155.932 112.878 152.421 102.411 148.615 93.4343C144.757 84.3364 139.517 75.8202 132.977 68.4003C121.756 55.6633 106.597 46.8099 90.1157 42.9339C90.1774 42.6663 90.2546 42.4037 90.3293 42.1412Z" fill="#403568"/>
<path d="M95.9526 42.728C99.7822 40.8698 106.116 41.364 109.763 43.4898C109.94 43.5928 109.812 43.827 109.632 43.8012C107.218 43.4461 104.937 42.7589 102.469 42.7126C100.312 42.6714 98.22 43.1501 96.0761 43.1835C95.8445 43.1861 95.7287 42.8361 95.9526 42.728Z" fill="#5B4B97"/>
<path d="M111.446 47.3581C115.003 47.0467 119.221 48.331 121.872 50.7785C122.08 50.9715 121.815 51.2547 121.589 51.1466C119.852 50.3384 118.228 49.4145 116.375 48.8586C114.746 48.3721 113.057 48.1174 111.382 47.8368C111.091 47.7905 111.191 47.3787 111.446 47.3581Z" fill="#5B4B97"/>
<path d="M132.092 60.9727C135.85 61.0577 140.019 62.7666 142.958 65.0752C143.192 65.2579 142.894 65.5693 142.662 65.4612C140.85 64.6145 139.085 63.706 137.183 63.0677C135.482 62.4963 133.721 62.1746 131.999 61.6831C131.613 61.5698 131.68 60.965 132.092 60.9727Z" fill="#5B4B97"/>
<path d="M139.306 68.6501C142.356 69.9343 145.228 71.566 147.899 73.522C149.84 74.9427 152.501 76.5461 152.926 79.0786C152.969 79.3462 152.638 79.5109 152.478 79.2664C149.436 74.6416 143.913 71.5815 139.234 68.8225C139.144 68.771 139.206 68.6063 139.306 68.6501Z" fill="#5B4B97"/>
<path d="M152.908 97.8045C156.938 100.262 159.908 104.681 160.472 109.373C160.502 109.628 160.127 109.643 160.049 109.43C158.423 104.931 156.217 101.315 152.756 98.0027C152.655 97.9049 152.787 97.7299 152.908 97.8045Z" fill="#5B4B97"/>
<path d="M96.449 94.9207C93.1872 93.1722 90.23 91.0754 87.2745 88.9706C87.9331 89.2709 92.4441 90.5709 92.8028 88.973C93.2049 87.1889 89.841 84.6619 88.9124 83.4055C88.128 82.3451 87.2697 81.205 86.3174 80.1716C88.3495 81.066 90.4571 81.8041 92.5791 82.4422C93.0246 82.5778 93.5896 82.3085 93.5012 81.7617C92.8739 77.7716 90.8656 73.5302 87.7963 70.5888C89.1398 71.1915 90.521 71.7174 91.9807 72.1359C92.3397 72.2399 92.7405 71.8263 92.6692 71.4743C91.8668 67.5613 91.2231 63.5187 89.056 60.1529C91.272 60.8657 93.74 63.2153 94.0664 61.4709C94.5866 58.6811 89.8525 51.3527 87.5176 50.0992C81.2199 46.7213 75.2959 52.4321 71.2618 57.4759C69.5822 59.5746 67.7378 61.5444 66.4133 63.8252C65.8222 64.8409 64.5557 67.0167 66.2223 67.7949C66.9008 68.1111 67.9484 67.6441 68.5756 67.4662C69.7952 67.1221 71.0795 66.8224 72.3268 66.4491C67.4273 69.9056 63.0674 74.593 61.2945 80.246C61.1068 80.8477 61.7302 81.4966 62.3146 81.0567C63.5281 80.1382 64.8706 79.306 66.1638 78.4276C63.0279 81.7445 60.666 85.9858 60.7072 90.5584C60.7127 91.1276 61.4724 91.2247 61.789 90.8672C62.9297 89.584 64.0761 88.3054 65.2168 87.0222C64.7599 87.8515 60.6287 96.6445 60.6399 100.48C60.6462 102.098 61.4165 101.766 61.717 101.88C58.7487 105.688 57.5484 110.889 58.1975 115.659C58.279 116.259 59.03 116.46 59.4188 116.009C60.559 114.677 61.7403 113.363 62.854 112.003C61.154 116.21 60.4924 121.704 61.7487 125.713C62.0514 126.684 62.7579 128.082 63.9705 128.13C64.5688 128.152 64.9501 127.93 65.2358 127.597C65.2064 128.426 65.2465 129.253 65.3263 130.019C65.4381 131.109 65.6239 132.598 66.1197 133.853C66.6064 136.727 67.6599 139.528 69.0143 141.948C69.3561 142.559 70.2115 142.518 70.3823 141.792C70.696 140.458 71.0305 139.125 71.3357 137.784C71.5232 138.654 75.3712 148.2 78.414 151.113C78.7778 151.463 79.2374 151.382 79.4726 150.992C81.6175 147.436 83.1214 142.511 83.0234 137.849C83.6602 139.227 84.3067 140.598 84.9298 141.97C85.1619 142.482 85.865 142.378 85.991 141.848C86.8161 138.327 86.6679 134.585 85.473 131.204C86.4363 132.13 87.5201 132.931 88.6062 133.685C90.2213 134.806 89.4774 130.181 88.6102 128.465C88.0581 127.375 87.5245 126.265 86.9855 125.153C90.0075 126.639 89.655 116.989 88.2834 113.286C89.0729 109.815 88.6115 106.505 87.7395 103.048C89.2475 104.614 91.0268 105.993 92.5152 107.139C93.1005 107.59 93.7502 106.974 93.5799 106.346C92.6444 102.923 91.0337 99.0993 88.7663 95.8538C91.1913 96.6955 93.7905 96.8852 96.4376 96.0437C96.9719 95.8686 96.8709 95.1445 96.449 94.9207Z" fill="#5B4B97"/>
<path d="M82.1772 53.8469C76.1163 67.399 74.7152 82.962 73.0624 97.5487C72.2297 104.9 71.6317 112.333 72.1697 119.732C72.7561 127.804 74.4995 136.049 75.9436 144.01C75.9766 144.185 76.2547 144.216 76.2759 144.016C77.0178 136.8 74.2835 129.404 73.5062 122.268C72.6414 114.321 73.1938 106.307 74.0701 98.3867C75.7366 83.3088 77.8609 68.4739 82.5241 54.0041C82.5987 53.7728 82.2782 53.6203 82.1772 53.8469Z" fill="#403568"/>
<path d="M81.9931 51.4899C77.4856 52.5986 71.8793 56.4442 71.2174 61.4158C71.1841 61.6683 71.5377 61.861 71.6947 61.6254C73.0613 59.5989 74.1088 57.5466 75.9369 55.8636C77.7624 54.1808 79.8829 52.9488 82.0662 51.7898C82.2078 51.714 82.1771 51.4456 81.9931 51.4899Z" fill="#5B4B97"/>
<path d="M73.4102 69.5115C70.0071 70.6053 65.9286 72.9058 64.4161 76.2832C64.3066 76.5262 64.6294 76.6991 64.7974 76.5141C66.0905 75.0918 67.4441 73.722 69.0191 72.6119C70.4789 71.5824 72.105 70.8058 73.5502 69.7623C73.6915 69.6607 73.5626 69.463 73.4102 69.5115Z" fill="#5B4B97"/>
<path d="M72.1337 76.1516C68.0798 77.6255 65.1468 81.9917 63.6124 85.8119C63.5819 85.8854 63.685 85.9254 63.7214 85.859C64.8032 84.0386 66.1403 82.2977 67.6142 80.7795C69.1019 79.2468 70.8735 78.1117 72.4198 76.6603C72.6564 76.4416 72.4669 76.0306 72.1337 76.1516Z" fill="#5B4B97"/>
<path d="M70.1175 87.4045C65.0587 90.1021 61.3144 95.5739 61.134 101.358C61.1256 101.647 61.5006 101.71 61.5773 101.429C63.1154 95.829 65.7272 91.3493 70.2539 87.6454C70.3701 87.5518 70.2639 87.3256 70.1175 87.4045Z" fill="#5B4B97"/>
<path d="M69.9236 97.0788C64.4764 99.5746 59.6145 106.441 59.3266 112.463C59.3093 112.833 59.8521 113.071 60.002 112.66C61.0861 109.682 61.8866 106.805 63.654 104.116C65.4126 101.441 67.6963 99.4162 70.0308 97.2685C70.1149 97.189 70.0468 97.0232 69.9236 97.0788Z" fill="#5B4B97"/>
<path d="M68.2664 106.982C64.3796 110.981 62.2022 117.152 63.9878 122.618C64.088 122.928 64.5292 122.776 64.5166 122.485C64.2802 116.772 65.0636 111.934 68.6198 107.263C68.7972 107.025 68.4659 106.778 68.2664 106.982Z" fill="#5B4B97"/>
<path d="M68.4939 121.997C68.5192 121.81 68.2743 121.752 68.1884 121.907C65.753 126.253 66.4018 132.424 69.2502 136.401C69.4566 136.688 69.8926 136.423 69.7785 136.105C67.9974 131.177 67.813 127.141 68.4939 121.997Z" fill="#5B4B97"/>
<path d="M72.98 2.43217C74.1278 4.29292 74.7249 6.44451 74.3749 8.6244C74.3363 8.8689 74.0094 8.7711 73.9811 8.57036C73.7057 6.51143 73.4072 4.51169 72.7329 2.53511C72.684 2.38842 72.9027 2.30348 72.98 2.43217Z" fill="#5B4B97"/>
<path d="M80.1631 23.4693C80.6264 22.4193 81.3316 21.4953 81.7948 20.4324C82.2504 19.3875 82.6184 18.2679 82.85 17.151C82.8887 16.9605 83.2078 16.9991 83.1949 17.1973C83.0225 19.4338 82.3765 22.2571 80.5981 23.8013C80.351 24.0149 80.0396 23.7524 80.1631 23.4693Z" fill="#5B4B97"/>
<path d="M82.3869 13.2699C82.5465 13.2235 82.7292 13.4217 82.6186 13.571C82.0549 14.3225 81.2725 14.8887 80.7012 15.6479C80.0809 16.4715 79.7206 17.4212 79.2007 18.3039C79.0798 18.5073 78.7169 18.4326 78.7349 18.1778C78.8662 16.3582 80.5751 13.7949 82.3869 13.2699Z" fill="#5B4B97"/>
<path d="M83.5088 26.7379C83.6298 26.4471 84.1085 26.568 83.9901 26.8717C83.0893 29.2009 83.3106 31.2727 83.5654 33.6868C83.6015 34.0188 83.1408 34.0111 83.0353 33.7589C82.1113 31.5429 82.6132 28.8818 83.5088 26.7379Z" fill="#5B4B97"/>
<path d="M114.967 21.2843C118.495 21.3178 122.351 22.6484 125.31 24.5554C125.506 24.6815 125.385 25.0367 125.146 24.9492C121.736 23.6804 118.392 22.7642 114.902 21.7656C114.637 21.691 114.686 21.2817 114.967 21.2843Z" fill="#5B4B97"/>
</svg>
