<svg width="70" height="38" viewBox="0 0 70 38" fill="none" xmlns="http://www.w3.org/2000/svg">
<path d="M35.0013 0.041687C15.375 0.041687 0.00128174 8.36877 0.00128174 19C0.00128174 29.6313 15.375 37.9584 35.0013 37.9584C54.6275 37.9584 70.0013 29.6313 70.0013 19C70.0013 8.36877 54.6275 0.041687 35.0013 0.041687ZM31.3671 5.87502H35.188L33.9746 11.7084H37.3871C39.5513 11.7084 41.0038 12.0117 41.8321 12.7671C42.64 13.5138 42.885 14.7388 42.5613 16.4071L41.0446 23.375H37.1596L38.5567 16.9321C38.7239 16.0435 38.6588 15.4359 38.3613 15.1092C38.0667 14.7854 37.4163 14.625 36.4421 14.625H33.3825L31.5363 23.375H27.7096L31.3671 5.87502ZM14.5846 11.7084H22.3604C26.0675 11.7084 28.3134 14.1934 27.4354 17.9004C26.4146 22.2084 23.6846 23.375 18.6563 23.375H16.2529L15.4917 27.75H11.6271L14.5846 11.7084ZM45.2096 11.7084H52.9855C56.6925 11.7084 58.9384 14.1934 58.0605 17.9004C57.0396 22.2084 54.3067 23.375 49.2813 23.375H46.878L46.1167 27.75H42.2521L45.2096 11.7084ZM17.895 14.625L16.7954 20.4584H19.2892C21.4475 20.4584 23.4542 20.2134 23.7896 16.9963C23.915 15.7479 23.3959 14.625 20.9021 14.625H17.895ZM48.52 14.625L47.4204 20.4584H49.9142C52.0725 20.4584 54.0792 20.2134 54.4146 16.9963C54.54 15.7479 54.0238 14.625 51.5271 14.625H48.52Z" fill="url(#paint0_linear_50_94)"/>
<defs>
<linearGradient id="paint0_linear_50_94" x1="35.0013" y1="0.041687" x2="35.0013" y2="37.9584" gradientUnits="userSpaceOnUse">
<stop stop-color="#FFDC57"/>
<stop offset="1" stop-color="#DB408E"/>
</linearGradient>
</defs>
</svg>
