<svg width="226" height="173" viewBox="0 0 226 173" fill="none" xmlns="http://www.w3.org/2000/svg">
<path d="M165.511 50.3601L145.331 34.1681L144.629 32.8441L147.941 29.3361L154.468 26.0841L159.651 25.0321L161.637 25.2454L193.903 38.7188L165.511 50.3601Z" fill="#403568"/>
<path d="M156.519 26.9335L183.588 41.9708L193.567 38.7055L161.632 25.3695L156.519 26.9335ZM183.563 42.2241L183.519 42.2001L156.217 27.0335L149.147 30.8028L146.544 32.5961L145.428 34.2348L145.233 34.1028L146.395 32.4175L149.025 30.6041L156.167 26.7988L161.644 25.1215L161.683 25.1375L194.237 38.7321L183.563 42.2241Z" fill="#312853"/>
<path d="M171.709 46.656H171.477V45.6093L149.027 30.7987L149.155 30.6027L171.709 45.4827V46.656Z" fill="#312853"/>
<path d="M41.9187 64.0933L73.48 108.746L75.3494 106.174L44.8013 62.9346L41.9187 64.0933Z" fill="#403272"/>
<path d="M76.616 86.4586L44.8827 66.8333L0.14668 34.5839L0 33.7666C0 33.7666 2.81996 30.0399 4.06263 29.0173C5.3053 27.9946 19.0146 21.9013 19.0146 21.9013C19.0146 21.9013 20.0293 21.8039 21.236 21.9986C22.444 22.1933 24.1587 22.9146 24.1587 22.9146L78.228 48.1893L109.951 68.0866L95.728 78.1199L79.48 86.4586C79.48 86.4586 77.22 87.4334 76.616 86.4586Z" fill="#6C58B2"/>
<path d="M18.94 25.6175L71.468 50.7708L102.993 70.3162L109.927 68.0722L78.2281 48.1895L24.1587 22.9148C24.1587 22.9148 22.4441 22.1935 21.2361 21.9988C20.0281 21.8042 19.0147 21.9015 19.0147 21.9015C19.0147 21.9015 17.3227 22.6535 15.076 23.6722L18.94 25.6175Z" fill="#5B4B97"/>
<path d="M18.9908 25.5108L71.5174 50.6654L103.009 70.1881L109.653 68.0374L78.1654 48.2881L24.1094 23.0214C24.0974 23.0161 22.3974 22.3054 21.2174 22.1134C20.1267 21.9388 19.1868 22.0041 19.0441 22.0161C18.8654 22.0961 17.3507 22.7694 15.3481 23.6774L18.9921 25.5121L18.9908 25.5108ZM102.979 70.4441L102.932 70.4161L71.4067 50.8694L18.8881 25.7201L14.8054 23.6668L15.0281 23.5654C17.2747 22.5468 18.9681 21.7948 18.9681 21.7948L19.0041 21.7854C19.0467 21.7814 20.0454 21.6881 21.2561 21.8841C22.4627 22.0788 24.1334 22.7774 24.2041 22.8081L78.2774 48.0841L110.201 68.1068L102.979 70.4441Z" fill="#403272"/>
<path d="M80.1533 81.4333L47.8933 62.188L4.32532 32.188L80.1533 81.4333Z" fill="#403272"/>
<path d="M80.0933 81.532L47.8334 62.288L4.26001 32.284L4.39204 32.092L47.96 62.092L80.212 81.332L80.0933 81.532Z" fill="#403272"/>
<path d="M1.17471 35.4241L1.02002 35.0094L1.48805 34.2867L4.32002 32.1387L24.108 22.8081L24.2093 23.0214L4.44001 32.3374L1.64671 34.4601L1.28005 35.0361L1.39333 35.3427L1.17471 35.4241Z" fill="#403272"/>
<path d="M103.46 70.7388L71.4053 50.8694L18.636 25.6001L18.736 25.3881L71.5173 50.6654L87.5506 60.6028L103.584 70.5401L103.46 70.7388Z" fill="#403272"/>
<path d="M44.7679 66.8547L44.6146 66.0241L45.556 64.3907L48.184 62.3107L71.4146 50.6654L78.1866 48.0801L78.2693 48.2987L71.5093 50.8801L48.3093 62.5081L45.7187 64.5587L44.8599 66.0654L44.9986 66.8121L44.7679 66.8547Z" fill="#403272"/>
<path d="M109.823 114.96L117.977 121.605L124.891 132.322L126.355 131.308L120.939 119.307L115.407 112.682L115.663 111.217L109.823 114.96Z" fill="#5B4B97"/>
<path d="M136.32 117.781L98.8561 122.463L98.2614 122.286L95.6414 123.311L94.3867 124.46L95.0281 124.713H99.06L143.947 119.072L136.32 117.781Z" fill="#403272"/>
<path d="M68.5013 134.844L67.8107 134.639L67.128 135.281L66.8947 136.801L67.528 140.181L68.1213 140.367L69.4667 139.801L70.3226 134.639L68.5013 134.844Z" fill="#403272"/>
<path d="M67.6293 140.091L68.116 140.243L69.3614 139.72L70.1827 134.774L68.4907 134.963L67.8414 134.77L67.2373 135.339L67.0134 136.8L67.6293 140.091ZM68.128 140.492L67.4267 140.274L66.776 136.804L67.0187 135.224L67.7787 134.508L68.512 134.725L70.464 134.505L69.5707 139.885L68.128 140.492Z" fill="#312853"/>
<path d="M70.0281 145.333C70.3934 145.258 70.7841 145.104 71.1894 144.862C73.1574 143.685 74.7201 140.915 74.6801 138.672L74.86 139.172C74.8974 141.204 73.4827 143.713 71.6987 144.779C71.3307 144.999 70.9774 145.139 70.6468 145.207C70.4401 145.25 70.2347 145.291 70.0281 145.333Z" fill="#403272"/>
<path d="M74.7093 138.212C74.8013 138.491 74.8533 138.812 74.86 139.172L74.68 138.672C74.672 138.275 74.6146 137.919 74.5146 137.611L74.5346 137.671L74.5426 137.701L74.5626 137.762L74.584 137.822L74.5933 137.851L74.612 137.912L74.632 137.972L74.6426 138.001L74.6613 138.062L74.6813 138.122L74.6907 138.152L74.7093 138.212Z" fill="#403272"/>
<path d="M73.6414 136.457C74.2654 136.822 74.6587 137.584 74.68 138.672L72.8507 137.611C72.8307 136.522 72.436 135.757 71.812 135.395C72.3613 135.713 73.0934 136.139 73.6414 136.457Z" fill="#403272"/>
<path d="M65.6641 142.251C66.0827 143.517 67.3201 143.884 68.7641 143.021C70.5214 141.97 71.9174 139.497 71.8801 137.496L72.8507 137.611C72.8907 139.851 71.3281 142.621 69.3614 143.797C67.7454 144.764 66.3588 144.353 65.8908 142.936C65.8161 142.708 65.7401 142.48 65.6641 142.251Z" fill="#403272"/>
<path d="M66.7627 144.083C67.4254 144.468 68.3481 144.403 69.3614 143.797C71.3281 142.621 72.8907 139.851 72.8507 137.611L74.6801 138.672C74.7201 140.915 73.1574 143.685 71.1894 144.862C70.1761 145.465 69.2547 145.531 68.5921 145.145C68.0427 144.828 67.3107 144.401 66.7627 144.083Z" fill="#403272"/>
<path d="M71.8801 137.496C71.9174 139.497 70.5214 141.97 68.764 143.021C67.0067 144.07 65.5521 143.3 65.5161 141.297C65.4801 139.296 66.8747 136.821 68.632 135.772C70.3893 134.721 71.8441 135.493 71.8801 137.496Z" fill="#403272"/>
<path d="M72.452 139.675C72.472 140.691 71.764 141.946 70.8707 142.48C69.9787 143.012 69.24 142.62 69.2214 141.605C69.204 140.588 69.912 139.332 70.804 138.8C71.696 138.267 72.4334 138.659 72.452 139.675Z" fill="#5B4B97"/>
<path d="M71.9827 138.67L72.2613 138.832C72.5426 138.997 72.7213 139.343 72.7306 139.836L72.452 139.674C72.4427 139.181 72.2653 138.834 71.9827 138.67Z" fill="#403272"/>
<path d="M69.9721 142.77L69.6934 142.609C69.9934 142.783 70.412 142.753 70.8707 142.48C71.764 141.945 72.4721 140.691 72.4521 139.675L72.7307 139.836C72.7494 140.852 72.0427 142.109 71.1494 142.641C70.6907 142.916 70.2721 142.944 69.9721 142.77Z" fill="#403272"/>
<path d="M70.3814 135.205C71.788 134.922 72.8187 135.832 72.8507 137.611L71.8801 137.496C71.8521 135.908 70.932 135.095 69.676 135.348C69.9107 135.3 70.1467 135.253 70.3814 135.205Z" fill="#403272"/>
<path d="M69.6933 142.61C69.4093 142.444 69.2307 142.099 69.2214 141.605C69.204 140.588 69.912 139.332 70.804 138.8C71.264 138.525 71.6814 138.496 71.9827 138.671L72.2614 138.832C71.96 138.659 71.5427 138.687 71.0827 138.962C70.1907 139.495 69.4827 140.751 69.5 141.767C69.5094 142.26 69.688 142.607 69.972 142.771L69.6933 142.61Z" fill="#403272"/>
<path d="M69.776 142.852C69.7094 142.652 69.6441 142.452 69.5774 142.253C69.7894 142.893 70.4187 143.079 71.1494 142.641C72.0427 142.109 72.7494 140.852 72.7307 139.836L73.5801 139.937C73.6027 141.164 72.7481 142.677 71.6721 143.321C70.7894 143.848 70.032 143.625 69.776 142.852Z" fill="#403272"/>
<path d="M71.6146 138.746C71.82 138.705 72.0266 138.664 72.2333 138.621C73 138.468 73.5627 138.967 73.58 139.937L72.7306 139.836C72.716 139.032 72.2506 138.619 71.6146 138.746Z" fill="#403272"/>
<path d="M69.5774 142.253C69.5307 142.112 69.5041 141.95 69.5001 141.767C69.4827 140.751 70.1907 139.495 71.0827 138.962C71.2681 138.851 71.4467 138.779 71.6147 138.747C71.82 138.705 72.0267 138.664 72.2334 138.622C72.0321 138.663 71.8161 138.748 71.5921 138.883C70.5161 139.525 69.6601 141.04 69.6841 142.265C69.6881 142.487 69.7187 142.681 69.776 142.852C69.7094 142.652 69.6441 142.452 69.5774 142.253Z" fill="#403272"/>
<path d="M65.8907 142.936C65.8161 142.708 65.74 142.48 65.664 142.251C65.5747 141.975 65.5227 141.656 65.5161 141.298C65.4801 139.296 66.8747 136.822 68.632 135.772C68.996 135.555 69.348 135.415 69.676 135.348L70.0293 135.277L70.3814 135.205C70.0147 135.279 69.6214 135.436 69.212 135.679C67.2454 136.855 65.6827 139.625 65.7227 141.868C65.7307 142.269 65.7881 142.627 65.8907 142.936Z" fill="#403568"/>
<path d="M73.5801 139.937C73.5574 138.712 72.6667 138.239 71.5921 138.883C70.5161 139.525 69.6601 141.04 69.6841 142.265C69.7067 143.492 70.5974 143.964 71.6721 143.322C72.7481 142.677 73.6028 141.164 73.5801 139.937ZM74.86 139.172C74.8974 141.204 73.4827 143.713 71.6987 144.779C69.916 145.844 68.44 145.06 68.404 143.031C68.3667 140.999 69.7814 138.489 71.5654 137.424C73.348 136.359 74.8227 137.141 74.86 139.172Z" fill="#403272"/>
<path d="M70.6467 145.207C70.4401 145.25 70.2347 145.291 70.028 145.334C68.6174 145.623 67.5854 144.712 67.5521 142.931C67.5107 140.688 69.0734 137.919 71.0427 136.741C72.66 135.776 74.0494 136.188 74.5147 137.611L74.5347 137.671L74.5427 137.701L74.5627 137.762L74.584 137.822L74.5933 137.851L74.612 137.912L74.632 137.972L74.6427 138.001L74.6614 138.062L74.6814 138.122L74.6907 138.152L74.7094 138.212C74.2894 136.923 73.032 136.549 71.5654 137.424C69.7814 138.489 68.3667 140.999 68.404 143.031C68.432 144.643 69.3694 145.468 70.6467 145.207Z" fill="#403568"/>
<path d="M68.592 145.146L66.7626 144.083C66.1373 143.72 65.7427 142.956 65.7227 141.868C65.6827 139.625 67.2453 136.855 69.212 135.679C70.2253 135.074 71.1493 135.01 71.812 135.395L73.6414 136.457C72.9787 136.072 72.0547 136.137 71.0427 136.741C69.0733 137.919 67.5107 140.688 67.552 142.931C67.572 144.019 67.9653 144.781 68.592 145.146Z" fill="#403272"/>
<mask id="mask0_115_20452" style="mask-type:luminance" maskUnits="userSpaceOnUse" x="49" y="35" width="154" height="99">
<path d="M202.084 35.376V38.4146L201.303 40.52L197.836 44.376L167.852 69.248L144.708 88.7693L127.115 103.877L99.3521 121.672L89.0254 127.47L80.2001 131.386C80.2001 131.386 71.94 133.665 71.4734 133.704C71.0054 133.743 64.84 133.231 64.84 133.231C64.84 133.231 62.152 132.984 61.1934 132.605C60.2347 132.222 51.9214 127.517 51.3361 126.643C50.7521 125.764 49.8667 119.558 49.9641 118.546C50.0627 117.534 51.268 115.196 51.268 115.196L64.3227 104.209L72.4267 97.0386L118.801 71.1746L166.743 49.812L202.084 35.376Z" fill="white"/>
</mask>
<g mask="url(#mask0_115_20452)">
<path d="M202.084 35.376V38.4146L201.303 40.52L197.836 44.376L167.852 69.248L144.708 88.7693L127.115 103.877L99.3521 121.672L89.0254 127.47L80.2001 131.386C80.2001 131.386 71.94 133.665 71.4734 133.704C71.0054 133.743 64.84 133.231 64.84 133.231C64.84 133.231 62.152 132.984 61.1934 132.605C60.2347 132.222 51.9214 127.517 51.3361 126.643C50.7521 125.764 49.8667 119.558 49.9641 118.546C50.0627 117.534 51.268 115.196 51.268 115.196L64.3227 104.209L72.4267 97.0386L118.801 71.1746L166.743 49.812L202.084 35.376Z" fill="#5B4B97"/>
</g>
<path d="M87.116 108.567L80.3853 112.058L64.3226 121.767L65.2253 123.116L81.9346 114.368L95.2026 109.195L90.5093 109.483L87.116 108.567Z" fill="#403272"/>
<path d="M137.225 77.4293L143.46 73.172L167.443 58.3173L191.583 42.624L168.115 59.632L145.125 76.148L135.341 83.948L137.225 79.6213V77.4293Z" fill="#403272"/>
<path d="M68.3707 127.701L69.4867 128.548L69.4987 128.581L70.092 130.324L73.7227 129.908L90.5747 122.909L116.839 108.374L141.248 90.1651L181.412 56.1293V54.9453L168.328 64.0533L145.653 81.0439L127.247 95.7173L91.0867 114.074L68.3707 124.508V127.701ZM69.932 130.577L69.2893 128.691L68.1373 127.817V124.357L90.9854 113.863L127.12 95.5214L145.511 80.8599L168.192 63.8626L181.647 54.4986V56.2373L181.604 56.2719L141.393 90.3463L116.967 108.569L90.676 123.12L73.7653 130.137L69.932 130.577Z" fill="#403568"/>
<path d="M80.7653 80.9508L79.9959 81.3414L77.2599 84.5414L74.5986 89.2934L71.3373 98.0027V99.6106L73.3146 101.276L83.22 106.887C83.22 106.887 88.1306 109.253 90.2053 109.457C92.28 109.663 95.2026 109.195 95.2026 109.195L123.491 95.6251L135.821 82.8454L137.225 79.6214V77.4294L131.791 72.1094L130.621 71.4668L120.072 69.0707L109.951 68.0867L102.993 70.3161L80.7653 80.9508Z" fill="#4E4080"/>
<path d="M103.443 94.9345L102.771 105.221L123.228 95.2558L118.785 87.9428L103.443 94.9345Z" fill="url(#paint0_linear_115_20452)"/>
<path d="M103.208 94.6616L101.551 106.221L100.248 118.307L99.9494 120.18L115.373 110.431L123.472 98.9693V90.9881L121.644 87.3507L120.532 86.4027L103.208 94.6616ZM99.6373 120.655L100.016 118.276L101.319 106.192L102.993 94.5027L103.049 94.4761L120.567 86.1253L121.841 87.224L123.705 90.96V99.0439L123.684 99.0736L115.517 110.615L99.6373 120.655Z" fill="#403568"/>
<g filter="url(#filter0_d_115_20452)">
<path d="M100.073 92.9465L86.5227 85.4655L78.4427 83.1575L77.1894 84.6668L74.5987 89.2935L72.2281 95.6252L71.7334 97.6508L71.8814 98.8107L73.6361 100.048L82.9867 105.512L87.3894 107.462L90.468 108.396L95.3001 107.899L100.188 105.668L100.901 93.5893L132.896 111.199L184.004 137.777L100.073 92.9465Z" fill="url(#paint1_linear_115_20452)"/>
</g>
<path d="M86.8867 87.3482L79.4534 103.447L80.504 104.062L87.7574 87.8372L86.8867 87.3482Z" fill="#4E4080"/>
<path d="M78.4426 83.1574L85.9053 87.0507L89.28 88.9522L99.5866 94.9346L102.053 93.0308L80.7653 80.9507L79.9959 81.3414L78.4426 83.1574Z" fill="#403272"/>
<mask id="mask1_115_20452" style="mask-type:luminance" maskUnits="userSpaceOnUse" x="49" y="114" width="18" height="20">
<path d="M66.348 125.308V131.815L64.84 133.231C64.84 133.231 62.152 132.984 61.1933 132.605C60.2347 132.223 51.9214 127.517 51.336 126.643C51.0534 126.217 50.704 124.553 50.4254 122.831C50.1254 120.983 49.9134 119.071 49.964 118.547C49.992 118.257 50.1107 117.857 50.268 117.437C50.6533 116.387 51.268 115.196 51.268 115.196L52.5547 114.864L55.868 116.034L58.4787 117.396C58.4787 117.396 62.724 120.203 63.8933 121.293C65.0627 122.387 66.348 125.308 66.348 125.308Z" fill="white"/>
</mask>
<g mask="url(#mask1_115_20452)">
<path d="M66.348 125.308V131.815L64.84 133.231C64.84 133.231 62.152 132.984 61.1933 132.605C60.2347 132.223 51.9214 127.517 51.336 126.643C51.0534 126.217 50.704 124.553 50.4254 122.831C50.1254 120.983 49.9134 119.071 49.964 118.547C49.992 118.257 50.1107 117.857 50.268 117.437C50.6533 116.387 51.268 115.196 51.268 115.196L52.5547 114.864L55.868 116.034L58.4787 117.396C58.4787 117.396 62.724 120.203 63.8933 121.293C65.0627 122.387 66.348 125.308 66.348 125.308Z" fill="#4F4086"/>
</g>
<g filter="url(#filter1_d_115_20452)">
<path d="M58.892 122.75L58.3947 122.887V127.24L58.5706 127.693L61.6827 129.36L62.34 129.125L62.8373 126.055C62.8373 126.055 62.5306 124.377 62.3986 124.246C62.2666 124.113 58.892 122.75 58.892 122.75Z" fill="url(#paint2_linear_115_20452)"/>
</g>
<g filter="url(#filter2_d_115_20452)">
<path d="M53.1467 119.639V124.84L50.972 123.704L50.828 123.175C50.5293 121.328 50.3173 119.416 50.3693 118.891C50.396 118.603 50.516 118.203 50.672 117.781H50.972L53.1467 119.639Z" fill="url(#paint3_linear_115_20452)"/>
</g>
<path d="M53.764 126.055L54.2013 127.932L56.4894 143.207L57.4694 146.734C57.4694 146.734 57.752 147.668 58.5987 147.522C59.4467 147.376 59.2814 145.956 59.2814 145.956L59.3054 142.283L56.3747 126.496L53.764 126.055Z" fill="#403568"/>
<path d="M55.3507 121.213C54.7081 120.855 54.1281 120.827 53.7081 121.071L52.5494 121.744C52.9721 121.499 53.5494 121.527 54.1934 121.886C55.5001 122.613 56.5761 124.434 56.5948 125.948C56.6028 126.719 56.3387 127.262 55.9041 127.513L57.0601 126.841C57.4947 126.589 57.7614 126.047 57.7507 125.276C57.7321 123.76 56.6574 121.943 55.3507 121.213Z" fill="#403272"/>
<path d="M54.1933 121.886C53.5093 121.504 52.8973 121.498 52.4733 121.793C51.4866 122.48 50.5 123.165 49.5146 123.852C49.9026 123.583 50.46 123.589 51.084 123.936C52.2747 124.601 53.256 126.258 53.272 127.64C53.2813 128.387 53.008 128.898 52.568 129.108C53.6533 128.591 54.7374 128.074 55.8214 127.556C56.3054 127.328 56.604 126.765 56.5947 125.948C56.576 124.434 55.5 122.613 54.1933 121.886Z" fill="#403272"/>
<path d="M47.6786 127.698C47.3293 127.503 47.0507 127.674 47.056 128.077C47.06 128.481 47.348 128.967 47.696 129.162C48.044 129.356 48.3227 129.186 48.3187 128.78C48.3147 128.377 48.0266 127.891 47.6786 127.698Z" fill="#403272"/>
<path d="M51.084 123.936C50.3053 123.501 49.628 123.6 49.2587 124.105C48.5747 125.036 47.8893 125.968 47.2067 126.899C47.4027 126.631 47.7627 126.579 48.1747 126.81C48.808 127.163 49.3267 128.041 49.336 128.775C49.3427 129.265 49.1173 129.565 48.7787 129.605C49.9267 129.472 51.0747 129.339 52.2214 129.205C52.8614 129.132 53.284 128.565 53.272 127.64C53.256 126.259 52.2747 124.601 51.084 123.936Z" fill="#403272"/>
<path d="M48.1747 126.81C47.5427 126.457 47.0387 126.767 47.0467 127.499L47.056 128.077C47.0507 127.674 47.3294 127.503 47.6787 127.698C48.0267 127.891 48.3147 128.377 48.3187 128.78C48.3227 129.186 48.044 129.356 47.696 129.162L47.6774 129.151C47.8427 129.248 48.008 129.346 48.1734 129.444L48.2081 129.463C48.8401 129.816 49.3454 129.507 49.336 128.775C49.3267 128.041 48.8081 127.163 48.1747 126.81Z" fill="#403272"/>
<path d="M54.5041 121.848C54.5041 121.848 54.9134 121.493 54.9521 121.32C54.9908 121.147 51.6788 102.884 51.0748 101.343C50.4708 99.8039 49.3987 99.6883 49.3401 100.722C49.3267 100.959 49.0387 101.927 49.3401 103.669C50.3427 109.459 53.0468 121.213 53.0468 121.213C53.0468 121.213 53.3028 121.293 53.4414 121.462C53.5814 121.629 54.5041 121.848 54.5041 121.848Z" fill="#403568"/>
<path d="M82.5214 117.805L81.8241 114.415L80.2894 112.124L77.3547 109.337L72.9241 106.134L69.0307 104.481L66.348 103.908L64.3467 104.324L64.3 104.095L66.348 103.668L66.3734 103.674L69.1 104.258L73.0387 105.932L77.5027 109.16L80.4667 111.975L82.0494 114.344L82.7507 117.757L82.5214 117.805Z" fill="#403568"/>
<path d="M66.3974 125.415L66.3 125.201L91.12 113.8L127.12 95.5216L145.511 80.8601L168.192 63.8628L186.899 51.1775L187.031 51.3708L168.327 64.0535L145.653 81.0441L127.247 95.7175L91.2227 114.011L66.3974 125.415Z" fill="#403568"/>
<path d="M210.256 0.278786L209.745 0.0001297L205.989 1.21346L196.975 5.58279L195.337 7.10278L177.788 37.2468L174.164 42.0975L144.123 63.9175L140.655 67.1521L140.987 67.3281L148.02 65.3788L191.583 42.6241L202.084 35.3761L203.797 26.7255L210.256 0.278786Z" fill="#403568"/>
<path d="M88.4574 127.841L88.2908 127.677L90.096 125.828L90.5028 123L90.9174 113.964L90.0908 109.479L90.3201 109.437L91.1494 113.948L90.7361 123.023L90.3161 125.936L88.4574 127.841Z" fill="#403568"/>
<path d="M143.329 93.6628L143.107 93.5935L145.369 86.2095L145.019 76.9562L145.008 76.1788L143.372 73.2522L137.157 68.8255L133.243 67.0442L130.112 66.2348L130.171 66.0082L133.32 66.8242L137.273 68.6242L143.563 73.1148L145.243 76.1455L145.253 76.9508L145.604 86.2415L145.599 86.2602L143.329 93.6628Z" fill="#403568"/>
<path d="M167.293 69.8521L167.075 69.7694L167.999 67.3054V59.6601L167.351 58.3921L165.056 56.5321L158.295 52.7241L158.409 52.5214L165.188 56.3387L167.547 58.2641L168.232 59.6321L168.224 67.3681L167.293 69.8521Z" fill="#403568"/>
<path d="M195.337 7.10264V7.94531L197.173 7.84798L199.16 7.30264L206.097 3.30798L210.256 0.278646L209.745 -1.57356e-05L205.989 1.21331L196.975 5.58265L195.337 7.10264Z" fill="#4E4080"/>
<path d="M191.341 42.9399L205.336 5.03195L205.373 5.00927L209.605 2.6026L209.721 2.80661L205.527 5.19194L191.823 42.3079L202.073 34.9893L202.209 35.1799L191.341 42.9399Z" fill="#312853"/>
<path d="M67.8108 134.639L67.4801 135.145V135.574L71.6294 137.719L74.6681 136.47L74.4334 135.71L72.8174 134.639L69.8134 133.617L67.8108 134.639Z" fill="#403272"/>
<path d="M67.596 135.503L71.6347 137.589L74.5254 136.403L74.3347 135.784L72.7653 134.745L69.8227 133.744L67.8907 134.729L67.596 135.18V135.503ZM71.6227 137.845L67.3627 135.645V135.111L67.7293 134.549L69.804 133.491L69.8507 133.507L72.8814 134.543L74.5347 135.637L74.812 136.539L71.6227 137.845Z" fill="#312853"/>
<path d="M70.9933 137.389L70.8494 141.799L71.8333 142.705L72.3107 142.665L74.5507 138.039L74.668 136.47L74.4333 135.711L71.424 136.821L70.9933 137.389Z" fill="#403272"/>
<path d="M70.968 141.75L71.876 142.584L72.2347 142.555L74.4361 138.008L74.5494 136.484L74.3587 135.863L71.496 136.92L71.1094 137.431L70.968 141.75ZM71.792 142.827L70.7307 141.848L70.8774 137.348L71.3521 136.723L71.3827 136.712L74.5094 135.558L74.7867 136.457L74.656 138.091L72.3867 142.777L71.792 142.827Z" fill="#312853"/>
<path d="M125.753 138.043C126.163 137.936 126.595 137.751 127.041 137.486C129.552 135.984 131.547 132.446 131.495 129.584L131.673 130.191C131.72 132.784 129.913 135.989 127.637 137.35C127.232 137.591 126.841 137.758 126.471 137.855C126.231 137.918 125.992 137.98 125.753 138.043Z" fill="#403272"/>
<path d="M131.535 129.139C131.619 129.452 131.667 129.804 131.673 130.191L131.495 129.584C131.487 129.157 131.435 128.769 131.341 128.423L131.361 128.495L131.372 128.531L131.389 128.603L131.409 128.674L131.419 128.709L131.437 128.78L131.457 128.852L131.467 128.888L131.487 128.96L131.505 129.032L131.515 129.067L131.535 129.139Z" fill="#403272"/>
<path d="M130.169 126.757C130.968 127.221 131.471 128.195 131.495 129.584L128.883 128.065C128.859 126.677 128.356 125.703 127.557 125.239C128.341 125.695 129.385 126.301 130.169 126.757Z" fill="#403272"/>
<path d="M121.111 136.331C121.957 136.822 123.136 136.739 124.429 135.967C126.94 134.465 128.935 130.929 128.883 128.065L131.495 129.584C131.547 132.445 129.552 135.984 127.041 137.485C125.748 138.257 124.569 138.34 123.723 137.848C122.939 137.392 121.895 136.785 121.111 136.331Z" fill="#403272"/>
<path d="M119.719 133.867C120.199 135.613 121.823 136.149 123.727 135.012C125.972 133.67 127.753 130.511 127.708 127.953L128.883 128.065C128.935 130.929 126.94 134.465 124.429 135.967C122.299 137.239 120.48 136.64 119.943 134.684C119.869 134.411 119.795 134.139 119.719 133.867Z" fill="#403272"/>
<path d="M127.708 127.953C127.753 130.51 125.972 133.67 123.727 135.012C121.483 136.353 119.624 135.368 119.577 132.81C119.532 130.253 121.313 127.093 123.557 125.752C125.803 124.41 127.66 125.396 127.708 127.953Z" fill="#403272"/>
<path d="M128.681 130.881C128.705 132.177 127.801 133.78 126.661 134.46C125.524 135.14 124.583 134.641 124.559 133.344C124.536 132.048 125.439 130.444 126.577 129.765C127.715 129.085 128.656 129.585 128.681 130.881Z" fill="#5B4B97"/>
<path d="M128.08 129.6L128.407 129.789C128.768 130 128.996 130.443 129.007 131.071L128.681 130.881C128.669 130.252 128.441 129.811 128.08 129.6Z" fill="#403272"/>
<path d="M125.487 134.815L125.159 134.625C125.543 134.848 126.077 134.811 126.661 134.46C127.801 133.78 128.705 132.177 128.681 130.881L129.007 131.07C129.031 132.368 128.127 133.969 126.988 134.651C126.403 135 125.869 135.037 125.487 134.815Z" fill="#403272"/>
<path d="M125.547 125.04C127.436 124.555 128.841 125.72 128.883 128.065L127.708 127.953C127.668 125.857 126.413 124.817 124.725 125.25L124.808 125.228L124.849 125.219L124.932 125.197L125.013 125.176L125.053 125.165L125.136 125.144L125.217 125.123L125.26 125.112L125.341 125.092L125.424 125.07L125.464 125.06L125.547 125.04Z" fill="#403272"/>
<path d="M125.159 134.625C124.797 134.415 124.571 133.974 124.559 133.344C124.536 132.048 125.439 130.444 126.577 129.765C127.163 129.415 127.697 129.377 128.08 129.6L128.407 129.789C128.023 129.567 127.489 129.605 126.904 129.955C125.765 130.635 124.861 132.237 124.884 133.534C124.896 134.164 125.124 134.605 125.487 134.815L125.159 134.625Z" fill="#403272"/>
<path d="M125.148 134.777C125.083 134.537 125.019 134.299 124.955 134.06C125.195 134.953 126.021 135.228 126.988 134.651C128.127 133.969 129.031 132.368 129.007 131.07L130.04 131.167C130.068 132.732 128.977 134.667 127.603 135.489C126.433 136.187 125.436 135.855 125.148 134.777Z" fill="#403272"/>
<path d="M127.487 129.703L127.559 129.683L127.595 129.674L127.665 129.656L127.737 129.636L127.773 129.627L127.845 129.609L127.917 129.589L127.953 129.58L128.025 129.562L128.097 129.543L128.132 129.533L128.204 129.515C129.243 129.243 130.016 129.88 130.04 131.167L129.007 131.07C128.987 130.004 128.347 129.477 127.487 129.703Z" fill="#403272"/>
<path d="M119.943 134.684C119.869 134.411 119.795 134.139 119.719 133.867C119.633 133.553 119.585 133.2 119.577 132.811C119.532 130.253 121.313 127.093 123.557 125.752C123.963 125.511 124.355 125.344 124.725 125.25L124.767 125.239L124.849 125.219L124.889 125.208L124.972 125.187L125.053 125.165L125.136 125.144L125.217 125.123L125.26 125.112L125.341 125.092L125.424 125.07L125.464 125.06L125.547 125.04C125.132 125.146 124.693 125.332 124.24 125.603C121.727 127.104 119.732 130.64 119.784 133.501C119.792 133.939 119.847 134.332 119.943 134.684Z" fill="#403568"/>
<path d="M124.955 134.06C124.913 133.903 124.888 133.727 124.884 133.534C124.861 132.237 125.765 130.635 126.904 129.955C127.105 129.834 127.301 129.751 127.487 129.703L127.559 129.683L127.595 129.674L127.665 129.656L127.703 129.646L127.773 129.627L127.809 129.617L127.88 129.599L127.917 129.589L128.204 129.515C127.98 129.574 127.744 129.674 127.5 129.82C126.125 130.64 125.035 132.575 125.063 134.141C125.067 134.375 125.096 134.587 125.148 134.777C125.083 134.537 125.019 134.299 124.955 134.06Z" fill="#403272"/>
<path d="M130.04 131.167C130.011 129.603 128.875 128.999 127.5 129.82C126.125 130.64 125.035 132.575 125.063 134.141C125.092 135.707 126.228 136.309 127.603 135.489C128.977 134.667 130.068 132.732 130.04 131.167ZM131.673 130.191C131.72 132.784 129.913 135.989 127.637 137.35C125.36 138.709 123.477 137.711 123.429 135.116C123.381 132.524 125.189 129.319 127.465 127.958C129.743 126.599 131.627 127.599 131.673 130.191Z" fill="#403272"/>
<path d="M126.471 137.855C126.231 137.917 125.992 137.98 125.753 138.043C123.855 138.539 122.439 137.375 122.396 135.02C122.344 132.158 124.339 128.621 126.852 127.12C128.989 125.843 130.813 126.451 131.341 128.423L131.352 128.458L131.372 128.531L131.38 128.565L131.4 128.637L131.419 128.709L131.437 128.78L131.457 128.852L131.467 128.888L131.487 128.96L131.505 129.032L131.515 129.067L131.535 129.139C131.055 127.352 129.403 126.801 127.465 127.958C125.189 129.319 123.381 132.524 123.429 135.116C123.468 137.25 124.749 138.305 126.471 137.855Z" fill="#403568"/>
<path d="M123.723 137.848L121.111 136.331C120.313 135.867 119.811 134.891 119.784 133.501C119.732 130.64 121.727 127.104 124.24 125.603C125.533 124.831 126.711 124.747 127.557 125.239L130.169 126.757C129.323 126.265 128.145 126.347 126.852 127.12C124.339 128.622 122.344 132.159 122.396 135.02C122.423 136.41 122.925 137.386 123.723 137.848Z" fill="#403272"/>
<path d="M199.16 7.30278L181.237 42.0975L148.02 65.3788L140.987 67.3281L140.655 67.1521L144.123 63.9175L174.164 42.0975L177.788 37.2468L195.337 7.10278V7.94546L197.173 7.84813L199.16 7.30278Z" fill="#6C58B2"/>
<path d="M131.576 72.6081L126.656 72.6854L122.839 73.5721L130.073 77.7414L132.921 79.7187L134.499 81.5694L135.725 82.0947L136.888 79.6334L136.428 77.5947L131.576 72.6081Z" fill="url(#paint4_linear_115_20452)"/>
<path d="M130.115 71.9253L125.089 72.0227L121.533 72.812L114.568 69.2947L119.927 69.4507L125.4 70.5027L130.115 71.9253Z" fill="url(#paint5_linear_115_20452)"/>
<path d="M206.332 130.196L206.307 130.217C205.8 130.572 197.869 135.228 195.111 136.858C192.957 138.128 190.863 138.989 189.968 139.333H189.963C189.675 139.446 189.513 139.503 189.513 139.503C189.513 139.503 183.903 140.248 182.617 139.884C181.331 139.516 129.784 115.785 129.784 115.785C129.784 115.785 99.0453 99.4069 98.2853 98.996C97.5267 98.5881 97.612 97.636 98.1253 96.1892C98.6373 94.7439 100.9 93.5892 100.9 93.5892L123.929 82.4267L130.563 80.0293L162.792 96.996L202.84 126.074L206.127 129.158L206.332 130.196Z" fill="#6C58B2"/>
<path d="M130.553 80.1574L123.968 82.5361L100.951 93.695C100.932 93.7054 98.7254 94.844 98.2347 96.2284C97.684 97.7841 97.7147 98.556 98.3414 98.8918C99.0934 99.2986 129.532 115.517 129.839 115.681C130.348 115.916 181.385 139.411 182.649 139.772C183.888 140.124 189.365 139.404 189.496 139.388C189.495 139.386 189.653 139.331 189.92 139.225L189.945 139.217C190.973 138.82 192.984 137.977 195.051 136.757C195.639 136.411 196.46 135.927 197.393 135.377C200.695 133.434 205.648 130.513 206.211 130.14C206.191 129.998 206.105 129.592 206.021 129.219L202.76 126.16L162.724 97.0908L130.553 80.1574ZM183.808 140.101C183.281 140.101 182.848 140.071 182.585 139.998C181.305 139.631 131.84 116.86 129.735 115.891C129.421 115.724 98.9827 99.5038 98.2307 99.0986C97.3014 98.6002 97.5774 97.3882 98.0147 96.1508C98.5374 94.6789 100.753 93.5336 100.847 93.4856L123.877 82.3214L130.572 79.9028L130.617 79.9268L162.847 96.8918L202.908 125.98L206.232 129.098L206.241 129.132C206.467 130.117 206.452 130.189 206.447 130.217L206.439 130.259L206.381 130.307C205.971 130.595 201.083 133.475 197.512 135.577C196.579 136.128 195.757 136.612 195.169 136.959C193.075 138.195 191.037 139.047 190.009 139.444L189.985 139.451C189.708 139.559 189.552 139.612 189.552 139.612C189.351 139.641 185.871 140.101 183.808 140.101Z" fill="#403272"/>
<path d="M196.788 128.313L201.415 132.344L201.777 132.927C204.075 131.569 206.061 130.388 206.307 130.217L206.332 130.196L206.127 129.158L202.84 126.074L162.792 96.9961L130.563 80.0294L123.929 82.4268L156.216 99.7132L196.788 128.313Z" fill="#5B4B97"/>
<path d="M124.215 82.4467L156.272 99.6105L196.865 128.225L201.513 132.283L201.817 132.769C204.491 131.187 205.932 130.325 206.213 130.139C206.193 130.008 206.107 129.597 206.021 129.219L202.76 126.16L162.724 97.0907L130.553 80.1573L124.215 82.4467ZM201.739 133.085L201.324 132.421L196.716 128.405L156.151 99.8095L123.643 82.4053L130.572 79.9026L130.617 79.9267L162.847 96.8917L202.908 125.98L206.232 129.097L206.241 129.132C206.465 130.117 206.452 130.192 206.447 130.217L206.439 130.26L206.38 130.308C206.161 130.462 204.719 131.325 201.837 133.028L201.739 133.085Z" fill="url(#paint6_linear_115_20452)"/>
<path d="M182.733 139.884H182.499V139.341L183.939 137.681L197.381 128.68L203.109 126.263L203.2 126.477L197.492 128.885L184.083 137.868L182.733 139.429V139.884Z" fill="#403272"/>
<path d="M197.38 128.874L156.151 99.8094L123.875 82.5293L123.985 82.3226L156.272 99.6105L197.515 128.681L197.38 128.874Z" fill="#403272"/>
<path d="M206.332 130.196L206.307 130.217C205.8 130.572 197.869 135.228 195.111 136.858C192.957 138.128 190.863 138.989 189.968 139.333H189.963L189.313 139.229V138.899L191.223 137.067L193.951 135.607L206.332 130.196Z" fill="#392E60"/>
<path d="M129.672 115.819L129.443 115.025L129.825 113.783L131.077 112.3L132.831 111.103L156.165 99.6095L163.043 97.0893L163.121 97.3095L156.257 99.824L132.948 111.303L131.223 112.484L130.021 113.915L129.687 115.027L129.896 115.753L129.672 115.819Z" fill="#403272"/>
<path d="M190.179 45.5454L181.237 51.6534L177.788 54.6054L176.444 56.4467V57.104L208.747 70.7174L210.557 71.1067L215 70.464L221.8 66.1574L224.956 63.5667L225.111 62.964L224.32 61.424L202.336 43.5587L190.179 45.5454Z" fill="#403568"/>
<path d="M190.513 45.6093L219.591 63.068L224.088 61.3853L202.304 43.6827L190.513 45.6093ZM219.567 63.3267L219.519 63.2973L189.845 45.4827L202.369 43.4347L202.411 43.468L224.551 61.4627L219.567 63.3267Z" fill="#312853"/>
<path d="M212.336 67.4321L181.184 51.7575L181.289 51.5495L212.441 67.2241L212.336 67.4321Z" fill="#312853"/>
<path d="M208.84 70.7854L208.652 70.6494L210.189 68.5361L212.965 66.6081L219.524 63.0934L224.277 61.3147L224.36 61.5334L219.62 63.3067L213.088 66.8081L210.339 68.7174L208.84 70.7854Z" fill="#312853"/>
<path d="M215 70.464L221.8 66.1574L224.956 63.5667L225.111 62.964L210.761 70.9934L210.557 71.1067L215 70.464Z" fill="#392E60"/>
<defs>
<filter id="filter0_d_115_20452" x="67.7334" y="79.1575" width="120.271" height="62.6199" filterUnits="userSpaceOnUse" color-interpolation-filters="sRGB">
<feFlood flood-opacity="0" result="BackgroundImageFix"/>
<feColorMatrix in="SourceAlpha" type="matrix" values="0 0 0 0 0 0 0 0 0 0 0 0 0 0 0 0 0 0 127 0" result="hardAlpha"/>
<feOffset/>
<feGaussianBlur stdDeviation="2"/>
<feComposite in2="hardAlpha" operator="out"/>
<feColorMatrix type="matrix" values="0 0 0 0 0 0 0 0 0 0 0 0 0 0 0 0 0 0 0.25 0"/>
<feBlend mode="normal" in2="BackgroundImageFix" result="effect1_dropShadow_115_20452"/>
<feBlend mode="normal" in="SourceGraphic" in2="effect1_dropShadow_115_20452" result="shape"/>
</filter>
<filter id="filter1_d_115_20452" x="48.3947" y="112.75" width="24.4426" height="26.6104" filterUnits="userSpaceOnUse" color-interpolation-filters="sRGB">
<feFlood flood-opacity="0" result="BackgroundImageFix"/>
<feColorMatrix in="SourceAlpha" type="matrix" values="0 0 0 0 0 0 0 0 0 0 0 0 0 0 0 0 0 0 127 0" result="hardAlpha"/>
<feOffset/>
<feGaussianBlur stdDeviation="5"/>
<feComposite in2="hardAlpha" operator="out"/>
<feColorMatrix type="matrix" values="0 0 0 0 0.929412 0 0 0 0 0.556863 0 0 0 0 0.45098 0 0 0 1 0"/>
<feBlend mode="normal" in2="BackgroundImageFix" result="effect1_dropShadow_115_20452"/>
<feBlend mode="normal" in="SourceGraphic" in2="effect1_dropShadow_115_20452" result="shape"/>
</filter>
<filter id="filter2_d_115_20452" x="40.3615" y="107.781" width="22.7852" height="27.059" filterUnits="userSpaceOnUse" color-interpolation-filters="sRGB">
<feFlood flood-opacity="0" result="BackgroundImageFix"/>
<feColorMatrix in="SourceAlpha" type="matrix" values="0 0 0 0 0 0 0 0 0 0 0 0 0 0 0 0 0 0 127 0" result="hardAlpha"/>
<feOffset/>
<feGaussianBlur stdDeviation="5"/>
<feComposite in2="hardAlpha" operator="out"/>
<feColorMatrix type="matrix" values="0 0 0 0 0.929412 0 0 0 0 0.556863 0 0 0 0 0.45098 0 0 0 1 0"/>
<feBlend mode="normal" in2="BackgroundImageFix" result="effect1_dropShadow_115_20452"/>
<feBlend mode="normal" in="SourceGraphic" in2="effect1_dropShadow_115_20452" result="shape"/>
</filter>
<linearGradient id="paint0_linear_115_20452" x1="112.999" y1="105.221" x2="112.999" y2="87.9428" gradientUnits="userSpaceOnUse">
<stop stop-color="#FFDC57"/>
<stop offset="1" stop-color="#DB408E"/>
</linearGradient>
<linearGradient id="paint1_linear_115_20452" x1="127.869" y1="137.777" x2="127.869" y2="83.1575" gradientUnits="userSpaceOnUse">
<stop stop-color="#FFDC57"/>
<stop offset="1" stop-color="#DB408E"/>
</linearGradient>
<linearGradient id="paint2_linear_115_20452" x1="60.616" y1="129.36" x2="60.616" y2="122.75" gradientUnits="userSpaceOnUse">
<stop stop-color="#FFDC57"/>
<stop offset="1" stop-color="#DB408E"/>
</linearGradient>
<linearGradient id="paint3_linear_115_20452" x1="51.7541" y1="124.84" x2="51.7541" y2="117.781" gradientUnits="userSpaceOnUse">
<stop stop-color="#FFDC57"/>
<stop offset="1" stop-color="#DB408E"/>
</linearGradient>
<linearGradient id="paint4_linear_115_20452" x1="129.863" y1="82.0947" x2="129.863" y2="72.6081" gradientUnits="userSpaceOnUse">
<stop stop-color="#FFDC57"/>
<stop offset="1" stop-color="#DB408E"/>
</linearGradient>
<linearGradient id="paint5_linear_115_20452" x1="122.341" y1="72.812" x2="122.341" y2="69.2947" gradientUnits="userSpaceOnUse">
<stop stop-color="#FFDC57"/>
<stop offset="1" stop-color="#DB408E"/>
</linearGradient>
<linearGradient id="paint6_linear_115_20452" x1="165.046" y1="79.9026" x2="165.046" y2="133.085" gradientUnits="userSpaceOnUse">
<stop stop-color="#403272"/>
<stop offset="1" stop-color="#795ED8"/>
</linearGradient>
</defs>
</svg>
