<svg width="60" height="60" viewBox="0 0 60 60" fill="none" xmlns="http://www.w3.org/2000/svg">
<path d="M58.9006 22.5664C57.8694 18.4281 55.9141 15.3077 51.7491 15.3077H46.3787V21.6557C46.3787 26.5841 42.2003 30.7357 37.4326 30.7357H23.1295C19.2189 30.7357 15.9779 34.0838 15.9779 38.0078V51.6413C15.9779 55.5251 19.3528 57.8018 23.1295 58.9133C27.6561 60.2392 32.0086 60.4803 37.4326 58.9133C41.0351 57.8687 44.5841 55.7661 44.5841 51.6413V46.1906H30.2944V44.3692H51.7491C55.9141 44.3692 57.4543 41.463 58.9006 37.1105C60.4006 32.6241 60.3336 28.3117 58.9006 22.5664ZM38.3299 49.8199C39.8164 49.8199 41.0218 51.0386 41.0218 52.5386C41.0218 54.0519 39.8164 55.2706 38.3299 55.2706C36.8567 55.2706 35.638 54.0385 35.638 52.5386C35.6514 51.0252 36.8567 49.8199 38.3299 49.8199ZM22.4732 28.9412H36.7764C40.7539 28.9412 43.9279 25.66 43.9279 21.6691V8.02222C43.9279 4.13843 40.6602 1.23227 36.7764 0.576046C31.9819 -0.214105 26.7722 -0.173928 22.4732 0.589439C16.4199 1.66083 15.3217 3.89736 15.3217 8.03561V13.4863H29.6382V15.3077H9.95132C5.78627 15.3077 2.14353 17.8121 1.00517 22.5664C-0.307285 28.0171 -0.360854 31.4187 1.00517 37.1105C2.023 41.3425 4.44703 44.3692 8.61207 44.3692H13.5271V37.8337C13.5271 33.1062 17.6118 28.9412 22.4732 28.9412ZM21.5759 9.84359C20.0894 9.84359 18.8841 8.62488 18.8841 7.12493C18.8975 5.61159 20.0894 4.39288 21.5759 4.39288C23.0491 4.39288 24.2678 5.62498 24.2678 7.12493C24.2678 8.62488 23.0625 9.84359 21.5759 9.84359Z" fill="url(#paint0_linear_50_69)"/>
<defs>
<linearGradient id="paint0_linear_50_69" x1="30.0006" y1="0" x2="30.0006" y2="60" gradientUnits="userSpaceOnUse">
<stop stop-color="#FFDC57"/>
<stop offset="1" stop-color="#DB408E"/>
</linearGradient>
</defs>
</svg>
