<svg width="115" height="245" viewBox="0 0 115 245" fill="none" xmlns="http://www.w3.org/2000/svg">
<path d="M110.177 203.967L115 201.216C114.767 168.78 99.3185 151.969 92.5718 146.151C92.5605 144.846 92.5479 143.361 92.5367 141.914C92.5367 141.698 92.5366 141.492 92.5268 141.276C92.5268 140.844 92.517 140.396 92.517 139.937C92.5086 138.023 92.4987 136.397 92.4805 135.679C92.4805 135.309 92.472 134.951 92.4622 134.6C92.4622 134.25 92.4622 133.9 92.4538 133.558C92.444 133.064 92.444 132.579 92.4355 132.111C92.4355 131.94 92.4257 131.771 92.4257 131.609C92.4173 130.378 92.399 129.255 92.3892 128.221C92.3808 127.851 92.3808 127.503 92.3709 127.161C92.3527 125.877 92.3442 124.771 92.326 123.81C92.3162 122.849 92.2979 122.039 92.2895 121.374C92.2614 119.641 92.253 118.859 92.253 118.851C92.2431 118.41 92.2347 117.932 92.2249 117.439C92.215 116.478 92.1982 115.544 92.1785 114.627C92.1701 114.303 92.1701 113.99 92.1603 113.684C92.1603 113.451 92.1518 113.216 92.1518 113.001C92.142 112.525 92.1336 112.058 92.1237 111.59C92.1153 111.097 92.1055 110.584 92.0971 110.071C92.0886 109.551 92.0788 109.039 92.069 108.546C92.069 108.373 92.0606 108.202 92.0606 108.041C92.0507 107.728 92.0507 107.422 92.0409 107.134C92.0409 106.918 92.0325 106.684 92.024 106.451C92.0142 106.083 92.0142 105.705 92.0058 105.319C91.9959 104.951 91.9861 104.582 91.9777 104.223C91.9679 103.711 91.9496 103.199 91.9412 102.704C91.9314 102.219 91.9229 101.743 91.9131 101.303C91.9047 100.872 91.8864 100.404 91.8232 97.6917C91.8035 97.1966 91.7951 96.7112 91.7853 96.2437L91.767 95.579C91.7586 95.0936 91.7207 93.8636 91.6757 92.2281C91.6659 91.8875 91.6575 91.5538 91.6477 91.2311C91.6308 90.8712 91.621 90.503 91.6111 90.1169C91.6027 89.739 91.5845 89.3529 91.576 88.9571V88.8758C91.5564 88.509 91.5479 88.1394 91.5381 87.7629C91.5283 87.4568 91.5199 87.1617 91.5114 86.8556C91.503 86.5853 91.4932 86.3164 91.4834 86.0475C91.4749 85.8034 91.4651 85.5524 91.4567 85.3014C91.4286 84.4285 91.4019 83.5763 91.3654 82.7489C91.3555 82.3987 91.3471 82.0484 91.3275 81.7078C91.319 81.5189 91.319 81.33 91.3106 81.1507C91.2909 80.8625 91.2825 80.5839 91.2727 80.3136C91.2643 80.0627 91.2544 79.8117 91.246 79.5773C91.2362 79.398 91.2277 79.2187 91.2179 79.0202C91.1997 78.6975 91.1898 78.3651 91.1828 78.0052C91.1631 77.6811 91.1449 77.3585 91.1365 77.0441C91.1084 76.316 91.0719 75.5341 91.0255 74.7081C91.0171 74.4295 90.9988 74.1509 90.9904 73.8627C90.9707 73.5759 90.9623 73.2891 90.9441 72.9926C90.9441 72.9112 90.9342 72.8299 90.9342 72.7499C90.9075 72.2645 90.8795 71.7791 90.8528 71.2757C90.8345 70.971 90.8163 70.6662 90.798 70.3504C90.7882 70.1615 90.7699 69.9643 90.7601 69.7671C90.6786 68.2116 90.614 67.2767 90.5691 66.8368L90.5592 66.7113L90.5508 66.5596C90.541 66.3872 90.5227 66.2176 90.5045 66.037C90.3669 64.0526 90.1197 61.5897 89.7995 59.7033L89.7896 59.6316L89.7812 59.5681C89.5986 58.265 89.3697 56.8736 89.0678 55.4077C89.0313 55.2119 88.9947 55.023 88.9582 54.8341C88.9119 54.6176 88.8754 54.4025 88.8304 54.2039C88.7841 53.9722 88.7293 53.7199 88.6661 53.4675C88.638 53.3144 88.6015 53.1545 88.5552 52.9931C88.5088 52.7766 88.4555 52.5698 88.4091 52.3547C88.381 52.2002 88.3445 52.0389 88.2996 51.8775C87.9794 50.5123 87.6227 49.092 87.3109 47.9157C86.9724 46.6305 86.5061 45.0488 86.0301 43.6201C85.9935 43.4767 85.9472 43.343 85.8924 43.2078C85.8194 42.9651 85.7365 42.7224 85.6551 42.4894C85.3166 41.5006 84.9318 40.4402 84.5569 39.4611C84.4838 39.2805 84.4192 39.1012 84.356 38.9219C84.2914 38.7427 84.2184 38.562 84.1538 38.3924C84.1271 38.3014 84.0906 38.2117 84.0625 38.1318C84.0358 38.0504 83.9993 37.9608 83.9614 37.8794C83.7886 37.4216 83.5962 36.9362 83.3856 36.4329C83.2578 36.1267 83.13 35.804 82.9923 35.4717C82.7817 34.9766 82.5626 34.465 82.3421 33.9714C82.0767 33.3426 81.7944 32.7303 81.5374 32.2007C81.3717 31.8601 81.1891 31.492 81.0065 31.0962L80.9616 30.9969C80.7959 30.5749 80.5768 30.153 80.338 29.7393L80.3114 29.6855C80.2748 29.5958 80.2285 29.5062 80.1836 29.4166C80.0909 29.2359 80.0094 29.0567 79.9266 28.8953C79.8437 28.7243 79.7622 28.563 79.6808 28.4099C79.6162 28.2748 79.5431 28.1396 79.4785 28.0141C79.3957 27.8445 79.3044 27.6721 79.2131 27.4929C79.0671 27.224 78.9196 26.9358 78.7651 26.6407C78.5081 26.1732 78.2525 25.6878 77.9871 25.2203C77.7764 24.8425 77.5658 24.466 77.3649 24.1157C77.2638 23.9447 77.1641 23.7737 77.0714 23.6124C76.8888 23.2966 76.7063 23.0001 76.5406 22.7133C76.431 22.534 76.3313 22.363 76.2302 22.192C76.1206 22.021 76.0195 21.8514 75.9282 21.6887C75.3328 20.7193 74.8202 19.8919 74.3356 19.1472C73.823 18.3378 73.347 17.6276 72.854 16.9091C72.4875 16.3796 72.1026 15.8404 71.701 15.2654C71.2881 14.6986 70.8499 14.0877 70.3556 13.4134C70.3092 13.3513 70.2643 13.2879 70.2095 13.2259C69.9244 12.8384 69.5874 12.3985 69.2026 11.9131C68.6717 11.2139 68.0411 10.4403 67.3726 9.63086C67.0623 9.26266 66.7687 8.90413 66.4752 8.56215C66.1733 8.21188 65.8896 7.87953 65.6059 7.55684C65.332 7.23279 65.0399 6.91008 64.7562 6.5943C64.5723 6.38745 64.3799 6.1806 64.1973 5.97513C64.1243 5.89377 64.0512 5.81241 63.9599 5.73244C63.7212 5.45387 63.4656 5.18498 63.2002 4.92435L61.7916 3.47778L61.1511 2.8476L59.7692 1.55409L59.3479 1.16798C59.1372 0.979065 58.9182 0.799789 58.7075 0.61087L58.6246 0.539169C58.4056 0.359894 58.1949 0.17926 57.9744 -1.52588e-05C57.9112 0.053772 57.8283 0.115814 57.7371 0.197174C57.4997 0.395737 57.1795 0.664658 56.8045 1.00665C56.4183 1.34726 55.9619 1.76096 55.4591 2.25464C55.3678 2.336 55.285 2.41736 55.1937 2.51527C54.9283 2.75797 54.6446 3.03651 54.3525 3.33299C54.0126 3.66533 53.684 4.00732 53.3455 4.35759C52.0914 5.65108 50.6463 7.25072 49.0635 9.16475C48.8986 9.36195 48.7426 9.55914 48.5777 9.75772C48.2944 10.0997 48.0105 10.4583 47.7177 10.8182C45.448 13.674 42.0536 18.3199 38.7412 24.2137C38.5121 24.6177 38.302 24.9955 38.1185 25.3375C37.8634 25.7954 37.6436 26.1994 37.4234 26.5938C37.1859 27.0433 36.9663 27.475 36.7378 27.9328C36.6735 28.05 36.6092 28.1769 36.5545 28.3024C36.5086 28.3741 36.4724 28.454 36.4354 28.5354C36.3983 28.5988 36.3718 28.6623 36.3437 28.734L36.326 28.7698L36.3073 28.7864C36.0967 29.1559 35.914 29.5241 35.7675 29.9006V29.9102V29.9185C35.7462 29.9626 35.7231 30.0096 35.7011 30.0537C35.5866 30.2619 35.4826 30.4743 35.3922 30.6894C35.3834 30.7087 35.3744 30.7252 35.3653 30.7459C35.2734 30.9528 35.1633 31.1679 35.0539 31.4023C34.9991 31.5181 34.9438 31.6436 34.8889 31.7608C34.7973 31.9498 34.7153 32.129 34.6146 32.3276C34.5231 32.5427 34.4231 32.7578 34.313 32.9826C34.2301 33.1619 34.139 33.3522 34.0562 33.548C33.9558 33.7645 33.864 33.981 33.7634 34.2058L33.745 34.2417C33.4706 34.8787 33.1873 35.5613 32.9225 36.226C32.6289 36.9458 32.3547 37.6546 32.1165 38.2849C31.8784 38.9302 31.6047 39.65 31.3296 40.3947C31.1744 40.836 31.0184 41.2759 30.8631 41.7158C30.698 42.1832 30.5523 42.6328 30.4149 43.0727C30.3408 43.2699 30.2771 43.4685 30.2322 43.656C30.1767 43.8008 30.1405 43.9263 30.1036 44.0614C29.9385 44.6351 29.7558 45.2473 29.5821 45.8844C29.463 46.3078 29.3441 46.7394 29.2161 47.1876C29.1613 47.4027 29.0969 47.6275 29.0327 47.844C28.5026 49.7401 28.0083 51.6624 27.6607 53.3062C27.6061 53.5489 27.5603 53.7998 27.5054 54.0605C27.4862 54.1694 27.4589 54.277 27.4404 54.3845C27.3495 54.8258 27.2667 55.2643 27.1845 55.6959C27.1299 55.9841 27.0746 56.2627 27.0292 56.5495C27.0108 56.6488 26.9931 56.7481 26.9739 56.8474C26.8917 57.2859 26.8281 57.7175 26.7541 58.1395C26.6905 58.5532 26.636 58.9572 26.5803 59.3544C26.5537 59.5061 26.5346 59.6592 26.5167 59.8109V59.8481L26.4982 60.0094C26.3246 61.2036 26.196 62.3261 26.096 63.3424C26.0495 63.7203 26.0227 64.0788 25.9859 64.4208C25.9496 64.7711 25.9126 65.1034 25.8852 65.4178C25.8489 65.8398 25.8119 66.2976 25.7846 66.783C25.7846 66.8644 25.7758 67.0257 25.7482 67.2684C25.7387 67.4656 25.721 67.7097 25.7019 68.0241C25.6841 68.4557 25.656 68.886 25.6293 69.3079V69.3796C25.6196 69.5148 25.6109 69.6499 25.6019 69.7933C25.5738 70.225 25.5466 70.7104 25.528 71.2578C25.5013 71.6715 25.483 72.1211 25.4644 72.6065C25.4466 72.8395 25.4365 73.0822 25.4275 73.3332C25.4186 73.5856 25.4096 73.8462 25.3911 74.1054C25.3911 74.1689 25.3815 74.2406 25.3815 74.3123C25.3639 74.7977 25.3453 75.3107 25.3179 75.8485C25.2995 76.3794 25.2817 76.9544 25.2538 77.5474V77.6095C25.2174 78.3651 25.1901 79.1649 25.1619 80.0089C25.1347 80.8087 25.1073 81.6526 25.0797 82.5421C25.0656 82.9337 25.0535 83.3309 25.0415 83.7349C23.0022 85.4862 21.7767 88.4607 21.7655 92.446C21.7546 96.172 22.8055 100.217 24.593 104.04C24.5902 104.165 24.5888 104.287 24.5858 104.411C24.5858 104.565 24.5858 104.716 24.577 104.861C24.577 105.076 24.568 105.293 24.568 105.508C24.5584 106.101 24.5496 106.712 24.54 107.332C24.54 107.34 24.54 107.476 24.5311 107.736C24.5311 108.051 24.5216 108.554 24.5133 109.201C24.5133 109.596 24.5038 110.045 24.4943 110.53C24.4853 111.195 24.4757 111.941 24.4667 112.75C24.458 113.557 24.4489 114.439 24.4299 115.373C24.4299 115.858 24.4216 116.334 24.4121 116.82C24.4031 118.292 24.3839 119.864 24.3662 121.501C24.3573 122.282 24.3573 123.082 24.3478 123.881C24.3478 124.186 24.3389 124.502 24.3389 124.816C24.3299 125.336 24.3203 126.649 24.3115 128.338C24.3115 128.894 24.3115 129.497 24.3025 130.125C24.293 130.8 24.293 131.5 24.284 132.219C24.284 132.821 24.284 133.432 24.2745 134.035C24.2561 137.098 24.2382 139.981 24.2382 141.043C24.232 142.004 24.228 142.964 24.2249 143.907C19.0696 147.851 0.256584 164.618 0 200.439L4.82116 203.19H4.82144L4.82523 203.191C4.82523 203.188 4.82551 203.184 4.82551 203.181C5.21776 202.372 10.397 191.701 17.8606 183.397C20.5508 180.396 23.552 177.709 26.7275 175.912C27.2577 175.615 27.7975 175.337 28.3375 175.094L30.0868 174.052C30.153 174.107 30.219 174.162 30.2868 174.217C30.3462 174.267 30.4035 174.316 30.4639 174.365C30.4712 174.37 30.4781 174.376 30.4857 174.381C31.0063 176.727 32.4469 179.019 34.8181 181.067C35.2788 182.73 36.2901 184.353 37.8577 185.841C34.2517 195.82 30.8233 214.71 48.8938 228.331C51.583 230.354 54.7527 232.273 58.4673 234.02C87.7224 220.255 83.0401 196.338 78.8115 185.14C79.9546 183.874 80.7158 182.523 81.0978 181.145C83.2311 179.307 84.606 177.27 85.2394 175.173C85.2773 175.147 85.3124 175.118 85.3503 175.09L86.662 175.866C87.2013 176.119 87.7322 176.389 88.2631 176.694C89.3332 177.296 90.3767 178.005 91.4019 178.787C101.851 186.796 109.691 202.979 110.173 203.963C110.173 203.966 110.174 203.967 110.174 203.97L110.176 203.969C110.176 203.969 110.177 203.97 110.177 203.972C110.177 203.97 110.177 203.969 110.177 203.967Z" fill="#403568"/>
<g filter="url(#filter0_d_128_351)">
<path d="M75.6586 191.9L76.136 187.467C75.9408 187.603 75.7386 187.735 75.5336 187.866C75.6614 189.168 75.7119 190.518 75.6586 191.9Z" fill="url(#paint0_linear_128_351)"/>
</g>
<g filter="url(#filter1_d_128_351)">
<path d="M76.9745 186.845C80.7958 196.357 86.0806 218.599 59.2369 231.23C55.9324 229.676 53.1137 227.97 50.722 226.172C76.7835 216.42 75.681 196.816 75.4423 194.414C74.4367 201.882 70.0058 209.883 57.8887 215.585C42.0221 208.12 39.3328 196.713 40.2587 187.72C39.3522 187.126 38.5489 186.497 37.8576 185.841C34.2513 195.82 30.8233 214.71 48.8938 228.331C51.5829 230.354 54.7527 232.273 58.4673 234.02C87.7223 220.255 83.0401 196.338 78.8114 185.14C78.2805 185.729 77.6682 186.299 76.9745 186.845Z" fill="url(#paint1_linear_128_351)"/>
</g>
<g filter="url(#filter2_d_128_351)">
<path d="M75.4423 194.414C75.681 196.816 76.7835 216.42 50.722 226.172C53.1137 227.97 55.9324 229.676 59.2369 231.23C86.0806 218.599 80.7958 196.357 76.9745 186.845C76.7062 187.056 76.4281 187.264 76.136 187.467L75.6585 191.9C75.6262 192.727 75.556 193.567 75.4423 194.414Z" fill="url(#paint2_linear_128_351)"/>
</g>
<g filter="url(#filter3_d_128_351)">
<path d="M57.8888 215.586C70.0059 209.883 74.4368 201.883 75.4423 194.414C75.5561 193.567 75.6263 192.727 75.6586 191.9C75.712 190.518 75.6614 189.168 75.5336 187.867C75.2261 188.065 74.9101 188.26 74.5772 188.45C73.5015 189.063 72.34 189.6 71.1238 190.069C69.8304 195.19 66.1888 200.424 57.9744 204.289C49.7391 200.414 46.0997 195.163 44.8166 190.027C43.6319 189.567 42.4966 189.047 41.4433 188.45C41.0277 188.214 40.6373 187.97 40.2588 187.72C39.3329 196.713 42.0222 208.12 57.8888 215.586Z" fill="url(#paint3_linear_128_351)"/>
</g>
<g filter="url(#filter4_d_128_351)">
<path d="M57.9743 204.289C66.1887 200.424 69.8303 195.19 71.1237 190.069C63.2113 193.12 52.743 193.105 44.8165 190.027C46.0996 195.163 49.7389 200.414 57.9743 204.289Z" fill="url(#paint4_linear_128_351)"/>
</g>
<path d="M38.4353 183.587C37.0542 182.804 35.8496 181.959 34.8181 181.067C35.2788 182.73 36.2901 184.353 37.8577 185.841C38.5489 186.497 39.3522 187.126 40.2588 187.72C40.6372 187.97 41.0277 188.214 41.4432 188.45C42.4965 189.047 43.6318 189.567 44.8166 190.027C52.743 193.105 63.2114 193.12 71.1238 190.069C72.34 189.6 73.5014 189.063 74.5772 188.45C74.91 188.259 75.226 188.065 75.5336 187.866C75.7386 187.735 75.9409 187.603 76.1361 187.467C76.4282 187.264 76.7063 187.056 76.9745 186.845C77.6683 186.299 78.2806 185.729 78.8114 185.14C79.9546 183.874 80.7172 182.523 81.0978 181.145C80.0951 182.009 78.9294 182.826 77.5966 183.587C66.8137 189.739 49.291 189.739 38.4353 183.587Z" fill="#5C4A9C"/>
<path d="M84.6215 175.598C84.6187 175.599 84.6158 175.6 84.6144 175.602C84.5597 175.639 84.5021 175.675 84.4473 175.712C84.3111 175.803 84.1777 175.895 84.0358 175.984C83.8336 176.109 83.6328 176.236 83.4305 176.362C83.4221 176.366 83.4137 176.371 83.4039 176.377C83.3645 176.4 83.3224 176.424 83.2831 176.447C82.9179 176.668 82.5472 176.884 82.1596 177.099C79.7931 178.393 77.1824 179.45 74.4199 180.283C61.2495 184.262 44.5637 183.011 33.7401 176.615C33.6707 176.575 33.6071 176.531 33.5383 176.49C33.2414 176.312 32.9492 176.13 32.6656 175.948C32.5425 175.868 32.4243 175.786 32.304 175.707C32.1374 175.595 31.9661 175.484 31.8051 175.373C31.7153 175.308 31.6279 175.243 31.5385 175.178C31.4723 175.131 31.4073 175.083 31.342 175.036C31.2248 174.949 31.1053 174.865 30.9916 174.781C30.8171 174.645 30.653 174.519 30.4881 174.384C30.4873 174.383 30.4864 174.383 30.4857 174.381C31.006 176.727 32.4469 179.019 34.8181 181.067C35.8497 181.959 37.0542 182.804 38.4353 183.587C49.291 189.739 66.8137 189.739 77.5967 183.587C78.9294 182.826 80.0951 182.008 81.0978 181.145C83.2311 179.307 84.606 177.27 85.2394 175.173C85.2211 175.185 85.2057 175.199 85.1889 175.21C85.0049 175.345 84.8139 175.472 84.6215 175.598Z" fill="#362D55"/>
<path d="M84.6579 159.064C84.5807 159.178 84.5062 159.293 84.422 159.407C84.377 159.472 84.3251 159.535 84.2773 159.599C84.2394 159.65 84.2015 159.701 84.1622 159.752C83.988 159.978 83.8069 160.204 83.6187 160.429C83.4782 160.592 83.335 160.746 83.1861 160.909C83.1355 160.962 83.0808 161.016 83.0288 161.07C82.9797 161.121 82.9305 161.172 82.8799 161.223C82.8238 161.281 82.7718 161.339 82.7128 161.397C82.5864 161.52 82.4614 161.644 82.328 161.766C82.3055 161.787 82.2817 161.808 82.2592 161.827C82.1707 161.91 82.0738 161.991 81.9839 162.073C81.8281 162.21 81.6792 162.347 81.5163 162.486C81.3028 162.664 81.0823 162.842 80.8618 163.013C80.7621 163.09 80.6568 163.163 80.5557 163.239C80.5557 163.241 80.5529 163.241 80.5515 163.242C80.4237 163.338 80.2973 163.436 80.1624 163.532C80.0037 163.647 79.838 163.755 79.6723 163.864C79.6695 163.865 79.6667 163.868 79.6625 163.869C79.6203 163.898 79.5768 163.926 79.5333 163.955C79.4139 164.036 79.2945 164.118 79.1681 164.196C78.9954 164.304 78.8226 164.413 78.6485 164.52C78.6401 164.526 78.6288 164.531 78.619 164.538C78.6134 164.541 78.6092 164.544 78.6036 164.548C78.2637 164.755 77.9168 164.955 77.5545 165.155C75.7077 166.164 73.691 167.011 71.5577 167.695C61.0458 171.07 47.7333 170.484 38.2718 166.005C37.4404 165.611 36.6362 165.19 35.8688 164.738C35.5455 164.545 35.2321 164.348 34.9259 164.151C34.8445 164.097 34.7665 164.043 34.6868 163.991C34.5257 163.883 34.3614 163.778 34.2067 163.669C34.1212 163.607 34.0383 163.547 33.953 163.485C33.9125 163.456 33.8726 163.427 33.8326 163.396C33.7981 163.372 33.7637 163.347 33.7298 163.322C33.6559 163.268 33.5794 163.214 33.5068 163.161C33.3555 163.043 33.2145 162.934 33.073 162.819C33.0582 162.808 33.0449 162.795 33.0306 162.784C33.0046 162.763 32.9798 162.741 32.9543 162.721C32.7058 162.519 32.4688 162.317 32.2389 162.113C32.2081 162.084 32.1777 162.057 32.1473 162.03C32.0647 161.955 31.9796 161.881 31.8988 161.806C31.8225 161.735 31.7593 161.662 31.6854 161.59C31.5163 161.426 31.3534 161.26 31.1951 161.093C31.1664 161.063 31.1311 161.033 31.103 161.001C31.0169 160.917 30.9381 160.831 30.8669 160.746C30.8592 160.738 30.853 160.728 30.8452 160.72C30.6793 160.535 30.5243 160.347 30.3716 160.159C30.3637 160.149 30.3545 160.139 30.347 160.13L30.3873 173.873L30.0868 174.052C30.1529 174.107 30.2189 174.162 30.2868 174.217C30.3466 174.267 30.4028 174.317 30.4639 174.365C30.4716 174.37 30.4781 174.376 30.4856 174.381C30.4863 174.383 30.4872 174.383 30.488 174.384C30.6529 174.519 30.8171 174.645 30.9915 174.781C31.1053 174.865 31.2248 174.95 31.3419 175.036C31.4072 175.083 31.4722 175.132 31.5384 175.178C31.6278 175.243 31.7152 175.308 31.8051 175.373C31.966 175.485 32.1374 175.595 32.3039 175.707C32.4243 175.787 32.5424 175.868 32.6655 175.948C32.9491 176.13 33.2413 176.312 33.5382 176.49C33.6071 176.531 33.6707 176.575 33.7401 176.615C44.5636 183.011 61.2494 184.262 74.4199 180.283C77.1823 179.451 79.7931 178.393 82.1595 177.099C82.5471 176.884 82.9179 176.668 83.283 176.447C83.3223 176.424 83.3645 176.4 83.4038 176.377C83.4136 176.371 83.422 176.366 83.4305 176.362C83.6327 176.236 83.8335 176.109 84.0358 175.984C84.1776 175.896 84.311 175.803 84.4473 175.712C84.502 175.675 84.5596 175.639 84.6144 175.602C84.6158 175.6 84.6186 175.599 84.6214 175.598C84.8138 175.472 85.0048 175.345 85.1888 175.21C85.2056 175.199 85.2211 175.185 85.2393 175.173C85.2773 175.147 85.3124 175.118 85.3503 175.09L84.6116 174.653L84.6579 159.064Z" fill="#403568"/>
<path d="M80.9883 31.1058C81.0992 31.4023 81.1989 31.6987 81.2719 31.9952C82.0668 35.1683 80.7804 38.4834 77.3972 41.2303C77.5025 41.4634 77.6079 41.7006 77.7104 41.9446C77.9 42.3707 78.0896 42.8106 78.2707 43.2367C78.3887 43.5222 78.4997 43.8008 78.6106 44.0641C78.7904 44.4971 78.9561 44.915 79.1064 45.3094C79.1373 45.3783 79.1682 45.4555 79.192 45.5259C79.2159 45.5948 79.2482 45.672 79.2707 45.7506C79.3269 45.8968 79.3901 46.0526 79.4448 46.2071C79.4996 46.3615 79.5544 46.516 79.6176 46.6704C79.9406 47.5144 80.2706 48.4259 80.5641 49.2767C80.6344 49.478 80.7046 49.6877 80.7692 49.8959C80.8155 50.0117 80.8548 50.1275 80.8857 50.253C81.2958 51.4817 81.6975 52.8428 81.9882 53.9501C82.2564 54.9623 82.564 56.1841 82.8393 57.3603C82.8786 57.4996 82.9109 57.6375 82.9348 57.7699C82.9727 57.9547 83.0204 58.134 83.0597 58.3187C83.0991 58.458 83.1314 58.5973 83.1553 58.7283C83.21 58.9448 83.2564 59.1613 83.2957 59.3626C83.335 59.5336 83.3673 59.7184 83.4066 59.9046C83.4375 60.0673 83.4698 60.23 83.5007 60.3996C83.7605 61.66 83.9586 62.8584 84.1158 63.9795L84.1243 64.0346L84.1313 64.0967C84.4066 65.7198 84.62 67.8393 84.738 69.5492C84.7534 69.7037 84.7689 69.8512 84.7773 69.9974L84.7858 70.1298L84.7928 70.2387C84.8321 70.6166 84.8869 71.4205 84.9585 72.7581C84.9655 72.9291 84.9824 73.0987 84.9894 73.2615C85.0048 73.5331 85.0217 73.7951 85.0371 74.0585C85.061 74.4915 85.0849 74.9094 85.1074 75.3272C85.1074 75.3961 85.1158 75.4665 85.1158 75.5354C85.1312 75.7905 85.1397 76.0374 85.1551 76.2856C85.1635 76.5338 85.179 76.7724 85.186 77.0137C85.2253 77.7252 85.2576 78.3982 85.2815 79.0243C85.2885 79.2945 85.3054 79.5731 85.3208 79.8516C85.3278 80.1605 85.3363 80.4474 85.3531 80.7259C85.3602 80.8955 85.3686 81.05 85.377 81.2044C85.384 81.4058 85.391 81.6223 85.3995 81.8388C85.4079 82.0718 85.4149 82.3104 85.4318 82.5586C85.4388 82.713 85.4388 82.8758 85.4472 83.0385C85.4627 83.3322 85.4697 83.6328 85.4781 83.9348C85.5104 84.6464 85.5329 85.3828 85.5568 86.1316C85.5652 86.3481 85.5722 86.5646 85.5806 86.7728C85.5877 87.0058 85.5961 87.2375 85.6045 87.4692C85.6129 87.7326 85.62 87.9877 85.6284 88.2511C85.6354 88.5765 85.6438 88.8923 85.6593 89.2094V89.2798C85.6677 89.6204 85.6832 89.9527 85.6916 90.2768C85.6986 90.6105 85.707 90.9277 85.7225 91.2366C85.7309 91.5151 85.7379 91.8006 85.7464 92.0957C85.7857 93.5023 85.8166 94.5627 85.825 94.9805L85.8404 95.5528C85.8489 95.9541 85.8573 96.3719 85.8713 96.798C85.9275 99.134 85.943 99.5353 85.9514 99.9063C85.9584 100.285 85.9669 100.696 85.9753 101.114C85.9823 101.539 85.9978 101.98 86.0062 102.42C86.0146 102.73 86.0216 103.048 86.03 103.363C86.0371 103.696 86.0371 104.023 86.0455 104.338C86.0525 104.54 86.0609 104.741 86.0609 104.927C86.0694 105.174 86.0694 105.437 86.0764 105.708C86.0764 105.847 86.0848 105.993 86.0848 106.141C86.0918 106.567 86.1003 107.007 86.1087 107.456C86.1171 107.896 86.1241 108.337 86.1326 108.762C86.1396 109.165 86.148 109.567 86.1564 109.977C86.1564 110.163 86.1635 110.363 86.1635 110.564C86.1719 110.828 86.1719 111.098 86.1803 111.378C86.1944 112.167 86.2098 112.969 86.2182 113.798C86.2267 114.224 86.2351 114.634 86.2421 115.013C86.2421 115.02 86.2505 115.693 86.273 117.186C86.2828 117.759 86.2969 118.455 86.3053 119.282C86.3208 120.11 86.3278 121.06 86.3446 122.167C86.3517 122.46 86.3516 122.763 86.3601 123.079C86.3685 123.968 86.384 124.936 86.3924 125.995C86.3924 126.135 86.3994 126.281 86.3994 126.428C86.4078 126.831 86.4078 127.247 86.4163 127.674C86.4233 127.967 86.4233 128.269 86.4233 128.571C86.4317 128.872 86.4387 129.182 86.4387 129.499C86.4542 130.117 86.4626 131.518 86.471 133.165C86.471 133.559 86.4781 133.947 86.4781 134.318C86.4865 134.504 86.4865 134.682 86.4865 134.866C86.5103 137.573 86.5342 140.443 86.5412 141.519C86.5497 141.796 86.5497 141.952 86.5497 141.959V142.509C86.5539 143.496 86.5623 144.478 86.5707 145.46L89.5228 143.776C89.77 143.943 90.9117 144.719 92.5717 146.151C92.5605 144.845 92.5479 143.361 92.5366 141.914C92.5366 141.698 92.5366 141.492 92.5268 141.276C92.5268 140.844 92.517 140.396 92.517 139.937C92.5085 138.023 92.4987 136.397 92.4805 135.679C92.4805 135.309 92.472 134.95 92.4622 134.6C92.4622 134.25 92.4622 133.9 92.4538 133.558C92.4439 133.064 92.4439 132.579 92.4355 132.111C92.4355 131.94 92.4257 131.771 92.4257 131.609C92.4173 130.378 92.399 129.255 92.3892 128.221C92.3807 127.851 92.3807 127.503 92.3709 127.161C92.3526 125.877 92.3442 124.771 92.326 123.81C92.3161 122.848 92.2979 122.039 92.2894 121.374C92.2614 119.641 92.2529 118.859 92.2529 118.851C92.2431 118.41 92.2347 117.932 92.2249 117.439C92.215 116.478 92.1982 115.544 92.1785 114.627C92.1701 114.303 92.1701 113.99 92.1602 113.684C92.1602 113.451 92.1518 113.216 92.1518 113.001C92.142 112.525 92.1336 112.058 92.1237 111.59C92.1153 111.097 92.1055 110.584 92.097 110.071C92.0886 109.551 92.0788 109.039 92.069 108.546C92.069 108.373 92.0605 108.202 92.0605 108.041C92.0507 107.728 92.0507 107.422 92.0409 107.134C92.0409 106.918 92.0325 106.684 92.024 106.451C92.0142 106.083 92.0142 105.705 92.0058 105.319C91.9959 104.951 91.9861 104.582 91.9777 104.222C91.9678 103.711 91.9496 103.199 91.9412 102.704C91.9313 102.219 91.9229 101.743 91.9131 101.303C91.9046 100.872 91.8864 100.404 91.8232 97.6916C91.8035 97.1966 91.7951 96.7112 91.7853 96.2437L91.767 95.579C91.7586 95.0936 91.7207 93.8635 91.6757 92.2281C91.6659 91.8875 91.6575 91.5537 91.6476 91.2311C91.6308 90.8711 91.621 90.503 91.6111 90.1168C91.6027 89.739 91.5844 89.3529 91.576 88.9571V88.8757C91.5564 88.5089 91.5479 88.1394 91.5381 87.7629C91.5283 87.4568 91.5198 87.1617 91.5114 86.8555C91.503 86.5852 91.4932 86.3163 91.4833 86.0474C91.4749 85.8034 91.4651 85.5524 91.4566 85.3014C91.4286 84.4285 91.4019 83.5763 91.3654 82.7489C91.3555 82.3986 91.3471 82.0484 91.3274 81.7078C91.319 81.5188 91.319 81.3299 91.3106 81.1507C91.2909 80.8624 91.2825 80.5839 91.2727 80.3136C91.2642 80.0626 91.2544 79.8116 91.246 79.5772C91.2362 79.3979 91.2277 79.2187 91.2179 79.0201C91.1996 78.6974 91.1898 78.3651 91.1828 78.0052C91.1631 77.6811 91.1449 77.3584 91.1364 77.044C91.1084 76.3159 91.0718 75.534 91.0255 74.708C91.0171 74.4295 90.9988 74.1509 90.9904 73.8627C90.9707 73.5759 90.9623 73.289 90.944 72.9926C90.944 72.9112 90.9342 72.8298 90.9342 72.7499C90.9075 72.2645 90.8794 71.779 90.8528 71.2757C90.8345 70.971 90.8162 70.6662 90.798 70.3504C90.7881 70.1615 90.7699 69.9643 90.7601 69.7671C90.6786 68.2116 90.614 67.2766 90.5691 66.8368L90.5592 66.7113L90.5508 66.5596C90.541 66.3872 90.5227 66.2176 90.5045 66.0369C90.3668 64.0526 90.1197 61.5897 89.7995 59.7033L89.7896 59.6315L89.7812 59.5681C89.5986 58.265 89.3697 56.8736 89.0678 55.4077C89.0313 55.2119 88.9947 55.023 88.9582 54.834C88.9119 54.6175 88.8754 54.4024 88.8304 54.2038C88.7841 53.9722 88.7293 53.7198 88.6661 53.4675C88.638 53.3144 88.6015 53.1544 88.5552 52.9931C88.5088 52.7766 88.4554 52.5697 88.4091 52.3546C88.381 52.2002 88.3445 52.0388 88.2996 51.8775C87.9794 50.5123 87.6226 49.0919 87.3109 47.9156C86.9724 46.6304 86.5061 45.0487 86.03 43.6201C85.9935 43.4767 85.9472 43.3429 85.8924 43.2078C85.8194 42.9651 85.7365 42.7224 85.6551 42.4893C85.3166 41.5006 84.9318 40.4402 84.5568 39.4611C84.4838 39.2804 84.4192 39.1012 84.356 38.9219C84.2914 38.7426 84.2184 38.562 84.1538 38.3924C84.1271 38.3014 84.0906 38.2117 84.0625 38.1317C84.0358 38.0504 83.9993 37.9607 83.9614 37.8794C83.7886 37.4216 83.5962 36.9362 83.3856 36.4328C83.2578 36.1267 83.13 35.804 82.9923 35.4717C82.7817 34.9766 82.5626 34.465 82.3421 33.9713C82.0767 33.3425 81.7944 32.7302 81.5374 32.2007C81.3717 31.8601 81.1891 31.4919 81.0065 31.0961L80.9981 31.1058H80.9883Z" fill="#403568"/>
<path d="M27.6631 144.245C27.6642 143.642 27.6661 142.873 27.6697 141.968V141.061C27.6766 139.043 27.6766 136.575 27.6922 134.116C27.6922 133.203 27.7079 130.721 27.7245 128.083C27.7311 127.566 27.7311 127.039 27.7311 126.521C27.7394 125.903 27.7394 125.299 27.7477 124.719C27.7558 124.178 27.7558 123.659 27.7558 123.18C27.7634 121.726 27.7715 120.597 27.7798 120.149C27.7798 119.877 27.7874 119.607 27.7874 119.343C27.7947 118.655 27.7947 117.967 27.803 117.295C27.8189 115.886 27.8353 114.532 27.842 113.265C27.8503 112.847 27.8579 112.436 27.8579 112.019C27.8735 111.214 27.8825 110.457 27.8892 109.761C27.8896 109.734 27.8899 109.711 27.8902 109.685C26.6241 107.911 25.5116 106.006 24.593 104.041C24.5902 104.165 24.5887 104.287 24.5858 104.412C24.5858 104.565 24.5858 104.716 24.5769 104.861C24.5769 105.076 24.568 105.293 24.568 105.508C24.5584 106.101 24.5496 106.712 24.54 107.332C24.54 107.341 24.54 107.476 24.531 107.736C24.531 108.051 24.5216 108.554 24.5133 109.201C24.5133 109.597 24.5038 110.045 24.4942 110.53C24.4852 111.195 24.4757 111.941 24.4667 112.75C24.458 113.557 24.4489 114.44 24.4299 115.373C24.4299 115.859 24.4216 116.334 24.4121 116.82C24.4031 118.292 24.3838 119.864 24.3661 121.501C24.3573 122.282 24.3573 123.082 24.3477 123.881C24.3477 124.186 24.3389 124.502 24.3389 124.816C24.3299 125.336 24.3202 126.649 24.3115 128.338C24.3115 128.894 24.3115 129.497 24.3025 130.126C24.293 130.8 24.293 131.5 24.284 132.219C24.284 132.821 24.284 133.432 24.2744 134.035C24.256 137.098 24.2382 139.981 24.2382 141.043C24.232 142.004 24.2279 142.964 24.2249 143.907C24.8865 143.4 25.3346 143.095 25.478 142.997L27.6631 144.245Z" fill="#403568"/>
<path d="M26.1719 82.9297L28.4869 81.6086C28.4873 81.5976 28.4876 81.5865 28.4879 81.5769C28.5119 80.8501 28.5359 80.1607 28.5672 79.5111V79.4574C28.5906 78.9458 28.6064 78.4507 28.622 77.9956C28.6453 77.5309 28.6618 77.091 28.6775 76.6732C28.6775 76.6098 28.6856 76.5491 28.6856 76.4953C28.7008 76.2705 28.709 76.0458 28.7172 75.8293C28.7247 75.6127 28.7328 75.4032 28.748 75.2032C28.7644 74.7854 28.7802 74.3979 28.8033 74.0435C28.8191 73.5718 28.8424 73.154 28.8669 72.7831C28.8738 72.659 28.8828 72.5417 28.8903 72.4259V72.3652C28.9136 72.0012 28.9374 71.6289 28.9533 71.2579C28.969 70.9876 28.9846 70.7794 28.9929 70.6084C29.0162 70.4002 29.0237 70.2609 29.0237 70.1906C29.0477 69.7741 29.0792 69.3797 29.1106 69.0157C29.1339 68.7454 29.1659 68.4586 29.1968 68.1566C29.229 67.8642 29.2522 67.5539 29.2928 67.2299C29.3788 66.3542 29.4891 65.3876 29.6388 64.3588L29.654 64.2209V64.1892C29.6696 64.0582 29.686 63.9272 29.7093 63.7948C29.7558 63.4542 29.8037 63.1067 29.8592 62.7509C29.9222 62.3869 29.9775 62.0159 30.048 61.6367C30.0638 61.5512 30.0795 61.4671 30.0958 61.383C30.135 61.1334 30.1815 60.8948 30.2294 60.6466C30.2999 60.2756 30.3709 59.8964 30.4497 59.5172C30.4653 59.4248 30.4894 59.3324 30.505 59.24C30.5522 59.0153 30.5913 58.7988 30.6386 58.5905C30.9382 57.1743 31.3631 55.5181 31.8202 53.8868C31.8756 53.702 31.9311 53.5076 31.9775 53.3228C32.0884 52.9367 32.1903 52.5643 32.2938 52.2003C32.4428 51.6515 32.5996 51.1261 32.7418 50.631C32.7733 50.5152 32.8047 50.4062 32.8519 50.2835C32.8917 50.1208 32.9464 49.9498 33.0094 49.7802C33.1284 49.4009 33.2537 49.0148 33.3959 48.6122C33.53 48.2329 33.6637 47.8537 33.7977 47.4745C34.0344 46.8333 34.2704 46.2141 34.475 45.657C34.6796 45.1164 34.9157 44.5055 35.1681 43.8864C35.3966 43.3141 35.6411 42.7253 35.8769 42.1778L35.8929 42.1461C35.979 41.953 36.0582 41.7669 36.1447 41.5821C36.2156 41.4111 36.2951 41.2484 36.3649 41.0953C36.4601 40.9009 36.5469 40.7147 36.6254 40.5299C36.7118 40.3589 36.7823 40.2045 36.8616 40.0418C36.9095 39.9411 36.956 39.8335 37.004 39.7329C37.0455 39.6446 37.0813 39.5674 37.1217 39.4846C34.7613 36.7722 34.165 33.7039 35.3467 30.8094V30.7915C35.3605 30.757 35.3779 30.7226 35.3922 30.6895C35.3834 30.7088 35.3741 30.7253 35.3652 30.746C35.2734 30.9529 35.1633 31.168 35.0539 31.4024C34.9991 31.5182 34.9438 31.6437 34.8889 31.7609C34.7973 31.9499 34.7153 32.1291 34.6146 32.3277C34.523 32.5428 34.423 32.7579 34.3129 32.9827C34.2301 33.162 34.1389 33.3523 34.0562 33.5481C33.9558 33.7646 33.8639 33.9811 33.7634 34.2059L33.745 34.2417C33.4706 34.8788 33.1873 35.5614 32.9224 36.2261C32.6289 36.9459 32.3546 37.6547 32.1164 38.2849C31.8784 38.9303 31.6047 39.6501 31.3296 40.3948C31.1744 40.8361 31.0183 41.276 30.863 41.7159C30.698 42.1833 30.5522 42.6329 30.4149 43.0728C30.3407 43.27 30.2771 43.4685 30.2322 43.6561C30.1767 43.8009 30.1405 43.9264 30.1035 44.0615C29.9385 44.6352 29.7558 45.2474 29.5821 45.8845C29.463 46.3079 29.344 46.7395 29.2161 47.1877C29.1613 47.4028 29.0969 47.6276 29.0327 47.8441C28.5025 49.7402 28.0083 51.6625 27.6607 53.3062C27.6061 53.5489 27.5603 53.7999 27.5054 54.0606C27.4861 54.1695 27.4589 54.2771 27.4404 54.3846C27.3495 54.8259 27.2666 55.2644 27.1845 55.696C27.1298 55.9842 27.0745 56.2628 27.0292 56.5496C27.0108 56.6489 26.9931 56.7482 26.9738 56.8475C26.8917 57.286 26.828 57.7176 26.754 58.1396C26.6904 58.5533 26.6359 58.9573 26.5803 59.3545C26.5536 59.5062 26.5345 59.6592 26.5167 59.8109V59.8482L26.4981 60.0095C26.3246 61.2037 26.1959 62.3262 26.0959 63.3425C26.0494 63.7204 26.0226 64.0789 25.9858 64.4209C25.9496 64.7711 25.9125 65.1035 25.8851 65.4179C25.8489 65.8399 25.8118 66.2977 25.7846 66.7831C25.7846 66.8645 25.7757 67.0258 25.7482 67.2685C25.7387 67.4657 25.721 67.7098 25.7019 68.0242C25.684 68.4558 25.6559 68.8861 25.6292 69.308V69.3797C25.6195 69.5149 25.6109 69.65 25.6019 69.7934C25.5738 70.225 25.5465 70.7104 25.528 71.2579C25.5013 71.6716 25.4829 72.1211 25.4644 72.6066C25.4465 72.8396 25.4364 73.0823 25.4274 73.3333C25.4186 73.5856 25.4096 73.8463 25.3911 74.1055C25.3911 74.1689 25.3815 74.2407 25.3815 74.3124C25.3638 74.7978 25.3453 75.3108 25.3179 75.8486C25.2995 76.3795 25.2817 76.9545 25.2537 77.5475V77.6095C25.2173 78.3652 25.1901 79.165 25.1619 80.009C25.1346 80.8088 25.1072 81.6527 25.0797 82.5422C25.0655 82.9338 25.0534 83.3309 25.0415 83.735C25.4041 83.4233 25.7901 83.1462 26.2024 82.9145C26.1923 82.92 26.1817 82.9241 26.1719 82.9297Z" fill="#403568"/>
<path d="M35.7678 29.9097V29.918C35.7463 29.9623 35.7232 30.0094 35.701 30.0537C35.7273 30.0052 35.7503 29.9568 35.7773 29.9097H35.7678Z" fill="#403568"/>
<path d="M86.5496 141.959C86.5496 141.952 86.5496 141.796 86.5412 141.519C86.5342 140.443 86.5103 137.573 86.4864 134.866C86.4864 134.682 86.4864 134.504 86.478 134.318C86.478 133.947 86.471 133.559 86.471 133.165C86.4626 131.518 86.4541 130.117 86.4387 129.499C86.4387 129.182 86.4317 128.872 86.4232 128.571C86.4232 128.269 86.4232 127.967 86.4162 127.674C86.4078 127.248 86.4078 126.831 86.3994 126.428C86.3994 126.281 86.3924 126.135 86.3924 125.995C86.3839 124.936 86.3685 123.968 86.36 123.079C86.3516 122.763 86.3516 122.46 86.3446 122.167C86.3277 121.06 86.3207 120.11 86.3053 119.283C86.2969 118.455 86.2828 117.759 86.273 117.186C86.2505 115.693 86.2421 115.02 86.2421 115.013C86.2351 114.634 86.2266 114.224 86.2182 113.798C86.2098 112.97 86.1943 112.167 86.1803 111.378C86.1719 111.098 86.1719 110.828 86.1634 110.565C86.1634 110.363 86.1564 110.163 86.1564 109.977C86.148 109.568 86.1396 109.165 86.1325 108.762C86.1241 108.337 86.1171 107.896 86.1087 107.456C86.1002 107.007 86.0918 106.567 86.0848 106.141C86.0848 105.993 86.0764 105.847 86.0764 105.708C86.0693 105.437 86.0693 105.174 86.0609 104.927C86.0609 104.741 86.0525 104.54 86.0455 104.338C86.037 104.023 86.037 103.696 86.03 103.363C86.0216 103.048 86.0146 102.731 86.0061 102.42C85.9977 101.98 85.9823 101.539 85.9752 101.114C85.9668 100.697 85.9584 100.286 85.9514 99.9063C85.9429 99.5354 85.9275 99.1341 85.8713 96.7981C85.8573 96.372 85.8488 95.9542 85.8404 95.5529L85.825 94.9806C85.8165 94.5628 85.7857 93.5023 85.7463 92.0958C85.7379 91.8007 85.7309 91.5152 85.7225 91.2366C85.707 90.9278 85.6986 90.6106 85.6916 90.2769C85.6831 89.9528 85.6677 89.6205 85.6593 89.2799V89.2095C85.6438 88.8924 85.6354 88.5766 85.6284 88.2511C85.6199 87.9878 85.6129 87.7327 85.6045 87.4693C85.5961 87.2376 85.5876 87.0059 85.5806 86.7729C85.5722 86.5647 85.5652 86.3481 85.5567 86.1316C85.5329 85.3829 85.5104 84.6465 85.4781 83.9349C85.4697 83.6329 85.4626 83.3323 85.4472 83.0386C85.4388 82.8758 85.4388 82.7131 85.4317 82.5587C85.4149 82.3105 85.4079 82.0719 85.3994 81.8388C85.391 81.6223 85.384 81.4058 85.377 81.2045C85.3685 81.0501 85.3601 80.8956 85.3531 80.726C85.3362 80.4475 85.3278 80.1606 85.3208 79.8517C85.3053 79.5732 85.2885 79.2946 85.2815 79.0243C85.2576 78.3983 85.2253 77.7253 85.186 77.0138C85.1789 76.7725 85.1635 76.5339 85.1551 76.2857C85.1396 76.0375 85.1312 75.7906 85.1158 75.5355C85.1158 75.4665 85.1073 75.3962 85.1073 75.3273C85.0849 74.9094 85.061 74.4916 85.0371 74.0586C85.0217 73.7952 85.0048 73.5332 84.9894 73.2615C84.9823 73.0988 84.9655 72.9292 84.9585 72.7582C84.8868 71.4206 84.8321 70.6167 84.7927 70.2388L84.7857 70.1299L84.7773 69.9975C84.7689 69.8513 84.7534 69.7038 84.738 69.5493C84.62 67.8394 84.4065 65.7199 84.1313 64.0968L84.1243 64.0347L84.1158 63.9796C83.9585 62.8585 83.7605 61.6601 83.5007 60.3997C83.4698 60.2301 83.4375 60.0674 83.4066 59.9047C83.3673 59.7185 83.335 59.5337 83.2957 59.3627C83.2563 59.1614 83.21 58.9449 83.1552 58.7284C83.1313 58.5974 83.099 58.4581 83.0597 58.3188C83.0204 58.134 82.9726 57.9548 82.9347 57.77C82.9109 57.6376 82.8786 57.4997 82.8392 57.3604C82.564 56.1842 82.2564 54.9624 81.9882 53.9502C81.6974 52.8429 81.2958 51.4818 80.8857 50.2531C80.8548 50.1276 80.8155 50.0118 80.7691 49.896C80.7045 49.6878 80.6343 49.4781 80.5641 49.2768C80.2706 48.426 79.9405 47.5145 79.6175 46.6705C79.5543 46.5161 79.4996 46.3616 79.4448 46.2072C79.39 46.0527 79.3268 45.8969 79.2706 45.7507C79.2482 45.6721 79.2159 45.5949 79.192 45.526C79.1681 45.4556 79.1372 45.3784 79.1063 45.3095C78.9561 44.9151 78.7903 44.4972 78.6106 44.0642C78.4996 43.8008 78.3887 43.5223 78.2707 43.2368C78.0895 42.8107 77.9 42.3708 77.7104 41.9447C77.6078 41.7007 77.5025 41.4635 77.3972 41.2304C76.6135 41.8661 75.7189 42.4715 74.7106 43.0369C70.1631 45.5977 64.1972 46.8732 58.2131 46.8732H58.2047C53.1854 46.8732 48.178 45.9645 43.9851 44.1635C43.1785 43.8174 42.3909 43.4506 41.6512 43.0369C41.5232 42.9652 41.3946 42.8935 41.2578 42.8121C39.536 41.8027 38.1596 40.6774 37.1217 39.4846C37.0813 39.5674 37.0455 39.6446 37.004 39.7328C36.956 39.8335 36.9095 39.9411 36.8616 40.0417C36.7823 40.2045 36.7118 40.3589 36.6254 40.5299C36.5469 40.7147 36.4601 40.9008 36.3649 41.0953C36.2951 41.2484 36.2156 41.4111 36.1447 41.5821C36.0582 41.7668 35.9789 41.953 35.8929 42.1461L35.8769 42.1778C35.6411 42.7252 35.3966 43.3141 35.1681 43.8864C34.9157 44.5055 34.6796 45.1164 34.475 45.657C34.2704 46.2141 34.0344 46.8332 33.7976 47.4745C33.6637 47.8537 33.53 48.2329 33.3958 48.6121C33.2537 49.0148 33.1284 49.4009 33.0093 49.7801C32.9464 49.9498 32.8917 50.1208 32.8519 50.2835C32.8047 50.4062 32.7733 50.5151 32.7418 50.631C32.5995 51.126 32.4428 51.6514 32.2938 52.2003C32.1903 52.5643 32.0883 52.9367 31.9775 53.3228C31.9311 53.5076 31.8756 53.702 31.8202 53.8868C31.3631 55.5181 30.9381 57.1743 30.6386 58.5905C30.5913 58.7987 30.5522 59.0152 30.505 59.24C30.4894 59.3324 30.4653 59.4248 30.4497 59.5172C30.3709 59.8964 30.2998 60.2756 30.2293 60.6466C30.1815 60.8948 30.135 61.1333 30.0958 61.3829C30.0795 61.4671 30.0638 61.5512 30.048 61.6367C29.9775 62.0159 29.9222 62.3868 29.8591 62.7509C29.8037 63.1067 29.7558 63.4542 29.7093 63.7948C29.686 63.9272 29.6695 64.0582 29.654 64.1892V64.2209L29.6388 64.3588C29.4891 65.3875 29.3788 66.3542 29.2928 67.2299C29.2522 67.5539 29.229 67.8642 29.1968 68.1565C29.1659 68.4585 29.1339 68.7454 29.1106 69.0156C29.0791 69.3797 29.0477 69.7741 29.0237 70.1905C29.0237 70.2609 29.0162 70.4001 28.9929 70.6084C28.9846 70.7794 28.969 70.9876 28.9533 71.2579C28.9374 71.6288 28.9136 72.0011 28.8902 72.3652V72.4259C28.8828 72.5417 28.8738 72.6589 28.8669 72.783C28.8424 73.154 28.8191 73.5718 28.8033 74.0434C28.7802 74.3978 28.7644 74.7853 28.748 75.2032C28.7328 75.4031 28.7247 75.6127 28.7172 75.8292C28.7089 76.0457 28.7008 76.2705 28.6856 76.4953C28.6856 76.549 28.6775 76.6097 28.6775 76.6732C28.6618 77.091 28.6453 77.5309 28.622 77.9956C28.6064 78.4507 28.5905 78.9457 28.5672 79.4573V79.5111C28.5359 80.1606 28.5119 80.8501 28.4879 81.5768C28.4876 81.5865 28.4873 81.5975 28.4869 81.6086L31.2447 80.0351C32.8318 79.1291 34.7737 78.8258 36.9396 79.1843C38.5239 79.4477 40.2281 80.0641 42.0035 81.0708C50.3499 85.8034 57.0938 97.2725 57.0671 106.69C57.0531 111.37 55.372 114.664 52.6573 116.213L47.5855 119.107C47.6731 119.058 47.7567 119 47.8418 118.947C45.0768 120.682 41.1664 120.53 36.8337 118.073C36.5636 117.92 36.2958 117.76 36.0291 117.593C32.9877 115.689 30.1889 112.905 27.8902 109.685C27.8899 109.711 27.8896 109.734 27.8892 109.761C27.8825 110.457 27.8735 111.214 27.8579 112.019C27.8579 112.436 27.8503 112.847 27.842 113.265C27.8353 114.532 27.8188 115.886 27.803 117.295C27.7947 117.967 27.7947 118.655 27.7874 119.343C27.7874 119.607 27.7798 119.877 27.7798 120.149C27.7715 120.597 27.7634 121.726 27.7558 123.18C27.7558 123.659 27.7558 124.178 27.7476 124.718C27.7394 125.299 27.7393 125.903 27.7311 126.521C27.7311 127.039 27.7311 127.566 27.7245 128.083C27.7079 130.721 27.6922 133.203 27.6922 134.116C27.6766 136.575 27.6766 139.043 27.6697 141.061V141.968C27.666 142.873 27.6642 143.642 27.6631 144.245L30.3027 145.751C30.2525 145.784 30.1558 145.851 30.0376 145.933C30.1565 145.851 30.2546 145.783 30.3046 145.751L30.347 160.13C30.3545 160.139 30.3637 160.149 30.3716 160.158C30.5243 160.347 30.6793 160.535 30.8452 160.72C30.853 160.728 30.8592 160.738 30.8669 160.746C30.9381 160.831 31.0169 160.917 31.103 161.001C31.1311 161.033 31.1664 161.063 31.1951 161.093C31.3534 161.26 31.5163 161.426 31.6854 161.59C31.7593 161.662 31.8225 161.735 31.8988 161.806C31.9797 161.881 32.0647 161.955 32.1473 162.03C32.1777 162.057 32.2081 162.084 32.2389 162.112C32.4688 162.317 32.7059 162.519 32.9543 162.721C32.9799 162.741 33.0046 162.763 33.0306 162.784C33.0449 162.795 33.0582 162.808 33.073 162.819C33.2145 162.934 33.3555 163.043 33.5068 163.161C33.5794 163.214 33.6559 163.268 33.7298 163.322C33.7637 163.347 33.7981 163.372 33.8326 163.396C33.8726 163.427 33.9125 163.456 33.953 163.485C34.0384 163.547 34.1212 163.607 34.2067 163.669C34.3614 163.778 34.5257 163.883 34.6868 163.991C34.7665 164.043 34.8445 164.097 34.9259 164.151C35.2321 164.348 35.5456 164.545 35.8688 164.738C36.6362 165.19 37.4404 165.611 38.2718 166.005C47.7333 170.484 61.0458 171.07 71.5577 167.695C73.691 167.011 75.7077 166.164 77.5545 165.155C77.9168 164.955 78.2637 164.755 78.6036 164.548C78.6092 164.544 78.6134 164.541 78.619 164.538C78.6288 164.531 78.6401 164.526 78.6485 164.52C78.8226 164.413 78.9954 164.304 79.1681 164.196C79.2945 164.118 79.4139 164.036 79.5333 163.955C79.5768 163.926 79.6203 163.898 79.6625 163.869C79.6667 163.868 79.6695 163.865 79.6723 163.864C79.838 163.755 80.0037 163.647 80.1624 163.531C80.2973 163.436 80.4237 163.338 80.5515 163.242C80.5529 163.241 80.5557 163.241 80.5557 163.239C80.6568 163.163 80.7621 163.09 80.8618 163.013C81.0823 162.842 81.3028 162.664 81.5163 162.486C81.6792 162.347 81.8281 162.21 81.9839 162.073C82.0738 161.991 82.1707 161.91 82.2592 161.827C82.2817 161.808 82.3055 161.787 82.328 161.766C82.4614 161.644 82.5864 161.52 82.7128 161.397C82.7718 161.339 82.8238 161.281 82.8799 161.223C82.9305 161.172 82.9797 161.121 83.0288 161.07C83.0808 161.016 83.1355 160.962 83.1861 160.909C83.335 160.746 83.4782 160.591 83.6187 160.429C83.8069 160.204 83.988 159.978 84.1622 159.752C84.2015 159.701 84.2394 159.65 84.2773 159.599C84.3251 159.535 84.377 159.472 84.422 159.407C84.5062 159.292 84.5807 159.178 84.6579 159.064L84.6944 146.531C84.7829 146.591 84.9823 146.724 85.2773 146.937C84.9894 146.729 84.7843 146.588 84.6972 146.53L86.5707 145.46C86.5623 144.478 86.5538 143.496 86.5496 142.509V141.959Z" fill="#5B4B97"/>
<path d="M35.3467 30.8093C34.1651 33.7038 34.7614 36.7721 37.1217 39.4846C38.1596 40.6774 39.536 41.8026 41.2578 42.812C41.3946 42.8934 41.5233 42.9651 41.6512 43.0368C42.3909 43.4505 43.1785 43.8173 43.9852 44.1635C48.178 45.9644 53.1854 46.8732 58.2047 46.8732H58.2131C64.1973 46.8732 70.1632 45.5976 74.7106 43.0368C75.719 42.4714 76.6136 41.8661 77.3972 41.2303C80.7804 38.4834 82.0668 35.1683 81.2719 31.9953C81.1989 31.6988 81.0992 31.4023 80.9883 31.1058H80.9981L81.0065 31.0962L80.9616 30.9969C80.7959 30.5749 80.5768 30.1529 80.338 29.7392L80.3113 29.6855C80.2748 29.5958 80.2285 29.5062 80.1835 29.4166C80.0908 29.2359 80.0094 29.0567 79.9265 28.8953C79.8437 28.7243 79.7622 28.563 79.6808 28.4099C79.6162 28.2748 79.5431 28.1396 79.4785 28.0141C79.3957 27.8445 79.3044 27.6721 79.2131 27.4929C79.067 27.224 78.9196 26.9358 78.7651 26.6407C78.5081 26.1732 78.2525 25.6878 77.9871 25.2203C77.7764 24.8425 77.5657 24.466 77.3649 24.1157C77.2638 23.9447 77.1641 23.7737 77.0714 23.6124C76.8888 23.2966 76.7063 23.0001 76.5405 22.7133C76.431 22.534 76.3313 22.363 76.2302 22.192C76.1206 22.021 76.0195 21.8514 75.9282 21.6887C75.3327 20.7193 74.8201 19.8919 74.3356 19.1472C73.823 18.3378 73.3469 17.6276 72.854 16.9091C72.4874 16.3796 72.1026 15.8404 71.701 15.2654C71.2881 14.6986 70.8499 14.0877 70.3556 13.4134C70.3092 13.3513 70.2643 13.2879 70.2095 13.2259C69.9244 12.8384 69.5874 12.3985 69.2026 11.9131C68.6717 11.2139 68.0411 10.4403 67.3726 9.63085C67.0622 9.26266 66.7687 8.90413 66.4752 8.56213C66.1733 8.21187 65.8896 7.87953 65.6059 7.55685C65.332 7.23278 65.0399 6.91009 64.7562 6.5943C64.5722 6.38745 64.3798 6.1806 64.1973 5.97513C64.1242 5.89377 64.0512 5.81242 63.9599 5.73244C63.7212 5.45388 63.4656 5.18498 63.2002 4.92435L61.7915 3.47779L61.1511 2.8476L59.7692 1.5541L59.3479 1.16798C59.1372 0.979065 58.9181 0.799789 58.7075 0.610867L58.6246 0.539173C58.4055 0.359905 58.1949 0.17926 57.9744 -7.62939e-06C57.9112 0.053772 57.8283 0.11581 57.737 0.19717C57.4997 0.395748 57.1795 0.664665 56.8045 1.00665C56.4183 1.34726 55.9619 1.76096 55.4591 2.25464C55.3678 2.336 55.285 2.41737 55.1937 2.51527C54.9283 2.75797 54.6446 3.03651 54.3524 3.333C54.0126 3.66533 53.6839 4.00733 53.3455 4.35759C52.0914 5.65108 50.6462 7.25071 49.0635 9.16474C48.8986 9.36194 48.7426 9.55913 48.5777 9.75771C48.2944 10.0997 48.0105 10.4582 47.7176 10.8182C45.448 13.674 42.0536 18.3199 38.7412 24.2136C38.5121 24.6177 38.302 24.9955 38.1184 25.3375C37.8634 25.7953 37.6436 26.1994 37.4234 26.5938C37.1859 27.0433 36.9663 27.4749 36.7378 27.9328C36.6735 28.05 36.6091 28.1769 36.5545 28.3023C36.5086 28.3741 36.4723 28.454 36.4354 28.5354C36.3983 28.5988 36.3718 28.6622 36.3437 28.734L36.326 28.7698L36.3073 28.7864C36.0967 29.1559 35.914 29.5241 35.7675 29.9006V29.9102H35.777C35.7501 29.9571 35.7272 30.0054 35.701 30.0537C35.5866 30.2619 35.4825 30.4742 35.3922 30.6894C35.3779 30.7225 35.3605 30.7569 35.3467 30.7914V30.8093Z" fill="#3A2F62"/>
<path d="M36.8878 30.0577V30.0412C36.9944 29.775 37.1258 29.5089 37.2736 29.251H37.2654V29.2441C37.3973 28.9035 37.5609 28.5726 37.7504 28.243L37.7668 28.2264L37.7834 28.1933C37.8085 28.1285 37.8325 28.072 37.8654 28.0168C37.899 27.9437 37.9317 27.8707 37.9721 27.8072C38.0214 27.6941 38.0796 27.5797 38.1371 27.4749C38.3423 27.0653 38.5401 26.6764 38.753 26.2724C38.9513 25.918 39.1483 25.5553 39.3775 25.143C39.5424 24.8369 39.7314 24.4976 39.9366 24.135C42.9115 18.841 45.9606 14.6696 47.999 12.1033C48.2617 11.7806 48.5162 11.4566 48.7714 11.1504C48.9193 10.9725 49.0593 10.796 49.2067 10.6181C50.628 8.89991 51.9271 7.46301 53.0534 6.30053C53.3567 5.98612 53.6531 5.67997 53.9578 5.38073C54.2205 5.11458 54.4747 4.86499 54.7134 4.64711C54.7949 4.55748 54.8693 4.48577 54.9507 4.41269C55.403 3.97003 55.8144 3.59769 56.1599 3.29156C56.497 2.98404 56.7849 2.74273 56.9984 2.56484C57.0798 2.49314 57.1542 2.43659 57.2118 2.38695C57.4084 2.54829 57.5966 2.70963 57.7946 2.87097L57.8691 2.93579C58.0573 3.10541 58.2553 3.26674 58.4435 3.43635L58.8227 3.78387C62.5373 12.3777 70.3935 34.6332 57.4253 44.4861H57.4169C52.0422 44.4861 46.6673 43.3401 42.5503 41.0414C42.4347 40.9752 42.3197 40.9117 42.1966 40.8387C37.134 37.8697 35.3591 33.8031 36.8878 30.0577Z" fill="#3A2F62"/>
<path d="M42.1966 40.8387C42.3197 40.9117 42.4347 40.9752 42.5503 41.0414C46.6673 43.3401 52.0422 44.4861 57.4169 44.4861H57.4253C70.3935 34.6332 62.5373 12.3777 58.8227 3.78387L58.4435 3.43635C58.2553 3.26674 58.0573 3.10541 57.8691 2.93579L57.7946 2.87097C57.5966 2.70963 57.4084 2.54829 57.2118 2.38695C57.1542 2.43659 57.0798 2.49314 56.9984 2.56484C56.7849 2.74273 56.497 2.98404 56.1599 3.29156C55.8144 3.59769 55.403 3.97003 54.9507 4.41269C54.8693 4.48577 54.7949 4.55748 54.7134 4.64711C54.4747 4.86499 54.2205 5.11458 53.9578 5.38073C53.6531 5.67997 53.3567 5.98612 53.0534 6.30053C51.9271 7.46301 50.628 8.89991 49.2067 10.6181C49.0593 10.796 48.9193 10.9725 48.7714 11.1504C48.5162 11.4566 48.2617 11.7806 47.999 12.1033C45.9606 14.6696 42.9115 18.841 39.9366 24.135C39.7314 24.4976 39.5424 24.8369 39.3775 25.143C39.1483 25.5553 38.9513 25.918 38.753 26.2724C38.5401 26.6764 38.3423 27.0653 38.1371 27.4749C38.0796 27.5797 38.0214 27.6941 37.9721 27.8072C37.9317 27.8707 37.899 27.9437 37.8654 28.0168C37.8325 28.072 37.8085 28.1285 37.7834 28.1933L37.7668 28.2264L37.7504 28.243C37.5609 28.5726 37.3973 28.9035 37.2654 29.2441V29.251H37.2736C37.1258 29.5089 36.9944 29.775 36.8878 30.0412V30.0577C35.3591 33.8031 37.134 37.8697 42.1966 40.8387Z" fill="#403568"/>
<path d="M52.6573 116.213C55.372 114.664 57.053 111.37 57.0671 106.69C57.0938 97.2725 50.3499 85.8035 42.0035 81.0708C40.2281 80.0641 38.5238 79.4477 36.9395 79.1843C34.7737 78.8258 32.8318 79.1292 31.2447 80.0352L28.4869 81.6086L26.1719 82.9297C26.1817 82.9242 26.1922 82.92 26.2023 82.9145C26.2841 82.8676 26.3692 82.8276 26.4528 82.7849C26.5445 82.7366 26.6348 82.6883 26.7289 82.6442C26.8168 82.6042 26.9081 82.5684 26.9981 82.5325C27.0915 82.4925 27.1835 82.4525 27.2785 82.4167C27.3726 82.3822 27.4698 82.3546 27.5657 82.3229C27.6607 82.2926 27.7543 82.2595 27.8517 82.2319C27.9522 82.2043 28.0559 82.1823 28.1581 82.1588C28.2539 82.1354 28.3484 82.1106 28.4459 82.0913C28.5533 82.0692 28.6637 82.0554 28.7732 82.0375C28.8692 82.0223 28.9638 82.0044 29.0614 81.9933C29.1766 81.9795 29.2954 81.9713 29.4127 81.963C29.5072 81.9547 29.6001 81.9437 29.6959 81.9396C29.8191 81.9327 29.9458 81.9354 30.0712 81.934C30.1644 81.9327 30.256 81.9285 30.3501 81.9299C30.4807 81.934 30.6143 81.9437 30.747 81.952C30.8388 81.9575 30.9293 81.9589 31.022 81.9671C31.1625 81.9796 31.3059 82.0002 31.4486 82.0182C31.5361 82.0292 31.6223 82.0361 31.7105 82.0499C31.8628 82.0733 32.0178 82.105 32.1724 82.134C32.2539 82.1505 32.3337 82.1616 32.4155 82.1795C32.581 82.2154 32.7496 82.2595 32.918 82.3022C32.9905 82.3202 33.062 82.3353 33.1353 82.356C33.3131 82.4043 33.4938 82.4622 33.6744 82.5201C33.7399 82.5408 33.8041 82.5573 33.8698 82.5794C34.0649 82.6456 34.2618 82.7187 34.4594 82.7945C34.512 82.8138 34.5644 82.8318 34.6174 82.8524C34.8287 82.9352 35.0419 83.0276 35.2559 83.1213C35.2967 83.1393 35.3368 83.1545 35.3774 83.1738C35.617 83.2813 35.8583 83.3985 36.1007 83.5213C36.1168 83.5281 36.1328 83.535 36.1493 83.5433C36.4085 83.6757 36.6693 83.8164 36.9321 83.9653C45.2776 88.6966 52.0225 100.167 51.9944 109.584C51.993 110.151 51.9663 110.696 51.9158 111.221C51.9144 111.238 51.9143 111.257 51.9129 111.275C51.8905 111.501 51.861 111.72 51.8301 111.939C51.8245 111.982 51.8203 112.028 51.8146 112.07C51.7851 112.269 51.7486 112.461 51.7121 112.651C51.7009 112.712 51.6925 112.774 51.6798 112.833C51.6433 113.011 51.6012 113.182 51.559 113.354C51.5422 113.423 51.5281 113.494 51.5113 113.561C51.4692 113.72 51.42 113.874 51.3737 114.027C51.3498 114.103 51.3301 114.18 51.3062 114.253C51.2585 114.395 51.2065 114.532 51.156 114.668C51.1265 114.748 51.0984 114.833 51.0675 114.911C51.0169 115.037 50.9622 115.157 50.9074 115.278C50.8709 115.362 50.8358 115.45 50.7964 115.532C50.7431 115.645 50.6841 115.751 50.6265 115.86C50.5816 115.945 50.5394 116.034 50.4931 116.116C50.4369 116.216 50.3765 116.309 50.3161 116.406C50.2642 116.491 50.2136 116.58 50.1589 116.662C50.0999 116.751 50.0381 116.832 49.9777 116.918C49.9159 117.002 49.8569 117.09 49.7937 117.171C49.7347 117.249 49.6701 117.32 49.6097 117.393C49.5395 117.476 49.4721 117.563 49.4005 117.642C49.3387 117.709 49.2741 117.773 49.2109 117.837C49.1336 117.916 49.0578 117.997 48.9789 118.072C48.915 118.132 48.8473 118.188 48.7816 118.246C48.698 118.319 48.6163 118.393 48.5302 118.463C48.4637 118.516 48.3935 118.564 48.3253 118.615C48.2358 118.681 48.1479 118.75 48.0556 118.812C47.9862 118.861 47.9132 118.902 47.8417 118.947C47.7566 119 47.6731 119.058 47.5854 119.107L52.6573 116.213Z" fill="#403568"/>
<path d="M33.0234 86.6073C33.0289 86.6059 33.0341 86.6045 33.0396 86.6045C33.3322 86.6514 33.6326 86.7176 33.9372 86.7962C33.9995 86.8113 34.0638 86.8334 34.1263 86.8513C34.3108 86.9024 34.4942 86.9506 34.681 87.0141C34.7279 87.0306 34.7771 87.0554 34.8243 87.072C35.022 87.1409 35.2235 87.2264 35.4248 87.3106C35.5807 87.3754 35.7352 87.4333 35.8932 87.505C36.1169 87.6084 36.3454 87.7311 36.5732 87.8511C36.7073 87.9214 36.8369 87.978 36.9731 88.0538C37.3557 88.2703 37.7326 88.5103 38.1062 88.764C38.1986 88.8274 38.2879 88.8978 38.3796 88.9612C38.6475 89.1515 38.9136 89.3446 39.1761 89.5514C39.3179 89.6631 39.4562 89.7817 39.5965 89.8989C39.8041 90.0727 40.0111 90.2464 40.2146 90.4298C40.3663 90.5663 40.5147 90.7084 40.6639 90.8504C40.7734 90.9538 40.8862 91.0517 40.9945 91.1579C41.0601 91.2241 41.1209 91.2958 41.1859 91.362C41.4127 91.5923 41.6339 91.8295 41.853 92.0708C41.9845 92.2156 42.1166 92.359 42.2447 92.5079C42.5431 92.8527 42.8316 93.2071 43.1134 93.5698C43.1337 93.5974 43.1564 93.6208 43.1764 93.647C43.1823 93.6553 43.1873 93.6635 43.1932 93.6704C43.4645 94.0235 43.7251 94.3848 43.9801 94.7529C44.0131 94.8012 44.0481 94.8481 44.0812 94.8964C44.3242 95.2521 44.5562 95.6148 44.7821 95.9816C44.8226 96.0478 44.8647 96.1113 44.9045 96.1774C45.1193 96.5332 45.3228 96.8931 45.5209 97.2572C45.5654 97.3399 45.6116 97.4199 45.655 97.5013C45.8435 97.8557 46.0201 98.2142 46.1919 98.5755C46.2363 98.6693 46.2832 98.763 46.3263 98.8568C46.4906 99.2126 46.6428 99.5711 46.7895 99.931C46.8302 100.032 46.8732 100.131 46.9126 100.23C47.0546 100.593 47.184 100.954 47.3074 101.318C47.3405 101.418 47.3762 101.515 47.4084 101.613C47.5284 101.983 47.6349 102.353 47.7348 102.722C47.7598 102.815 47.7863 102.906 47.8099 102.998C47.9068 103.376 47.9895 103.752 48.0639 104.129C48.0749 104.184 48.0905 104.238 48.1007 104.293C48.1094 104.337 48.1149 104.381 48.1231 104.424C48.1596 104.625 48.1953 104.826 48.2249 105.026C48.2739 105.349 48.3139 105.67 48.3444 105.99C48.3584 106.136 48.3676 106.281 48.3775 106.427C48.399 106.74 48.4131 107.052 48.4166 107.358C48.4171 107.413 48.4237 107.471 48.4237 107.527C48.4135 112.262 46.1507 115.119 42.8055 115.483H42.7952C41.0737 115.671 39.0566 115.202 36.8998 113.982C30.549 110.385 25.4198 101.666 25.4419 94.502C25.4616 88.9074 28.6122 85.926 33.0234 86.6073ZM36.0291 117.593C36.2958 117.76 36.5636 117.92 36.8337 118.073C41.1664 120.53 45.0768 120.682 47.8418 118.947C47.9133 118.902 47.9863 118.86 48.0557 118.812C48.1479 118.75 48.2358 118.681 48.3253 118.615C48.3936 118.564 48.4638 118.516 48.5302 118.463C48.6163 118.393 48.698 118.318 48.7816 118.245C48.8473 118.187 48.915 118.132 48.9789 118.072C49.0578 117.997 49.1337 117.916 49.2109 117.837C49.2741 117.772 49.3387 117.709 49.4005 117.641C49.4721 117.563 49.5395 117.476 49.6098 117.393C49.6702 117.32 49.7348 117.248 49.7937 117.171C49.8569 117.09 49.9159 117.002 49.9777 116.917C50.0381 116.832 50.0999 116.751 50.1589 116.662C50.2137 116.58 50.2642 116.491 50.3162 116.406C50.3766 116.309 50.437 116.216 50.4931 116.116C50.5395 116.033 50.5816 115.945 50.6266 115.86C50.6841 115.751 50.7431 115.645 50.7965 115.532C50.8358 115.45 50.8709 115.362 50.9074 115.278C50.9622 115.156 51.017 115.036 51.0675 114.911C51.0984 114.832 51.1265 114.748 51.156 114.668C51.2066 114.532 51.2585 114.395 51.3063 114.253C51.3301 114.18 51.3498 114.103 51.3737 114.027C51.42 113.874 51.4692 113.72 51.5113 113.561C51.5282 113.493 51.5422 113.423 51.5591 113.354C51.6012 113.182 51.6433 113.011 51.6799 112.833C51.6925 112.774 51.7009 112.712 51.7121 112.651C51.7487 112.461 51.7852 112.269 51.8147 112.07C51.8203 112.028 51.8245 111.982 51.8301 111.939C51.861 111.72 51.8905 111.501 51.913 111.275C51.9144 111.257 51.9144 111.237 51.9158 111.221C51.9663 110.695 51.993 110.151 51.9944 109.584C52.0225 100.167 45.2776 88.6964 36.9321 83.9651C36.6694 83.8162 36.4086 83.6755 36.1493 83.5432C36.1329 83.5349 36.1169 83.528 36.1007 83.5211C35.8583 83.3983 35.617 83.2811 35.3774 83.1736C35.3369 83.1543 35.2967 83.1391 35.256 83.1212C35.0419 83.0274 34.8287 82.935 34.6174 82.8523C34.5644 82.8316 34.5121 82.8137 34.4594 82.7944C34.2618 82.7185 34.0649 82.6454 33.8698 82.5792C33.8041 82.5572 33.7399 82.5406 33.6745 82.5199C33.4939 82.462 33.3131 82.4041 33.1353 82.3558C33.062 82.3351 32.9905 82.32 32.9181 82.3021C32.7497 82.2593 32.581 82.2152 32.4156 82.1793C32.3337 82.1614 32.2539 82.1504 32.1725 82.1338C32.0178 82.1049 31.8628 82.0732 31.7106 82.0497C31.6224 82.0359 31.5361 82.029 31.4486 82.018C31.306 82.0001 31.1626 81.9794 31.022 81.967C30.9293 81.9587 30.8389 81.9573 30.747 81.9518C30.6143 81.9435 30.4807 81.9339 30.3501 81.9297C30.256 81.9284 30.1645 81.9325 30.0712 81.9339C29.9458 81.9352 29.8191 81.9325 29.696 81.9394C29.6002 81.9435 29.5072 81.9545 29.4127 81.9628C29.2954 81.9711 29.1766 81.9794 29.0615 81.9932C28.9639 82.0042 28.8692 82.0221 28.7733 82.0373C28.6637 82.0552 28.5533 82.069 28.4459 82.0911C28.3484 82.1104 28.2539 82.1352 28.1581 82.1586C28.0559 82.1821 27.9523 82.2041 27.8517 82.2317C27.7544 82.2593 27.6607 82.2924 27.5658 82.3227C27.4699 82.3545 27.3727 82.382 27.2786 82.4165C27.1835 82.4524 27.0915 82.4924 26.9981 82.5324C26.9081 82.5682 26.8168 82.6041 26.7289 82.644C26.6348 82.6882 26.5445 82.7364 26.4528 82.7847C26.3692 82.8275 26.2841 82.8674 26.2024 82.9143C25.7901 83.146 25.4041 83.4232 25.0415 83.7348C23.0022 85.4861 21.7767 88.4606 21.7655 92.4459C21.7545 96.1719 22.8054 100.216 24.5929 104.04C25.5116 106.005 26.6241 107.911 27.8902 109.685C30.1889 112.905 32.9877 115.689 36.0291 117.593Z" fill="#5B4B97"/>
<path d="M25.4423 94.5019C25.4621 88.9076 28.6123 85.9262 33.0234 86.6073C33.0289 86.606 33.0345 86.6044 33.04 86.6044C33.3326 86.6513 33.633 86.7173 33.9374 86.7958C33.9995 86.811 34.0636 86.8336 34.1259 86.8515C34.2184 86.877 34.3108 86.9022 34.4033 86.9286L34.6806 87.0146L34.8242 87.0722C35.0219 87.1411 35.2236 87.2264 35.4248 87.3105C35.5806 87.3753 35.7355 87.4331 35.8935 87.5048C36.1172 87.6082 36.3454 87.7315 36.5732 87.8515C36.7073 87.9218 36.8374 87.9778 36.9736 88.0536C37.3561 88.2701 37.7329 88.5109 38.1064 88.7646C38.1987 88.828 38.2882 88.8985 38.3798 88.9618C38.6475 89.152 38.9134 89.345 39.1757 89.5517C39.3176 89.6634 39.4563 89.7821 39.5966 89.8993C39.8041 90.073 40.0114 90.2463 40.2148 90.4296C40.3665 90.5661 40.5149 90.7085 40.664 90.8505C40.7735 90.9539 40.8859 91.052 40.9941 91.1581L41.1855 91.3622C41.4123 91.5925 41.6344 91.8299 41.8535 92.0712C41.9848 92.2159 42.1171 92.3589 42.2451 92.5077C42.5435 92.8525 42.8314 93.2076 43.1132 93.5702L43.1767 93.6474L43.1933 93.6708C43.4646 94.0238 43.7254 94.3847 43.9804 94.7529C44.0134 94.8011 44.0479 94.8482 44.081 94.8964C44.3239 95.2521 44.5563 95.6146 44.7822 95.9814C44.8226 96.0476 44.8645 96.1115 44.9042 96.1777C45.1191 96.5334 45.3224 96.8937 45.5205 97.2577C45.5649 97.3403 45.6119 97.4197 45.6552 97.5009C45.8437 97.8553 46.0206 98.2148 46.1923 98.5761C46.2366 98.6697 46.2831 98.7638 46.3261 98.8574C46.4904 99.213 46.6424 99.5717 46.789 99.9316C46.8297 100.032 46.8736 100.131 46.913 100.23C47.055 100.593 47.1841 100.954 47.3076 101.318C47.3407 101.417 47.376 101.515 47.4082 101.613C47.5282 101.983 47.6345 102.353 47.7343 102.723C47.7593 102.815 47.786 102.906 47.8095 102.998C47.9064 103.376 47.99 103.752 48.0644 104.129C48.0754 104.184 48.0903 104.238 48.1005 104.293C48.1092 104.337 48.1149 104.381 48.123 104.424C48.1595 104.625 48.1949 104.826 48.2246 105.026C48.2736 105.349 48.3142 105.67 48.3447 105.99C48.3587 106.136 48.3679 106.281 48.3779 106.428C48.3994 106.741 48.4134 107.052 48.4169 107.358C48.4175 107.413 48.4237 107.471 48.4238 107.526C48.4174 110.469 47.541 112.686 46.0761 114.03L46.2656 113.849C46.1236 113.991 45.9761 114.126 45.8222 114.251C45.7952 114.273 45.7666 114.293 45.7392 114.314C44.9093 114.964 43.9179 115.362 42.8056 115.483H42.7949C41.0735 115.671 39.0569 115.202 36.9003 113.981C30.5495 110.385 25.4203 101.666 25.4423 94.5019Z" fill="url(#paint5_linear_128_351)"/>
<path d="M110.174 203.97L110.176 203.969C110.176 203.967 110.174 203.964 110.174 203.962C110.174 203.965 110.174 203.967 110.174 203.97Z" fill="#3A2F62"/>
<path d="M92.5717 146.151C90.9117 144.719 89.7699 143.943 89.5228 143.776L86.5707 145.46L84.6973 146.53C84.7843 146.588 84.9894 146.728 85.2773 146.937C85.304 146.956 85.3391 146.981 85.3672 147.003C85.4556 147.065 85.5399 147.127 85.6424 147.204C85.7843 147.31 85.9444 147.433 86.1157 147.564C86.134 147.579 86.1536 147.593 86.1733 147.61C86.7463 148.055 87.4583 148.64 88.2785 149.368C88.2897 149.378 88.3024 149.389 88.3136 149.4C88.5734 149.631 88.843 149.877 89.1225 150.139C89.1464 150.159 89.1689 150.18 89.1913 150.202C89.7573 150.732 90.357 151.319 90.989 151.97C91.0845 152.068 91.1814 152.17 91.2783 152.272C91.4833 152.487 91.6926 152.709 91.9018 152.937C92.0282 153.073 92.1546 153.208 92.2824 153.35C92.4818 153.57 92.6827 153.797 92.8863 154.029C92.986 154.142 93.0843 154.251 93.1854 154.367C93.2866 154.483 93.3877 154.605 93.4888 154.724C93.7051 154.976 93.9228 155.235 94.1418 155.5C94.25 155.634 94.3595 155.765 94.4691 155.9C94.7808 156.285 95.094 156.681 95.4086 157.092C95.4788 157.18 95.5476 157.274 95.6179 157.365C95.9353 157.782 96.2541 158.211 96.5743 158.655C96.6038 158.697 96.6332 158.735 96.6641 158.775C97.018 159.27 97.3734 159.785 97.7301 160.312C97.7764 160.38 97.8228 160.451 97.8691 160.52C98.6036 161.617 99.3339 162.784 100.054 164.024C100.078 164.065 100.102 164.105 100.126 164.146C100.491 164.779 100.855 165.432 101.213 166.102C101.221 166.117 101.228 166.131 101.235 166.146C101.962 167.504 102.668 168.941 103.346 170.455C103.367 170.504 103.388 170.551 103.409 170.599C104.077 172.099 104.716 173.677 105.317 175.334C105.335 175.385 105.355 175.435 105.373 175.486C105.672 176.319 105.963 177.171 106.241 178.044C106.248 178.063 106.253 178.084 106.26 178.103C106.544 178.991 106.815 179.9 107.075 180.831C107.075 180.831 107.075 180.832 107.075 180.834C107.328 181.741 107.568 182.67 107.794 183.619C107.814 183.703 107.835 183.789 107.854 183.874C108.3 185.758 108.69 187.72 109.019 189.765C109.034 189.862 109.05 189.96 109.066 190.059C109.226 191.082 109.373 192.125 109.502 193.191C109.507 193.236 109.512 193.283 109.517 193.329C109.644 194.396 109.755 195.483 109.846 196.591C109.85 196.631 109.853 196.67 109.857 196.71C109.947 197.819 110.017 198.948 110.069 200.098C110.075 200.214 110.079 200.331 110.085 200.447C110.134 201.601 110.169 202.771 110.177 203.968L115 201.216C114.767 168.78 99.3185 151.969 92.5717 146.151Z" fill="#3A2F62"/>
<path d="M93.1854 154.367C93.0843 154.251 92.986 154.142 92.8863 154.029C92.6827 153.797 92.4818 153.57 92.2824 153.35C92.1546 153.208 92.0282 153.073 91.9018 152.937C91.6926 152.709 91.4833 152.487 91.2783 152.272C91.1813 152.17 91.0845 152.068 90.989 151.97C90.357 151.319 89.7573 150.732 89.1913 150.202C89.1689 150.18 89.1464 150.159 89.1225 150.139C88.843 149.877 88.5734 149.631 88.3136 149.399C88.3023 149.388 88.2897 149.377 88.2785 149.368C87.4583 148.64 86.7463 148.055 86.1733 147.61C86.1536 147.593 86.1339 147.579 86.1157 147.564C85.9444 147.433 85.7843 147.31 85.6424 147.204C85.5399 147.127 85.4556 147.065 85.3671 147.003C85.3391 146.981 85.3039 146.956 85.2773 146.937C84.9823 146.724 84.7829 146.59 84.6944 146.531L84.6579 159.063L84.6116 174.653L85.3503 175.09L86.662 175.866C87.2013 176.119 87.7321 176.389 88.263 176.694C89.3332 177.296 90.3766 178.005 91.4018 178.787C93.507 170.601 93.7444 162.021 93.1854 154.367Z" fill="#403568"/>
<path d="M4.82578 203.191C4.82578 203.188 4.8261 203.183 4.8261 203.18C4.82497 203.181 4.82254 203.188 4.82141 203.19L4.82578 203.191Z" fill="#3A2F62"/>
<path d="M5.15091 195.841C5.21285 195.091 5.295 194.366 5.37295 193.636C5.41901 193.202 5.45721 192.759 5.50875 192.333C5.58993 191.668 5.68767 191.024 5.78135 190.375C5.8489 189.907 5.90999 189.432 5.984 188.971C6.08287 188.357 6.19621 187.764 6.30589 187.165C6.39254 186.694 6.47344 186.216 6.56655 185.754C6.68213 185.179 6.81035 184.62 6.93562 184.059C7.03899 183.597 7.13856 183.13 7.2481 182.676C7.37941 182.133 7.52111 181.605 7.66099 181.075C7.77938 180.627 7.89511 180.175 8.01926 179.736C8.16531 179.22 8.31966 178.72 8.47316 178.216C8.60461 177.786 8.73423 177.354 8.87046 176.934C9.02986 176.444 9.19586 175.967 9.36172 175.489C9.50469 175.078 9.64709 174.665 9.79455 174.264C9.96519 173.798 10.1413 173.347 10.318 172.893C10.4708 172.502 10.6239 172.11 10.7807 171.727C10.9618 171.286 11.1461 170.855 11.3324 170.429C11.4944 170.054 11.6565 169.682 11.8222 169.316C12.011 168.903 12.2018 168.496 12.3949 168.093C12.5653 167.737 12.7359 167.383 12.9094 167.036C13.1037 166.645 13.2999 166.265 13.4971 165.887C13.6753 165.546 13.8537 165.208 14.0339 164.877C14.232 164.515 14.4308 164.156 14.631 163.805C14.8157 163.479 15.0011 163.159 15.1873 162.843C15.3867 162.506 15.5859 162.175 15.7864 161.848C15.9776 161.537 16.1687 161.231 16.361 160.929C16.5591 160.619 16.7563 160.313 16.9546 160.014C17.1523 159.714 17.3497 159.423 17.5475 159.135C17.6579 158.974 17.7682 158.802 17.8783 158.644C17.9652 158.519 18.0516 158.406 18.1384 158.283C18.3197 158.028 18.5003 157.778 18.6813 157.532C18.8709 157.272 19.0592 157.016 19.2481 156.768C19.4454 156.506 19.6416 156.252 19.838 155.999C20.0083 155.782 20.178 155.565 20.3473 155.354C20.5563 155.093 20.763 154.838 20.9698 154.59C21.1238 154.404 21.2769 154.222 21.4297 154.041C21.644 153.789 21.8557 153.542 22.0665 153.304C22.2087 153.141 22.3488 152.984 22.489 152.828C22.7038 152.588 22.9158 152.353 23.1264 152.127C23.2585 151.985 23.3881 151.847 23.5181 151.709C23.7279 151.489 23.9349 151.271 24.1387 151.063C24.2646 150.933 24.3875 150.812 24.511 150.688C24.7098 150.488 24.9074 150.29 25.0993 150.103C25.2222 149.984 25.3405 149.871 25.4605 149.757C25.644 149.583 25.826 149.409 26.0023 149.245C26.1246 149.132 26.2413 149.027 26.36 148.918C26.5222 148.771 26.684 148.625 26.8386 148.487C26.9644 148.376 27.0826 148.274 27.2035 148.17C27.3391 148.052 27.4761 147.932 27.6047 147.825C27.7353 147.715 27.8554 147.615 27.9783 147.513C28.0839 147.428 28.1926 147.337 28.292 147.255C28.4306 147.144 28.5556 147.046 28.6824 146.945C28.7525 146.89 28.827 146.831 28.8934 146.78C29.0392 146.666 29.1692 146.567 29.295 146.473C29.3303 146.446 29.3703 146.416 29.4039 146.391C29.541 146.289 29.6605 146.202 29.7696 146.123C29.7845 146.113 29.8034 146.098 29.8178 146.089C29.9044 146.027 29.9714 145.98 30.0377 145.933C30.1558 145.851 30.2526 145.784 30.3027 145.751L27.6631 144.245L25.478 142.997C25.3346 143.095 24.8865 143.4 24.2249 143.907C19.0696 147.851 0.256584 164.618 0 200.439L4.82116 203.19C4.83759 200.971 4.93955 198.842 5.09038 196.769C5.11271 196.462 5.12549 196.145 5.15091 195.841Z" fill="#3A2F62"/>
<path d="M17.8783 158.644C17.7682 158.802 17.6579 158.974 17.5475 159.135C17.3497 159.423 17.1523 159.714 16.9546 160.014C16.7563 160.313 16.5591 160.619 16.361 160.929C16.1687 161.231 15.9776 161.537 15.7864 161.848C15.5859 162.175 15.3867 162.506 15.1873 162.843C15.0011 163.159 14.8157 163.479 14.631 163.805C14.4308 164.156 14.232 164.515 14.0339 164.877C13.8537 165.208 13.6753 165.546 13.4971 165.887C13.2999 166.265 13.1037 166.645 12.9094 167.036C12.7359 167.383 12.5653 167.737 12.3949 168.093C12.2018 168.496 12.011 168.903 11.8222 169.316C11.6565 169.682 11.4944 170.054 11.3324 170.429C11.1462 170.855 10.9618 171.286 10.7807 171.727C10.6239 172.11 10.4708 172.502 10.318 172.893C10.1413 173.347 9.9652 173.798 9.79456 174.264C9.6471 174.665 9.5047 175.078 9.36173 175.489C9.19587 175.967 9.02987 176.444 8.87047 176.934C8.73424 177.354 8.60462 177.786 8.47316 178.216C8.31966 178.72 8.16532 179.22 8.01927 179.736C7.89512 180.175 7.77939 180.627 7.661 181.075C7.52112 181.605 7.37942 182.133 7.24811 182.676C7.13857 183.13 7.03899 183.597 6.93563 184.059C6.81036 184.62 6.68214 185.179 6.56656 185.754C6.47345 186.216 6.39255 186.694 6.3059 187.165C6.19622 187.764 6.08288 188.357 5.98401 188.971C5.91 189.432 5.84891 189.907 5.78136 190.375C5.68768 191.024 5.58993 191.668 5.50876 192.333C5.45722 192.759 5.41902 193.202 5.37296 193.636C5.29501 194.366 5.21285 195.091 5.15092 195.841C5.1255 196.145 5.11272 196.462 5.09039 196.769C4.93956 198.842 4.8376 200.971 4.82117 203.19H4.82145C4.82243 203.188 4.82454 203.183 4.82552 203.182C5.21777 202.372 10.3971 191.701 17.8606 183.397C18.9128 175.138 18.5927 166.208 17.8783 158.644Z" fill="#403568"/>
<path d="M30.347 160.13L30.3046 145.751C30.2546 145.783 30.1564 145.852 30.0376 145.933C29.9713 145.98 29.9043 146.027 29.8177 146.089C29.8033 146.098 29.7844 146.114 29.7695 146.123C29.6604 146.202 29.5409 146.289 29.4038 146.391C29.3702 146.416 29.3302 146.446 29.2949 146.473C29.1691 146.567 29.0391 146.667 28.8933 146.78C28.8269 146.831 28.7524 146.89 28.6823 146.945C28.5555 147.046 28.4305 147.144 28.2919 147.255C28.1925 147.337 28.0838 147.428 27.9782 147.513C27.8553 147.615 27.7352 147.715 27.6046 147.825C27.476 147.932 27.339 148.052 27.2034 148.17C27.0825 148.274 26.9643 148.376 26.8385 148.487C26.6839 148.625 26.5221 148.771 26.3599 148.918C26.2412 149.027 26.1245 149.132 26.0022 149.245C25.8259 149.409 25.6439 149.583 25.4604 149.757C25.3404 149.871 25.2221 149.984 25.0992 150.103C24.9073 150.29 24.7097 150.488 24.5109 150.688C24.3874 150.812 24.2645 150.933 24.1386 151.063C23.9348 151.271 23.7278 151.489 23.5179 151.709C23.388 151.847 23.2584 151.985 23.1263 152.127C22.9157 152.353 22.7037 152.588 22.4889 152.828C22.3486 152.984 22.2086 153.141 22.0664 153.304C21.8556 153.542 21.6439 153.789 21.4296 154.041C21.2768 154.222 21.1237 154.404 20.9697 154.59C20.7629 154.838 20.5562 155.093 20.3472 155.354C20.1779 155.565 20.0082 155.782 19.8379 155.999C19.6415 156.252 19.4453 156.506 19.248 156.768C19.0591 157.016 18.8708 157.272 18.6812 157.532C18.5002 157.778 18.3196 158.028 18.1383 158.283C18.0515 158.406 17.9651 158.519 17.8782 158.644C18.5926 166.208 18.9126 175.138 17.8605 183.397C20.5507 180.397 23.5519 177.709 26.7274 175.912C27.2576 175.616 27.7974 175.337 28.3374 175.094L30.0867 174.052L30.3873 173.873L30.347 160.13Z" fill="#6A56AE"/>
<path d="M110.069 200.098C110.017 198.948 109.947 197.819 109.857 196.71C109.853 196.67 109.85 196.631 109.846 196.591C109.755 195.483 109.644 194.396 109.517 193.329C109.512 193.283 109.507 193.236 109.502 193.191C109.373 192.125 109.226 191.082 109.066 190.059C109.05 189.96 109.034 189.862 109.019 189.765C108.69 187.72 108.3 185.758 107.854 183.874C107.835 183.789 107.814 183.703 107.794 183.619C107.568 182.67 107.328 181.741 107.075 180.834C107.075 180.832 107.075 180.831 107.075 180.831C106.815 179.9 106.544 178.991 106.26 178.103C106.253 178.084 106.248 178.063 106.241 178.044C105.963 177.171 105.672 176.319 105.373 175.486C105.355 175.435 105.335 175.385 105.317 175.334C104.716 173.677 104.077 172.099 103.409 170.599C103.388 170.551 103.367 170.504 103.346 170.455C102.668 168.941 101.962 167.504 101.235 166.146C101.228 166.131 101.221 166.117 101.213 166.102C100.855 165.432 100.491 164.779 100.126 164.147C100.102 164.105 100.078 164.065 100.054 164.024C99.3339 162.784 98.6036 161.617 97.8691 160.52C97.8228 160.451 97.7764 160.38 97.7301 160.312C97.3734 159.785 97.018 159.27 96.6641 158.775C96.6332 158.735 96.6038 158.697 96.5743 158.655C96.2541 158.211 95.9353 157.782 95.6179 157.365C95.5476 157.274 95.4788 157.18 95.4086 157.092C95.094 156.681 94.7808 156.285 94.4691 155.9C94.3595 155.765 94.25 155.634 94.1418 155.5C93.9228 155.235 93.7051 154.976 93.4888 154.724C93.3877 154.605 93.2866 154.483 93.1854 154.367C93.7444 162.021 93.507 170.602 91.4019 178.787C101.851 186.796 109.691 202.979 110.174 203.963C110.174 203.965 110.176 203.968 110.176 203.969C110.176 203.969 110.177 203.97 110.177 203.972C110.177 203.97 110.177 203.969 110.177 203.968C110.169 202.771 110.134 201.601 110.085 200.447C110.079 200.331 110.075 200.214 110.069 200.098Z" fill="#6A56AE"/>
<defs>
<filter id="filter0_d_128_351" x="65.5336" y="177.467" width="20.6025" height="24.4335" filterUnits="userSpaceOnUse" color-interpolation-filters="sRGB">
<feFlood flood-opacity="0" result="BackgroundImageFix"/>
<feColorMatrix in="SourceAlpha" type="matrix" values="0 0 0 0 0 0 0 0 0 0 0 0 0 0 0 0 0 0 127 0" result="hardAlpha"/>
<feOffset/>
<feGaussianBlur stdDeviation="5"/>
<feComposite in2="hardAlpha" operator="out"/>
<feColorMatrix type="matrix" values="0 0 0 0 0.929412 0 0 0 0 0.556863 0 0 0 0 0.45098 0 0 0 1 0"/>
<feBlend mode="normal" in2="BackgroundImageFix" result="effect1_dropShadow_128_351"/>
<feBlend mode="normal" in="SourceGraphic" in2="effect1_dropShadow_128_351" result="shape"/>
</filter>
<filter id="filter1_d_128_351" x="24.9799" y="175.14" width="66.9709" height="68.8796" filterUnits="userSpaceOnUse" color-interpolation-filters="sRGB">
<feFlood flood-opacity="0" result="BackgroundImageFix"/>
<feColorMatrix in="SourceAlpha" type="matrix" values="0 0 0 0 0 0 0 0 0 0 0 0 0 0 0 0 0 0 127 0" result="hardAlpha"/>
<feOffset/>
<feGaussianBlur stdDeviation="5"/>
<feComposite in2="hardAlpha" operator="out"/>
<feColorMatrix type="matrix" values="0 0 0 0 0.929412 0 0 0 0 0.556863 0 0 0 0 0.45098 0 0 0 1 0"/>
<feBlend mode="normal" in2="BackgroundImageFix" result="effect1_dropShadow_128_351"/>
<feBlend mode="normal" in="SourceGraphic" in2="effect1_dropShadow_128_351" result="shape"/>
</filter>
<filter id="filter2_d_128_351" x="40.722" y="176.845" width="49.3999" height="64.3855" filterUnits="userSpaceOnUse" color-interpolation-filters="sRGB">
<feFlood flood-opacity="0" result="BackgroundImageFix"/>
<feColorMatrix in="SourceAlpha" type="matrix" values="0 0 0 0 0 0 0 0 0 0 0 0 0 0 0 0 0 0 127 0" result="hardAlpha"/>
<feOffset/>
<feGaussianBlur stdDeviation="5"/>
<feComposite in2="hardAlpha" operator="out"/>
<feColorMatrix type="matrix" values="0 0 0 0 0.929412 0 0 0 0 0.556863 0 0 0 0 0.45098 0 0 0 1 0"/>
<feBlend mode="normal" in2="BackgroundImageFix" result="effect1_dropShadow_128_351"/>
<feBlend mode="normal" in="SourceGraphic" in2="effect1_dropShadow_128_351" result="shape"/>
</filter>
<filter id="filter3_d_128_351" x="30.0972" y="177.72" width="55.5825" height="47.8652" filterUnits="userSpaceOnUse" color-interpolation-filters="sRGB">
<feFlood flood-opacity="0" result="BackgroundImageFix"/>
<feColorMatrix in="SourceAlpha" type="matrix" values="0 0 0 0 0 0 0 0 0 0 0 0 0 0 0 0 0 0 127 0" result="hardAlpha"/>
<feOffset/>
<feGaussianBlur stdDeviation="5"/>
<feComposite in2="hardAlpha" operator="out"/>
<feColorMatrix type="matrix" values="0 0 0 0 0.929412 0 0 0 0 0.556863 0 0 0 0 0.45098 0 0 0 1 0"/>
<feBlend mode="normal" in2="BackgroundImageFix" result="effect1_dropShadow_128_351"/>
<feBlend mode="normal" in="SourceGraphic" in2="effect1_dropShadow_128_351" result="shape"/>
</filter>
<filter id="filter4_d_128_351" x="34.8165" y="180.027" width="46.3073" height="34.2615" filterUnits="userSpaceOnUse" color-interpolation-filters="sRGB">
<feFlood flood-opacity="0" result="BackgroundImageFix"/>
<feColorMatrix in="SourceAlpha" type="matrix" values="0 0 0 0 0 0 0 0 0 0 0 0 0 0 0 0 0 0 127 0" result="hardAlpha"/>
<feOffset/>
<feGaussianBlur stdDeviation="5"/>
<feComposite in2="hardAlpha" operator="out"/>
<feColorMatrix type="matrix" values="0 0 0 0 0.929412 0 0 0 0 0.556863 0 0 0 0 0.45098 0 0 0 1 0"/>
<feBlend mode="normal" in2="BackgroundImageFix" result="effect1_dropShadow_128_351"/>
<feBlend mode="normal" in="SourceGraphic" in2="effect1_dropShadow_128_351" result="shape"/>
</filter>
<linearGradient id="paint0_linear_128_351" x1="75.8348" y1="191.9" x2="75.8348" y2="187.467" gradientUnits="userSpaceOnUse">
<stop stop-color="#FFDC57"/>
<stop offset="1" stop-color="#DB408E"/>
</linearGradient>
<linearGradient id="paint1_linear_128_351" x1="58.4653" y1="234.02" x2="58.4653" y2="185.14" gradientUnits="userSpaceOnUse">
<stop stop-color="#FFDC57"/>
<stop offset="1" stop-color="#DB408E"/>
</linearGradient>
<linearGradient id="paint2_linear_128_351" x1="65.422" y1="231.23" x2="65.422" y2="186.845" gradientUnits="userSpaceOnUse">
<stop stop-color="#FFDC57"/>
<stop offset="1" stop-color="#DB408E"/>
</linearGradient>
<linearGradient id="paint3_linear_128_351" x1="57.8884" y1="215.586" x2="57.8884" y2="187.72" gradientUnits="userSpaceOnUse">
<stop stop-color="#FFDC57"/>
<stop offset="1" stop-color="#DB408E"/>
</linearGradient>
<linearGradient id="paint4_linear_128_351" x1="57.9701" y1="204.289" x2="57.9701" y2="190.027" gradientUnits="userSpaceOnUse">
<stop stop-color="#FFDC57"/>
<stop offset="1" stop-color="#DB408E"/>
</linearGradient>
<linearGradient id="paint5_linear_128_351" x1="36.933" y1="86.5115" x2="36.933" y2="115.523" gradientUnits="userSpaceOnUse">
<stop stop-color="#FFDC57"/>
<stop offset="1" stop-color="#DB408E"/>
</linearGradient>
</defs>
</svg>
