<svg width="60" height="60" viewBox="0 0 60 60" fill="none" xmlns="http://www.w3.org/2000/svg">
<path d="M30.0013 0C33.9409 0 37.842 0.775973 41.4818 2.28361C45.1216 3.79126 48.4287 6.00104 51.2145 8.7868C54.0002 11.5726 56.21 14.8797 57.7177 18.5195C59.2253 22.1593 60.0013 26.0603 60.0013 30C60.0013 37.9565 56.8406 45.5871 51.2145 51.2132C45.5884 56.8393 37.9578 60 30.0013 60C26.0616 60 22.1605 59.224 18.5208 57.7164C14.881 56.2087 11.5738 53.999 8.78808 51.2132C3.16199 45.5871 0.00128174 37.9565 0.00128174 30C0.00128174 22.0435 3.16199 14.4129 8.78808 8.7868C14.4142 3.16071 22.0448 0 30.0013 0ZM24.0013 39.99C24.4813 41.61 24.4213 43.11 24.0013 44.49C24.0013 44.64 23.8813 44.79 23.8213 45C23.7613 45 23.7013 45.21 23.6113 45.36C23.2813 46.08 22.8013 46.77 22.2313 47.37C20.4913 49.29 18.0013 50.01 17.0113 49.41C15.8713 48.75 16.5013 46.05 18.4813 43.92C20.6413 41.64 23.7613 40.14 23.7613 40.14L24.0013 39.99ZM48.8113 12.84C47.4613 7.5 38.6113 5.76 30.2713 8.73C25.2913 10.5 19.8913 13.26 16.0213 16.89C11.4313 21.21 10.6813 24.96 10.9813 26.52C12.0013 32.04 19.6213 35.67 22.7413 38.34V38.37C21.8413 38.82 15.1213 42.21 13.5013 45.69C11.8813 49.35 13.8013 51.99 15.0013 52.35C19.0213 53.43 23.0713 51.48 25.2313 48.21C27.3313 45.09 27.1813 41.04 26.2513 39C27.5113 38.7 28.9813 38.55 30.8413 38.76C36.1213 39.39 37.1413 42.66 36.9313 44.04C36.7513 45.42 35.6413 46.17 35.2813 46.41C34.9213 46.62 34.8013 46.71 34.8313 46.89C34.8613 47.13 35.0413 47.13 35.3413 47.07C35.7913 46.98 38.1313 45.96 38.2213 43.41C38.3413 40.17 35.2513 36.57 29.7913 36.66C27.5413 36.72 26.1313 36.93 25.1113 37.32L24.8713 37.05C21.4813 33.45 15.2413 30.9 15.5113 26.04C15.6013 24.27 16.2013 19.65 27.5113 14.01C36.7513 9.39 44.1613 10.65 45.4513 13.5C47.2813 17.49 41.4913 24.96 31.8913 26.04C28.2313 26.46 26.2813 25.02 25.8013 24.51C25.2913 24 25.2313 23.91 25.0513 24C24.7213 24.21 24.9313 24.69 25.0513 24.99C25.3213 25.74 26.5213 27 28.5013 27.72C30.2713 28.29 34.5913 28.62 39.7813 26.61C45.6013 24.36 50.1613 18.09 48.8113 12.84Z" fill="url(#paint0_linear_50_90)"/>
<defs>
<linearGradient id="paint0_linear_50_90" x1="30.0013" y1="0" x2="30.0013" y2="60" gradientUnits="userSpaceOnUse">
<stop stop-color="#FFDC57"/>
<stop offset="1" stop-color="#DB408E"/>
</linearGradient>
</defs>
</svg>
