<svg width="212" height="164" viewBox="0 0 212 164" fill="none" xmlns="http://www.w3.org/2000/svg">
<path d="M127.298 53.6103L135.798 46.3489L129.29 46.9376L119.58 52.6245L121.407 54.1295L127.298 53.6103Z" fill="#3F3565"/>
<path d="M140.114 88.6677L149.826 82.9836L153.583 77.566L143.058 81.9784L140.114 88.6677Z" fill="#31294F"/>
<path d="M145.924 72.5565L153.582 68.7689V77.5659L143.871 83.25L143.169 74.0782L145.924 72.5565Z" fill="#271F44"/>
<path d="M148.225 58.9224L149.826 58.9557L153.583 68.769L143.871 74.4531L139.519 64.6371L148.225 58.9224Z" fill="#2E284F"/>
<path d="M134.216 54.9822L143.315 50.7476L149.826 58.9559L140.114 64.6372L132.568 56.4317L134.216 54.9822Z" fill="#3F3565"/>
<path d="M126.087 52.0301L135.798 46.3488L143.315 50.7473L133.605 56.4314L127.738 55.8899L126.087 52.0301Z" fill="#483C74"/>
<path d="M140.114 64.6372L133.605 56.4317L126.087 52.0305L119.58 52.6247L115.819 58.0395V66.8365L119.58 76.6525L126.087 84.8552L133.605 89.2565L140.114 88.6678L143.871 83.2502V74.4533L140.114 64.6372Z" fill="#2E284F"/>
<path d="M17.188 12.8219L18.3708 10.9726L6.46301 3.99995L5.36377 4.64141L5.41829 5.58272L17.188 12.8219Z" fill="#5B4B97"/>
<path d="M18.425 13.1049L19.7372 13.3659V50.0588L18.639 50.6975L17.8417 49.3424L17.374 13.1049H18.425Z" fill="#5B4B97"/>
<path d="M18.3707 10.9726L17.2756 11.6113L17.1183 13.4578L18.6392 14.0021L19.7373 13.3662L18.3707 10.9726Z" fill="#5B4B97"/>
<g filter="url(#filter0_d_128_314)">
<path d="M17.2755 51.4944L18.6392 50.6975V14.0018L17.2755 11.611L5.36364 4.64117L4 5.43808V42.131L5.36364 44.5273L17.2755 51.4944Z" fill="url(#paint0_linear_128_314)"/>
</g>
<path d="M32.6754 21.8798L33.8593 20.0304L21.9472 13.0634L20.8534 13.702L20.9079 14.6489L32.6754 21.8798Z" fill="#5B4B97"/>
<path d="M33.915 22.1657L35.2228 22.4267V59.1195L34.1279 59.761L33.3273 58.4031L32.8629 22.1657H33.915Z" fill="#5B4B97"/>
<path d="M33.8595 20.0303L32.7658 20.6746L32.6063 22.5211L34.1281 23.0682L35.2229 22.4268L33.8595 20.0303Z" fill="#5B4B97"/>
<path d="M32.7657 60.5581L34.128 59.7612V23.0683L32.7657 20.6747L20.8535 13.7021L19.4899 14.5018V51.1947L20.8535 53.5883L32.7657 60.5581Z" fill="url(#paint1_linear_128_314)"/>
<path d="M48.1615 30.9459L49.3452 29.0938L37.4363 22.124L36.3414 22.7654L36.394 23.7095L48.1615 30.9459Z" fill="#5B4B97"/>
<path d="M49.4028 31.2291L50.7108 31.4874V68.183L49.617 68.8245L48.8154 67.4638L48.3488 31.2291H49.4028Z" fill="#5B4B97"/>
<path d="M49.3449 29.0937L48.25 29.7351L48.0917 31.5845L49.617 32.1288L50.7107 31.4873L49.3449 29.0937Z" fill="#5B4B97"/>
<path d="M48.2503 69.6216L49.6172 68.8246V32.129L48.2503 29.7354L36.3414 22.7656L34.9758 23.5653V60.2609L36.3414 62.6546L48.2503 69.6216Z" fill="url(#paint2_linear_128_314)"/>
<path d="M63.6502 40.0096L64.833 38.1603L52.9241 31.1878L51.827 31.8292L51.8816 32.7705L63.6502 40.0096Z" fill="#5B4B97"/>
<path d="M64.8887 40.2929L66.1964 40.554V77.2468L65.1016 77.8855L64.3053 76.5276L63.8365 40.2929H64.8887Z" fill="#5B4B97"/>
<path d="M64.833 38.1598L63.7389 38.7958L63.5795 40.6451L65.1015 41.1893L66.1963 40.5535L64.833 38.1598Z" fill="#5B4B97"/>
<path d="M63.7389 78.6821L65.1015 77.8852V41.1895L63.7389 38.7959L51.827 31.8289L50.4634 32.6259V69.3187L51.827 71.7151L63.7389 78.6821Z" fill="url(#paint3_linear_128_314)"/>
<path d="M79.1358 49.0673L80.3216 47.2179L68.4083 40.2509L67.3146 40.8896L67.3691 41.8309L79.1358 49.0673Z" fill="#5B4B97"/>
<path d="M80.3776 49.3537L81.6845 49.6147V86.3075L80.5904 86.949L79.7901 85.5911L79.3254 49.3537H80.3776Z" fill="#5B4B97"/>
<path d="M80.3217 47.2182L79.2236 47.8596L79.0696 49.709L80.5902 50.256L81.6842 49.6145L80.3217 47.2182Z" fill="#5B4B97"/>
<path d="M79.2237 87.7458L80.5903 86.9489V50.256L79.2237 47.8596L67.3148 40.8899L65.9514 41.6895V78.3824L67.3148 80.776L79.2237 87.7458Z" fill="url(#paint4_linear_128_314)"/>
<path d="M81.6845 79.4958L80.5905 80.1345L85.836 80.054L88.0194 80.7177L89.1142 80.079V73.6923L92.1484 76.3192L93.2421 75.6749V73.7673L89.1142 71.3487V64.5344L81.6845 54.5101L80.5905 55.1543L81.3428 57.2702L87.2582 65.0009L87.4777 78.4573L81.6845 79.4958Z" fill="#483C74"/>
<path d="M80.5905 80.1345V82.0477L88.0194 80.7176V73.9033L92.1484 76.3192V74.4059L88.0194 71.9901V65.1758L80.5905 55.1543V57.0647L86.3828 64.8814V79.1015L80.5905 80.1345Z" fill="#403568"/>
<path d="M99.1328 93.9992L99.5641 108.478L102.97 111.701L145.068 87.071V72.2317L99.1328 93.9992Z" fill="#4F4280"/>
<path d="M96.3394 76.4719L136.101 56.4899L145.068 72.2317L102.97 96.8649L90.7546 81.1231L96.3394 76.4719Z" fill="#5D4C98"/>
<path d="M110.98 75.3668L100.065 81.7535L102.392 85.8326L113.304 79.4487L110.98 75.3668Z" fill="#4F4280"/>
<path d="M103.826 88.3511L105.259 90.8669L111.986 86.9294L110.556 84.4108L103.826 88.3511Z" fill="#4F4280"/>
<path d="M123.419 49.0731L81.3246 73.7062L83.342 80.9342L94.0031 81.123L136.101 56.4899L123.419 49.0731Z" fill="#5B4B97"/>
<path d="M94.003 81.1233L81.3244 73.7065L72.3579 78.9519V93.7912L81.3244 109.53L94.0008 116.95L102.97 111.702V96.8651L94.003 81.1233Z" fill="#3F3565"/>
<path d="M135.408 87.8623V85.9519L127.983 87.2792L126.889 87.9207L127.983 88.9786V94.0935L123.853 91.6777L122.759 92.3219L123.853 94.274L127.983 96.6871V103.996L133.25 111.163L134.313 113.487L135.408 112.845V110.932L129.615 103.115V88.8981L135.408 87.8623Z" fill="#483C74"/>
<path d="M134.313 88.5038V86.5906L126.889 87.9207V94.7377L122.759 92.3219V94.2296L126.889 96.6482V103.463L134.313 113.487V111.574L128.521 103.757V89.5396L134.313 88.5038Z" fill="#403568"/>
<path d="M147.5 89.073L148.686 87.2209L136.774 80.2511L135.679 80.8925L135.732 81.8366L147.5 89.073Z" fill="#5B4B97"/>
<path d="M148.741 89.3565L150.049 89.6175V126.31L148.955 126.952L148.154 125.594L147.687 89.3565H148.741Z" fill="#5B4B97"/>
<path d="M148.686 87.221L147.589 87.8624L147.432 89.7118L148.955 90.2588L150.049 89.6174L148.686 87.221Z" fill="#5B4B97"/>
<path d="M147.589 127.746L148.955 126.952V90.2588L147.589 87.8624L135.679 80.8926L134.314 81.6896V118.385L135.679 120.782L147.589 127.746Z" fill="url(#paint5_linear_128_314)"/>
<path d="M162.989 98.1342L164.17 96.2848L152.262 89.315L151.165 89.9564L151.219 90.8978L162.989 98.1342Z" fill="#5B4B97"/>
<path d="M164.226 98.4202L165.534 98.6812V135.371L164.44 136.013L163.643 134.658L163.174 98.4202H164.226Z" fill="#5B4B97"/>
<path d="M164.171 96.2845L163.077 96.9232L162.917 98.7726L164.441 99.3196L165.534 98.6809L164.171 96.2845Z" fill="#5B4B97"/>
<path d="M163.077 136.812L164.441 136.012V99.3193L163.077 96.9229L151.165 89.9559L149.801 90.7556V127.448L151.165 129.842L163.077 136.812Z" fill="url(#paint6_linear_128_314)"/>
<path d="M178.474 107.197L179.66 105.345L167.748 98.3754L166.653 99.0197L166.71 99.9638L178.474 107.197Z" fill="#5B4B97"/>
<path d="M179.715 107.483L181.024 107.742V144.437L179.929 145.076L179.131 143.718L178.664 107.483H179.715Z" fill="#5B4B97"/>
<path d="M179.659 105.345L178.563 105.987L178.407 107.836L179.929 108.383L181.024 107.742L179.659 105.345Z" fill="#5B4B97"/>
<path d="M178.563 145.875L179.929 145.076V108.383L178.563 105.986L166.653 99.0194L165.289 99.8163V136.509L166.653 138.903L178.563 145.875Z" fill="url(#paint7_linear_128_314)"/>
<path d="M193.963 116.261L195.146 114.409L183.236 107.442L182.142 108.08L182.194 109.024L193.963 116.261Z" fill="#5B4B97"/>
<path d="M195.201 116.542L196.512 116.803V153.498L195.415 154.14L194.617 152.779L194.149 116.542H195.201Z" fill="#5B4B97"/>
<path d="M195.146 114.409L194.051 115.05L193.895 116.9L195.415 117.444L196.512 116.803L195.146 114.409Z" fill="#5B4B97"/>
<path d="M194.051 154.934L195.415 154.139V117.444L194.051 115.05L182.143 108.08L180.775 108.877V145.573L182.143 147.969L194.051 154.934Z" fill="url(#paint8_linear_128_314)"/>
<path d="M209.451 125.321L210.634 123.469L198.724 116.502L197.627 117.144L197.683 118.085L209.451 125.321Z" fill="#5B4B97"/>
<path d="M210.689 125.605L212 125.869V162.559L210.903 163.2L210.106 161.845L209.638 125.605H210.689Z" fill="#5B4B97"/>
<path d="M210.634 123.47L209.539 124.111L209.381 125.961L210.903 126.505L212 125.869L210.634 123.47Z" fill="#5B4B97"/>
<path d="M209.539 164L210.903 163.2V126.505L209.539 124.111L197.628 117.144L196.265 117.938V154.634L197.628 157.03L209.539 164Z" fill="url(#paint9_linear_128_314)"/>
<path d="M91.9138 98.2255L92.344 112.704L95.7497 115.928L101.697 112.448V97.6091L91.9138 98.2255Z" fill="#483C74"/>
<path d="M89.1213 80.6953L92.7325 81.8671L101.697 97.6089L95.7496 101.088L83.5344 85.3493L89.1213 80.6953Z" fill="#2E284F"/>
<path d="M80.0522 74.4506L74.1047 77.9327L76.1221 85.158L86.7841 85.3496L92.7326 81.8675L80.0522 74.4506Z" fill="#4F4280"/>
<path d="M86.784 85.3494L74.1046 77.9325L65.14 83.1751V98.0116L74.1046 113.753L86.7796 121.17L95.7497 115.928V101.088L86.784 85.3494Z" fill="#403568"/>
<path d="M87.9484 95.1599L83.192 89.162L77.6996 85.9519L72.9432 86.3824L70.1948 90.3421V96.7677L72.9432 103.94L77.6996 109.933L83.192 113.151L87.9484 112.718L90.6935 108.758V102.332L87.9484 95.1599Z" fill="#403568"/>
<path d="M83.1976 95.6321L87.9486 95.16L90.6937 102.333L90.8435 112.712L83.7275 100.558L83.1976 95.6321Z" fill="#2E284F"/>
<path d="M74.3977 83.8417L83.1919 89.1621L87.9483 95.16L84.8243 96.9872L75.4038 89.5675L74.3977 83.8417Z" fill="#4F4280"/>
<path d="M59.5756 82.0839L62.3519 76.7941L51.9242 77.7382L47.2045 80.4984L50.137 82.917L59.5756 82.0839Z" fill="#5D4C98"/>
<path d="M80.1044 138.25L84.8244 135.487L90.8433 126.807L84.8244 127.529L80.1044 138.25Z" fill="#2E284F"/>
<path d="M89.4137 112.445L90.8434 112.712V126.807L86.1258 129.567L84.9976 114.881L89.4137 112.445Z" fill="#403568"/>
<path d="M82.26 96.9371L84.8245 96.987L90.8435 112.712L86.1259 115.475L79.1541 99.7472L82.26 96.9371Z" fill="#4F4280"/>
<path d="M70.653 84.2832L74.3979 83.8417L84.8245 96.9871L80.1045 99.7473L68.0159 86.6019L70.653 84.2832Z" fill="#5D4C98"/>
<path d="M57.6311 79.5542L62.3519 76.7941L74.3978 83.8416L69.6789 86.6018L60.2789 85.7382L57.6311 79.5542Z" fill="#403568"/>
<path d="M80.1045 99.7471L69.679 86.6017L57.6312 79.5541L47.2045 80.4982L41.1831 89.1786V103.271L47.2045 118.999L57.6312 132.147L69.679 139.195L80.1045 138.25L86.1259 129.567V115.475L80.1045 99.7471Z" fill="#5B4B97"/>
<path d="M77.8301 101.08L70.2119 91.4748L61.4122 86.3238L53.7954 87.0152L49.3976 93.3574V103.654L53.7954 115.142L61.4122 124.744L70.2119 129.895L77.8301 129.206L82.229 122.864V112.567L77.8301 101.08Z" fill="#403568"/>
<path d="M75.712 102.319L70.9556 96.3234L65.4629 93.1106L60.7068 93.5411L57.9617 97.498V103.924L60.7068 111.099L65.4629 117.094L70.9556 120.31L75.712 119.879L78.4571 115.922V109.491L75.712 102.319Z" fill="#5D4C98"/>
<path d="M69.525 103.762L66.8931 102.221L65.0319 103.31V106.389L66.8931 109.658L69.525 111.193L71.3873 110.107V107.025L69.525 103.762Z" fill="#403568"/>
<path d="M53.6794 111.101V112.17L54.4403 112.54L54.6874 110.521L58.5641 102.235L58.7236 100.686L57.9616 100.313L53.6794 111.101Z" fill="#2E284F"/>
<path d="M54.4407 111.471V112.54L58.7239 101.755V100.686L54.4407 111.471Z" fill="#2E284F"/>
<path d="M57.3194 117.338L56.4021 116.802V116.089L59.0157 116.675L67.5992 117.863L68.6727 118.235V118.946L57.3194 117.338Z" fill="#2E284F"/>
<path d="M57.3194 116.625L56.4021 116.089L67.7545 117.697L68.6727 118.235L57.3194 116.625Z" fill="#2E284F"/>
<path d="M57.3194 110.613L56.4021 110.08V109.366L57.4243 108.763L67.243 95.9538L68.6727 94.9847V95.6956L57.3194 110.613Z" fill="#2E284F"/>
<path d="M57.3194 109.902L56.4021 109.366L67.7545 94.4462L68.6727 94.9849L57.3194 109.902Z" fill="#2E284F"/>
<path d="M59.2728 114.356V115.425L60.0348 115.869L64.1906 114.775L77.6963 112.931L78.4572 112.312L77.6963 111.865L59.2728 114.356Z" fill="#2E284F"/>
<path d="M60.0346 114.797L59.7316 115.292L60.0346 115.869L78.4603 113.381L78.457 112.312L60.0346 114.797Z" fill="#2E284F"/>
<path d="M57.5334 114.073L57.6222 117.08L58.3308 117.749L60.0347 116.749V113.67L57.5334 114.073Z" fill="#2E284F"/>
<path d="M56.956 110.432L58.1717 110.402L60.0351 113.67L58.3311 114.664L55.7946 111.401L56.956 110.432Z" fill="#3F3565"/>
<path d="M55.5411 108.863L53.835 109.86L54.2566 111.36L56.4699 111.401L58.1716 110.402L55.5411 108.863Z" fill="#2E284F"/>
<g filter="url(#filter1_d_128_314)">
<path d="M56.4698 111.401L53.8348 109.86L51.9769 110.949V114.031L53.8348 117.296L56.4668 118.835L58.331 117.749V114.664L56.4698 111.401Z" fill="url(#paint10_linear_128_314)"/>
</g>
<path d="M93.6219 79.2765L93.6271 79.7846L94.0672 80.0457L94.1839 79.8485L94.1957 79.4486L93.6219 79.2765Z" fill="#403568"/>
<path d="M94.7949 79.7291L94.7168 80.0457H94.0671V79.5458L94.203 79.432L94.7168 79.4569L94.7949 79.7291Z" fill="#403568"/>
<path d="M95.1739 79.2765V79.7846L94.7169 80.0457V79.5458L94.9427 79.1459L95.1739 79.2765Z" fill="#403568"/>
<path d="M94.7168 79.5458L95.1738 79.2764V78.9043L94.7168 78.6405H94.0672L93.6219 78.9043V79.2764L94.0672 79.5458H94.7168Z" fill="#5B4B97"/>
<path d="M93.8723 71.2709V79.2153L94.1817 79.3903L94.2575 79.2598V71.3819L93.8723 71.2709Z" fill="#403568"/>
<path d="M94.9235 71.2709V79.2153L94.612 79.3903L94.4142 75.6055L94.612 71.4458L94.717 71.2709H94.9235Z" fill="#403568"/>
<path d="M94.6119 79.3903H94.1818V71.4458L94.2598 71.3653L94.6119 71.3875V79.3903Z" fill="#403568"/>
<path d="M94.6118 70.8296H94.1817L93.8723 71.0184V71.2711L94.1817 71.446H94.6118L94.9233 71.2711V71.0184L94.6118 70.8296Z" fill="#5B4B97"/>
<path d="M94.019 13.2605V71.2015L94.2448 71.332L94.293 71.232V13.3354L94.019 13.2605Z" fill="#403568"/>
<path d="M94.5939 71.1654L94.5479 71.332H94.2449V13.3938L94.3027 13.3299L94.5479 13.3438L94.5939 71.1654Z" fill="#403568"/>
<path d="M94.7736 13.2605V71.2015L94.5479 71.332V13.3937L94.6547 13.191L94.7736 13.2605Z" fill="#403568"/>
<path d="M94.5479 12.9496H94.2448L94.019 13.0829V13.2606L94.2448 13.3939H94.5479L94.7736 13.2606V13.0829L94.5479 12.9496Z" fill="#5B4B97"/>
<path d="M93.8318 11.1445V14.1074L94.1644 14.299L94.248 14.1462L94.2543 11.2611L93.8318 11.1445Z" fill="#403568"/>
<path d="M94.686 14.0546L94.6312 14.299H94.1646V11.3361L94.2577 11.2445L94.6312 11.275L94.686 14.0546Z" fill="#403568"/>
<path d="M94.9578 11.1445V14.1074L94.6312 14.299V11.3361L94.7929 11.0473L94.9578 11.1445Z" fill="#403568"/>
<path d="M94.631 10.6754H94.1644L93.8318 10.8697V11.1447L94.1644 11.3363H94.631L94.9576 11.1447V10.8697L94.631 10.6754Z" fill="#5B4B97"/>
<path d="M118.26 58.4227L118.269 59.2669L119.002 59.7001L119.197 59.3696L119.213 58.7004L118.26 58.4227Z" fill="#403568"/>
<path d="M120.213 59.1725L120.08 59.7001H119.002V58.8698L119.228 58.6782L120.08 58.7198L120.213 59.1725Z" fill="#403568"/>
<path d="M120.842 58.4227V59.2669L120.08 59.7001V58.8698L120.454 58.2034L120.842 58.4227Z" fill="#403568"/>
<path d="M120.08 58.8698L120.842 58.4227V57.7951L120.08 57.3564H119.002L118.26 57.7951V58.4227L119.002 58.8698H120.08Z" fill="#5B4B97"/>
<path d="M118.678 52.5718V58.317L119.187 58.6113L119.316 58.3947V52.7606L118.678 52.5718Z" fill="#403568"/>
<path d="M120.423 52.5718V58.317L119.907 58.6113L119.574 52.3191L119.907 52.8716L120.08 52.5718H120.423Z" fill="#403568"/>
<path d="M119.906 58.6113H119.187V52.8716L119.323 52.7384L119.906 52.7745V58.6113Z" fill="#403568"/>
<path d="M119.907 51.8415H119.187L118.678 52.1581V52.5718L119.187 52.8717H119.907L120.422 52.5718V52.1581L119.907 51.8415Z" fill="#5B4B97"/>
<path d="M118.919 46.3769V52.4637L119.294 52.6775L119.381 52.5164V46.5074L118.919 46.3769Z" fill="#403568"/>
<path d="M119.872 52.4026L119.8 52.6775H119.294V46.5991L119.39 46.4991L119.8 46.5158L119.872 52.4026Z" fill="#403568"/>
<path d="M120.172 46.3769V52.4637L119.8 52.6775V46.5991L119.977 46.263L120.172 46.3769Z" fill="#403568"/>
<path d="M119.8 45.852H119.294L118.919 46.0825V46.3768L119.294 46.599H119.8L120.172 46.3768V46.0825L119.8 45.852Z" fill="#5B4B97"/>
<path d="M120.304 43.5333L120.41 47.1265L121.257 47.9261L121.909 47.543V43.8609L120.304 43.5333Z" fill="#2E284F"/>
<path d="M118.228 39.993L119.687 39.9541L121.909 43.8611L121.257 44.2416L118.226 40.3401L118.228 39.993Z" fill="#3F3565"/>
<path d="M116.537 38.1186L115.888 38.499L116.387 40.2928L119.033 40.3401L119.687 39.9541L116.537 38.1186Z" fill="#2E284F"/>
<path d="M119.033 40.3399L115.888 38.4988L113.662 39.8011V43.4804L115.888 47.3874L119.033 49.2257L121.257 47.9261V44.2413L119.033 40.3399Z" fill="#483C74"/>
<path d="M118.628 44.4301L118.726 47.8039L119.521 48.5564L120.148 48.1899V44.7327L118.628 44.4301Z" fill="#2E284F"/>
<path d="M116.678 41.1091L118.06 41.0675L120.148 44.7328L119.521 45.1022L116.676 41.4312L116.678 41.1091Z" fill="#3F3565"/>
<path d="M115.104 39.3377L114.482 39.707L114.948 41.3898L117.434 41.4314L118.06 41.0676L115.104 39.3377Z" fill="#2E284F"/>
<path d="M117.434 41.4312L114.481 39.7068L112.39 40.9286V44.3857L114.481 48.0484L117.434 49.7783L119.521 48.5565V45.1021L117.434 41.4312Z" fill="#483C74"/>
<path d="M116.95 45.3329L117.046 48.4846L117.788 49.1871L118.388 48.8345V45.6023L116.95 45.3329Z" fill="#2E284F"/>
<path d="M115.129 42.2282L116.435 42.1754L118.388 45.6021L117.789 45.9547L115.126 42.5253L115.129 42.2282Z" fill="#3F3565"/>
<path d="M113.671 40.5621L113.071 40.9119L113.512 42.4864L115.835 42.5253L116.435 42.1754L113.671 40.5621Z" fill="#2E284F"/>
<path d="M115.835 42.5254L113.071 40.912L111.122 42.0561V45.2855L113.071 48.7121L115.835 50.3282L117.788 49.1869V45.9548L115.835 42.5254Z" fill="#483C74"/>
<path d="M115.276 46.2324L115.362 49.1676L116.052 49.8201L116.623 49.4813V46.4768L115.276 46.2324Z" fill="#2E284F"/>
<path d="M113.58 43.3417L114.808 43.2862L116.623 46.4768L116.052 46.8101L113.576 43.6222L113.58 43.3417Z" fill="#3F3565"/>
<path d="M112.238 41.7842L111.665 42.1202L112.074 43.5864L114.236 43.6224L114.808 43.2865L112.238 41.7842Z" fill="#2E284F"/>
<path d="M114.236 43.6222L111.665 42.12L109.849 43.1835V46.188L111.665 49.3786L114.236 50.8809L116.051 49.8201V46.8101L114.236 43.6222Z" fill="#483C74"/>
<path d="M113.597 47.1293L113.68 49.8479L114.32 50.4476L114.862 50.1283V47.3459L113.597 47.1293Z" fill="#2E284F"/>
<path d="M112.029 44.4553L113.182 44.397L114.862 47.346L114.32 47.6681L112.029 44.7164V44.4553Z" fill="#3F3565"/>
<path d="M110.806 43.0057L110.259 43.3279L110.639 44.6802L112.637 44.7163L113.182 44.3969L110.806 43.0057Z" fill="#2E284F"/>
<path d="M112.637 44.7164L110.259 43.328L108.579 44.311V47.0905L110.259 50.0423L112.635 51.4335L114.32 50.4477V47.6681L112.637 44.7164Z" fill="#483C74"/>
<path d="M111.919 48.0287L111.995 50.5251L112.583 51.0804L113.102 50.7777V48.2203L111.919 48.0287Z" fill="#2E284F"/>
<path d="M110.48 45.5714L111.559 45.5048L113.102 48.2205L112.583 48.5232L110.477 45.8158L110.48 45.5714Z" fill="#3F3565"/>
<path d="M109.373 44.2304L108.853 44.5358L109.198 45.7798L111.036 45.8159L111.559 45.5049L109.373 44.2304Z" fill="#2E284F"/>
<path d="M111.036 45.8159L108.853 44.5357L107.31 45.4382V47.9956L108.853 50.703L111.036 51.9832L112.583 51.0807V48.5233L111.036 45.8159Z" fill="#483C74"/>
<path d="M110.244 48.9315L110.312 51.2029L110.847 51.7139L111.341 51.4223V49.0898L110.244 48.9315Z" fill="#2E284F"/>
<path d="M108.93 46.688L109.933 46.6214L111.341 49.09L110.847 49.3788L108.927 46.9074L108.93 46.688Z" fill="#3F3565"/>
<path d="M107.94 45.4548L107.448 45.7409L107.762 46.8766L109.44 46.9071L109.933 46.6211L107.94 45.4548Z" fill="#2E284F"/>
<path d="M109.44 46.9072L107.448 45.7409L106.038 46.5656V48.8953L107.448 51.3695L109.437 52.5358L110.847 51.7138V49.3786L109.44 46.9072Z" fill="#483C74"/>
<path d="M108.57 49.8312L108.629 51.886L109.113 52.3414L109.579 52.0693V49.9617L108.57 49.8312Z" fill="#2E284F"/>
<path d="M107.38 47.8041L108.306 47.7291L109.578 49.9617L109.113 50.2366L107.38 48.0012V47.8041Z" fill="#3F3565"/>
<path d="M106.504 46.674L106.041 46.9517L106.326 47.9764L107.841 48.0013L108.306 47.7292L106.504 46.674Z" fill="#2E284F"/>
<path d="M107.841 48.0012L106.041 46.9516L104.767 47.693V49.8006L106.041 52.0332L107.839 53.0884L109.113 52.3414V50.2366L107.841 48.0012Z" fill="#483C74"/>
<path d="M106.891 50.7279L106.946 52.5662L107.378 52.9744L107.818 52.7161V50.8335L106.891 50.7279Z" fill="#2E284F"/>
<path d="M105.829 48.9204L106.68 48.8399L107.818 50.8337L107.378 51.0919L105.829 49.0954V48.9204Z" fill="#3F3565"/>
<path d="M105.073 47.8984L104.632 48.1538L104.89 49.0702L106.241 49.0952L106.68 48.8397L105.073 47.8984Z" fill="#2E284F"/>
<path d="M106.24 49.0955L104.632 48.1541L103.498 48.8234V50.7004L104.632 52.697L106.24 53.6383L107.378 52.9746V51.092L106.24 49.0955Z" fill="#483C74"/>
<path d="M105.215 51.6278L105.262 53.2439L105.644 53.6049L106.057 53.3633V51.7055L105.215 51.6278Z" fill="#2E284F"/>
<path d="M104.28 50.0367L105.053 49.9506L106.057 51.7056L105.644 51.95L104.28 50.1922V50.0367Z" fill="#3F3565"/>
<path d="M103.638 49.123L103.227 49.3647L103.452 50.1699L104.641 50.1921L105.054 49.9505L103.638 49.123Z" fill="#2E284F"/>
<path d="M104.642 50.1921L103.227 49.3646L102.227 49.9505V51.6055L103.227 53.3632L104.642 54.1907L105.644 53.6048V51.9498L104.642 50.1921Z" fill="#483C74"/>
<defs>
<filter id="filter0_d_128_314" x="0" y="0.641113" width="22.6392" height="54.8533" filterUnits="userSpaceOnUse" color-interpolation-filters="sRGB">
<feFlood flood-opacity="0" result="BackgroundImageFix"/>
<feColorMatrix in="SourceAlpha" type="matrix" values="0 0 0 0 0 0 0 0 0 0 0 0 0 0 0 0 0 0 127 0" result="hardAlpha"/>
<feOffset/>
<feGaussianBlur stdDeviation="2"/>
<feComposite in2="hardAlpha" operator="out"/>
<feColorMatrix type="matrix" values="0 0 0 0 0 0 0 0 0 0 0 0 0 0 0 0 0 0 0.25 0"/>
<feBlend mode="normal" in2="BackgroundImageFix" result="effect1_dropShadow_128_314"/>
<feBlend mode="normal" in="SourceGraphic" in2="effect1_dropShadow_128_314" result="shape"/>
</filter>
<filter id="filter1_d_128_314" x="41.9769" y="99.8602" width="26.354" height="28.9746" filterUnits="userSpaceOnUse" color-interpolation-filters="sRGB">
<feFlood flood-opacity="0" result="BackgroundImageFix"/>
<feColorMatrix in="SourceAlpha" type="matrix" values="0 0 0 0 0 0 0 0 0 0 0 0 0 0 0 0 0 0 127 0" result="hardAlpha"/>
<feOffset/>
<feGaussianBlur stdDeviation="5"/>
<feComposite in2="hardAlpha" operator="out"/>
<feColorMatrix type="matrix" values="0 0 0 0 0.929412 0 0 0 0 0.556863 0 0 0 0 0.45098 0 0 0 1 0"/>
<feBlend mode="normal" in2="BackgroundImageFix" result="effect1_dropShadow_128_314"/>
<feBlend mode="normal" in="SourceGraphic" in2="effect1_dropShadow_128_314" result="shape"/>
</filter>
<linearGradient id="paint0_linear_128_314" x1="11.3196" y1="51.4944" x2="11.3196" y2="4.64117" gradientUnits="userSpaceOnUse">
<stop stop-color="#DB408E"/>
<stop offset="1" stop-color="#FFDC57"/>
</linearGradient>
<linearGradient id="paint1_linear_128_314" x1="26.8089" y1="60.5581" x2="26.8089" y2="13.7021" gradientUnits="userSpaceOnUse">
<stop stop-color="#DB408E"/>
<stop offset="1" stop-color="#FFDC57"/>
</linearGradient>
<linearGradient id="paint2_linear_128_314" x1="42.2965" y1="69.6216" x2="42.2965" y2="22.7656" gradientUnits="userSpaceOnUse">
<stop stop-color="#DB408E"/>
<stop offset="1" stop-color="#FFDC57"/>
</linearGradient>
<linearGradient id="paint3_linear_128_314" x1="57.7824" y1="78.6821" x2="57.7824" y2="31.8289" gradientUnits="userSpaceOnUse">
<stop stop-color="#DB408E"/>
<stop offset="1" stop-color="#FFDC57"/>
</linearGradient>
<linearGradient id="paint4_linear_128_314" x1="73.2709" y1="87.7458" x2="73.2709" y2="40.8899" gradientUnits="userSpaceOnUse">
<stop stop-color="#DB408E"/>
<stop offset="1" stop-color="#FFDC57"/>
</linearGradient>
<linearGradient id="paint5_linear_128_314" x1="141.634" y1="127.746" x2="141.634" y2="80.8926" gradientUnits="userSpaceOnUse">
<stop stop-color="#DB408E"/>
<stop offset="1" stop-color="#FFDC57"/>
</linearGradient>
<linearGradient id="paint6_linear_128_314" x1="157.121" y1="136.812" x2="157.121" y2="89.9559" gradientUnits="userSpaceOnUse">
<stop stop-color="#DB408E"/>
<stop offset="1" stop-color="#FFDC57"/>
</linearGradient>
<linearGradient id="paint7_linear_128_314" x1="172.609" y1="145.875" x2="172.609" y2="99.0194" gradientUnits="userSpaceOnUse">
<stop stop-color="#DB408E"/>
<stop offset="1" stop-color="#FFDC57"/>
</linearGradient>
<linearGradient id="paint8_linear_128_314" x1="188.095" y1="154.934" x2="188.095" y2="108.08" gradientUnits="userSpaceOnUse">
<stop stop-color="#DB408E"/>
<stop offset="1" stop-color="#FFDC57"/>
</linearGradient>
<linearGradient id="paint9_linear_128_314" x1="203.584" y1="164" x2="203.584" y2="117.144" gradientUnits="userSpaceOnUse">
<stop stop-color="#DB408E"/>
<stop offset="1" stop-color="#FFDC57"/>
</linearGradient>
<linearGradient id="paint10_linear_128_314" x1="55.154" y1="109.86" x2="55.154" y2="118.835" gradientUnits="userSpaceOnUse">
<stop stop-color="#FFDC57"/>
<stop offset="1" stop-color="#DB408E"/>
</linearGradient>
</defs>
</svg>
