<svg width="60" height="60" viewBox="0 0 60 60" fill="none" xmlns="http://www.w3.org/2000/svg">
<path d="M12.5999 37.7749C12.5999 41.1851 9.76121 43.9765 6.29324 43.9765C2.82526 43.9765 0 41.1851 0 37.7749C0 34.3648 2.83865 31.5734 6.30663 31.5734H12.6133V37.7749H12.5999ZM15.7733 37.7749C15.7733 34.3648 18.6119 31.5734 22.0799 31.5734C25.5479 31.5734 28.3865 34.3648 28.3865 37.7749V53.2853C28.3865 56.6955 25.5479 59.4868 22.0799 59.4868C18.6119 59.4868 15.7733 56.6955 15.7733 53.2853V37.7749ZM22.0799 12.8899C18.6119 12.8899 15.7733 10.0985 15.7733 6.68835C15.7733 3.27817 18.6119 0.5 22.0799 0.5C25.5479 0.5 28.3865 3.29134 28.3865 6.70152V12.903H22.0799V12.8899ZM22.0799 16.0104C25.5479 16.0104 28.3865 18.8017 28.3865 22.2119C28.3865 25.6221 25.5479 28.4134 22.0799 28.4134H6.30663C2.83865 28.4134 0 25.6221 0 22.2119C0 18.8017 2.83865 16.0104 6.30663 16.0104H22.0799ZM47.3867 22.2119C47.3867 18.8017 50.2254 16.0104 53.6934 16.0104C57.1613 16.0104 60 18.8017 60 22.2119C60 25.6221 57.1613 28.4134 53.6934 28.4134H47.3867V22.2119ZM44.2133 22.2119C44.2133 25.6221 41.3747 28.4134 37.9067 28.4134C34.4387 28.4134 31.6001 25.6221 31.6001 22.2119V6.70152C31.6001 3.29134 34.4387 0.5 37.9067 0.5C41.3747 0.5 44.2133 3.29134 44.2133 6.70152V22.2119ZM37.9067 47.097C41.3747 47.097 44.2133 49.8883 44.2133 53.2985C44.2133 56.7087 41.3747 59.5 37.9067 59.5C34.4387 59.5 31.6001 56.7087 31.6001 53.2985V47.097H37.9067ZM37.9067 43.9765C34.4387 43.9765 31.6001 41.1851 31.6001 37.7749C31.6001 34.3648 34.4387 31.5734 37.9067 31.5734H53.68C57.148 31.5734 59.9866 34.3648 59.9866 37.7749C59.9866 41.1851 57.148 43.9765 53.68 43.9765H37.9067Z" fill="url(#paint0_linear_50_82)"/>
<defs>
<linearGradient id="paint0_linear_50_82" x1="30" y1="0.5" x2="30" y2="59.5" gradientUnits="userSpaceOnUse">
<stop stop-color="#FFDC57"/>
<stop offset="1" stop-color="#DB408E"/>
</linearGradient>
</defs>
</svg>
