<svg width="184" height="177" viewBox="0 0 184 177" fill="none" xmlns="http://www.w3.org/2000/svg">
<path d="M146.383 164.932C140.334 169.445 133.707 173.226 126.634 176.148H56.7749C49.7021 173.226 43.075 169.445 37.0259 164.932H146.383ZM164.649 146.815C161.857 150.493 158.794 153.954 155.488 157.167H27.9214C24.6154 153.954 21.552 150.493 18.7603 146.815H164.649ZM174.573 130.422C173.035 133.696 171.309 136.864 169.408 139.912H14.0015C12.1003 136.864 10.3746 133.696 8.83643 130.422H174.573ZM179.978 115.755C179.175 118.693 178.229 121.571 177.148 124.383H6.26123C5.1805 121.571 4.23406 118.693 3.43115 115.755H179.978ZM182.521 102.815C182.2 105.439 181.768 108.029 181.229 110.579H2.18018C1.64149 108.029 1.20929 105.439 0.888184 102.815H182.521ZM183.205 91.5989C183.205 93.9206 183.118 96.2221 182.948 98.5003H0.461426C0.320245 96.6091 0.23675 94.702 0.212402 92.7805L0.20459 91.5989H183.205ZM182.717 82.1087C182.923 84.1034 183.065 86.1171 183.14 88.1477H0.269043C0.34442 86.1171 0.486124 84.1034 0.691895 82.1087H182.717ZM181.578 74.344C181.904 76.0528 182.182 77.7787 182.412 79.5198H0.997559C1.22743 77.7787 1.50508 76.0528 1.83154 74.344H181.578ZM91.7046 0.147736C135.727 0.147736 172.486 31.2203 181.229 72.6184H2.18018C10.923 31.2203 47.6821 0.147736 91.7046 0.147736Z" fill="url(#paint0_linear_92_109)"/>
<defs>
<linearGradient id="paint0_linear_92_109" x1="91.7046" y1="0.147736" x2="91.7046" y2="183.05" gradientUnits="userSpaceOnUse">
<stop stop-color="#FFDC57"/>
<stop offset="1" stop-color="#DB408E"/>
</linearGradient>
</defs>
</svg>
