<svg width="60" height="60" viewBox="0 0 60 60" fill="none" xmlns="http://www.w3.org/2000/svg">
<path d="M53.3222 0H6.6778C3.00501 0 0 3 0 6.66667V53.3333C0 57 3.00501 60 6.6778 60H53.3222C56.995 60 60 57 60 53.3333V6.66667C60 4.89856 59.2965 3.20286 58.0441 1.95262C56.7918 0.702379 55.0933 0 53.3222 0ZM48.0134 46.6C47.9132 46.6333 47.7796 46.6667 47.6795 46.6667H40.1336C39.8068 46.6722 39.4858 46.5799 39.2121 46.4017C38.9383 46.2234 38.7243 45.9674 38.5977 45.6667L30.384 26.5333C30.3172 26.3333 30.1169 26.2333 29.9499 26.3C29.8966 26.3201 29.8481 26.3512 29.8078 26.3915C29.7675 26.4317 29.7363 26.4801 29.7162 26.5333L24.6077 38.7C24.5075 38.9333 24.6077 39.1667 24.8414 39.2667C24.9082 39.3 24.9416 39.3 25.0083 39.3H30.6177C30.9516 39.3 31.2855 39.5 31.419 39.8333L33.8898 45.3C34.1235 45.8 33.8564 46.4 33.3556 46.6333C33.1553 46.6333 33.0217 46.6667 32.8881 46.6667H12.4541C11.9533 46.6667 11.5192 46.2333 11.5192 45.7333C11.5192 45.6 11.5526 45.5 11.586 45.3667L24.6077 14.4333C24.8748 13.7667 25.5426 13.3333 26.2437 13.3333H33.7563C34.4908 13.3333 35.1252 13.7667 35.3923 14.4333L48.4808 45.3667C48.7145 45.8333 48.5142 46.4 48.0134 46.6Z" fill="url(#paint0_linear_50_92)"/>
<defs>
<linearGradient id="paint0_linear_50_92" x1="30" y1="0" x2="30" y2="60" gradientUnits="userSpaceOnUse">
<stop stop-color="#FFDC57"/>
<stop offset="1" stop-color="#DB408E"/>
</linearGradient>
</defs>
</svg>
