<svg width="60" height="87" viewBox="0 0 60 87" fill="none" xmlns="http://www.w3.org/2000/svg">
<path d="M0 16.5914C0 7.70586 7.23034 0.5 16.1461 0.5H43.8539C52.7697 0.5 60 7.70586 60 16.5914C60 22.2184 57.1011 27.1734 52.7023 30.0457C57.1011 32.918 60 37.873 60 43.5C60 52.3855 52.7697 59.5914 43.8539 59.5914H43.5C39.3202 59.5914 35.5112 58.0125 32.6461 55.409V70.2406C32.6461 79.2438 25.2303 86.5 16.2303 86.5C7.33146 86.5 0 79.3109 0 70.4086C0 64.7816 2.89888 59.8266 7.2809 56.9543C2.89888 54.082 0 49.127 0 43.5C0 37.873 2.89888 32.918 7.2809 30.0457C2.89888 27.1734 0 22.2184 0 16.5914ZM27.3539 32.6828H16.1461C10.1461 32.6828 5.29214 37.5203 5.29214 43.5C5.29214 49.4461 10.1124 54.2836 16.0787 54.3172C16.0955 54.3172 16.1292 54.3172 16.1461 54.3172H27.3539V32.6828ZM32.6461 43.5C32.6461 49.4797 37.5 54.3172 43.5 54.3172H43.8539C49.8371 54.3172 54.7079 49.4797 54.7079 43.5C54.7079 37.5203 49.8371 32.6828 43.8539 32.6828H43.5C37.5 32.6828 32.6461 37.5203 32.6461 43.5ZM16.1461 59.5914C16.1292 59.5914 16.0955 59.5914 16.0787 59.5914C10.1124 59.625 5.29214 64.4625 5.29214 70.4086C5.29214 76.3715 10.2135 81.2258 16.2303 81.2258C22.3483 81.2258 27.3539 76.2875 27.3539 70.2406V59.5914H16.1461ZM16.1461 5.77422C10.1461 5.77422 5.29214 10.6117 5.29214 16.5914C5.29214 22.5711 10.1461 27.4086 16.1461 27.4086H27.3539V5.77422H16.1461ZM32.6461 27.4086H43.8539C49.8371 27.4086 54.7079 22.5711 54.7079 16.5914C54.7079 10.6117 49.8371 5.77422 43.8539 5.77422H32.6461V27.4086Z" fill="url(#paint0_linear_50_79)"/>
<defs>
<linearGradient id="paint0_linear_50_79" x1="30" y1="0.5" x2="30" y2="86.5" gradientUnits="userSpaceOnUse">
<stop stop-color="#FFDC57"/>
<stop offset="1" stop-color="#DB408E"/>
</linearGradient>
</defs>
</svg>
