<svg width="351" height="208" viewBox="0 0 351 208" fill="none" xmlns="http://www.w3.org/2000/svg">
<rect x="3.46418" width="245.675" height="79.2249" rx="38" transform="matrix(0.866044 -0.499967 0.866044 0.499967 32.6401 167.491)" fill="#372D5A" stroke="#372D5A" stroke-width="4"/>
<g filter="url(#filter0_n_349_209)">
<rect width="249.675" height="83.2249" rx="40" transform="matrix(0.866044 -0.499967 0.866044 0.499967 25.3934 133.152)" fill="#5B4B97"/>
<rect x="3.46418" width="245.675" height="79.2249" rx="38" transform="matrix(0.866044 -0.499967 0.866044 0.499967 25.8575 134.884)" stroke="url(#paint0_linear_349_209)" stroke-width="4"/>
</g>
<line y1="-2" x2="89.5634" y2="-2" transform="matrix(1.18701 0.174219 -0.301782 0.685261 63.2336 115.469)" stroke="#DB408E" stroke-width="4"/>
<line y1="-2" x2="89.5634" y2="-2" transform="matrix(1.18701 0.174219 -0.301782 0.685261 70.441 111.307)" stroke="#DB408E" stroke-width="4"/>
<line y1="-1" x2="89.5634" y2="-1" transform="matrix(1.18701 0.174219 -0.301782 0.685261 74.0448 109.227)" stroke="#FEFEFA" stroke-width="2"/>
<line y1="-1" x2="89.5634" y2="-1" transform="matrix(1.18701 0.174219 -0.301782 0.685261 61.4316 116.509)" stroke="#FEFEFA" stroke-width="2"/>
<path d="M75.8469 158.118L60.5308 114.948C52.134 120.268 49.504 124.859 48.8183 136.273C54.0531 147.583 60.0159 152.296 75.8469 158.118Z" fill="#FFDC57" stroke="#FEFEFA" stroke-width="2"/>
<line y1="-2" x2="89.5634" y2="-2" transform="matrix(1.18701 0.174219 -0.301782 0.685261 171.348 53.0541)" stroke="#DB408E" stroke-width="4"/>
<line y1="-2" x2="89.5634" y2="-2" transform="matrix(1.18701 0.174219 -0.301782 0.685261 178.556 48.8929)" stroke="#DB408E" stroke-width="4"/>
<path d="M181.259 46.2924L287.571 61.896" stroke="#FEFEFA" stroke-width="2"/>
<path d="M285.77 61.8959L262.345 24.4471C275.205 28.909 280.837 32.2637 287.572 40.0508C291.801 49.4815 291.094 54.2045 285.77 61.8959Z" fill="#FFDC57" stroke="#FEFEFA" stroke-width="2"/>
<line y1="-1" x2="89.5634" y2="-1" transform="matrix(1.18701 0.174219 -0.301782 0.685261 169.546 54.094)" stroke="#FEFEFA" stroke-width="2"/>
<line y1="-1" x2="105.969" y2="-1" transform="matrix(-0.0340084 -0.706788 1.2243 -0.019633 133.508 151.877)" stroke="#00D4AA" stroke-width="2"/>
<line y1="-1" x2="80.9306" y2="-1" transform="matrix(-1.09098 -0.321338 0.556622 -0.629823 218.198 102.986)" stroke="#00D4AA" stroke-width="2"/>
<path d="M216.951 103.137L202.341 63.6645" stroke="#00D4AA" stroke-width="2"/>
<path d="M290.583 51.687L201.981 64.4966" stroke="#00D4AA" stroke-width="2"/>
<line y1="-1" x2="71.6532" y2="-1" transform="matrix(-1.15679 -0.232284 0.402363 -0.667817 133.508 151.877)" stroke="#00D4AA" stroke-width="2"/>
<g filter="url(#filter1_d_349_209)">
<path d="M259.641 37.4504C269.593 43.1955 269.593 52.5101 259.641 58.2552C249.69 64.0003 233.555 64.0003 223.603 58.2552C213.652 52.5101 213.652 43.1955 223.603 37.4504C233.555 31.7053 249.69 31.7053 259.641 37.4504Z" fill="#00D4AA"/>
</g>
<path d="M224.959 39.1023L259.36 55.6662" stroke="#ED8E73" stroke-width="4" stroke-linecap="round"/>
<g filter="url(#filter2_d_349_209)">
<rect x="3.46418" width="245.675" height="79.2249" rx="38" transform="matrix(0.866044 -0.499967 0.866044 0.499967 25.8575 134.884)" stroke="url(#paint1_linear_349_209)" stroke-width="4"/>
</g>
<defs>
<filter id="filter0_n_349_209" x="45.6862" y="20.0383" width="247.72" height="143.009" filterUnits="userSpaceOnUse" color-interpolation-filters="sRGB">
<feFlood flood-opacity="0" result="BackgroundImageFix"/>
<feBlend mode="normal" in="SourceGraphic" in2="BackgroundImageFix" result="shape"/>
<feTurbulence type="fractalNoise" baseFrequency="0.5 0.5" stitchTiles="stitch" numOctaves="3" result="noise" seed="121" />
<feColorMatrix in="noise" type="luminanceToAlpha" result="alphaNoise" />
<feComponentTransfer in="alphaNoise" result="coloredNoise1">
<feFuncA type="discrete" tableValues="1 1 1 1 1 1 1 1 1 1 1 1 1 1 1 1 1 1 1 1 1 1 1 1 1 1 1 1 1 1 1 1 1 1 1 1 1 1 1 1 1 1 1 1 1 1 1 1 1 1 1 0 0 0 0 0 0 0 0 0 0 0 0 0 0 0 0 0 0 0 0 0 0 0 0 0 0 0 0 0 0 0 0 0 0 0 0 0 0 0 0 0 0 0 0 0 0 0 0 0 "/>
</feComponentTransfer>
<feComposite operator="in" in2="shape" in="coloredNoise1" result="noise1Clipped" />
<feFlood flood-color="#DB408E" result="color1Flood" />
<feComposite operator="in" in2="noise1Clipped" in="color1Flood" result="color1" />
<feMerge result="effect1_noise_349_209">
<feMergeNode in="shape" />
<feMergeNode in="color1" />
</feMerge>
</filter>
<filter id="filter1_d_349_209" x="196.139" y="13.1415" width="90.9658" height="69.4226" filterUnits="userSpaceOnUse" color-interpolation-filters="sRGB">
<feFlood flood-opacity="0" result="BackgroundImageFix"/>
<feColorMatrix in="SourceAlpha" type="matrix" values="0 0 0 0 0 0 0 0 0 0 0 0 0 0 0 0 0 0 127 0" result="hardAlpha"/>
<feOffset/>
<feGaussianBlur stdDeviation="10"/>
<feComposite in2="hardAlpha" operator="out"/>
<feColorMatrix type="matrix" values="0 0 0 0 0 0 0 0 0 0 0 0 0 0 0 0 0 0 0.5 0"/>
<feBlend mode="normal" in2="BackgroundImageFix" result="effect1_dropShadow_349_209"/>
<feBlend mode="normal" in="SourceGraphic" in2="effect1_dropShadow_349_209" result="shape"/>
</filter>
<filter id="filter2_d_349_209" x="25.6862" y="0.0383301" width="287.72" height="183.009" filterUnits="userSpaceOnUse" color-interpolation-filters="sRGB">
<feFlood flood-opacity="0" result="BackgroundImageFix"/>
<feColorMatrix in="SourceAlpha" type="matrix" values="0 0 0 0 0 0 0 0 0 0 0 0 0 0 0 0 0 0 127 0" result="hardAlpha"/>
<feOffset/>
<feGaussianBlur stdDeviation="10"/>
<feColorMatrix type="matrix" values="0 0 0 0 0.929412 0 0 0 0 0.556863 0 0 0 0 0.45098 0 0 0 1 0"/>
<feBlend mode="normal" in2="BackgroundImageFix" result="effect1_dropShadow_349_209"/>
<feBlend mode="normal" in="SourceGraphic" in2="effect1_dropShadow_349_209" result="shape"/>
</filter>
<linearGradient id="paint0_linear_349_209" x1="249.675" y1="41.6124" x2="1.1368e-06" y2="41.6124" gradientUnits="userSpaceOnUse">
<stop stop-color="#FFDC57"/>
<stop offset="1" stop-color="#DB408E"/>
</linearGradient>
<linearGradient id="paint1_linear_349_209" x1="249.675" y1="41.6124" x2="1.1368e-06" y2="41.6124" gradientUnits="userSpaceOnUse">
<stop stop-color="#FFDC57"/>
<stop offset="1" stop-color="#DB408E"/>
</linearGradient>
</defs>
</svg>
